<svg width="757" height="941" viewBox="0 0 757 941" fill="none" xmlns="http://www.w3.org/2000/svg">
<path d="M378 187L383.774 177L372.226 177L378 187ZM377 158L377 178L379 178L379 158L377 158Z" fill="white"/>
<path d="M378 281L383.774 271L372.226 271L378 281ZM377 252L377 272L379 272L379 252L377 252Z" fill="white"/>
<path d="M378 846L383.774 836L372.226 836L378 846ZM377 817L377 837L379 837L379 817L377 817Z" fill="white"/>
<path d="M494.5 128L499.5 130.887L499.5 125.113L494.5 128ZM708 128L708.5 128L708.5 127.5L708 127.5L708 128ZM708 882L708 882.5L708.5 882.5L708.5 882L708 882ZM492 882.5L495.857 882.5L495.857 881.5L492 881.5L492 882.5ZM503.571 882.5L511.286 882.5L511.286 881.5L503.571 881.5L503.571 882.5ZM519 882.5L526.714 882.5L526.714 881.5L519 881.5L519 882.5ZM534.429 882.5L542.143 882.5L542.143 881.5L534.429 881.5L534.429 882.5ZM549.857 882.5L557.571 882.5L557.571 881.5L549.857 881.5L549.857 882.5ZM565.286 882.5L573 882.5L573 881.5L565.286 881.5L565.286 882.5ZM580.714 882.5L588.429 882.5L588.429 881.5L580.714 881.5L580.714 882.5ZM596.143 882.5L603.857 882.5L603.857 881.5L596.143 881.5L596.143 882.5ZM611.571 882.5L619.286 882.5L619.286 881.5L611.571 881.5L611.571 882.5ZM627 882.5L634.714 882.5L634.714 881.5L627 881.5L627 882.5ZM642.429 882.5L650.143 882.5L650.143 881.5L642.429 881.5L642.429 882.5ZM657.857 882.5L665.571 882.5L665.571 881.5L657.857 881.5L657.857 882.5ZM673.286 882.5L681 882.5L681 881.5L673.286 881.5L673.286 882.5ZM688.714 882.5L696.429 882.5L696.429 881.5L688.714 881.5L688.714 882.5ZM704.143 882.5L708 882.5L708 881.5L704.143 881.5L704.143 882.5ZM708.5 882L708.5 877.989L707.5 877.989L707.5 882L708.5 882ZM708.5 869.968L708.5 861.947L707.5 861.947L707.5 869.968L708.5 869.968ZM708.5 853.926L708.5 845.904L707.5 845.904L707.5 853.926L708.5 853.926ZM708.5 837.883L708.5 829.862L707.5 829.862L707.5 837.883L708.5 837.883ZM708.5 821.84L708.5 813.819L707.5 813.819L707.5 821.84L708.5 821.84ZM708.5 805.798L708.5 797.777L707.5 797.777L707.5 805.798L708.5 805.798ZM708.5 789.755L708.5 781.734L707.5 781.734L707.5 789.755L708.5 789.755ZM708.5 773.713L708.5 765.691L707.5 765.691L707.5 773.713L708.5 773.713ZM708.5 757.67L708.5 749.649L707.5 749.649L707.5 757.67L708.5 757.67ZM708.5 741.628L708.5 733.606L707.5 733.606L707.5 741.628L708.5 741.628ZM708.5 725.585L708.5 717.564L707.5 717.564L707.5 725.585L708.5 725.585ZM708.5 709.543L708.5 701.521L707.5 701.521L707.5 709.543L708.5 709.543ZM708.5 693.5L708.5 685.479L707.5 685.479L707.5 693.5L708.5 693.5ZM708.5 677.457L708.5 669.436L707.5 669.436L707.5 677.457L708.5 677.457ZM708.5 661.415L708.5 653.394L707.5 653.394L707.5 661.415L708.5 661.415ZM708.5 645.372L708.5 637.351L707.5 637.351L707.5 645.372L708.5 645.372ZM708.5 629.33L708.5 621.309L707.5 621.309L707.5 629.33L708.5 629.33ZM708.5 613.287L708.5 605.266L707.5 605.266L707.5 613.287L708.5 613.287ZM708.5 597.245L708.5 589.224L707.5 589.224L707.5 597.245L708.5 597.245ZM708.5 581.202L708.5 573.181L707.5 573.181L707.5 581.202L708.5 581.202ZM708.5 565.16L708.5 557.138L707.5 557.138L707.5 565.16L708.5 565.16ZM708.5 549.117L708.5 541.096L707.5 541.096L707.5 549.117L708.5 549.117ZM708.5 533.075L708.5 525.053L707.5 525.053L707.5 533.075L708.5 533.075ZM708.5 517.032L708.5 509.011L707.5 509.011L707.5 517.032L708.5 517.032ZM708.5 500.99L708.5 492.968L707.5 492.968L707.5 500.99L708.5 500.99ZM708.5 484.947L708.5 476.926L707.5 476.926L707.5 484.947L708.5 484.947ZM708.5 468.904L708.5 460.883L707.5 460.883L707.5 468.904L708.5 468.904ZM708.5 452.862L708.5 444.841L707.5 444.841L707.5 452.862L708.5 452.862ZM708.5 436.819L708.5 428.798L707.5 428.798L707.5 436.819L708.5 436.819ZM708.5 420.777L708.5 412.756L707.5 412.756L707.5 420.777L708.5 420.777ZM708.5 404.734L708.5 396.713L707.5 396.713L707.5 404.734L708.5 404.734ZM708.5 388.692L708.5 380.67L707.5 380.67L707.5 388.692L708.5 388.692ZM708.5 372.649L708.5 364.628L707.5 364.628L707.5 372.649L708.5 372.649ZM708.5 356.607L708.5 348.585L707.5 348.585L707.5 356.607L708.5 356.607ZM708.5 340.564L708.5 332.543L707.5 332.543L707.5 340.564L708.5 340.564ZM708.5 324.521L708.5 316.5L707.5 316.5L707.5 324.521L708.5 324.521ZM708.5 308.479L708.5 300.458L707.5 300.458L707.5 308.479L708.5 308.479ZM708.5 292.436L708.5 284.415L707.5 284.415L707.5 292.436L708.5 292.436ZM708.5 276.394L708.5 268.372L707.5 268.372L707.5 276.394L708.5 276.394ZM708.5 260.351L708.5 252.33L707.5 252.33L707.5 260.351L708.5 260.351ZM708.5 244.308L708.5 236.287L707.5 236.287L707.5 244.308L708.5 244.308ZM708.5 228.266L708.5 220.245L707.5 220.245L707.5 228.266L708.5 228.266ZM708.5 212.223L708.5 204.202L707.5 204.202L707.5 212.223L708.5 212.223ZM708.5 196.181L708.5 188.159L707.5 188.159L707.5 196.181L708.5 196.181ZM708.5 180.138L708.5 172.117L707.5 172.117L707.5 180.138L708.5 180.138ZM708.5 164.095L708.5 156.074L707.5 156.074L707.5 164.095L708.5 164.095ZM708.5 148.053L708.5 140.031L707.5 140.031L707.5 148.053L708.5 148.053ZM708.5 132.01L708.5 128L707.5 128L707.5 132.01L708.5 132.01ZM708 127.5L703.894 127.5L703.894 128.5L708 128.5L708 127.5ZM695.683 127.5L687.471 127.5L687.471 128.5L695.683 128.5L695.683 127.5ZM679.26 127.5L671.048 127.5L671.048 128.5L679.26 128.5L679.26 127.5ZM662.837 127.5L654.625 127.5L654.625 128.5L662.837 128.5L662.837 127.5ZM646.413 127.5L638.202 127.5L638.202 128.5L646.413 128.5L646.413 127.5ZM629.99 127.5L621.779 127.5L621.779 128.5L629.99 128.5L629.99 127.5ZM613.567 127.5L605.356 127.5L605.356 128.5L613.567 128.5L613.567 127.5ZM597.144 127.5L588.933 127.5L588.933 128.5L597.144 128.5L597.144 127.5ZM580.721 127.5L572.51 127.5L572.51 128.5L580.721 128.5L580.721 127.5ZM564.298 127.5L556.087 127.5L556.087 128.5L564.298 128.5L564.298 127.5ZM547.875 127.5L539.663 127.5L539.663 128.5L547.875 128.5L547.875 127.5ZM531.452 127.5L523.24 127.5L523.24 128.5L531.452 128.5L531.452 127.5ZM515.029 127.5L506.817 127.5L506.817 128.5L515.029 128.5L515.029 127.5Z" fill="#8BB3F7"/>
<path d="M192 750L197.774 740L186.226 740L192 750ZM191 706L191 741L193 741L193 706L191 706Z" fill="white"/>
<path d="M192 424L197.774 414H186.226L192 424ZM191 317V415H193V317H191Z" fill="white"/>
<path d="M519.5 423.5L525.274 413.5L513.726 413.5L519.5 423.5ZM518.5 317L518.5 414.5L520.5 414.5L520.5 317L518.5 317Z" fill="white"/>
<path d="M520 317L192 317" stroke="white" stroke-width="2"/>
<path d="M443 750L448.774 740L437.227 740L443 750ZM442 471L442 741L444 741L444 471L442 471Z" fill="white"/>
<path d="M601 750L606.774 740L595.227 740L601 750ZM600 471L600 741L602 741L602 471L600 471Z" fill="white"/>
</svg>
