<svg width="628" height="426" viewBox="0 0 628 426" fill="none" xmlns="http://www.w3.org/2000/svg">
<path d="M118.5 331.5C98.0793 376.426 1 423.846 1 423.846H468.862C468.862 423.846 500.173 389.814 468.862 358.955C437.55 328.096 433.012 216.465 411.684 201.488C390.355 186.512 390.809 40.3965 390.809 40.3965C390.809 40.3965 327.278 -5.89667 300.05 3.1792C272.823 12.2551 241 34 202.5 120C164 206 138.921 286.574 118.5 331.5Z" fill="#03BF9C" stroke="white" stroke-width="4"/>
<path d="M388.994 245.512V423.853H623.151L579.133 362.137L479.299 202.401L409.868 56.2797L388.994 38.1279V92.1294V245.512Z" fill="#FF0000" stroke="white" stroke-width="4"/>
<path d="M213 131L233 142.547V119.453L213 131ZM437 131L417 119.453V142.547L437 131ZM231 133H419V129H231V133Z" fill="white"/>
<path d="M282.993 275.71C280.36 275.71 278.069 275.047 276.118 273.722C274.186 272.396 272.718 270.445 271.714 267.869L264.328 246.761L259.555 234.83L257.908 230.739C257.264 229.129 256.591 227.945 255.891 227.188C255.209 226.411 254.347 225.985 253.305 225.909C252.283 225.833 250.919 226.042 249.214 226.534L246.487 217.159C247.472 216.799 248.485 216.525 249.527 216.335C250.588 216.127 251.724 216.023 252.936 216.023C256.554 216.023 259.669 216.932 262.283 218.75C264.896 220.568 266.857 223.201 268.163 226.648L281.487 261.705C282.112 263.371 282.68 264.555 283.192 265.256C283.703 265.956 284.48 266.307 285.521 266.307C285.73 266.307 285.947 266.297 286.175 266.278C286.402 266.241 286.591 266.212 286.743 266.193L287.822 275.085C287.273 275.275 286.535 275.426 285.607 275.54C284.697 275.672 283.826 275.729 282.993 275.71ZM243.192 275L260.493 229.148L268.078 249.034H264.555L255.635 275H243.192Z" fill="white"/>
<path d="M180.491 301.364H186.798L201.627 337.585H202.139L216.968 301.364H223.275V345H218.332V311.847H217.906L204.27 345H199.497L185.86 311.847H185.434V345H180.491V301.364ZM231.484 306.051V301.364H264.211V306.051H250.489V345H245.205V306.051H231.484ZM269.98 306.051V301.364H302.707V306.051H288.985V345H283.701V306.051H269.98ZM310.862 345V301.364H337.027V306.051H316.146V320.795H335.067V325.483H316.146V345H310.862Z" fill="white"/>
</svg>
