<svg width="231" height="68" viewBox="0 0 231 68" fill="none" xmlns="http://www.w3.org/2000/svg">
<path d="M4.5 0.5L0.169873 8L8.83013 8L4.5 0.5ZM5.25 29.5833L5.25 7.25L3.75 7.25L3.75 29.5833L5.25 29.5833ZM230.75 67.5169L230.75 49.5833L229.25 49.5833L229.25 67.5169L230.75 67.5169ZM220 38.8333L14.5 38.8333L14.5 40.3333L220 40.3333V38.8333ZM230.75 49.5833C230.75 43.6463 225.937 38.8333 220 38.8333V40.3333C225.109 40.3333 229.25 44.4747 229.25 49.5833L230.75 49.5833ZM3.75 29.5833C3.75 35.5204 8.56294 40.3333 14.5 40.3333L14.5 38.8333C9.39137 38.8333 5.25 34.692 5.25 29.5833L3.75 29.5833Z" fill="#41BD8B"/>
</svg>
