<svg width="833" height="133" viewBox="0 0 833 133" fill="none" xmlns="http://www.w3.org/2000/svg">
<path d="M8.95624 107V27H37.4719C43.6698 27 48.813 28.0677 52.9016 30.2031C57.0161 32.3385 60.0891 35.2943 62.1203 39.0703C64.1516 42.8203 65.1672 47.1562 65.1672 52.0781C65.1672 56.974 64.1385 61.2839 62.0812 65.0078C60.05 68.7057 56.9771 71.5833 52.8625 73.6406C48.7739 75.6979 43.6307 76.7266 37.4328 76.7266H15.8312V66.3359H36.3391C40.2453 66.3359 43.4224 65.776 45.8703 64.6562C48.3443 63.5365 50.1542 61.9089 51.3 59.7734C52.4458 57.638 53.0187 55.0729 53.0187 52.0781C53.0187 49.0573 52.4328 46.4401 51.2609 44.2266C50.1151 42.013 48.3052 40.3203 45.8312 39.1484C43.3833 37.9505 40.1672 37.3516 36.1828 37.3516H21.0266V107H8.95624ZM48.4484 70.9062L68.2141 107H54.4641L35.0891 70.9062H48.4484ZM83.1547 107V27H133.311V37.3906H95.225V61.7656H130.694V72.1172H95.225V96.6094H133.78V107H83.1547ZM152.734 107V27H164.804V96.6094H201.054V107H152.734ZM230.194 27V107H218.124V27H230.194ZM257.83 107H245.018L273.807 27H287.752L316.541 107H303.729L281.111 41.5312H280.486L257.83 107ZM259.979 75.6719H301.541V85.8281H259.979V75.6719ZM461.039 107V27H489.555C495.779 27 500.935 28.1328 505.023 30.3984C509.112 32.6641 512.172 35.763 514.203 39.6953C516.234 43.6016 517.25 48.0026 517.25 52.8984C517.25 57.8203 516.221 62.2474 514.164 66.1797C512.133 70.0859 509.06 73.1849 504.945 75.4766C500.857 77.7422 495.714 78.875 489.516 78.875H469.906V68.6406H488.422C492.354 68.6406 495.544 67.9635 497.992 66.6094C500.44 65.2292 502.237 63.3542 503.383 60.9844C504.529 58.6146 505.102 55.9193 505.102 52.8984C505.102 49.8776 504.529 47.1953 503.383 44.8516C502.237 42.5078 500.427 40.6719 497.953 39.3438C495.505 38.0156 492.276 37.3516 488.266 37.3516H473.109V107H461.039ZM534.7 107V27H546.771V96.6094H583.021V107H534.7ZM610.93 107H598.118L626.907 27H640.852L669.641 107H656.828L634.211 41.5312H633.586L610.93 107ZM613.078 75.6719H654.641V85.8281H613.078V75.6719ZM749.064 27V107H737.97L697.306 48.3281H696.564V107H684.494V27H695.666L736.369 85.75H737.111V27H749.064ZM766.026 37.3906V27H827.94V37.3906H802.979V107H790.948V37.3906H766.026Z" fill="black"/>
<path d="M355.206 56.1493L370.804 30.8691C371.463 29.8005 372.392 28.9245 373.498 28.3292C375.085 27.4748 376.936 27.2513 378.68 27.7036L379.369 27.882C379.976 28.0395 380.566 28.2605 381.127 28.5412L384.896 30.4258C386.708 31.3318 388.344 32.5526 389.729 34.0314C392.887 37.4048 394.544 41.9134 394.323 46.529L394.021 52.802C393.816 57.0835 394.474 61.3625 395.958 65.3841L399 73.6313C400.24 76.9938 402.463 79.9057 405.379 81.9889L418.693 92.5189C421.485 94.7269 423.61 97.6659 424.831 101.009L425.951 104.073C425.983 104.162 426 104.257 426 104.352C426 104.802 425.635 105.167 425.185 105.167H415.929L413.467 104.884C401.57 103.514 391.755 94.9428 388.795 83.3393L388.327 81.5007C387.869 79.7066 387.125 77.9981 386.122 76.4413L382.771 71.2361C381.158 68.7314 381.16 65.515 382.775 63.0118C383.137 62.4512 383.423 61.8455 383.626 61.2101L384.228 59.3297C384.473 58.5619 384.599 57.7606 384.599 56.9544C384.599 55.9629 384.409 54.9806 384.041 54.06L383.989 53.9293C383.549 52.8301 382.853 51.8519 381.958 51.0765C381.273 50.4828 380.485 50.0196 379.633 49.7098L379.122 49.5239C377.986 49.1109 376.787 48.8996 375.578 48.8996H374.959C373.823 48.8996 372.692 49.0389 371.591 49.3143L368.134 50.1784L365.392 51.8383C363.157 53.2546 360.998 54.785 358.921 56.4232L356.784 58.171C355.575 58.5558 354.539 57.2293 355.206 56.1493Z" fill="#277768"/>
<path d="M363.978 95.7361L344.817 105.554C344.697 105.616 344.57 105.667 344.441 105.707C342.596 106.28 340.881 104.515 341.508 102.687L347.266 85.8908C348.217 83.116 350.204 80.8159 352.81 79.4707L363.176 74.1217L373.283 67.3017C376.156 65.3629 378.82 63.131 381.231 60.6419L382.04 59.807C383.519 58.2807 384.863 56.6288 386.056 54.87L387.073 53.3704C387.787 52.317 388.393 51.1939 388.881 50.0184L389.064 49.5783C389.561 48.3826 389.902 47.1281 390.079 45.8455C390.27 44.4673 390.27 43.0694 390.079 41.6911L390.052 41.4969C389.893 40.3418 389.611 39.2068 389.213 38.1108L388.688 36.6653C388.33 35.6796 387.82 34.7558 387.178 33.9269C386.353 32.8625 385.323 31.9739 384.15 31.3133L379.921 28.9331C379.856 28.8966 379.787 28.8686 379.715 28.85L375.851 27.8531C375.451 27.7497 375.525 27.1599 375.939 27.1599H383.153H390.922L395.361 27.7326C397.562 28.1113 399.677 28.8868 401.601 30.0215L402.575 30.5961L403.869 31.4865C405.219 32.4153 406.427 33.5344 407.457 34.8092C408.269 35.8152 408.964 36.9107 409.527 38.0744L409.612 38.2482C410.464 40.0083 411.035 41.8916 411.303 43.8289L411.454 44.9138V47.0746C411.454 50.1866 410.855 53.2695 409.69 56.1553C409.018 57.8191 408.164 59.4032 407.143 60.8786L405.489 63.2682C403.919 65.5366 402.165 67.6722 400.246 69.6533L396.471 73.549L382.117 84.7621L363.978 95.7361Z" fill="#41BD8B"/>
</svg>
