<?xml version="1.0" encoding="UTF-8"?>
<svg xmlns="http://www.w3.org/2000/svg" xmlns:xlink="http://www.w3.org/1999/xlink" width="150pt" height="149.999998pt" viewBox="0 0 150 149.999998" version="1.2">
<g id="surface1">
<path style=" stroke:none;fill-rule:nonzero;fill:rgb(100%,87.838745%,10.5896%);fill-opacity:1;" d="M 43.773438 98.277344 L 3.042969 98.277344 C 1.367188 98.277344 0 96.910156 0 95.230469 L 0 54.503906 C 0 52.828125 1.367188 51.460938 3.042969 51.460938 L 43.773438 51.460938 C 45.449219 51.460938 46.816406 52.828125 46.816406 54.503906 L 46.816406 95.230469 C 46.816406 96.910156 45.449219 98.277344 43.773438 98.277344 Z M 43.773438 98.277344 "/>
<path style=" stroke:none;fill-rule:nonzero;fill:rgb(100%,72.938538%,0%);fill-opacity:1;" d="M 43.773438 46.816406 L 3.042969 46.816406 C 1.367188 46.816406 0 45.449219 0 43.773438 L 0 3.042969 C 0 1.367188 1.367188 0 3.042969 0 L 43.773438 0 C 45.449219 0 46.816406 1.367188 46.816406 3.042969 L 46.816406 43.773438 C 46.816406 45.449219 45.449219 46.816406 43.773438 46.816406 Z M 43.773438 46.816406 "/>
<path style=" stroke:none;fill-rule:nonzero;fill:rgb(99.21875%,60.389709%,0%);fill-opacity:1;" d="M 95.410156 46.816406 L 54.683594 46.816406 C 53.003906 46.816406 51.636719 45.449219 51.636719 43.773438 L 51.636719 3.042969 C 51.636719 1.367188 53.003906 0 54.683594 0 L 95.410156 0 C 97.085938 0 98.453125 1.367188 98.453125 3.042969 L 98.453125 43.773438 C 98.453125 45.449219 97.085938 46.816406 95.410156 46.816406 Z M 95.410156 46.816406 "/>
<path style=" stroke:none;fill-rule:nonzero;fill:rgb(100%,72.938538%,0%);fill-opacity:1;" d="M 95.410156 98.277344 L 54.683594 98.277344 C 53.003906 98.277344 51.636719 96.910156 51.636719 95.230469 L 51.636719 54.503906 C 51.636719 52.828125 53.003906 51.460938 54.683594 51.460938 L 95.410156 51.460938 C 97.085938 51.460938 98.453125 52.828125 98.453125 54.503906 L 98.453125 95.230469 C 98.453125 96.910156 97.085938 98.277344 95.410156 98.277344 Z M 95.410156 98.277344 "/>
<path style=" stroke:none;fill-rule:nonzero;fill:rgb(100%,87.838745%,10.5896%);fill-opacity:1;" d="M 95.410156 149.535156 L 54.683594 149.535156 C 53.003906 149.535156 51.636719 148.167969 51.636719 146.488281 L 51.636719 105.761719 C 51.636719 104.085938 53.003906 102.71875 54.683594 102.71875 L 95.410156 102.71875 C 97.085938 102.71875 98.453125 104.085938 98.453125 105.761719 L 98.453125 146.488281 C 98.453125 148.167969 97.085938 149.535156 95.410156 149.535156 Z M 95.410156 149.535156 "/>
<path style=" stroke:none;fill-rule:nonzero;fill:rgb(99.21875%,60.389709%,0%);fill-opacity:1;" d="M 147.046875 149.535156 L 106.320312 149.535156 C 104.644531 149.535156 103.277344 148.167969 103.277344 146.488281 L 103.277344 105.761719 C 103.277344 104.085938 104.644531 102.71875 106.320312 102.71875 L 147.046875 102.71875 C 148.726562 102.71875 150.09375 104.085938 150.09375 105.761719 L 150.09375 146.488281 C 150.09375 148.167969 148.726562 149.535156 147.046875 149.535156 Z M 147.046875 149.535156 "/>
<path style=" stroke:none;fill-rule:nonzero;fill:rgb(99.21875%,60.389709%,0%);fill-opacity:1;" d="M 147.046875 98.433594 L 106.320312 98.433594 C 104.644531 98.433594 103.277344 97.066406 103.277344 95.390625 L 103.277344 54.664062 C 103.277344 52.984375 104.644531 51.617188 106.320312 51.617188 L 147.046875 51.617188 C 148.726562 51.617188 150.09375 52.984375 150.09375 54.664062 L 150.09375 95.390625 C 150.09375 97.066406 148.726562 98.433594 147.046875 98.433594 Z M 147.046875 98.433594 "/>
<path style=" stroke:none;fill-rule:nonzero;fill:rgb(100%,87.838745%,10.5896%);fill-opacity:1;" d="M 43.773438 149.535156 L 3.042969 149.535156 C 1.367188 149.535156 0 148.167969 0 146.488281 L 0 105.761719 C 0 104.085938 1.367188 102.71875 3.042969 102.71875 L 43.773438 102.71875 C 45.449219 102.71875 46.816406 104.085938 46.816406 105.761719 L 46.816406 146.488281 C 46.816406 148.167969 45.449219 149.535156 43.773438 149.535156 Z M 43.773438 149.535156 "/>
</g>
</svg>
