<svg width="483" height="482" viewBox="0 0 483 482" fill="none" xmlns="http://www.w3.org/2000/svg">
<rect x="2" y="2" width="109" height="109" rx="2" fill="#FCC045" stroke="#41BD8B" stroke-width="4"/>
<rect x="2" y="125" width="109" height="109" rx="2" fill="#FCC045" stroke="#41BD8B" stroke-width="4"/>
<rect x="2" y="248" width="109" height="109" rx="2" fill="#41BD8B" stroke="#41BD8B" stroke-width="4"/>
<rect x="2" y="371" width="109" height="109" rx="2" fill="#41BD8B" stroke="#41BD8B" stroke-width="4"/>
<rect x="249" y="2" width="109" height="109" rx="2" fill="#FF0000" stroke="#41BD8B" stroke-width="4"/>
<rect x="249" y="248" width="109" height="109" rx="2" fill="#FCC045" stroke="#41BD8B" stroke-width="4"/>
<rect x="249" y="371" width="109" height="109" rx="2" fill="#41BD8B" stroke="#41BD8B" stroke-width="4"/>
<rect x="125" y="2" width="110" height="109" rx="2" fill="#FCC045" stroke="#41BD8B" stroke-width="4"/>
<rect x="125" y="125" width="110" height="109" rx="2" fill="#FCC045" stroke="#41BD8B" stroke-width="4"/>
<rect x="125" y="248" width="110" height="109" rx="2" fill="#FCC045" stroke="#41BD8B" stroke-width="4"/>
<rect x="125" y="371" width="110" height="109" rx="2" fill="#41BD8B" stroke="#41BD8B" stroke-width="4"/>
<rect x="372" y="2" width="109" height="109" rx="2" fill="#FF0000" stroke="#41BD8B" stroke-width="4"/>
<rect x="372" y="125" width="109" height="109" rx="2" fill="#FF0000" stroke="#41BD8B" stroke-width="4"/>
<rect x="372" y="248" width="109" height="109" rx="2" fill="#FCC045" stroke="#41BD8B" stroke-width="4"/>
<rect x="372" y="371" width="109" height="109" rx="2" fill="#FFBA00" stroke="#41BD8B" stroke-width="4"/>
<rect x="249" y="125" width="109" height="109" rx="2" fill="#FCC045" stroke="#41BD8B" stroke-width="4"/>
</svg>
