<svg width="1437" height="720" viewBox="0 0 1437 720" fill="none" xmlns="http://www.w3.org/2000/svg">
<rect width="1437" height="720" fill="url(#paint0_linear_146_1152)"/>
<rect x="0.5" y="0.5" width="1436" height="719" stroke="#D6D6D6" stroke-opacity="0.4"/>
<line y1="71.5" x2="1437" y2="71.5" stroke="#D6D6D6" stroke-opacity="0.4"/>
<line y1="287.5" x2="1437" y2="287.5" stroke="#D6D6D6" stroke-opacity="0.4"/>
<line y1="359.5" x2="1437" y2="359.5" stroke="#D6D6D6" stroke-opacity="0.4"/>
<line y1="575.5" x2="1437" y2="575.5" stroke="#D6D6D6" stroke-opacity="0.4"/>
<line y1="503.5" x2="1437" y2="503.5" stroke="#D6D6D6" stroke-opacity="0.4"/>
<line y1="431.5" x2="1437" y2="431.5" stroke="#D6D6D6" stroke-opacity="0.4"/>
<line y1="215.5" x2="1437" y2="215.5" stroke="#D6D6D6" stroke-opacity="0.4"/>
<line y1="143.5" x2="1437" y2="143.5" stroke="#D6D6D6" stroke-opacity="0.4"/>
<line y1="647.5" x2="1437" y2="647.5" stroke="#D6D6D6" stroke-opacity="0.4"/>
<line x1="720.5" y1="1.09507e-08" x2="720.5" y2="720" stroke="#D6D6D6" stroke-opacity="0.4"/>
<line x1="648.5" y1="1.09507e-08" x2="648.5" y2="720" stroke="#D6D6D6" stroke-opacity="0.4"/>
<line x1="432.5" y1="1.09507e-08" x2="432.5" y2="720" stroke="#D6D6D6" stroke-opacity="0.4"/>
<line x1="1224.5" y1="1.09507e-08" x2="1224.5" y2="720" stroke="#D6D6D6" stroke-opacity="0.4"/>
<line x1="360.5" y1="1.09507e-08" x2="360.5" y2="720" stroke="#D6D6D6" stroke-opacity="0.4"/>
<line x1="1152.5" y1="1.09507e-08" x2="1152.5" y2="720" stroke="#D6D6D6" stroke-opacity="0.4"/>
<line x1="144.5" y1="1.09507e-08" x2="144.5" y2="720" stroke="#D6D6D6" stroke-opacity="0.4"/>
<line x1="936.5" y1="1.09507e-08" x2="936.5" y2="720" stroke="#D6D6D6" stroke-opacity="0.4"/>
<line x1="216.5" y1="1.09507e-08" x2="216.5" y2="720" stroke="#D6D6D6" stroke-opacity="0.4"/>
<line x1="1008.5" y1="1.09507e-08" x2="1008.5" y2="720" stroke="#D6D6D6" stroke-opacity="0.4"/>
<line x1="288.5" y1="1.09507e-08" x2="288.5" y2="720" stroke="#D6D6D6" stroke-opacity="0.4"/>
<line x1="1080.5" y1="1.09507e-08" x2="1080.5" y2="720" stroke="#D6D6D6" stroke-opacity="0.4"/>
<line x1="504.5" y1="1.09507e-08" x2="504.5" y2="720" stroke="#D6D6D6" stroke-opacity="0.4"/>
<line x1="1296.5" y1="1.09507e-08" x2="1296.5" y2="720" stroke="#D6D6D6" stroke-opacity="0.4"/>
<line x1="576.5" y1="1.09507e-08" x2="576.5" y2="720" stroke="#D6D6D6" stroke-opacity="0.4"/>
<line x1="1368.5" y1="1.09507e-08" x2="1368.5" y2="720" stroke="#D6D6D6" stroke-opacity="0.4"/>
<line x1="72.5" y1="1.09507e-08" x2="72.4999" y2="720" stroke="#D6D6D6" stroke-opacity="0.4"/>
<line x1="864.5" y1="1.09507e-08" x2="864.5" y2="720" stroke="#D6D6D6" stroke-opacity="0.4"/>
<line x1="792.5" y1="1.09507e-08" x2="792.5" y2="720" stroke="#D6D6D6" stroke-opacity="0.4"/>
<defs>
<linearGradient id="paint0_linear_146_1152" x1="718.5" y1="0" x2="718.5" y2="720" gradientUnits="userSpaceOnUse">
<stop stop-color="#F4F4F4"/>
<stop offset="1" stop-color="#F4F4F4" stop-opacity="0.4"/>
</linearGradient>
</defs>
</svg>
