<svg width="452" height="468" viewBox="0 0 452 468" fill="none" xmlns="http://www.w3.org/2000/svg">
<rect x="123.043" y="1.57715" width="107" height="43" rx="2" fill="#0F62FE" stroke="#0F62FE" stroke-width="2"/>
<rect x="1.95508" y="197.237" width="108" height="51" rx="2" fill="#73B9E5" fill-opacity="0.25" stroke="#0F62FE" stroke-width="2"/>
<rect x="237" y="197.237" width="108" height="51" rx="2" fill="#73B9E5" fill-opacity="0.25" stroke="#0F62FE" stroke-width="2"/>
<rect x="164" y="279" width="72" height="51" rx="2" fill="#C9EAFF" fill-opacity="0.25" stroke="#0F62FE" stroke-width="2"/>
<rect x="379" y="279" width="72" height="51" rx="2" fill="#C9EAFF" fill-opacity="0.25" stroke="#0F62FE" stroke-width="2"/>
<rect x="262" y="279" width="97" height="51" rx="2" fill="#C9EAFF" fill-opacity="0.25" stroke="#0F62FE" stroke-width="2"/>
<rect x="262" y="353" width="97" height="51" rx="2" fill="#FFC6C6" stroke="#0F62FE" stroke-width="2"/>
<rect x="262" y="416" width="97" height="51" rx="2" fill="#FF0000" stroke="#0F62FE" stroke-width="2"/>
<rect x="123.043" y="78.2856" width="107" height="61" rx="2" fill="white" fill-opacity="0.5" stroke="#0F62FE" stroke-width="2"/>
<path d="M56 196.5L56 175.5C56 173.843 57.3431 172.5 59 172.5L171.216 172.5L291 172.5C292.657 172.5 294 173.843 294 175.5L294 196.5" stroke="#0F62FE" stroke-width="3"/>
<path d="M198.5 279L198.5 265V265C198.5 263.895 199.395 263 200.5 263L412 263C413.657 263 415 264.343 415 266L415 279.5" stroke="#0F62FE" stroke-width="3"/>
<line x1="175.367" y1="77.2856" x2="175.367" y2="43.6555" stroke="#0F62FE" stroke-width="3"/>
<path d="M43.5756 233H39.3196V213.456H48.5876C49.4836 213.456 50.2956 213.605 51.0236 213.904C51.7516 214.203 52.3676 214.632 52.8716 215.192C53.3943 215.733 53.7956 216.387 54.0756 217.152C54.3556 217.917 54.4956 218.767 54.4956 219.7C54.4956 221.025 54.197 222.183 53.5996 223.172C53.021 224.161 52.1343 224.88 50.9396 225.328L54.7756 233H50.0436L46.6276 225.832H43.5756V233ZM48.0556 222.248C48.6903 222.248 49.185 222.089 49.5396 221.772C49.913 221.436 50.0996 220.951 50.0996 220.316V219.084C50.0996 218.449 49.913 217.973 49.5396 217.656C49.185 217.32 48.6903 217.152 48.0556 217.152H43.5756V222.248H48.0556ZM58.1868 233V213.456H71.1508V217.236H62.4428V221.24H69.8628V224.992H62.4428V233H58.1868Z" fill="#0F62FE"/>
<path d="M147.321 30V16.738H156.346V19.303H150.209V22.02H155.472V24.566H150.209V27.435H156.346V30H147.321ZM161.94 30L157.665 16.738H160.591L162.567 23.103L163.612 27.264H163.669L164.676 23.103L166.652 16.738H169.483L165.17 30H161.94ZM171.219 30V16.738H180.244V19.303H174.107V22.02H179.37V24.566H174.107V27.435H180.244V30H171.219ZM186.807 23.73L185.534 21.07H185.477V30H182.76V16.738H185.914L189.543 23.008L190.816 25.668H190.873V16.738H193.59V30H190.436L186.807 23.73ZM202.038 19.303V30H199.15V19.303H195.559V16.738H205.629V19.303H202.038Z" fill="white"/>
<path d="M280.621 234H276.365V214.456H285.633C286.529 214.456 287.341 214.605 288.069 214.904C288.797 215.203 289.413 215.632 289.917 216.192C290.439 216.733 290.841 217.387 291.121 218.152C291.401 218.917 291.541 219.767 291.541 220.7C291.541 222.025 291.242 223.183 290.645 224.172C290.066 225.161 289.179 225.88 287.985 226.328L291.821 234H287.089L283.673 226.832H280.621V234ZM285.101 223.248C285.735 223.248 286.23 223.089 286.585 222.772C286.958 222.436 287.145 221.951 287.145 221.316V220.084C287.145 219.449 286.958 218.973 286.585 218.656C286.23 218.32 285.735 218.152 285.101 218.152H280.621V223.248H285.101ZM295.232 234V214.456H308.196V218.236H299.488V222.24H306.908V225.992H299.488V234H295.232Z" fill="#0F62FE"/>
<path d="M188.789 315H184.533V295.456H193.801C194.697 295.456 195.509 295.605 196.237 295.904C196.965 296.203 197.581 296.632 198.085 297.192C198.608 297.733 199.009 298.387 199.289 299.152C199.569 299.917 199.709 300.767 199.709 301.7C199.709 303.025 199.41 304.183 198.813 305.172C198.234 306.161 197.348 306.88 196.153 307.328L199.989 315H195.257L191.841 307.832H188.789V315ZM193.269 304.248C193.904 304.248 194.398 304.089 194.753 303.772C195.126 303.436 195.313 302.951 195.313 302.316V301.084C195.313 300.449 195.126 299.973 194.753 299.656C194.398 299.32 193.904 299.152 193.269 299.152H188.789V304.248H193.269ZM203.4 315V295.456H216.364V299.236H207.656V303.24H215.076V306.992H207.656V315H203.4Z" fill="#0F62FE"/>
<path d="M403.789 315H399.533V295.456H408.801C409.697 295.456 410.509 295.605 411.237 295.904C411.965 296.203 412.581 296.632 413.085 297.192C413.608 297.733 414.009 298.387 414.289 299.152C414.569 299.917 414.709 300.767 414.709 301.7C414.709 303.025 414.41 304.183 413.813 305.172C413.234 306.161 412.348 306.88 411.153 307.328L414.989 315H410.257L406.841 307.832H403.789V315ZM408.269 304.248C408.904 304.248 409.398 304.089 409.753 303.772C410.126 303.436 410.313 302.951 410.313 302.316V301.084C410.313 300.449 410.126 299.973 409.753 299.656C409.398 299.32 408.904 299.152 408.269 299.152H403.789V304.248H408.269ZM418.4 315V295.456H431.364V299.236H422.656V303.24H430.076V306.992H422.656V315H418.4Z" fill="#0F62FE"/>
<path d="M299.289 315H295.033V295.456H304.301C305.197 295.456 306.009 295.605 306.737 295.904C307.465 296.203 308.081 296.632 308.585 297.192C309.108 297.733 309.509 298.387 309.789 299.152C310.069 299.917 310.209 300.767 310.209 301.7C310.209 303.025 309.91 304.183 309.313 305.172C308.734 306.161 307.848 306.88 306.653 307.328L310.489 315H305.757L302.341 307.832H299.289V315ZM303.769 304.248C304.404 304.248 304.898 304.089 305.253 303.772C305.626 303.436 305.813 302.951 305.813 302.316V301.084C305.813 300.449 305.626 299.973 305.253 299.656C304.898 299.32 304.404 299.152 303.769 299.152H299.289V304.248H303.769ZM313.9 315V295.456H326.864V299.236H318.156V303.24H325.576V306.992H318.156V315H313.9Z" fill="#0F62FE"/>
<path d="M297.348 389H293.092V369.456H302.36C303.256 369.456 304.068 369.605 304.796 369.904C305.524 370.203 306.14 370.632 306.644 371.192C307.166 371.733 307.568 372.387 307.848 373.152C308.128 373.917 308.268 374.767 308.268 375.7C308.268 377.025 307.969 378.183 307.372 379.172C306.793 380.161 305.906 380.88 304.712 381.328L308.548 389H303.816L300.4 381.832H297.348V389ZM301.828 378.248C302.462 378.248 302.957 378.089 303.312 377.772C303.685 377.436 303.872 376.951 303.872 376.316V375.084C303.872 374.449 303.685 373.973 303.312 373.656C302.957 373.32 302.462 373.152 301.828 373.152H297.348V378.248H301.828ZM323.663 380.992H316.215V389H311.959V369.456H316.215V377.24H323.663V369.456H327.919V389H323.663V380.992Z" fill="#FF0000"/>
<path d="M292.131 452V431.636H300.165C301.703 431.636 303.016 431.911 304.103 432.462C305.197 433.005 306.028 433.777 306.599 434.778C307.175 435.773 307.464 436.943 307.464 438.288C307.464 439.641 307.172 440.804 306.589 441.778C306.005 442.746 305.16 443.489 304.053 444.006C302.953 444.523 301.62 444.781 300.056 444.781H294.677V441.321H299.36C300.182 441.321 300.865 441.208 301.408 440.983C301.952 440.758 302.356 440.42 302.621 439.969C302.893 439.518 303.029 438.958 303.029 438.288C303.029 437.612 302.893 437.042 302.621 436.578C302.356 436.114 301.948 435.763 301.398 435.524C300.855 435.279 300.169 435.156 299.34 435.156H296.437V452H292.131ZM303.128 442.733L308.189 452H303.437L298.485 442.733H303.128ZM329.219 441.818C329.219 444.039 328.798 445.928 327.956 447.486C327.121 449.044 325.981 450.233 324.536 451.055C323.098 451.871 321.48 452.278 319.684 452.278C317.874 452.278 316.25 451.867 314.812 451.045C313.373 450.223 312.236 449.034 311.401 447.476C310.566 445.918 310.148 444.032 310.148 441.818C310.148 439.598 310.566 437.708 311.401 436.151C312.236 434.593 313.373 433.406 314.812 432.591C316.25 431.769 317.874 431.358 319.684 431.358C321.48 431.358 323.098 431.769 324.536 432.591C325.981 433.406 327.121 434.593 327.956 436.151C328.798 437.708 329.219 439.598 329.219 441.818ZM324.854 441.818C324.854 440.38 324.639 439.167 324.208 438.179C323.784 437.191 323.184 436.442 322.408 435.932C321.633 435.421 320.724 435.166 319.684 435.166C318.643 435.166 317.735 435.421 316.959 435.932C316.184 436.442 315.581 437.191 315.15 438.179C314.725 439.167 314.513 440.38 314.513 441.818C314.513 443.257 314.725 444.47 315.15 445.457C315.581 446.445 316.184 447.194 316.959 447.705C317.735 448.215 318.643 448.47 319.684 448.47C320.724 448.47 321.633 448.215 322.408 447.705C323.184 447.194 323.784 446.445 324.208 445.457C324.639 444.47 324.854 443.257 324.854 441.818Z" fill="white"/>
<path d="M173.899 106.176H173.815L172.387 109.032L168.579 115.948L164.855 109.06L163.371 105.98H163.287V119H159.283V99.456H163.791L168.579 108.612H168.635L173.367 99.456H177.903V119H173.899V106.176ZM182.224 119V99.456H195.188V103.236H186.48V107.24H193.9V110.992H186.48V119H182.224Z" fill="#696969"/>
<path d="M177 140L177 173.5" stroke="#0F62FE" stroke-width="3"/>
<path d="M291 249L291 263.5" stroke="#0F62FE" stroke-width="3"/>
<path d="M310 264L310 278.5" stroke="#0F62FE" stroke-width="3"/>
<path d="M310 331L310 352.5" stroke="#0F62FE" stroke-width="3"/>
<path d="M310 404L310 415.5" stroke="#0F62FE" stroke-width="3"/>
<path d="M310 261L310 275.5" stroke="#0F62FE" stroke-width="3"/>
</svg>
