<svg width="699" height="293" viewBox="0 0 699 293" fill="none" xmlns="http://www.w3.org/2000/svg">
<rect x="54" y="229" width="615" height="59" fill="#41BD8B" fill-opacity="0.13"/>
<path d="M57 9C57 9 624.876 10.3873 671 10.5" stroke="#00BF9C" stroke-width="2" stroke-dasharray="8 8"/>
<path d="M57 142C57 142 624.876 143.387 671 143.5" stroke="#00BF9C" stroke-width="2" stroke-dasharray="8 8"/>
<path d="M57 229C57 229 624.876 230.387 671 230.5" stroke="#00BF9C" stroke-width="2" stroke-dasharray="8 8"/>
<path d="M55 287C55 287 622.876 288.387 669 288.5" stroke="#00BF9C" stroke-width="2" stroke-dasharray="8 8"/>
<path d="M56 53L275.662 259.5V53L479.828 231.5V34.5L640.5 210.5V24" stroke="white" stroke-width="3"/>
<path d="M6.86612 6.22834C6.82351 5.79865 6.64063 5.46484 6.31747 5.22692C5.99432 4.98899 5.55575 4.87003 5.00178 4.87003C4.62536 4.87003 4.30753 4.9233 4.0483 5.02983C3.78906 5.13281 3.5902 5.27663 3.4517 5.46129C3.31676 5.64595 3.24929 5.85547 3.24929 6.08984C3.24219 6.28516 3.28303 6.45561 3.3718 6.60121C3.46413 6.7468 3.5902 6.87287 3.75 6.9794C3.9098 7.08239 4.09446 7.17294 4.30398 7.25107C4.51349 7.32564 4.73722 7.38956 4.97514 7.44283L5.95526 7.6772C6.43111 7.78374 6.8679 7.92578 7.26562 8.10334C7.66335 8.28089 8.00781 8.49929 8.29901 8.75852C8.5902 9.01776 8.8157 9.32315 8.9755 9.67472C9.13885 10.0263 9.2223 10.4293 9.22585 10.8839C9.2223 11.5515 9.05185 12.1303 8.71449 12.6204C8.38068 13.1069 7.89773 13.4851 7.26562 13.755C6.63707 14.0213 5.87891 14.1545 4.99112 14.1545C4.11044 14.1545 3.34339 14.0195 2.68999 13.7496C2.04013 13.4798 1.53232 13.0803 1.16655 12.5511C0.804332 12.0185 0.614347 11.3597 0.596591 10.5749H2.82848C2.85334 10.9407 2.9581 11.2461 3.14276 11.4911C3.33097 11.7326 3.58132 11.9155 3.89382 12.0398C4.20987 12.1605 4.56676 12.2209 4.96449 12.2209C5.35511 12.2209 5.69425 12.1641 5.98189 12.0504C6.27308 11.9368 6.49858 11.7788 6.65838 11.5763C6.81818 11.3739 6.89808 11.1413 6.89808 10.8786C6.89808 10.6335 6.82528 10.4276 6.67969 10.2607C6.53764 10.0937 6.32813 9.9517 6.05114 9.83452C5.7777 9.71733 5.44212 9.6108 5.04439 9.51491L3.85653 9.21662C2.93679 8.9929 2.21058 8.64311 1.67791 8.16726C1.14524 7.69141 0.880682 7.05043 0.884233 6.24432C0.880682 5.58381 1.05646 5.00675 1.41158 4.51314C1.77024 4.01953 2.26207 3.63423 2.88707 3.35724C3.51207 3.08026 4.2223 2.94176 5.01776 2.94176C5.82741 2.94176 6.53409 3.08026 7.13778 3.35724C7.74503 3.63423 8.21733 4.01953 8.55469 4.51314C8.89205 5.00675 9.06605 5.57848 9.0767 6.22834H6.86612ZM10.7346 14V5.81818H12.8973V7.26172H12.9932C13.1636 6.78232 13.4477 6.40412 13.8454 6.12713C14.2432 5.85014 14.719 5.71165 15.273 5.71165C15.8341 5.71165 16.3117 5.85192 16.7059 6.13246C17.1001 6.40945 17.3628 6.78587 17.4942 7.26172H17.5795C17.7464 6.79297 18.0482 6.41832 18.485 6.13778C18.9253 5.85369 19.4456 5.71165 20.0457 5.71165C20.8092 5.71165 21.4289 5.9549 21.9047 6.44141C22.3841 6.92436 22.6238 7.60973 22.6238 8.49751V14H20.36V8.94496C20.36 8.49041 20.2393 8.1495 19.9978 7.92223C19.7563 7.69496 19.4545 7.58132 19.0922 7.58132C18.6803 7.58132 18.3589 7.71271 18.1281 7.9755C17.8973 8.23473 17.7819 8.57741 17.7819 9.00355V14H15.5819V8.89702C15.5819 8.49574 15.4665 8.17614 15.2357 7.93821C15.0084 7.70028 14.7084 7.58132 14.3355 7.58132C14.0834 7.58132 13.8561 7.64524 13.6537 7.77308C13.4548 7.89737 13.2968 8.07315 13.1796 8.30043C13.0624 8.52415 13.0038 8.78693 13.0038 9.08878V14H10.7346ZM26.7494 14.1545C26.2274 14.1545 25.7622 14.0639 25.3538 13.8828C24.9454 13.6982 24.6222 13.4265 24.3843 13.0678C24.1499 12.7056 24.0328 12.2546 24.0328 11.7148C24.0328 11.2603 24.1162 10.8786 24.2831 10.5696C24.45 10.2607 24.6773 10.0121 24.9649 9.82386C25.2526 9.63565 25.5793 9.49361 25.945 9.39773C26.3144 9.30185 26.7014 9.23438 27.1063 9.19531C27.5821 9.1456 27.9656 9.09943 28.2568 9.05682C28.548 9.01065 28.7593 8.94318 28.8907 8.8544C29.0221 8.76562 29.0878 8.63423 29.0878 8.46023V8.42827C29.0878 8.09091 28.9813 7.8299 28.7682 7.64524C28.5587 7.46058 28.2604 7.36825 27.8733 7.36825C27.4649 7.36825 27.14 7.45881 26.8985 7.63991C26.657 7.81747 26.4972 8.04119 26.4191 8.31108L24.3204 8.14062C24.4269 7.64347 24.6365 7.21378 24.949 6.85156C25.2615 6.4858 25.6645 6.20526 26.1581 6.00994C26.6553 5.81108 27.2306 5.71165 27.884 5.71165C28.3385 5.71165 28.7735 5.76491 29.189 5.87145C29.608 5.97798 29.9791 6.14311 30.3023 6.36683C30.629 6.59055 30.8865 6.8782 31.0747 7.22976C31.2629 7.57777 31.357 7.99503 31.357 8.48153V14H29.205V12.8654H29.1411C29.0097 13.1211 28.8339 13.3466 28.6137 13.5419C28.3936 13.7337 28.129 13.8846 27.82 13.9947C27.5111 14.1012 27.1542 14.1545 26.7494 14.1545ZM27.3992 12.5884C27.733 12.5884 28.0278 12.5227 28.2835 12.3913C28.5392 12.2564 28.7398 12.0753 28.8854 11.848C29.031 11.6207 29.1038 11.3633 29.1038 11.0756V10.2074C29.0328 10.2536 28.9351 10.2962 28.8108 10.3352C28.6901 10.3707 28.5534 10.4045 28.4007 10.4364C28.248 10.4648 28.0953 10.4915 27.9426 10.5163C27.7899 10.5376 27.6514 10.5572 27.5271 10.5749C27.2607 10.614 27.0281 10.6761 26.8293 10.7614C26.6304 10.8466 26.4759 10.962 26.3659 11.1076C26.2558 11.2496 26.2007 11.4272 26.2007 11.6403C26.2007 11.9492 26.3126 12.1854 26.5363 12.3487C26.7636 12.5085 27.0512 12.5884 27.3992 12.5884ZM35.0138 5.81818L36.5159 8.67862L38.0553 5.81818H40.3831L38.0127 9.90909L40.447 14H38.1299L36.5159 11.1715L34.9285 14H32.5848L35.0138 9.90909L32.67 5.81818H35.0138Z" fill="white"/>
<path d="M6.86612 138.228C6.82351 137.799 6.64063 137.465 6.31747 137.227C5.99432 136.989 5.55575 136.87 5.00178 136.87C4.62536 136.87 4.30753 136.923 4.0483 137.03C3.78906 137.133 3.5902 137.277 3.4517 137.461C3.31676 137.646 3.24929 137.855 3.24929 138.09C3.24219 138.285 3.28303 138.456 3.3718 138.601C3.46413 138.747 3.5902 138.873 3.75 138.979C3.9098 139.082 4.09446 139.173 4.30398 139.251C4.51349 139.326 4.73722 139.39 4.97514 139.443L5.95526 139.677C6.43111 139.784 6.8679 139.926 7.26562 140.103C7.66335 140.281 8.00781 140.499 8.29901 140.759C8.5902 141.018 8.8157 141.323 8.9755 141.675C9.13885 142.026 9.2223 142.429 9.22585 142.884C9.2223 143.551 9.05185 144.13 8.71449 144.62C8.38068 145.107 7.89773 145.485 7.26562 145.755C6.63707 146.021 5.87891 146.154 4.99112 146.154C4.11044 146.154 3.34339 146.02 2.68999 145.75C2.04013 145.48 1.53232 145.08 1.16655 144.551C0.804332 144.018 0.614347 143.36 0.596591 142.575H2.82848C2.85334 142.941 2.9581 143.246 3.14276 143.491C3.33097 143.733 3.58132 143.915 3.89382 144.04C4.20987 144.161 4.56676 144.221 4.96449 144.221C5.35511 144.221 5.69425 144.164 5.98189 144.05C6.27308 143.937 6.49858 143.779 6.65838 143.576C6.81818 143.374 6.89808 143.141 6.89808 142.879C6.89808 142.634 6.82528 142.428 6.67969 142.261C6.53764 142.094 6.32813 141.952 6.05114 141.835C5.7777 141.717 5.44212 141.611 5.04439 141.515L3.85653 141.217C2.93679 140.993 2.21058 140.643 1.67791 140.167C1.14524 139.691 0.880682 139.05 0.884233 138.244C0.880682 137.584 1.05646 137.007 1.41158 136.513C1.77024 136.02 2.26207 135.634 2.88707 135.357C3.51207 135.08 4.2223 134.942 5.01776 134.942C5.82741 134.942 6.53409 135.08 7.13778 135.357C7.74503 135.634 8.21733 136.02 8.55469 136.513C8.89205 137.007 9.06605 137.578 9.0767 138.228H6.86612ZM10.7346 149.068V137.818H12.9719V139.192H13.0731C13.1725 138.972 13.3163 138.749 13.5045 138.521C13.6963 138.29 13.9449 138.099 14.2503 137.946C14.5592 137.79 14.9427 137.712 15.4008 137.712C15.9974 137.712 16.5479 137.868 17.0521 138.18C17.5564 138.489 17.9594 138.956 18.2613 139.581C18.5631 140.203 18.714 140.982 18.714 141.92C18.714 142.832 18.5667 143.603 18.2719 144.232C17.9807 144.857 17.583 145.331 17.0787 145.654C16.578 145.973 16.017 146.133 15.3955 146.133C14.9552 146.133 14.5805 146.06 14.2716 145.915C13.9662 145.769 13.7158 145.586 13.5205 145.366C13.3252 145.142 13.176 144.917 13.0731 144.69H13.0038V149.068H10.7346ZM12.9559 141.909C12.9559 142.396 13.0233 142.82 13.1583 143.182C13.2932 143.544 13.4885 143.827 13.7442 144.029C13.9999 144.228 14.3106 144.327 14.6764 144.327C15.0457 144.327 15.3582 144.226 15.6139 144.024C15.8696 143.818 16.0631 143.534 16.1945 143.172C16.3295 142.806 16.3969 142.385 16.3969 141.909C16.3969 141.437 16.3312 141.021 16.1998 140.663C16.0684 140.304 15.8749 140.023 15.6192 139.821C15.3635 139.619 15.0493 139.517 14.6764 139.517C14.3071 139.517 13.9946 139.615 13.7389 139.81C13.4868 140.006 13.2932 140.283 13.1583 140.641C13.0233 141 12.9559 141.423 12.9559 141.909ZM20.2268 146V137.818H22.4268V139.246H22.512C22.6611 138.738 22.9115 138.354 23.2631 138.095C23.6146 137.832 24.0194 137.701 24.4775 137.701C24.5912 137.701 24.7137 137.708 24.8451 137.722C24.9765 137.737 25.0919 137.756 25.1913 137.781V139.794C25.0848 139.762 24.9374 139.734 24.7492 139.709C24.561 139.684 24.3888 139.672 24.2325 139.672C23.8987 139.672 23.6004 139.745 23.3376 139.89C23.0784 140.032 22.8724 140.231 22.7197 140.487C22.5706 140.743 22.496 141.037 22.496 141.371V146H20.2268ZM29.6804 146.16C28.853 146.16 28.1374 145.984 27.5337 145.632C26.9336 145.277 26.4702 144.784 26.1435 144.152C25.8168 143.516 25.6534 142.779 25.6534 141.941C25.6534 141.096 25.8168 140.357 26.1435 139.725C26.4702 139.089 26.9336 138.596 27.5337 138.244C28.1374 137.889 28.853 137.712 29.6804 137.712C30.5078 137.712 31.2216 137.889 31.8217 138.244C32.4254 138.596 32.8906 139.089 33.2173 139.725C33.544 140.357 33.7074 141.096 33.7074 141.941C33.7074 142.779 33.544 143.516 33.2173 144.152C32.8906 144.784 32.4254 145.277 31.8217 145.632C31.2216 145.984 30.5078 146.16 29.6804 146.16ZM29.6911 144.402C30.0675 144.402 30.3817 144.295 30.6339 144.082C30.886 143.866 31.076 143.571 31.2038 143.198C31.3352 142.825 31.4009 142.401 31.4009 141.925C31.4009 141.449 31.3352 141.025 31.2038 140.652C31.076 140.279 30.886 139.984 30.6339 139.768C30.3817 139.551 30.0675 139.443 29.6911 139.443C29.3111 139.443 28.9915 139.551 28.7322 139.768C28.4766 139.984 28.283 140.279 28.1516 140.652C28.0238 141.025 27.9599 141.449 27.9599 141.925C27.9599 142.401 28.0238 142.825 28.1516 143.198C28.283 143.571 28.4766 143.866 28.7322 144.082C28.9915 144.295 29.3111 144.402 29.6911 144.402ZM35.1829 146V137.818H37.3455V139.262H37.4414C37.6119 138.782 37.896 138.404 38.2937 138.127C38.6914 137.85 39.1673 137.712 39.7212 137.712C40.2823 137.712 40.7599 137.852 41.1541 138.132C41.5483 138.409 41.8111 138.786 41.9425 139.262H42.0277C42.1946 138.793 42.4964 138.418 42.9332 138.138C43.3736 137.854 43.8938 137.712 44.494 137.712C45.2575 137.712 45.8771 137.955 46.353 138.441C46.8324 138.924 47.0721 139.61 47.0721 140.498V146H44.8082V140.945C44.8082 140.49 44.6875 140.15 44.446 139.922C44.2045 139.695 43.9027 139.581 43.5405 139.581C43.1286 139.581 42.8072 139.713 42.5763 139.975C42.3455 140.235 42.2301 140.577 42.2301 141.004V146H40.0302V140.897C40.0302 140.496 39.9148 140.176 39.6839 139.938C39.4567 139.7 39.1566 139.581 38.7837 139.581C38.5316 139.581 38.3043 139.645 38.1019 139.773C37.9031 139.897 37.745 140.073 37.6278 140.3C37.5107 140.524 37.4521 140.787 37.4521 141.089V146H35.1829Z" fill="white"/>
<path d="M230.759 113V104.273H232.604V111.479H236.345V113H230.759ZM237.567 113V104.273H243.448V105.794H239.412V107.874H243.145V109.395H239.412V111.479H243.465V113H237.567ZM244.915 113V104.273H248.358C249.02 104.273 249.584 104.399 250.05 104.652C250.516 104.902 250.871 105.25 251.115 105.696C251.362 106.139 251.486 106.651 251.486 107.23C251.486 107.81 251.361 108.321 251.111 108.764C250.861 109.207 250.499 109.553 250.024 109.8C249.553 110.047 248.982 110.17 248.311 110.17H246.116V108.692H248.013C248.368 108.692 248.661 108.631 248.891 108.509C249.124 108.384 249.297 108.212 249.411 107.993C249.527 107.771 249.585 107.517 249.585 107.23C249.585 106.94 249.527 106.687 249.411 106.472C249.297 106.253 249.124 106.084 248.891 105.964C248.658 105.842 248.362 105.781 248.004 105.781H246.76V113H244.915Z" fill="white"/>
<path d="M6.86612 226.228C6.82351 225.799 6.64063 225.465 6.31747 225.227C5.99432 224.989 5.55575 224.87 5.00178 224.87C4.62536 224.87 4.30753 224.923 4.0483 225.03C3.78906 225.133 3.5902 225.277 3.4517 225.461C3.31676 225.646 3.24929 225.855 3.24929 226.09C3.24219 226.285 3.28303 226.456 3.3718 226.601C3.46413 226.747 3.5902 226.873 3.75 226.979C3.9098 227.082 4.09446 227.173 4.30398 227.251C4.51349 227.326 4.73722 227.39 4.97514 227.443L5.95526 227.677C6.43111 227.784 6.8679 227.926 7.26562 228.103C7.66335 228.281 8.00781 228.499 8.29901 228.759C8.5902 229.018 8.8157 229.323 8.9755 229.675C9.13885 230.026 9.2223 230.429 9.22585 230.884C9.2223 231.551 9.05185 232.13 8.71449 232.62C8.38068 233.107 7.89773 233.485 7.26562 233.755C6.63707 234.021 5.87891 234.154 4.99112 234.154C4.11044 234.154 3.34339 234.02 2.68999 233.75C2.04013 233.48 1.53232 233.08 1.16655 232.551C0.804332 232.018 0.614347 231.36 0.596591 230.575H2.82848C2.85334 230.941 2.9581 231.246 3.14276 231.491C3.33097 231.733 3.58132 231.915 3.89382 232.04C4.20987 232.161 4.56676 232.221 4.96449 232.221C5.35511 232.221 5.69425 232.164 5.98189 232.05C6.27308 231.937 6.49858 231.779 6.65838 231.576C6.81818 231.374 6.89808 231.141 6.89808 230.879C6.89808 230.634 6.82528 230.428 6.67969 230.261C6.53764 230.094 6.32813 229.952 6.05114 229.835C5.7777 229.717 5.44212 229.611 5.04439 229.515L3.85653 229.217C2.93679 228.993 2.21058 228.643 1.67791 228.167C1.14524 227.691 0.880682 227.05 0.884233 226.244C0.880682 225.584 1.05646 225.007 1.41158 224.513C1.77024 224.02 2.26207 223.634 2.88707 223.357C3.51207 223.08 4.2223 222.942 5.01776 222.942C5.82741 222.942 6.53409 223.08 7.13778 223.357C7.74503 223.634 8.21733 224.02 8.55469 224.513C8.89205 225.007 9.06605 225.578 9.0767 226.228H6.86612ZM10.7346 234V225.818H12.8973V227.262H12.9932C13.1636 226.782 13.4477 226.404 13.8454 226.127C14.2432 225.85 14.719 225.712 15.273 225.712C15.8341 225.712 16.3117 225.852 16.7059 226.132C17.1001 226.409 17.3628 226.786 17.4942 227.262H17.5795C17.7464 226.793 18.0482 226.418 18.485 226.138C18.9253 225.854 19.4456 225.712 20.0457 225.712C20.8092 225.712 21.4289 225.955 21.9047 226.441C22.3841 226.924 22.6238 227.61 22.6238 228.498V234H20.36V228.945C20.36 228.49 20.2393 228.15 19.9978 227.922C19.7563 227.695 19.4545 227.581 19.0922 227.581C18.6803 227.581 18.3589 227.713 18.1281 227.975C17.8973 228.235 17.7819 228.577 17.7819 229.004V234H15.5819V228.897C15.5819 228.496 15.4665 228.176 15.2357 227.938C15.0084 227.7 14.7084 227.581 14.3355 227.581C14.0834 227.581 13.8561 227.645 13.6537 227.773C13.4548 227.897 13.2968 228.073 13.1796 228.3C13.0624 228.524 13.0038 228.787 13.0038 229.089V234H10.7346ZM24.4163 234V225.818H26.6855V234H24.4163ZM25.5562 224.763C25.2188 224.763 24.9294 224.652 24.6879 224.428C24.45 224.201 24.3311 223.929 24.3311 223.613C24.3311 223.3 24.45 223.032 24.6879 222.809C24.9294 222.581 25.2188 222.468 25.5562 222.468C25.8936 222.468 26.1812 222.581 26.4191 222.809C26.6606 223.032 26.7813 223.3 26.7813 223.613C26.7813 223.929 26.6606 224.201 26.4191 224.428C26.1812 224.652 25.8936 224.763 25.5562 224.763ZM30.7724 229.27V234H28.5032V225.818H30.6658V227.262H30.7617C30.9428 226.786 31.2464 226.409 31.6726 226.132C32.0987 225.852 32.6154 225.712 33.2227 225.712C33.7908 225.712 34.2862 225.836 34.7088 226.085C35.1314 226.333 35.4599 226.688 35.6942 227.15C35.9286 227.608 36.0458 228.155 36.0458 228.79V234H33.7766V229.195C33.7802 228.695 33.6523 228.304 33.3931 228.023C33.1339 227.739 32.777 227.597 32.3224 227.597C32.017 227.597 31.7472 227.663 31.5128 227.794C31.282 227.926 31.1009 228.118 30.9695 228.37C30.8416 228.618 30.7759 228.918 30.7724 229.27Z" fill="white"/>
<path d="M6.86612 281.228C6.82351 280.799 6.64063 280.465 6.31747 280.227C5.99432 279.989 5.55575 279.87 5.00178 279.87C4.62536 279.87 4.30753 279.923 4.0483 280.03C3.78906 280.133 3.5902 280.277 3.4517 280.461C3.31676 280.646 3.24929 280.855 3.24929 281.09C3.24219 281.285 3.28303 281.456 3.3718 281.601C3.46413 281.747 3.5902 281.873 3.75 281.979C3.9098 282.082 4.09446 282.173 4.30398 282.251C4.51349 282.326 4.73722 282.39 4.97514 282.443L5.95526 282.677C6.43111 282.784 6.8679 282.926 7.26562 283.103C7.66335 283.281 8.00781 283.499 8.29901 283.759C8.5902 284.018 8.8157 284.323 8.9755 284.675C9.13885 285.026 9.2223 285.429 9.22585 285.884C9.2223 286.551 9.05185 287.13 8.71449 287.62C8.38068 288.107 7.89773 288.485 7.26562 288.755C6.63707 289.021 5.87891 289.154 4.99112 289.154C4.11044 289.154 3.34339 289.02 2.68999 288.75C2.04013 288.48 1.53232 288.08 1.16655 287.551C0.804332 287.018 0.614347 286.36 0.596591 285.575H2.82848C2.85334 285.941 2.9581 286.246 3.14276 286.491C3.33097 286.733 3.58132 286.915 3.89382 287.04C4.20987 287.161 4.56676 287.221 4.96449 287.221C5.35511 287.221 5.69425 287.164 5.98189 287.05C6.27308 286.937 6.49858 286.779 6.65838 286.576C6.81818 286.374 6.89808 286.141 6.89808 285.879C6.89808 285.634 6.82528 285.428 6.67969 285.261C6.53764 285.094 6.32813 284.952 6.05114 284.835C5.7777 284.717 5.44212 284.611 5.04439 284.515L3.85653 284.217C2.93679 283.993 2.21058 283.643 1.67791 283.167C1.14524 282.691 0.880682 282.05 0.884233 281.244C0.880682 280.584 1.05646 280.007 1.41158 279.513C1.77024 279.02 2.26207 278.634 2.88707 278.357C3.51207 278.08 4.2223 277.942 5.01776 277.942C5.82741 277.942 6.53409 278.08 7.13778 278.357C7.74503 278.634 8.21733 279.02 8.55469 279.513C8.89205 280.007 9.06605 280.578 9.0767 281.228H6.86612ZM16.6952 281.228C16.6526 280.799 16.4697 280.465 16.1466 280.227C15.8234 279.989 15.3849 279.87 14.8309 279.87C14.4545 279.87 14.1366 279.923 13.8774 280.03C13.6182 280.133 13.4193 280.277 13.2808 280.461C13.1459 280.646 13.0784 280.855 13.0784 281.09C13.0713 281.285 13.1121 281.456 13.2009 281.601C13.2932 281.747 13.4193 281.873 13.5791 281.979C13.7389 282.082 13.9236 282.173 14.1331 282.251C14.3426 282.326 14.5663 282.39 14.8042 282.443L15.7844 282.677C16.2602 282.784 16.697 282.926 17.0947 283.103C17.4925 283.281 17.8369 283.499 18.1281 283.759C18.4193 284.018 18.6448 284.323 18.8046 284.675C18.968 285.026 19.0514 285.429 19.055 285.884C19.0514 286.551 18.8809 287.13 18.5436 287.62C18.2098 288.107 17.7268 288.485 17.0947 288.755C16.4662 289.021 15.708 289.154 14.8202 289.154C13.9395 289.154 13.1725 289.02 12.5191 288.75C11.8692 288.48 11.3614 288.08 10.9956 287.551C10.6334 287.018 10.4434 286.36 10.4257 285.575H12.6576C12.6824 285.941 12.7872 286.246 12.9719 286.491C13.1601 286.733 13.4104 286.915 13.7229 287.04C14.039 287.161 14.3959 287.221 14.7936 287.221C15.1842 287.221 15.5233 287.164 15.811 287.05C16.1022 286.937 16.3277 286.779 16.4875 286.576C16.6473 286.374 16.7272 286.141 16.7272 285.879C16.7272 285.634 16.6544 285.428 16.5088 285.261C16.3667 285.094 16.1572 284.952 15.8802 284.835C15.6068 284.717 15.2712 284.611 14.8735 284.515L13.6856 284.217C12.7659 283.993 12.0397 283.643 11.507 283.167C10.9743 282.691 10.7098 282.05 10.7133 281.244C10.7098 280.584 10.8856 280.007 11.2407 279.513C11.5993 279.02 12.0912 278.634 12.7162 278.357C13.3412 278.08 14.0514 277.942 14.8469 277.942C15.6565 277.942 16.3632 278.08 16.9669 278.357C17.5741 278.634 18.0464 279.02 18.3838 279.513C18.7211 280.007 18.8952 280.578 18.9058 281.228H16.6952Z" fill="white"/>
<rect x="265.5" y="248.5" width="17" height="17" fill="#277768" stroke="white"/>
<rect x="471.5" y="226.5" width="17" height="17" fill="#277768" stroke="white"/>
<rect x="631.5" y="202.5" width="17" height="17" fill="#277768" stroke="white"/>
<path d="M265.5 53L262.613 58L268.387 58L265.5 53ZM265.5 235L268.387 230L262.613 230L265.5 235ZM265 57.5L265 230.5L266 230.5L266 57.5L265 57.5Z" fill="white"/>
</svg>
