<svg width="645" height="322" viewBox="0 0 645 322" fill="none" xmlns="http://www.w3.org/2000/svg">
<path d="M25.9291 262V65.6364H103.401C118.23 65.6364 130.886 68.2891 141.369 73.5945C151.916 78.8359 159.938 86.2827 165.435 95.9347C170.997 105.523 173.777 116.805 173.777 129.781C173.777 142.82 170.965 154.038 165.34 163.435C159.715 172.767 151.565 179.926 140.89 184.912C130.279 189.898 117.431 192.391 102.346 192.391H50.4745V159.024H95.6343C103.56 159.024 110.144 157.937 115.386 155.764C120.627 153.591 124.526 150.331 127.083 145.984C129.704 141.638 131.014 136.237 131.014 129.781C131.014 123.261 129.704 117.763 127.083 113.289C124.526 108.815 120.595 105.427 115.29 103.126C110.048 100.761 103.433 99.5781 95.4426 99.5781H67.4454V262H25.9291ZM131.973 172.639L180.776 262H134.945L87.1968 172.639H131.973Z" fill="#0094FF"/>
<path d="M376.373 134.383H334.377C333.61 128.95 332.044 124.124 329.679 119.905C327.314 115.622 324.278 111.979 320.57 108.974C316.863 105.97 312.58 103.669 307.722 102.071C302.928 100.473 297.719 99.674 292.094 99.674C281.93 99.674 273.078 102.199 265.535 107.249C257.992 112.234 252.144 119.521 247.989 129.109C243.834 138.634 241.756 150.203 241.756 163.818C241.756 177.817 243.834 189.578 247.989 199.102C252.207 208.626 258.088 215.817 265.631 220.675C273.173 225.533 281.899 227.962 291.806 227.962C297.367 227.962 302.513 227.227 307.243 225.757C312.037 224.287 316.288 222.146 319.995 219.333C323.703 216.457 326.771 212.973 329.2 208.882C331.693 204.791 333.418 200.125 334.377 194.884L376.373 195.075C375.286 204.088 372.57 212.781 368.223 221.155C363.94 229.464 358.156 236.911 350.869 243.495C343.646 250.015 335.016 255.192 324.981 259.028C315.009 262.799 303.727 264.685 291.135 264.685C273.621 264.685 257.96 260.722 244.154 252.795C230.411 244.869 219.544 233.396 211.554 218.374C203.628 203.353 199.665 185.168 199.665 163.818C199.665 142.405 203.692 124.188 211.746 109.166C219.8 94.1449 230.73 82.7031 244.537 74.8409C258.344 66.9148 273.877 62.9517 291.135 62.9517C302.513 62.9517 313.06 64.5497 322.776 67.7457C332.555 70.9418 341.217 75.6079 348.759 81.7443C356.302 87.8168 362.438 95.2635 367.168 104.085C371.962 112.906 375.031 123.005 376.373 134.383Z" fill="#97D3FF"/>
<path d="M406.144 65.6364H457.344L511.421 197.568H513.722L567.799 65.6364H618.999V262H578.729V134.191H577.099L526.282 261.041H498.861L448.044 133.712H446.414V262H406.144V65.6364Z" fill="#008CE3"/>
</svg>
