<svg width="138" height="138" viewBox="0 0 138 138" fill="none" xmlns="http://www.w3.org/2000/svg">
<rect width="138" height="138" fill="black"/>
<path d="M34 39V99.3077C34 99.86 34.4477 100.308 35 100.308H48.5C49.0523 100.308 49.5 99.86 49.5 99.3077V79.1538C49.5 78.6016 49.9477 78.1538 50.5 78.1538H73.5846C73.9375 78.1538 74.2643 78.3399 74.4445 78.6433L87.0171 99.8182C87.1972 100.122 87.524 100.308 87.8769 100.308H104.196C104.981 100.308 105.46 99.4437 105.044 98.7777L92.7367 79.0864C92.4242 78.5863 92.61 77.9258 93.1375 77.662L94.9231 76.7692L100.317 73.398C100.413 73.3382 100.498 73.2627 100.568 73.1747L103.165 69.9289C103.209 69.8739 103.247 69.8144 103.278 69.7514L104.555 67.1967C104.595 67.1172 104.624 67.0328 104.642 66.9456L105.288 63.7125C105.301 63.6479 105.308 63.5822 105.308 63.5164V53.3298C105.308 53.2639 105.301 53.1982 105.288 53.1337L104.633 49.8593C104.621 49.7994 104.604 49.7407 104.581 49.684L103.286 46.4453C103.249 46.3541 103.2 46.2687 103.138 46.192L100.541 42.9453C100.488 42.8795 100.427 42.8206 100.36 42.77L97.7644 40.8233C97.7165 40.7873 97.6653 40.7557 97.6117 40.7289L94.9231 39.3846L91.6404 38.0715C91.5222 38.0243 91.3962 38 91.269 38H35C34.4477 38 34 38.4477 34 39Z" fill="white" stroke="black"/>
<path d="M49.2308 51.8462V65H83.1539H85.2308L88 62.9231L89.3846 61.5385V58.7692V55.3077L88 53.2308L85.2308 51.8462H49.2308Z" fill="black" stroke="black"/>
<path d="M49 80H100.324" stroke="black" stroke-width="6"/>
</svg>
