<svg width="497" height="431" viewBox="0 0 497 431" fill="none" xmlns="http://www.w3.org/2000/svg">
<path d="M2.59793 428.536L248.253 3.00025L493.908 428.536H2.59793Z" fill="url(#paint0_linear_41_186)" stroke="white" stroke-width="3"/>
<path fill-rule="evenodd" clip-rule="evenodd" d="M471 388H25V386H471V388Z" fill="white"/>
<path fill-rule="evenodd" clip-rule="evenodd" d="M445 343L52 343L52 341L445 341L445 343Z" fill="white"/>
<path fill-rule="evenodd" clip-rule="evenodd" d="M419 298L78 298L78 296L419 296L419 298Z" fill="white"/>
<path fill-rule="evenodd" clip-rule="evenodd" d="M394 254L104 254L104 252L394 252L394 254Z" fill="white"/>
<path fill-rule="evenodd" clip-rule="evenodd" d="M371 214L126 214L126 212L371 212L371 214Z" fill="white"/>
<path fill-rule="evenodd" clip-rule="evenodd" d="M342 164L155 164L155 162L342 162L342 164Z" fill="white"/>
<path fill-rule="evenodd" clip-rule="evenodd" d="M317 120L180 120L180 118L317 118L317 120Z" fill="white"/>
<path fill-rule="evenodd" clip-rule="evenodd" d="M289 73L208 73L208 71L289 71L289 73Z" fill="white"/>
<path d="M241.604 53.2727V62H239.759V53.2727H241.604ZM250.422 53.2727V62H248.828L245.031 56.5071H244.967V62H243.122V53.2727H244.741L248.508 58.7614H248.585V53.2727H250.422ZM255.04 62H251.946V53.2727H255.065C255.943 53.2727 256.699 53.4474 257.332 53.7969C257.966 54.1435 258.453 54.642 258.794 55.2926C259.138 55.9432 259.31 56.7216 259.31 57.6278C259.31 58.5369 259.138 59.3182 258.794 59.9716C258.453 60.625 257.963 61.1264 257.324 61.4759C256.688 61.8253 255.926 62 255.04 62ZM253.791 60.419H254.963C255.509 60.419 255.967 60.3224 256.339 60.1293C256.714 59.9332 256.996 59.6307 257.183 59.2216C257.374 58.8097 257.469 58.2784 257.469 57.6278C257.469 56.983 257.374 56.456 257.183 56.0469C256.996 55.6378 256.716 55.3366 256.344 55.1435C255.972 54.9503 255.513 54.8537 254.967 54.8537H253.791V60.419Z" fill="#005F9D"/>
<path d="M228.058 93.2727V102H226.464L222.668 96.5071H222.604V102H220.759V93.2727H222.378L226.145 98.7614H226.222V93.2727H228.058ZM229.583 102V93.2727H235.463V94.794H231.428V96.8736H235.161V98.3949H231.428V100.479H235.48V102H229.583ZM242.717 96.0938C242.658 95.8864 242.574 95.7031 242.466 95.544C242.358 95.3821 242.226 95.2457 242.07 95.1349C241.916 95.0213 241.74 94.9347 241.541 94.875C241.345 94.8153 241.128 94.7855 240.889 94.7855C240.443 94.7855 240.051 94.8963 239.713 95.1179C239.378 95.3395 239.116 95.6619 238.929 96.0852C238.741 96.5057 238.648 97.0199 238.648 97.6278C238.648 98.2358 238.74 98.7528 238.925 99.179C239.109 99.6051 239.371 99.9304 239.709 100.155C240.047 100.376 240.446 100.487 240.906 100.487C241.324 100.487 241.68 100.413 241.976 100.266C242.274 100.115 242.501 99.9034 242.658 99.6307C242.817 99.358 242.896 99.0355 242.896 98.6634L243.271 98.7188H241.021V97.3295H244.673V98.429C244.673 99.196 244.511 99.8551 244.188 100.406C243.864 100.955 243.418 101.378 242.849 101.676C242.281 101.972 241.631 102.119 240.898 102.119C240.08 102.119 239.361 101.939 238.741 101.578C238.122 101.214 237.639 100.699 237.293 100.031C236.949 99.3608 236.777 98.5653 236.777 97.6449C236.777 96.9375 236.879 96.3068 237.084 95.7528C237.291 95.196 237.581 94.7244 237.953 94.3381C238.325 93.9517 238.759 93.6577 239.253 93.456C239.747 93.2543 240.283 93.1534 240.859 93.1534C241.354 93.1534 241.814 93.2259 242.24 93.3707C242.666 93.5128 243.044 93.7145 243.374 93.9759C243.706 94.2372 243.977 94.5483 244.188 94.9091C244.398 95.267 244.533 95.6619 244.592 96.0938H242.717ZM254.079 97.6364C254.079 98.5881 253.899 99.3977 253.538 100.065C253.18 100.733 252.691 101.243 252.072 101.595C251.456 101.945 250.762 102.119 249.993 102.119C249.217 102.119 248.521 101.943 247.904 101.591C247.288 101.239 246.801 100.729 246.443 100.061C246.085 99.3935 245.906 98.5852 245.906 97.6364C245.906 96.6847 246.085 95.875 246.443 95.2074C246.801 94.5398 247.288 94.0312 247.904 93.6818C248.521 93.3295 249.217 93.1534 249.993 93.1534C250.762 93.1534 251.456 93.3295 252.072 93.6818C252.691 94.0312 253.18 94.5398 253.538 95.2074C253.899 95.875 254.079 96.6847 254.079 97.6364ZM252.208 97.6364C252.208 97.0199 252.116 96.5 251.931 96.0767C251.75 95.6534 251.493 95.3324 251.16 95.1136C250.828 94.8949 250.439 94.7855 249.993 94.7855C249.547 94.7855 249.157 94.8949 248.825 95.1136C248.493 95.3324 248.234 95.6534 248.049 96.0767C247.868 96.5 247.777 97.0199 247.777 97.6364C247.777 98.2528 247.868 98.7727 248.049 99.196C248.234 99.6193 248.493 99.9403 248.825 100.159C249.157 100.378 249.547 100.487 249.993 100.487C250.439 100.487 250.828 100.378 251.16 100.159C251.493 99.9403 251.75 99.6193 251.931 99.196C252.116 98.7727 252.208 98.2528 252.208 97.6364ZM263.146 96.3281H261.28C261.246 96.0866 261.176 95.8722 261.071 95.6847C260.966 95.4943 260.831 95.3324 260.666 95.1989C260.501 95.0653 260.311 94.9631 260.095 94.892C259.882 94.821 259.651 94.7855 259.401 94.7855C258.949 94.7855 258.555 94.8977 258.22 95.1222C257.885 95.3437 257.625 95.6676 257.44 96.0938C257.256 96.517 257.163 97.0312 257.163 97.6364C257.163 98.2585 257.256 98.7812 257.44 99.2045C257.628 99.6278 257.889 99.9474 258.224 100.163C258.56 100.379 258.947 100.487 259.388 100.487C259.635 100.487 259.864 100.455 260.074 100.389C260.287 100.324 260.476 100.229 260.641 100.104C260.805 99.9759 260.942 99.821 261.05 99.6392C261.161 99.4574 261.237 99.25 261.28 99.017L263.146 99.0256C263.098 99.4261 262.977 99.8125 262.784 100.185C262.594 100.554 262.337 100.885 262.013 101.178C261.692 101.467 261.308 101.697 260.862 101.868C260.419 102.036 259.918 102.119 259.358 102.119C258.58 102.119 257.884 101.943 257.27 101.591C256.659 101.239 256.176 100.729 255.821 100.061C255.469 99.3935 255.293 98.5852 255.293 97.6364C255.293 96.6847 255.472 95.875 255.83 95.2074C256.188 94.5398 256.673 94.0312 257.287 93.6818C257.901 93.3295 258.591 93.1534 259.358 93.1534C259.864 93.1534 260.332 93.2244 260.764 93.3665C261.199 93.5085 261.584 93.7159 261.919 93.9886C262.254 94.2585 262.527 94.5895 262.737 94.9815C262.95 95.3736 263.087 95.8224 263.146 96.3281ZM266.315 93.2727V102H264.469V93.2727H266.315ZM275.853 97.6364C275.853 98.5881 275.672 99.3977 275.311 100.065C274.953 100.733 274.465 101.243 273.846 101.595C273.229 101.945 272.536 102.119 271.766 102.119C270.99 102.119 270.294 101.943 269.678 101.591C269.061 101.239 268.574 100.729 268.216 100.061C267.858 99.3935 267.679 98.5852 267.679 97.6364C267.679 96.6847 267.858 95.875 268.216 95.2074C268.574 94.5398 269.061 94.0312 269.678 93.6818C270.294 93.3295 270.99 93.1534 271.766 93.1534C272.536 93.1534 273.229 93.3295 273.846 93.6818C274.465 94.0312 274.953 94.5398 275.311 95.2074C275.672 95.875 275.853 96.6847 275.853 97.6364ZM273.982 97.6364C273.982 97.0199 273.89 96.5 273.705 96.0767C273.523 95.6534 273.266 95.3324 272.934 95.1136C272.601 94.8949 272.212 94.7855 271.766 94.7855C271.32 94.7855 270.931 94.8949 270.598 95.1136C270.266 95.3324 270.007 95.6534 269.823 96.0767C269.641 96.5 269.55 97.0199 269.55 97.6364C269.55 98.2528 269.641 98.7727 269.823 99.196C270.007 99.6193 270.266 99.9403 270.598 100.159C270.931 100.378 271.32 100.487 271.766 100.487C272.212 100.487 272.601 100.378 272.934 100.159C273.266 99.9403 273.523 99.6193 273.705 99.196C273.89 98.7727 273.982 98.2528 273.982 97.6364Z" fill="#005F9D"/>
<path d="M210.604 136.273V145H208.759V136.273H210.604ZM219.422 136.273V145H217.828L214.031 139.507H213.967V145H212.122V136.273H213.741L217.508 141.761H217.585V136.273H219.422ZM225.68 138.783C225.646 138.439 225.5 138.172 225.241 137.982C224.983 137.791 224.632 137.696 224.189 137.696C223.888 137.696 223.634 137.739 223.426 137.824C223.219 137.906 223.06 138.021 222.949 138.169C222.841 138.317 222.787 138.484 222.787 138.672C222.781 138.828 222.814 138.964 222.885 139.081C222.959 139.197 223.06 139.298 223.188 139.384C223.315 139.466 223.463 139.538 223.631 139.601C223.798 139.661 223.977 139.712 224.168 139.754L224.952 139.942C225.332 140.027 225.682 140.141 226 140.283C226.318 140.425 226.594 140.599 226.827 140.807C227.06 141.014 227.24 141.259 227.368 141.54C227.499 141.821 227.565 142.143 227.568 142.507C227.565 143.041 227.429 143.504 227.159 143.896C226.892 144.286 226.506 144.588 226 144.804C225.497 145.017 224.891 145.124 224.18 145.124C223.476 145.124 222.862 145.016 222.339 144.8C221.82 144.584 221.413 144.264 221.121 143.841C220.831 143.415 220.679 142.888 220.665 142.26H222.45C222.47 142.553 222.554 142.797 222.702 142.993C222.852 143.186 223.053 143.332 223.303 143.432C223.555 143.528 223.841 143.577 224.159 143.577C224.472 143.577 224.743 143.531 224.973 143.44C225.206 143.349 225.386 143.223 225.514 143.061C225.642 142.899 225.706 142.713 225.706 142.503C225.706 142.307 225.648 142.142 225.531 142.009C225.418 141.875 225.25 141.761 225.028 141.668C224.81 141.574 224.541 141.489 224.223 141.412L223.273 141.173C222.537 140.994 221.956 140.714 221.53 140.334C221.104 139.953 220.892 139.44 220.895 138.795C220.892 138.267 221.033 137.805 221.317 137.411C221.604 137.016 221.997 136.707 222.497 136.486C222.997 136.264 223.565 136.153 224.202 136.153C224.849 136.153 225.415 136.264 225.898 136.486C226.384 136.707 226.761 137.016 227.031 137.411C227.301 137.805 227.44 138.263 227.449 138.783H225.68ZM228.477 137.794V136.273H235.645V137.794H232.973V145H231.149V137.794H228.477ZM237.263 145H235.286L238.298 136.273H240.676L243.685 145H241.707L239.521 138.267H239.453L237.263 145ZM237.139 141.57H241.81V143.01H237.139V141.57ZM244.735 145V136.273H246.58V143.479H250.322V145H244.735ZM253.271 145H251.293L254.306 136.273H256.684L259.692 145H257.715L255.529 138.267H255.461L253.271 145ZM253.147 141.57H257.817V143.01H253.147V141.57ZM268.033 139.328H266.167C266.132 139.087 266.063 138.872 265.958 138.685C265.853 138.494 265.718 138.332 265.553 138.199C265.388 138.065 265.198 137.963 264.982 137.892C264.769 137.821 264.537 137.786 264.287 137.786C263.836 137.786 263.442 137.898 263.107 138.122C262.772 138.344 262.512 138.668 262.327 139.094C262.142 139.517 262.05 140.031 262.05 140.636C262.05 141.259 262.142 141.781 262.327 142.205C262.515 142.628 262.776 142.947 263.111 143.163C263.446 143.379 263.834 143.487 264.275 143.487C264.522 143.487 264.75 143.455 264.961 143.389C265.174 143.324 265.363 143.229 265.527 143.104C265.692 142.976 265.828 142.821 265.936 142.639C266.047 142.457 266.124 142.25 266.167 142.017L268.033 142.026C267.985 142.426 267.864 142.812 267.671 143.185C267.48 143.554 267.223 143.885 266.9 144.178C266.578 144.467 266.195 144.697 265.749 144.868C265.306 145.036 264.804 145.119 264.245 145.119C263.466 145.119 262.77 144.943 262.157 144.591C261.546 144.239 261.063 143.729 260.708 143.061C260.355 142.393 260.179 141.585 260.179 140.636C260.179 139.685 260.358 138.875 260.716 138.207C261.074 137.54 261.56 137.031 262.174 136.682C262.787 136.33 263.478 136.153 264.245 136.153C264.75 136.153 265.219 136.224 265.651 136.366C266.086 136.509 266.471 136.716 266.806 136.989C267.141 137.259 267.414 137.589 267.624 137.982C267.837 138.374 267.973 138.822 268.033 139.328ZM271.201 136.273V145H269.356V136.273H271.201ZM280.739 140.636C280.739 141.588 280.559 142.398 280.198 143.065C279.84 143.733 279.352 144.243 278.732 144.595C278.116 144.945 277.423 145.119 276.653 145.119C275.877 145.119 275.181 144.943 274.565 144.591C273.948 144.239 273.461 143.729 273.103 143.061C272.745 142.393 272.566 141.585 272.566 140.636C272.566 139.685 272.745 138.875 273.103 138.207C273.461 137.54 273.948 137.031 274.565 136.682C275.181 136.33 275.877 136.153 276.653 136.153C277.423 136.153 278.116 136.33 278.732 136.682C279.352 137.031 279.84 137.54 280.198 138.207C280.559 138.875 280.739 139.685 280.739 140.636ZM278.869 140.636C278.869 140.02 278.776 139.5 278.592 139.077C278.41 138.653 278.153 138.332 277.82 138.114C277.488 137.895 277.099 137.786 276.653 137.786C276.207 137.786 275.817 137.895 275.485 138.114C275.153 138.332 274.894 138.653 274.71 139.077C274.528 139.5 274.437 140.02 274.437 140.636C274.437 141.253 274.528 141.773 274.71 142.196C274.894 142.619 275.153 142.94 275.485 143.159C275.817 143.378 276.207 143.487 276.653 143.487C277.099 143.487 277.488 143.378 277.82 143.159C278.153 142.94 278.41 142.619 278.592 142.196C278.776 141.773 278.869 141.253 278.869 140.636ZM276.001 135.429L276.904 133.49H278.583L277.283 135.429H276.001ZM289.406 136.273V145H287.812L284.015 139.507H283.951V145H282.106V136.273H283.725L287.493 141.761H287.569V136.273H289.406Z" fill="#005F9D"/>
<path d="M224.759 193V184.273H228.202C228.864 184.273 229.428 184.399 229.893 184.652C230.359 184.902 230.714 185.25 230.959 185.696C231.206 186.139 231.33 186.651 231.33 187.23C231.33 187.81 231.205 188.321 230.955 188.764C230.705 189.207 230.342 189.553 229.868 189.8C229.396 190.047 228.825 190.17 228.155 190.17H225.96V188.692H227.857C228.212 188.692 228.504 188.631 228.734 188.509C228.967 188.384 229.141 188.212 229.254 187.993C229.371 187.771 229.429 187.517 229.429 187.23C229.429 186.94 229.371 186.687 229.254 186.472C229.141 186.253 228.967 186.084 228.734 185.964C228.501 185.842 228.206 185.781 227.848 185.781H226.604V193H224.759ZM232.528 193V184.273H234.373V191.479H238.115V193H232.528ZM241.064 193H239.086L242.099 184.273H244.477L247.485 193H245.508L243.322 186.267H243.254L241.064 193ZM240.94 189.57H245.61V191.01H240.94V189.57ZM255.836 184.273V193H254.242L250.445 187.507H250.381V193H248.536V184.273H250.155L253.922 189.761H253.999V184.273H255.836ZM257.028 185.794V184.273H264.195V185.794H261.523V193H259.7V185.794H257.028ZM265.814 193H263.836L266.849 184.273H269.227L272.235 193H270.258L268.072 186.267H268.004L265.814 193ZM265.69 189.57H270.36V191.01H265.69V189.57Z" fill="white"/>
<path d="M226.493 231.783C226.459 231.439 226.313 231.172 226.054 230.982C225.795 230.791 225.445 230.696 225.001 230.696C224.7 230.696 224.446 230.739 224.239 230.824C224.031 230.906 223.872 231.021 223.761 231.169C223.653 231.317 223.599 231.484 223.599 231.672C223.594 231.828 223.626 231.964 223.697 232.081C223.771 232.197 223.872 232.298 224 232.384C224.128 232.466 224.276 232.538 224.443 232.601C224.611 232.661 224.79 232.712 224.98 232.754L225.764 232.942C226.145 233.027 226.494 233.141 226.812 233.283C227.131 233.425 227.406 233.599 227.639 233.807C227.872 234.014 228.053 234.259 228.18 234.54C228.311 234.821 228.378 235.143 228.381 235.507C228.378 236.041 228.241 236.504 227.972 236.896C227.705 237.286 227.318 237.588 226.812 237.804C226.31 238.017 225.703 238.124 224.993 238.124C224.288 238.124 223.675 238.016 223.152 237.8C222.632 237.584 222.226 237.264 221.933 236.841C221.643 236.415 221.491 235.888 221.477 235.26H223.263C223.283 235.553 223.366 235.797 223.514 235.993C223.665 236.186 223.865 236.332 224.115 236.432C224.368 236.528 224.653 236.577 224.972 236.577C225.284 236.577 225.555 236.531 225.786 236.44C226.018 236.349 226.199 236.223 226.327 236.061C226.455 235.899 226.518 235.713 226.518 235.503C226.518 235.307 226.46 235.142 226.344 235.009C226.23 234.875 226.063 234.761 225.841 234.668C225.622 234.574 225.354 234.489 225.036 234.412L224.085 234.173C223.349 233.994 222.768 233.714 222.342 233.334C221.916 232.953 221.705 232.44 221.707 231.795C221.705 231.267 221.845 230.805 222.129 230.411C222.416 230.016 222.81 229.707 223.31 229.486C223.81 229.264 224.378 229.153 225.014 229.153C225.662 229.153 226.227 229.264 226.71 229.486C227.196 229.707 227.574 230.016 227.844 230.411C228.114 230.805 228.253 231.263 228.261 231.783H226.493ZM231.467 229.273V238H229.622V229.273H231.467ZM237.719 231.783C237.685 231.439 237.539 231.172 237.281 230.982C237.022 230.791 236.671 230.696 236.228 230.696C235.927 230.696 235.673 230.739 235.465 230.824C235.258 230.906 235.099 231.021 234.988 231.169C234.88 231.317 234.826 231.484 234.826 231.672C234.82 231.828 234.853 231.964 234.924 232.081C234.998 232.197 235.099 232.298 235.227 232.384C235.354 232.466 235.502 232.538 235.67 232.601C235.837 232.661 236.016 232.712 236.207 232.754L236.991 232.942C237.371 233.027 237.721 233.141 238.039 233.283C238.357 233.425 238.633 233.599 238.866 233.807C239.099 234.014 239.279 234.259 239.407 234.54C239.538 234.821 239.604 235.143 239.607 235.507C239.604 236.041 239.468 236.504 239.198 236.896C238.931 237.286 238.545 237.588 238.039 237.804C237.536 238.017 236.93 238.124 236.219 238.124C235.515 238.124 234.901 238.016 234.379 237.8C233.859 237.584 233.452 237.264 233.16 236.841C232.87 236.415 232.718 235.888 232.704 235.26H234.489C234.509 235.553 234.593 235.797 234.741 235.993C234.891 236.186 235.092 236.332 235.342 236.432C235.594 236.528 235.88 236.577 236.198 236.577C236.511 236.577 236.782 236.531 237.012 236.44C237.245 236.349 237.425 236.223 237.553 236.061C237.681 235.899 237.745 235.713 237.745 235.503C237.745 235.307 237.687 235.142 237.57 235.009C237.457 234.875 237.289 234.761 237.067 234.668C236.849 234.574 236.58 234.489 236.262 234.412L235.312 234.173C234.576 233.994 233.995 233.714 233.569 233.334C233.143 232.953 232.931 232.44 232.934 231.795C232.931 231.267 233.072 230.805 233.356 230.411C233.643 230.016 234.036 229.707 234.536 229.486C235.036 229.264 235.604 229.153 236.241 229.153C236.888 229.153 237.454 229.264 237.937 229.486C238.423 229.707 238.8 230.016 239.07 230.411C239.34 230.805 239.479 231.263 239.488 231.783H237.719ZM240.516 230.794V229.273H247.684V230.794H245.012V238H243.188V230.794H240.516ZM248.864 238V229.273H254.745V230.794H250.709V232.874H254.442V234.395H250.709V236.479H254.762V238H248.864ZM256.212 229.273H258.487L260.891 235.136H260.993L263.396 229.273H265.672V238H263.882V232.32H263.81L261.551 237.957H260.332L258.074 232.298H258.001V238H256.212V229.273ZM268.696 238H266.719L269.732 229.273H272.11L275.118 238H273.141L270.955 231.267H270.887L268.696 238ZM268.573 234.57H273.243V236.01H268.573V234.57Z" fill="white"/>
<path d="M225.759 281V272.273H231.639V273.794H227.604V275.874H231.337V277.395H227.604V279.479H231.656V281H225.759ZM236.4 277.966H237.968L238.757 278.98L239.532 279.884L240.994 281.716H239.272L238.267 280.48L237.751 279.747L236.4 277.966ZM241.126 276.636C241.126 277.588 240.946 278.398 240.585 279.065C240.227 279.733 239.738 280.243 239.119 280.595C238.502 280.945 237.809 281.119 237.039 281.119C236.264 281.119 235.568 280.943 234.951 280.591C234.335 280.239 233.848 279.729 233.49 279.061C233.132 278.393 232.953 277.585 232.953 276.636C232.953 275.685 233.132 274.875 233.49 274.207C233.848 273.54 234.335 273.031 234.951 272.682C235.568 272.33 236.264 272.153 237.039 272.153C237.809 272.153 238.502 272.33 239.119 272.682C239.738 273.031 240.227 273.54 240.585 274.207C240.946 274.875 241.126 275.685 241.126 276.636ZM239.255 276.636C239.255 276.02 239.163 275.5 238.978 275.077C238.797 274.653 238.539 274.332 238.207 274.114C237.875 273.895 237.485 273.786 237.039 273.786C236.593 273.786 236.204 273.895 235.872 274.114C235.539 274.332 235.281 274.653 235.096 275.077C234.914 275.5 234.824 276.02 234.824 276.636C234.824 277.253 234.914 277.773 235.096 278.196C235.281 278.619 235.539 278.94 235.872 279.159C236.204 279.378 236.593 279.487 237.039 279.487C237.485 279.487 237.875 279.378 238.207 279.159C238.539 278.94 238.797 278.619 238.978 278.196C239.163 277.773 239.255 277.253 239.255 276.636ZM247.884 272.273H249.729V277.94C249.729 278.577 249.577 279.134 249.273 279.611C248.972 280.088 248.55 280.46 248.007 280.727C247.464 280.991 246.832 281.124 246.111 281.124C245.386 281.124 244.753 280.991 244.21 280.727C243.668 280.46 243.246 280.088 242.945 279.611C242.643 279.134 242.493 278.577 242.493 277.94V272.273H244.338V277.783C244.338 278.115 244.411 278.411 244.555 278.669C244.703 278.928 244.911 279.131 245.178 279.278C245.445 279.426 245.756 279.5 246.111 279.5C246.469 279.5 246.78 279.426 247.044 279.278C247.311 279.131 247.517 278.928 247.662 278.669C247.81 278.411 247.884 278.115 247.884 277.783V272.273ZM253.092 272.273V281H251.247V272.273H253.092ZM254.61 281V272.273H258.053C258.715 272.273 259.279 272.399 259.745 272.652C260.211 272.902 260.566 273.25 260.81 273.696C261.058 274.139 261.181 274.651 261.181 275.23C261.181 275.81 261.056 276.321 260.806 276.764C260.556 277.207 260.194 277.553 259.719 277.8C259.248 278.047 258.677 278.17 258.006 278.17H255.812V276.692H257.708C258.063 276.692 258.356 276.631 258.586 276.509C258.819 276.384 258.992 276.212 259.106 275.993C259.222 275.771 259.281 275.517 259.281 275.23C259.281 274.94 259.222 274.687 259.106 274.472C258.992 274.253 258.819 274.084 258.586 273.964C258.353 273.842 258.058 273.781 257.7 273.781H256.455V281H254.61ZM270.4 276.636C270.4 277.588 270.219 278.398 269.858 279.065C269.5 279.733 269.012 280.243 268.392 280.595C267.776 280.945 267.083 281.119 266.313 281.119C265.537 281.119 264.841 280.943 264.225 280.591C263.608 280.239 263.121 279.729 262.763 279.061C262.405 278.393 262.226 277.585 262.226 276.636C262.226 275.685 262.405 274.875 262.763 274.207C263.121 273.54 263.608 273.031 264.225 272.682C264.841 272.33 265.537 272.153 266.313 272.153C267.083 272.153 267.776 272.33 268.392 272.682C269.012 273.031 269.5 273.54 269.858 274.207C270.219 274.875 270.4 275.685 270.4 276.636ZM268.529 276.636C268.529 276.02 268.436 275.5 268.252 275.077C268.07 274.653 267.813 274.332 267.48 274.114C267.148 273.895 266.759 273.786 266.313 273.786C265.867 273.786 265.478 273.895 265.145 274.114C264.813 274.332 264.554 274.653 264.37 275.077C264.188 275.5 264.097 276.02 264.097 276.636C264.097 277.253 264.188 277.773 264.37 278.196C264.554 278.619 264.813 278.94 265.145 279.159C265.478 279.378 265.867 279.487 266.313 279.487C266.759 279.487 267.148 279.378 267.48 279.159C267.813 278.94 268.07 278.619 268.252 278.196C268.436 277.773 268.529 277.253 268.529 276.636Z" fill="white"/>
<path d="M217.493 319.783C217.459 319.439 217.313 319.172 217.054 318.982C216.795 318.791 216.445 318.696 216.001 318.696C215.7 318.696 215.446 318.739 215.239 318.824C215.031 318.906 214.872 319.021 214.761 319.169C214.653 319.317 214.599 319.484 214.599 319.672C214.594 319.828 214.626 319.964 214.697 320.081C214.771 320.197 214.872 320.298 215 320.384C215.128 320.466 215.276 320.538 215.443 320.601C215.611 320.661 215.79 320.712 215.98 320.754L216.764 320.942C217.145 321.027 217.494 321.141 217.812 321.283C218.131 321.425 218.406 321.599 218.639 321.807C218.872 322.014 219.053 322.259 219.18 322.54C219.311 322.821 219.378 323.143 219.381 323.507C219.378 324.041 219.241 324.504 218.972 324.896C218.705 325.286 218.318 325.588 217.812 325.804C217.31 326.017 216.703 326.124 215.993 326.124C215.288 326.124 214.675 326.016 214.152 325.8C213.632 325.584 213.226 325.264 212.933 324.841C212.643 324.415 212.491 323.888 212.477 323.26H214.263C214.283 323.553 214.366 323.797 214.514 323.993C214.665 324.186 214.865 324.332 215.115 324.432C215.368 324.528 215.653 324.577 215.972 324.577C216.284 324.577 216.555 324.531 216.786 324.44C217.018 324.349 217.199 324.223 217.327 324.061C217.455 323.899 217.518 323.713 217.518 323.503C217.518 323.307 217.46 323.142 217.344 323.009C217.23 322.875 217.063 322.761 216.841 322.668C216.622 322.574 216.354 322.489 216.036 322.412L215.085 322.173C214.349 321.994 213.768 321.714 213.342 321.334C212.916 320.953 212.705 320.44 212.707 319.795C212.705 319.267 212.845 318.805 213.129 318.411C213.416 318.016 213.81 317.707 214.31 317.486C214.81 317.264 215.378 317.153 216.014 317.153C216.662 317.153 217.227 317.264 217.71 317.486C218.196 317.707 218.574 318.016 218.844 318.411C219.114 318.805 219.253 319.263 219.261 319.783H217.493ZM226.012 317.273H227.858V322.94C227.858 323.577 227.706 324.134 227.402 324.611C227.1 325.088 226.679 325.46 226.136 325.727C225.593 325.991 224.961 326.124 224.24 326.124C223.515 326.124 222.882 325.991 222.339 325.727C221.797 325.46 221.375 325.088 221.074 324.611C220.772 324.134 220.622 323.577 220.622 322.94V317.273H222.467V322.783C222.467 323.115 222.539 323.411 222.684 323.669C222.832 323.928 223.039 324.131 223.306 324.278C223.574 324.426 223.885 324.5 224.24 324.5C224.598 324.5 224.909 324.426 225.173 324.278C225.44 324.131 225.646 323.928 225.791 323.669C225.939 323.411 226.012 323.115 226.012 322.783V317.273ZM229.376 326V317.273H232.87C233.512 317.273 234.048 317.368 234.477 317.558C234.906 317.749 235.228 318.013 235.444 318.351C235.66 318.686 235.768 319.072 235.768 319.51C235.768 319.851 235.7 320.151 235.563 320.409C235.427 320.665 235.239 320.875 235.001 321.04C234.765 321.202 234.495 321.317 234.191 321.385V321.47C234.523 321.484 234.835 321.578 235.124 321.751C235.417 321.925 235.654 322.168 235.836 322.48C236.018 322.79 236.109 323.159 236.109 323.588C236.109 324.051 235.994 324.464 235.763 324.828C235.536 325.189 235.2 325.474 234.754 325.685C234.308 325.895 233.758 326 233.104 326H229.376ZM231.221 324.491H232.725C233.239 324.491 233.614 324.393 233.85 324.197C234.086 323.999 234.204 323.734 234.204 323.405C234.204 323.163 234.146 322.95 234.029 322.766C233.913 322.581 233.746 322.436 233.531 322.331C233.317 322.226 233.063 322.173 232.768 322.173H231.221V324.491ZM231.221 320.925H232.589C232.842 320.925 233.066 320.881 233.262 320.793C233.461 320.702 233.617 320.574 233.731 320.409C233.847 320.244 233.906 320.047 233.906 319.817C233.906 319.501 233.793 319.247 233.569 319.054C233.347 318.861 233.032 318.764 232.623 318.764H231.221V320.925ZM242.7 317.273H244.545V322.94C244.545 323.577 244.393 324.134 244.089 324.611C243.788 325.088 243.366 325.46 242.824 325.727C242.281 325.991 241.649 326.124 240.927 326.124C240.203 326.124 239.569 325.991 239.027 325.727C238.484 325.46 238.062 325.088 237.761 324.611C237.46 324.134 237.309 323.577 237.309 322.94V317.273H239.154V322.783C239.154 323.115 239.227 323.411 239.372 323.669C239.52 323.928 239.727 324.131 239.994 324.278C240.261 324.426 240.572 324.5 240.927 324.5C241.285 324.5 241.596 324.426 241.86 324.278C242.127 324.131 242.333 323.928 242.478 323.669C242.626 323.411 242.7 323.115 242.7 322.783V317.273ZM253.363 317.273V326H251.769L247.972 320.507H247.908V326H246.063V317.273H247.683L251.45 322.761H251.526V317.273H253.363ZM256.733 317.273V326H254.887V317.273H256.733ZM261.344 326H258.251V317.273H261.37C262.248 317.273 263.004 317.447 263.637 317.797C264.271 318.143 264.758 318.642 265.099 319.293C265.442 319.943 265.614 320.722 265.614 321.628C265.614 322.537 265.442 323.318 265.099 323.972C264.758 324.625 264.268 325.126 263.629 325.476C262.992 325.825 262.231 326 261.344 326ZM260.096 324.419H261.268C261.813 324.419 262.272 324.322 262.644 324.129C263.019 323.933 263.3 323.631 263.488 323.222C263.678 322.81 263.773 322.278 263.773 321.628C263.773 320.983 263.678 320.456 263.488 320.047C263.3 319.638 263.021 319.337 262.648 319.143C262.276 318.95 261.817 318.854 261.272 318.854H260.096V324.419ZM267.993 326H266.016L269.029 317.273H271.407L274.415 326H272.438L270.252 319.267H270.184L267.993 326ZM267.87 322.57H272.54V324.01H267.87V322.57ZM278.559 326H275.466V317.273H278.585C279.463 317.273 280.218 317.447 280.852 317.797C281.485 318.143 281.973 318.642 282.314 319.293C282.657 319.943 282.829 320.722 282.829 321.628C282.829 322.537 282.657 323.318 282.314 323.972C281.973 324.625 281.483 325.126 280.843 325.476C280.207 325.825 279.446 326 278.559 326ZM277.311 324.419H278.483C279.028 324.419 279.487 324.322 279.859 324.129C280.234 323.933 280.515 323.631 280.703 323.222C280.893 322.81 280.988 322.278 280.988 321.628C280.988 320.983 280.893 320.456 280.703 320.047C280.515 319.638 280.235 319.337 279.863 319.143C279.491 318.95 279.032 318.854 278.487 318.854H277.311V324.419Z" fill="white"/>
<path d="M213.459 363.328H211.592C211.558 363.087 211.489 362.872 211.384 362.685C211.278 362.494 211.143 362.332 210.979 362.199C210.814 362.065 210.624 361.963 210.408 361.892C210.195 361.821 209.963 361.786 209.713 361.786C209.261 361.786 208.868 361.898 208.533 362.122C208.197 362.344 207.938 362.668 207.753 363.094C207.568 363.517 207.476 364.031 207.476 364.636C207.476 365.259 207.568 365.781 207.753 366.205C207.94 366.628 208.202 366.947 208.537 367.163C208.872 367.379 209.26 367.487 209.7 367.487C209.947 367.487 210.176 367.455 210.386 367.389C210.599 367.324 210.788 367.229 210.953 367.104C211.118 366.976 211.254 366.821 211.362 366.639C211.473 366.457 211.55 366.25 211.592 366.017L213.459 366.026C213.411 366.426 213.29 366.812 213.097 367.185C212.906 367.554 212.649 367.885 212.325 368.178C212.004 368.467 211.621 368.697 211.175 368.868C210.732 369.036 210.23 369.119 209.67 369.119C208.892 369.119 208.196 368.943 207.582 368.591C206.972 368.239 206.489 367.729 206.134 367.061C205.781 366.393 205.605 365.585 205.605 364.636C205.605 363.685 205.784 362.875 206.142 362.207C206.5 361.54 206.986 361.031 207.599 360.682C208.213 360.33 208.903 360.153 209.67 360.153C210.176 360.153 210.645 360.224 211.077 360.366C211.511 360.509 211.896 360.716 212.232 360.989C212.567 361.259 212.839 361.589 213.05 361.982C213.263 362.374 213.399 362.822 213.459 363.328ZM222.802 364.636C222.802 365.588 222.621 366.398 222.261 367.065C221.903 367.733 221.414 368.243 220.795 368.595C220.178 368.945 219.485 369.119 218.715 369.119C217.94 369.119 217.244 368.943 216.627 368.591C216.011 368.239 215.523 367.729 215.165 367.061C214.808 366.393 214.629 365.585 214.629 364.636C214.629 363.685 214.808 362.875 215.165 362.207C215.523 361.54 216.011 361.031 216.627 360.682C217.244 360.33 217.94 360.153 218.715 360.153C219.485 360.153 220.178 360.33 220.795 360.682C221.414 361.031 221.903 361.54 222.261 362.207C222.621 362.875 222.802 363.685 222.802 364.636ZM220.931 364.636C220.931 364.02 220.839 363.5 220.654 363.077C220.472 362.653 220.215 362.332 219.883 362.114C219.55 361.895 219.161 361.786 218.715 361.786C218.269 361.786 217.88 361.895 217.548 362.114C217.215 362.332 216.957 362.653 216.772 363.077C216.59 363.5 216.499 364.02 216.499 364.636C216.499 365.253 216.59 365.773 216.772 366.196C216.957 366.619 217.215 366.94 217.548 367.159C217.88 367.378 218.269 367.487 218.715 367.487C219.161 367.487 219.55 367.378 219.883 367.159C220.215 366.94 220.472 366.619 220.654 366.196C220.839 365.773 220.931 365.253 220.931 364.636ZM224.169 360.273H226.444L228.848 366.136H228.95L231.353 360.273H233.629V369H231.839V363.32H231.767L229.508 368.957H228.289L226.031 363.298H225.958V369H224.169V360.273ZM235.149 369V360.273H238.592C239.254 360.273 239.818 360.399 240.284 360.652C240.75 360.902 241.105 361.25 241.349 361.696C241.597 362.139 241.72 362.651 241.72 363.23C241.72 363.81 241.595 364.321 241.345 364.764C241.095 365.207 240.733 365.553 240.259 365.8C239.787 366.047 239.216 366.17 238.545 366.17H236.351V364.692H238.247C238.602 364.692 238.895 364.631 239.125 364.509C239.358 364.384 239.531 364.212 239.645 363.993C239.761 363.771 239.82 363.517 239.82 363.23C239.82 362.94 239.761 362.687 239.645 362.472C239.531 362.253 239.358 362.084 239.125 361.964C238.892 361.842 238.597 361.781 238.239 361.781H236.994V369H235.149ZM250.939 364.636C250.939 365.588 250.758 366.398 250.397 367.065C250.039 367.733 249.551 368.243 248.931 368.595C248.315 368.945 247.622 369.119 246.852 369.119C246.076 369.119 245.38 368.943 244.764 368.591C244.147 368.239 243.66 367.729 243.302 367.061C242.944 366.393 242.765 365.585 242.765 364.636C242.765 363.685 242.944 362.875 243.302 362.207C243.66 361.54 244.147 361.031 244.764 360.682C245.38 360.33 246.076 360.153 246.852 360.153C247.622 360.153 248.315 360.33 248.931 360.682C249.551 361.031 250.039 361.54 250.397 362.207C250.758 362.875 250.939 363.685 250.939 364.636ZM249.068 364.636C249.068 364.02 248.975 363.5 248.791 363.077C248.609 362.653 248.352 362.332 248.02 362.114C247.687 361.895 247.298 361.786 246.852 361.786C246.406 361.786 246.017 361.895 245.684 362.114C245.352 362.332 245.093 362.653 244.909 363.077C244.727 363.5 244.636 364.02 244.636 364.636C244.636 365.253 244.727 365.773 244.909 366.196C245.093 366.619 245.352 366.94 245.684 367.159C246.017 367.378 246.406 367.487 246.852 367.487C247.298 367.487 247.687 367.378 248.02 367.159C248.352 366.94 248.609 366.619 248.791 366.196C248.975 365.773 249.068 365.253 249.068 364.636ZM259.605 360.273V369H258.011L254.214 363.507H254.151V369H252.305V360.273H253.925L257.692 365.761H257.768V360.273H259.605ZM261.13 369V360.273H267.01V361.794H262.975V363.874H266.708V365.395H262.975V367.479H267.027V369H261.13ZM275.777 360.273V369H274.183L270.386 363.507H270.322V369H268.477V360.273H270.097L273.864 365.761H273.94V360.273H275.777ZM276.969 361.794V360.273H284.137V361.794H281.465V369H279.641V361.794H276.969ZM285.317 369V360.273H291.198V361.794H287.162V363.874H290.895V365.395H287.162V367.479H291.215V369H285.317Z" fill="white"/>
<path d="M235.604 403.273V412H233.759V403.273H235.604ZM236.789 404.794V403.273H243.957V404.794H241.285V412H239.461V404.794H236.789ZM245.137 412V403.273H251.018V404.794H246.983V406.874H250.716V408.395H246.983V410.479H251.035V412H245.137ZM252.485 403.273H254.761L257.164 409.136H257.266L259.67 403.273H261.945V412H260.156V406.32H260.083L257.825 411.957H256.606L254.347 406.298H254.275V412H252.485V403.273Z" fill="white"/>
<defs>
<linearGradient id="paint0_linear_41_186" x1="248.253" y1="0" x2="248.253" y2="430.036" gradientUnits="userSpaceOnUse">
<stop stop-color="white"/>
<stop offset="0.61" stop-color="#049BFF"/>
<stop offset="1" stop-color="#143361"/>
</linearGradient>
</defs>
</svg>
