<svg width="480" height="475" viewBox="0 0 480 475" fill="none" xmlns="http://www.w3.org/2000/svg">
<path d="M15 249L15 252.591L3.36364 252.591L3.36364 248.841C3.36364 247.712 3.59659 246.746 4.0625 245.943C4.52462 245.14 5.18939 244.525 6.05682 244.097C6.92045 243.669 7.95454 243.455 9.15909 243.455C10.3712 243.455 11.4148 243.67 12.2898 244.102C13.161 244.534 13.8314 245.163 14.3011 245.989C14.767 246.814 15 247.818 15 249ZM13.75 251.182L13.75 249.091C13.75 248.129 13.5644 247.331 13.1932 246.699C12.822 246.066 12.2936 245.595 11.608 245.284C10.9223 244.973 10.1061 244.818 9.15909 244.818C8.2197 244.818 7.41098 244.972 6.73295 245.278C6.05114 245.585 5.52841 246.044 5.16477 246.653C4.79735 247.263 4.61364 248.023 4.61364 248.932L4.61364 251.182L13.75 251.182ZM15 241.091L3.36364 241.091L3.36364 234.068L4.61364 234.068L4.61364 239.682L8.54545 239.682L8.54545 234.432L9.79545 234.432L9.79545 239.682L13.75 239.682L13.75 233.977L15 233.977L15 241.091ZM3.36363 222.301L15 222.301L15 223.665L5.86363 230.006L5.86363 230.119L15 230.119L15 231.528L3.36364 231.528L3.36363 230.165L12.5227 223.801L12.5227 223.687L3.36363 223.687L3.36363 222.301ZM6.27273 213.118C5.69697 213.186 5.25 213.463 4.93182 213.947C4.61363 214.432 4.45454 215.027 4.45454 215.732C4.45454 216.247 4.53788 216.697 4.70454 217.084C4.87121 217.466 5.10038 217.766 5.39204 217.982C5.68371 218.194 6.01515 218.3 6.38636 218.3C6.69697 218.3 6.96401 218.226 7.1875 218.078C7.4072 217.927 7.59091 217.733 7.73863 217.499C7.88257 217.264 8.00189 217.018 8.09659 216.76C8.1875 216.502 8.26136 216.266 8.31818 216.05L8.63636 214.868C8.71591 214.565 8.82576 214.228 8.96591 213.857C9.10606 213.482 9.29735 213.124 9.53977 212.783C9.77841 212.438 10.0852 212.154 10.4602 211.93C10.8352 211.707 11.2955 211.595 11.8409 211.595C12.4697 211.595 13.0379 211.76 13.5455 212.089C14.053 212.415 14.4564 212.893 14.7557 213.521C15.0549 214.146 15.2045 214.906 15.2045 215.8C15.2045 216.633 15.0701 217.355 14.8011 217.964C14.5322 218.571 14.1572 219.048 13.6761 219.396C13.1951 219.741 12.6364 219.936 12 219.982L12 218.527C12.4394 218.489 12.803 218.341 13.0909 218.084C13.375 217.822 13.5871 217.493 13.7273 217.095C13.8636 216.694 13.9318 216.262 13.9318 215.8C13.9318 215.262 13.8447 214.779 13.6705 214.351C13.4924 213.923 13.2462 213.584 12.9318 213.334C12.6136 213.084 12.2424 212.959 11.8182 212.959C11.4318 212.959 11.1174 213.067 10.875 213.283C10.6326 213.499 10.4356 213.783 10.2841 214.135C10.1326 214.487 10 214.868 9.88636 215.277L9.47727 216.709C9.21591 217.618 8.8428 218.338 8.35795 218.868C7.8731 219.398 7.23863 219.663 6.45454 219.663C5.80303 219.663 5.23485 219.487 4.75 219.135C4.26136 218.779 3.88257 218.302 3.61363 217.703C3.34091 217.101 3.20454 216.429 3.20454 215.686C3.20454 214.936 3.33901 214.269 3.60795 213.686C3.8731 213.103 4.23674 212.641 4.69886 212.3C5.16098 211.955 5.6856 211.773 6.27273 211.754L6.27273 213.118ZM3.36363 207.869L15 207.869L15 209.278L3.36363 209.278L3.36363 207.869ZM15 201.453L15 205.044L3.36363 205.044L3.36363 201.294C3.36363 200.165 3.59659 199.199 4.0625 198.396C4.52462 197.593 5.18939 196.978 6.05682 196.55C6.92045 196.122 7.95454 195.908 9.15909 195.908C10.3712 195.908 11.4148 196.124 12.2898 196.555C13.161 196.987 13.8314 197.616 14.3011 198.442C14.767 199.268 15 200.271 15 201.453ZM13.75 203.635L13.75 201.544C13.75 200.582 13.5644 199.785 13.1932 199.152C12.822 198.519 12.2936 198.048 11.608 197.737C10.9223 197.427 10.1061 197.271 9.15909 197.271C8.21969 197.271 7.41098 197.425 6.73295 197.732C6.05113 198.038 5.52841 198.497 5.16477 199.107C4.79735 199.716 4.61363 200.476 4.61363 201.385L4.61363 203.635L13.75 203.635ZM15 193.614L15 195.091L3.36363 190.818L3.36363 189.364L15 185.091L15 186.568L5.20454 190.045L5.20454 190.136L15 193.614ZM10.4545 193.068L10.4545 187.114L11.7045 187.114L11.7045 193.068L10.4545 193.068ZM15 179.687L15 183.278L3.36363 183.278L3.36363 179.528C3.36363 178.4 3.59659 177.434 4.0625 176.631C4.52462 175.828 5.18939 175.212 6.05681 174.784C6.92045 174.356 7.95454 174.142 9.15909 174.142C10.3712 174.142 11.4148 174.358 12.2898 174.79C13.161 175.222 13.8314 175.85 14.3011 176.676C14.767 177.502 15 178.506 15 179.687ZM13.75 181.869L13.75 179.778C13.75 178.816 13.5644 178.019 13.1932 177.386C12.822 176.754 12.2936 176.282 11.608 175.972C10.9223 175.661 10.1061 175.506 9.15909 175.506C8.21969 175.506 7.41098 175.659 6.73295 175.966C6.05113 176.273 5.52841 176.731 5.16477 177.341C4.79734 177.951 4.61363 178.71 4.61363 179.619L4.61363 181.869L13.75 181.869Z" fill="white"/>
<path d="M252 471H248.409V459.364H252.159C253.288 459.364 254.254 459.597 255.057 460.062C255.86 460.525 256.475 461.189 256.903 462.057C257.331 462.92 257.545 463.955 257.545 465.159C257.545 466.371 257.33 467.415 256.898 468.29C256.466 469.161 255.837 469.831 255.011 470.301C254.186 470.767 253.182 471 252 471ZM249.818 469.75H251.909C252.871 469.75 253.669 469.564 254.301 469.193C254.934 468.822 255.405 468.294 255.716 467.608C256.027 466.922 256.182 466.106 256.182 465.159C256.182 464.22 256.028 463.411 255.722 462.733C255.415 462.051 254.956 461.528 254.347 461.165C253.737 460.797 252.977 460.614 252.068 460.614H249.818V469.75ZM259.839 471H258.362L262.635 459.364H264.089L268.362 471H266.885L263.408 461.205H263.317L259.839 471ZM260.385 466.455H266.339V467.705H260.385V466.455ZM268.179 460.614V459.364H276.906V460.614H273.247V471H271.838V460.614H268.179ZM278.199 471H276.722L280.994 459.364H282.449L286.722 471H285.244L281.767 461.205H281.676L278.199 471ZM278.744 466.455H284.699V467.705H278.744V466.455Z" fill="white"/>
<mask id="mask0_77_494" style="mask-type:luminance" maskUnits="userSpaceOnUse" x="33" y="0" width="447" height="444">
<path d="M34.5 1.62012H477.9V442.14H34.5V1.62012Z" fill="white" stroke="white" stroke-width="3"/>
</mask>
<g mask="url(#mask0_77_494)">
<mask id="mask1_77_494" style="mask-type:luminance" maskUnits="userSpaceOnUse" x="33" y="0" width="447" height="444">
<path d="M479.4 0.120117H33V443.64H479.4V0.120117Z" fill="white"/>
</mask>
<g mask="url(#mask1_77_494)">
<path d="M53.291 443.64H73.5819V269.821H53.291V443.64Z" stroke="#41BD8B" stroke-width="3"/>
</g>
<mask id="mask2_77_494" style="mask-type:luminance" maskUnits="userSpaceOnUse" x="33" y="0" width="447" height="444">
<path d="M479.4 0.120117H33V443.64H479.4V0.120117Z" fill="white"/>
</mask>
<g mask="url(#mask2_77_494)">
<path d="M73.582 443.64H93.8729V188.233H73.582V443.64Z" stroke="#41BD8B" stroke-width="3"/>
</g>
<mask id="mask3_77_494" style="mask-type:luminance" maskUnits="userSpaceOnUse" x="33" y="0" width="447" height="444">
<path d="M479.4 0.120117H33V443.64H479.4V0.120117Z" fill="white"/>
</mask>
<g mask="url(#mask3_77_494)">
<path d="M93.8726 443.64H114.163V85.3613H93.8726V443.64Z" stroke="#41BD8B" stroke-width="3"/>
</g>
<mask id="mask4_77_494" style="mask-type:luminance" maskUnits="userSpaceOnUse" x="33" y="0" width="447" height="444">
<path d="M479.4 0.120117H33V443.64H479.4V0.120117Z" fill="white"/>
</mask>
<g mask="url(#mask4_77_494)">
<path d="M114.164 443.64H134.454V46.3408H114.164V443.64Z" stroke="#41BD8B" stroke-width="3"/>
</g>
<mask id="mask5_77_494" style="mask-type:luminance" maskUnits="userSpaceOnUse" x="33" y="0" width="447" height="444">
<path d="M479.4 0.120117H33V443.64H479.4V0.120117Z" fill="white"/>
</mask>
<g mask="url(#mask5_77_494)">
<path d="M134.455 443.64H154.746V25.0571H134.455V443.64Z" stroke="#41BD8B" stroke-width="3"/>
</g>
<mask id="mask6_77_494" style="mask-type:luminance" maskUnits="userSpaceOnUse" x="33" y="0" width="447" height="444">
<path d="M479.4 0.120117H33V443.64H479.4V0.120117Z" fill="white"/>
</mask>
<g mask="url(#mask6_77_494)">
<path d="M154.746 443.64H175.036V56.9829H154.746V443.64Z" stroke="#41BD8B" stroke-width="3"/>
</g>
<mask id="mask7_77_494" style="mask-type:luminance" maskUnits="userSpaceOnUse" x="33" y="0" width="447" height="444">
<path d="M479.4 0.120117H33V443.64H479.4V0.120117Z" fill="white"/>
</mask>
<g mask="url(#mask7_77_494)">
<path d="M175.036 443.64H195.327V42.7935H175.036V443.64Z" stroke="#41BD8B" stroke-width="3"/>
</g>
<mask id="mask8_77_494" style="mask-type:luminance" maskUnits="userSpaceOnUse" x="33" y="0" width="447" height="444">
<path d="M479.4 0.120117H33V443.64H479.4V0.120117Z" fill="white"/>
</mask>
<g mask="url(#mask8_77_494)">
<path d="M195.327 443.64H215.618V163.402H195.327V443.64Z" stroke="#41BD8B" stroke-width="3"/>
</g>
<mask id="mask9_77_494" style="mask-type:luminance" maskUnits="userSpaceOnUse" x="33" y="0" width="447" height="444">
<path d="M479.4 0.120117H33V443.64H479.4V0.120117Z" fill="white"/>
</mask>
<g mask="url(#mask9_77_494)">
<path d="M215.618 443.64H235.909V202.423H215.618V443.64Z" stroke="#41BD8B" stroke-width="3"/>
</g>
<mask id="mask10_77_494" style="mask-type:luminance" maskUnits="userSpaceOnUse" x="33" y="0" width="447" height="444">
<path d="M479.4 0.120117H33V443.64H479.4V0.120117Z" fill="white"/>
</mask>
<g mask="url(#mask10_77_494)">
<path d="M235.909 443.64H256.2V266.274H235.909V443.64Z" stroke="#41BD8B" stroke-width="3"/>
</g>
<mask id="mask11_77_494" style="mask-type:luminance" maskUnits="userSpaceOnUse" x="33" y="0" width="447" height="444">
<path d="M479.4 0.120117H33V443.64H479.4V0.120117Z" fill="white"/>
</mask>
<g mask="url(#mask11_77_494)">
<path d="M256.2 443.64H276.491V276.916H256.2V443.64Z" stroke="#41BD8B" stroke-width="3"/>
</g>
<mask id="mask12_77_494" style="mask-type:luminance" maskUnits="userSpaceOnUse" x="33" y="0" width="447" height="444">
<path d="M479.4 0.120117H33V443.64H479.4V0.120117Z" fill="white"/>
</mask>
<g mask="url(#mask12_77_494)">
<path d="M276.491 443.64H296.782V305.295H276.491V443.64Z" stroke="#41BD8B" stroke-width="3"/>
</g>
<mask id="mask13_77_494" style="mask-type:luminance" maskUnits="userSpaceOnUse" x="33" y="0" width="447" height="444">
<path d="M479.4 0.120117H33V443.64H479.4V0.120117Z" fill="white"/>
</mask>
<g mask="url(#mask13_77_494)">
<path d="M296.782 443.64H317.073V386.883H296.782V443.64Z" stroke="#41BD8B" stroke-width="3"/>
</g>
<mask id="mask14_77_494" style="mask-type:luminance" maskUnits="userSpaceOnUse" x="33" y="0" width="447" height="444">
<path d="M479.4 0.120117H33V443.64H479.4V0.120117Z" fill="white"/>
</mask>
<g mask="url(#mask14_77_494)">
<path d="M317.073 443.64H337.364V418.809H317.073V443.64Z" stroke="#41BD8B" stroke-width="3"/>
</g>
<mask id="mask15_77_494" style="mask-type:luminance" maskUnits="userSpaceOnUse" x="33" y="0" width="447" height="444">
<path d="M479.4 0.120117H33V443.64H479.4V0.120117Z" fill="white"/>
</mask>
<g mask="url(#mask15_77_494)">
<path d="M337.364 443.64H357.655V393.978H337.364V443.64Z" stroke="#41BD8B" stroke-width="3"/>
</g>
<path d="M33.0005 443.641H37.6672Z" fill="white"/>
<path d="M33.0005 443.641H37.6672" stroke="white" stroke-width="3"/>
<path d="M33.0005 394.145H37.6672Z" fill="white"/>
<path d="M33.0005 394.145H37.6672" stroke="white" stroke-width="3"/>
<path d="M33.0005 344.648H37.6672Z" fill="white"/>
<path d="M33.0005 344.648H37.6672" stroke="white" stroke-width="3"/>
<path d="M33.0005 295.152H37.6672Z" fill="white"/>
<path d="M33.0005 295.152H37.6672" stroke="white" stroke-width="3"/>
<path d="M33.0005 245.656H37.6672Z" fill="white"/>
<path d="M33.0005 245.656H37.6672" stroke="white" stroke-width="3"/>
<path d="M33.0005 196.161H37.6672Z" fill="white"/>
<path d="M33.0005 196.161H37.6672" stroke="white" stroke-width="3"/>
<path d="M33.0005 146.665H37.6672Z" fill="white"/>
<path d="M33.0005 146.665H37.6672" stroke="white" stroke-width="3"/>
<path d="M33.0005 97.1689H37.6672Z" fill="white"/>
<path d="M33.0005 97.1689H37.6672" stroke="white" stroke-width="3"/>
<path d="M33.0005 47.6733H37.6672Z" fill="white"/>
<path d="M33.0005 47.6733H37.6672" stroke="white" stroke-width="3"/>
<path d="M63.4365 304.316L83.7274 183.954L104.018 93.4326L124.309 38.9676L144.6 21.2402L164.891 35.8727L185.182 74.9672L205.473 129.09L225.764 189.141L246.055 247.715L266.346 299.775L286.637 342.701L306.927 375.875L327.218 400.063L347.509 416.774L367.8 427.749L388.091 434.617L408.382 438.72L428.673 441.062L448.964 442.342" stroke="#FF0000" stroke-width="3" stroke-linecap="square"/>
<path d="M33 443.64V0.120117" stroke="white" stroke-width="3" stroke-linecap="square"/>
<path d="M33 443.641H479.4" stroke="white" stroke-width="3" stroke-linecap="square"/>
<path opacity="0.8" d="M322.667 116.142H455.731C457.509 116.142 458.398 115.253 458.398 113.475V75.6667C458.398 73.8889 457.509 73 455.731 73H322.667C320.889 73 320 73.8889 320 75.6667V113.475C320 115.253 320.889 116.142 322.667 116.142Z" stroke="#CCCCCC" stroke-width="3"/>
<path d="M325.333 88.4647H352V79.1313H325.333V88.4647Z" stroke="#41BD8B" stroke-width="3"/>
<path d="M365.29 79.8253V87.3836H366.879C368.221 87.3836 369.203 87.0801 369.825 86.4732C370.447 85.8648 370.758 84.9051 370.758 83.594C370.758 82.2926 370.447 81.3391 369.825 80.7336C369.203 80.128 368.221 79.8253 366.879 79.8253H365.29ZM363.975 78.744H366.677C368.561 78.744 369.942 79.1357 370.823 79.919C371.705 80.7023 372.146 81.9273 372.146 83.594C372.146 85.2704 371.703 86.5016 370.817 87.2878C369.932 88.0725 368.552 88.4648 366.677 88.4648H363.975V78.744Z" fill="white"/>
<path d="M377.505 84.8001C376.537 84.8001 375.866 84.9105 375.492 85.1314C375.119 85.3522 374.932 85.73 374.932 86.2647C374.932 86.6897 375.072 87.0272 375.353 87.2772C375.633 87.5258 376.014 87.6501 376.494 87.6501C377.16 87.6501 377.693 87.4147 378.094 86.9439C378.496 86.473 378.696 85.8474 378.696 85.0668V84.8001H377.505ZM379.894 84.3043V88.4647H378.696V87.3585C378.423 87.8001 378.082 88.1265 377.673 88.3376C377.265 88.5487 376.766 88.6543 376.176 88.6543C375.43 88.6543 374.836 88.4446 374.394 88.0251C373.954 87.6057 373.734 87.0446 373.734 86.3418C373.734 85.5224 374.008 84.9043 374.557 84.4876C375.107 84.071 375.926 83.8626 377.015 83.8626H378.696V83.7439C378.696 83.1925 378.515 82.7661 378.153 82.4647C377.79 82.1633 377.281 82.0126 376.626 82.0126C376.209 82.0126 375.803 82.0626 375.407 82.1626C375.012 82.2626 374.633 82.4126 374.269 82.6126V81.5043C374.707 81.3349 375.132 81.2085 375.544 81.1251C375.957 81.0404 376.358 80.998 376.748 80.998C377.804 80.998 378.592 81.2717 379.113 81.8189C379.634 82.3647 379.894 83.1932 379.894 84.3043Z" fill="white"/>
<path d="M383.546 79.1023V81.1732H386.012V82.1044H383.546V86.0628C383.546 86.6572 383.627 87.0391 383.789 87.2086C383.952 87.378 384.283 87.4628 384.783 87.4628H386.012V88.4648H384.783C383.858 88.4648 383.22 88.2926 382.869 87.9482C382.517 87.6023 382.342 86.9739 382.342 86.0628V82.1044H381.462V81.1732H382.342V79.1023H383.546Z" fill="white"/>
<path d="M390.903 84.8001C389.935 84.8001 389.264 84.9105 388.891 85.1314C388.517 85.3522 388.33 85.73 388.33 86.2647C388.33 86.6897 388.471 87.0272 388.751 87.2772C389.032 87.5258 389.412 87.6501 389.893 87.6501C390.558 87.6501 391.091 87.4147 391.493 86.9439C391.894 86.473 392.095 85.8474 392.095 85.0668V84.8001H390.903ZM393.293 84.3043V88.4647H392.095V87.3585C391.821 87.8001 391.48 88.1265 391.072 88.3376C390.664 88.5487 390.164 88.6543 389.574 88.6543C388.828 88.6543 388.234 88.4446 387.793 88.0251C387.352 87.6057 387.132 87.0446 387.132 86.3418C387.132 85.5224 387.407 84.9043 387.955 84.4876C388.505 84.071 389.325 83.8626 390.414 83.8626H392.095V83.7439C392.095 83.1925 391.914 82.7661 391.551 82.4647C391.189 82.1633 390.68 82.0126 390.024 82.0126C389.607 82.0126 389.201 82.0626 388.805 82.1626C388.411 82.2626 388.032 82.4126 387.668 82.6126V81.5043C388.105 81.3349 388.53 81.2085 388.943 81.1251C389.355 81.0404 389.757 80.998 390.147 80.998C391.202 80.998 391.991 81.2717 392.511 81.8189C393.032 82.3647 393.293 83.1932 393.293 84.3043Z" fill="white"/>
<path d="M325.333 103.369H338.667H352" stroke="#FF0000" stroke-width="3" stroke-linecap="square"/>
<path d="M363.975 98.3148H369.561V99.4231H365.29V102.288H369.144V103.394H365.29V108.036H363.975V98.3148Z" fill="white"/>
<path d="M370.625 100.744H371.823V108.036H370.625V100.744ZM370.625 97.9044H371.823V99.4231H370.625V97.9044Z" fill="white"/>
<path d="M375.515 98.6731V100.744H377.982V101.675H375.515V105.634C375.515 106.228 375.597 106.61 375.759 106.779C375.922 106.949 376.253 107.034 376.753 107.034H377.982V108.036H376.753C375.828 108.036 375.19 107.863 374.838 107.519C374.487 107.173 374.311 106.545 374.311 105.634V101.675H373.432V100.744H374.311V98.6731H375.515Z" fill="white"/>
<path d="M380.743 98.6731V100.744H383.21V101.675H380.743V105.634C380.743 106.228 380.825 106.61 380.987 106.779C381.15 106.949 381.481 107.034 381.981 107.034H383.21V108.036H381.981C381.056 108.036 380.418 107.863 380.066 107.519C379.715 107.173 379.539 106.545 379.539 105.634V101.675H378.66V100.744H379.539V98.6731H380.743Z" fill="white"/>
<path d="M391.023 104.09V104.675H385.515C385.568 105.5 385.817 106.129 386.261 106.561C386.705 106.992 387.325 107.208 388.119 107.208C388.579 107.208 389.025 107.152 389.457 107.04C389.889 106.927 390.318 106.758 390.744 106.531V107.665C390.314 107.847 389.873 107.986 389.421 108.081C388.97 108.177 388.512 108.225 388.048 108.225C386.885 108.225 385.963 107.887 385.284 107.211C384.605 106.533 384.265 105.616 384.265 104.461C384.265 103.267 384.587 102.321 385.232 101.621C385.876 100.92 386.746 100.569 387.84 100.569C388.821 100.569 389.596 100.885 390.167 101.517C390.738 102.147 391.023 103.005 391.023 104.09ZM389.826 103.738C389.817 103.083 389.634 102.561 389.276 102.171C388.917 101.779 388.443 101.583 387.853 101.583C387.185 101.583 386.65 101.772 386.248 102.15C385.847 102.528 385.616 103.06 385.555 103.746L389.826 103.738Z" fill="white"/>
<path d="M397.787 101.85V97.9043H398.985V108.036H397.787V106.942C397.536 107.375 397.218 107.697 396.833 107.908C396.45 108.12 395.988 108.225 395.45 108.225C394.569 108.225 393.852 107.874 393.297 107.171C392.745 106.467 392.468 105.542 392.468 104.396C392.468 103.25 392.745 102.326 393.297 101.623C393.852 100.92 394.569 100.569 395.45 100.569C395.988 100.569 396.45 100.674 396.833 100.886C397.218 101.095 397.536 101.417 397.787 101.85ZM393.706 104.396C393.706 105.276 393.887 105.967 394.25 106.469C394.612 106.97 395.11 107.221 395.743 107.221C396.377 107.221 396.875 106.97 397.239 106.469C397.604 105.967 397.787 105.276 397.787 104.396C397.787 103.515 397.604 102.824 397.239 102.323C396.875 101.822 396.377 101.571 395.743 101.571C395.11 101.571 394.612 101.822 394.25 102.323C393.887 102.824 393.706 103.515 393.706 104.396Z" fill="white"/>
<path d="M404.878 98.3148H406.206L408.249 106.531L410.287 98.3148H411.766L413.81 106.531L415.847 98.3148H417.183L414.741 108.036H413.087L411.037 99.5981L408.966 108.036H407.312L404.878 98.3148Z" fill="white"/>
<path d="M424.329 104.09V104.675H418.82C418.873 105.5 419.122 106.129 419.566 106.561C420.011 106.992 420.63 107.208 421.424 107.208C421.884 107.208 422.33 107.152 422.762 107.04C423.194 106.927 423.623 106.758 424.049 106.531V107.665C423.619 107.847 423.178 107.986 422.727 108.081C422.275 108.177 421.818 108.225 421.354 108.225C420.19 108.225 419.268 107.887 418.589 107.211C417.91 106.533 417.57 105.616 417.57 104.461C417.57 103.267 417.893 102.321 418.537 101.621C419.181 100.92 420.051 100.569 421.145 100.569C422.126 100.569 422.902 100.885 423.472 101.517C424.043 102.147 424.329 103.005 424.329 104.09ZM423.131 103.738C423.122 103.083 422.939 102.561 422.581 102.171C422.222 101.779 421.748 101.583 421.158 101.583C420.49 101.583 419.955 101.772 419.554 102.15C419.152 102.528 418.921 103.06 418.86 103.746L423.131 103.738Z" fill="white"/>
<path d="M426.294 100.744H427.492V108.036H426.294V100.744ZM426.294 97.9044H427.492V99.4231H426.294V97.9044Z" fill="white"/>
<path d="M435.234 104.396C435.234 103.515 435.053 102.824 434.69 102.323C434.328 101.822 433.83 101.571 433.196 101.571C432.562 101.571 432.063 101.822 431.701 102.323C431.338 102.824 431.157 103.515 431.157 104.396C431.157 105.276 431.338 105.967 431.701 106.469C432.063 106.97 432.562 107.221 433.196 107.221C433.83 107.221 434.328 106.97 434.69 106.469C435.053 105.967 435.234 105.276 435.234 104.396ZM431.157 101.85C431.41 101.417 431.728 101.095 432.111 100.886C432.496 100.674 432.955 100.569 433.488 100.569C434.374 100.569 435.094 100.92 435.646 101.623C436.201 102.326 436.478 103.25 436.478 104.396C436.478 105.542 436.201 106.467 435.646 107.171C435.094 107.874 434.374 108.225 433.488 108.225C432.955 108.225 432.496 108.12 432.111 107.908C431.728 107.697 431.41 107.375 431.157 106.942V108.036H429.953V97.9043H431.157V101.85Z" fill="white"/>
<path d="M438.339 105.158V100.744H439.537V105.113C439.537 105.803 439.671 106.321 439.939 106.667C440.209 107.011 440.613 107.183 441.152 107.183C441.798 107.183 442.308 106.977 442.683 106.565C443.059 106.152 443.248 105.59 443.248 104.877V100.744H444.446V108.036H443.248V106.915C442.957 107.358 442.62 107.687 442.235 107.902C441.852 108.117 441.406 108.225 440.898 108.225C440.06 108.225 439.424 107.965 438.989 107.444C438.556 106.923 438.339 106.161 438.339 105.158Z" fill="white"/>
<path d="M446.913 97.9044H448.111V108.036H446.913V97.9044Z" fill="white"/>
<path d="M450.617 97.9044H451.815V108.036H450.617V97.9044Z" fill="white"/>
</g>
</svg>
