<svg width="26" height="26" viewBox="0 0 26 26" fill="none" xmlns="http://www.w3.org/2000/svg">
<rect width="26" height="26" rx="4" fill="#32C1FF"/>
<path d="M18.5 16.0707V14C18.5 13.7348 18.3946 13.4804 18.2071 13.2929C18.0196 13.1054 17.7652 13 17.5 13H13.5V11H14.5C14.7651 10.9997 15.0193 10.8942 15.2068 10.7068C15.3942 10.5193 15.4997 10.2651 15.5 10V7C15.4997 6.73488 15.3942 6.4807 15.2068 6.29323C15.0193 6.10576 14.7651 6.0003 14.5 6H11.5C11.2349 6.00026 10.9807 6.10571 10.7932 6.29319C10.6057 6.48066 10.5003 6.73486 10.5 7V10C10.5003 10.2651 10.6057 10.5193 10.7932 10.7068C10.9807 10.8943 11.2349 10.9997 11.5 11H12.5V13H8.5C8.23479 13 7.98043 13.1054 7.7929 13.2929C7.60536 13.4804 7.5 13.7348 7.5 14V16.071C7.02868 16.1927 6.61791 16.4822 6.3447 16.8851C6.0715 17.2879 5.95461 17.7766 6.01595 18.2596C6.07728 18.7425 6.31264 19.1864 6.67789 19.5082C7.04314 19.83 7.51322 20.0075 8 20.0075C8.48679 20.0075 8.95687 19.83 9.32212 19.5082C9.68737 19.1864 9.92273 18.7425 9.98406 18.2596C10.0454 17.7766 9.92851 17.2879 9.65531 16.8851C9.3821 16.4822 8.97133 16.1927 8.5 16.071V14H12.5V16.071C12.0287 16.1927 11.6179 16.4821 11.3447 16.885C11.0715 17.2879 10.9546 17.7766 11.0159 18.2595C11.0773 18.7424 11.3126 19.1864 11.6779 19.5082C12.0431 19.83 12.5132 20.0075 13 20.0075C13.4868 20.0075 13.9569 19.83 14.3221 19.5082C14.6874 19.1864 14.9227 18.7424 14.9841 18.2595C15.0454 17.7766 14.9285 17.2879 14.6553 16.885C14.3821 16.4821 13.9713 16.1927 13.5 16.071V14H17.5V16.0707C17.0287 16.1924 16.6179 16.4818 16.3447 16.8847C16.0715 17.2876 15.9546 17.7763 16.0159 18.2592C16.0773 18.7421 16.3126 19.1861 16.6779 19.5079C17.0431 19.8297 17.5132 20.0072 18 20.0072C18.4868 20.0072 18.9569 19.8297 19.3221 19.5079C19.6874 19.1861 19.9227 18.7421 19.9841 18.2592C20.0454 17.7763 19.9285 17.2876 19.6553 16.8847C19.3821 16.4818 18.9713 16.1924 18.5 16.0707V16.0707ZM11.5 7H14.5L14.5005 10H11.5V7ZM9 18C9 18.1978 8.94136 18.3911 8.83147 18.5556C8.72159 18.72 8.56541 18.8482 8.38269 18.9239C8.19996 18.9996 7.9989 19.0194 7.80491 18.9808C7.61093 18.9422 7.43275 18.847 7.2929 18.7071C7.15305 18.5673 7.0578 18.3891 7.01922 18.1951C6.98063 18.0011 7.00044 17.8 7.07613 17.6173C7.15181 17.4346 7.27999 17.2784 7.44443 17.1685C7.60888 17.0586 7.80222 17 8 17C8.26513 17.0003 8.5193 17.1058 8.70678 17.2932C8.89425 17.4807 8.9997 17.7349 9 18ZM14 18C14 18.1978 13.9414 18.3911 13.8315 18.5556C13.7216 18.72 13.5654 18.8482 13.3827 18.9239C13.2 18.9996 12.9989 19.0194 12.8049 18.9808C12.6109 18.9422 12.4328 18.847 12.2929 18.7071C12.153 18.5673 12.0578 18.3891 12.0192 18.1951C11.9806 18.0011 12.0004 17.8 12.0761 17.6173C12.1518 17.4346 12.28 17.2784 12.4444 17.1685C12.6089 17.0586 12.8022 17 13 17C13.2651 17.0004 13.5193 17.1058 13.7067 17.2933C13.8942 17.4807 13.9996 17.7349 14 18ZM18 19C17.8022 19 17.6089 18.9414 17.4444 18.8315C17.28 18.7216 17.1518 18.5654 17.0761 18.3827C17.0004 18.2 16.9806 17.9989 17.0192 17.8049C17.0578 17.6109 17.153 17.4327 17.2929 17.2929C17.4328 17.153 17.6109 17.0578 17.8049 17.0192C17.9989 16.9806 18.2 17.0004 18.3827 17.0761C18.5654 17.1518 18.7216 17.28 18.8315 17.4444C18.9414 17.6089 19 17.8022 19 18C18.9997 18.2651 18.8942 18.5193 18.7068 18.7068C18.5193 18.8942 18.2651 18.9997 18 19Z" fill="white"/>
</svg>
