<svg width="16" height="16" viewBox="0 0 16 16" fill="none" xmlns="http://www.w3.org/2000/svg">
<path fill-rule="evenodd" clip-rule="evenodd" d="M13.0001 3H15.0001V4H13.0001V6H12.0001V4H10.0001V3H12.0001V1H13.0001V3ZM6.2451 4.05771L10.7451 6.55771C10.8232 6.60206 10.888 6.66646 10.9328 6.74424C10.9776 6.82203 11.0009 6.91038 11.0001 7.00016V12.0002C10.9999 12.0884 10.9762 12.175 10.9314 12.2511C10.8865 12.3271 10.8222 12.3898 10.7451 12.4327L6.2451 14.9327C6.17014 14.9748 6.08604 14.998 6.0001 15.0002C5.9157 14.9982 5.83316 14.975 5.7601 14.9327L1.2601 12.4327C1.18194 12.3899 1.11662 12.3271 1.07091 12.2506C1.02519 12.1741 1.00075 12.0868 1.0001 11.9977V7.00016C0.998323 6.91136 1.02005 6.82367 1.06307 6.74597C1.1061 6.66827 1.16889 6.60333 1.2451 6.55771L5.7451 4.05771C5.82111 4.01383 5.90733 3.99072 5.9951 3.99072C6.08287 3.99072 6.16909 4.01383 6.2451 4.05771ZM2.0001 11.7027L5.5001 13.6477V9.78771L2.0001 7.84271V11.7027ZM2.5301 7.00016L6.0001 8.92271L9.4701 6.99771L6.0001 5.06771L2.5301 7.00016ZM6.5001 13.6477L10.0001 11.7027V7.84271L6.5001 9.78771V13.6477Z" fill="black"/>
</svg>
