<svg width="16" height="16" viewBox="0 0 16 16" fill="none" xmlns="http://www.w3.org/2000/svg">
<path d="M15 6.5H14V7.5H15V6.5Z" fill="black"/>
<path d="M12.5958 1.69134L11.8887 2.39844L12.5958 3.10554L13.3029 2.39844L12.5958 1.69134Z" fill="black"/>
<path d="M8.5 0H7.5V1H8.5V0Z" fill="black"/>
<path d="M2.69622 2.40911L3.40332 3.11621L4.11042 2.40911L3.40332 1.70201L2.69622 2.40911Z" fill="black"/>
<path d="M2 6.5H1V7.5H2V6.5Z" fill="black"/>
<path d="M9.5 15H6.5V16H9.5V15Z" fill="black"/>
<path d="M10.5 13H5.5V14H10.5V13Z" fill="black"/>
<path d="M8 2C5.25 2 3 4.25 3 7C3 9.2 4 10.15 4.75 10.8C5.25 11.25 5.5 11.55 5.5 12H6.5C6.5 11.1 5.95 10.55 5.4 10.05C4.7 9.45 4 8.75 4 7C4 4.8 5.8 3 8 3C10.2 3 12 4.8 12 7C12 8.75 11.3 9.45 10.6 10.05C10.05 10.55 9.5 11.05 9.5 12H10.5C10.5 11.55 10.75 11.25 11.25 10.8C12 10.15 13 9.2 13 7C13 4.25 10.75 2 8 2Z" fill="black"/>
</svg>
