<svg width="16" height="16" viewBox="0 0 16 16" fill="none" xmlns="http://www.w3.org/2000/svg">
<path d="M14.67 7.97L10.805 6.58L9.185 4.55C9.0444 4.3782 8.86741 4.23974 8.66681 4.14463C8.46621 4.04952 8.247 4.00012 8.025 4H4.025C3.78099 4.00126 3.54097 4.06203 3.32576 4.17704C3.11055 4.29206 2.92664 4.45783 2.79 4.66L1.435 6.66C1.15431 7.0713 1.00284 7.55706 1 8.055V12C1 12.1326 1.05268 12.2598 1.14645 12.3536C1.24021 12.4473 1.36739 12.5 1.5 12.5H2.57C2.68514 12.9237 2.9365 13.2977 3.2853 13.5644C3.6341 13.831 4.06095 13.9755 4.5 13.9755C4.93905 13.9755 5.3659 13.831 5.7147 13.5644C6.0635 13.2977 6.31486 12.9237 6.43 12.5H9.57C9.68514 12.9237 9.9365 13.2977 10.2853 13.5644C10.6341 13.831 11.0609 13.9755 11.5 13.9755C11.9391 13.9755 12.3659 13.831 12.7147 13.5644C13.0635 13.2977 13.3149 12.9237 13.43 12.5H14.5C14.6326 12.5 14.7598 12.4473 14.8536 12.3536C14.9473 12.2598 15 12.1326 15 12V8.44C15 8.33724 14.9683 8.237 14.9092 8.1529C14.8502 8.0688 14.7666 8.00494 14.67 7.97ZM4.5 13C4.30222 13 4.10888 12.9414 3.94443 12.8315C3.77998 12.7216 3.65181 12.5654 3.57612 12.3827C3.50043 12.2 3.48063 11.9989 3.51921 11.8049C3.5578 11.6109 3.65304 11.4327 3.79289 11.2929C3.93275 11.153 4.11093 11.0578 4.30491 11.0192C4.49889 10.9806 4.69996 11.0004 4.88268 11.0761C5.06541 11.1518 5.22159 11.28 5.33147 11.4444C5.44135 11.6089 5.5 11.8022 5.5 12C5.5 12.2652 5.39464 12.5196 5.20711 12.7071C5.01957 12.8946 4.76522 13 4.5 13ZM11.5 13C11.3022 13 11.1089 12.9414 10.9444 12.8315C10.78 12.7216 10.6518 12.5654 10.5761 12.3827C10.5004 12.2 10.4806 11.9989 10.5192 11.8049C10.5578 11.6109 10.653 11.4327 10.7929 11.2929C10.9327 11.153 11.1109 11.0578 11.3049 11.0192C11.4989 10.9806 11.7 11.0004 11.8827 11.0761C12.0654 11.1518 12.2216 11.28 12.3315 11.4444C12.4414 11.6089 12.5 11.8022 12.5 12C12.5 12.2652 12.3946 12.5196 12.2071 12.7071C12.0196 12.8946 11.7652 13 11.5 13ZM14 11.5H13.43C13.3149 11.0763 13.0635 10.7023 12.7147 10.4356C12.3659 10.169 11.9391 10.0245 11.5 10.0245C11.0609 10.0245 10.6341 10.169 10.2853 10.4356C9.9365 10.7023 9.68514 11.0763 9.57 11.5H6.43C6.31486 11.0763 6.0635 10.7023 5.7147 10.4356C5.3659 10.169 4.93905 10.0245 4.5 10.0245C4.06095 10.0245 3.6341 10.169 3.2853 10.4356C2.9365 10.7023 2.68514 11.0763 2.57 11.5H2V8.055C1.99981 7.75361 2.09041 7.45915 2.26 7.21L3.615 5.21C3.66198 5.14399 3.7243 5.09039 3.7966 5.05381C3.86889 5.01723 3.94899 4.99876 4.03 5H8.03C8.10346 4.99988 8.17603 5.01595 8.24258 5.04706C8.30912 5.07817 8.36799 5.12356 8.415 5.18L10.115 7.315C10.1736 7.38607 10.2493 7.44112 10.335 7.475L14 8.79V11.5Z" fill="black"/>
</svg>
