<svg width="67" height="67" viewBox="0 0 67 67" fill="none" xmlns="http://www.w3.org/2000/svg">
<path fill-rule="evenodd" clip-rule="evenodd" d="M8.375 54.4375H33.5V58.625H8.375C7.26441 58.625 6.1993 58.1838 5.41399 57.3985C4.62868 56.6132 4.1875 55.5481 4.1875 54.4375V12.5625C4.1875 11.4519 4.62868 10.3868 5.41399 9.60149C6.1993 8.81618 7.26441 8.375 8.375 8.375H58.625C59.7356 8.375 60.8007 8.81618 61.586 9.60149C62.3713 10.3868 62.8125 11.4519 62.8125 12.5625V33.5H58.625V12.5625H8.375V54.4375ZM33.5 16.75H12.5625V20.9375H33.5V16.75ZM12.5625 25.125H33.5V29.3125H12.5625V25.125ZM25.125 33.5H12.5625V37.6875H25.125V33.5ZM50.25 35.5938L54.2533 43.3469L62.8125 44.5906L56.5312 50.25L58.1455 58.625L50.25 53.9141L42.3545 58.625L43.9688 50.25L37.6875 44.5906L46.4813 43.3469L50.25 35.5938Z" fill="#9CA6AF"/>
</svg>
