<svg width="22" height="22" viewBox="0 0 22 22" fill="none" xmlns="http://www.w3.org/2000/svg">
<path fill-rule="evenodd" clip-rule="evenodd" d="M2.65277 17.2449H10.6123V18.5715H2.65277C2.30093 18.5715 1.96351 18.4317 1.71472 18.1829C1.46594 17.9342 1.32617 17.5967 1.32617 17.2449V3.97894C1.32617 3.6271 1.46594 3.28968 1.71472 3.04089C1.96351 2.79211 2.30093 2.65234 2.65277 2.65234H18.5719C18.9237 2.65234 19.2612 2.79211 19.51 3.04089C19.7587 3.28968 19.8985 3.6271 19.8985 3.97894V10.6119H18.5719V3.97894H2.65277V17.2449ZM10.6123 5.30553H3.97936V6.63213H10.6123V5.30553ZM3.97936 7.95873H10.6123V9.28532H3.97936V7.95873ZM7.95915 10.6119H3.97936V11.9385H7.95915V10.6119ZM15.9187 11.2752L17.1869 13.7314L19.8985 14.1254L17.9086 15.9183L18.42 18.5715L15.9187 17.0791L13.4174 18.5715L13.9288 15.9183L11.9389 14.1254L14.7248 13.7314L15.9187 11.2752Z" fill="#008CE3"/>
</svg>
