<svg width="16" height="16" viewBox="0 0 16 16" fill="none" xmlns="http://www.w3.org/2000/svg">
<path d="M8.0001 1C7.86749 1 7.74032 1.05268 7.64655 1.14645C7.55278 1.24021 7.5001 1.36739 7.5001 1.5V5.045C7.05592 5.12353 6.63536 5.30185 6.2701 5.5665L3.9193 3.21555C3.85067 3.14658 3.76891 3.09208 3.67885 3.05526C3.58879 3.01845 3.49226 3.00006 3.39497 3.0012C3.29768 3.00234 3.20161 3.02297 3.11244 3.06189C3.02326 3.1008 2.9428 3.1572 2.8758 3.22775C2.13259 4.02875 1.58647 4.99207 1.28085 6.04115C0.97524 7.09022 0.918561 8.19613 1.11532 9.27095C1.31208 10.3458 1.75685 11.3599 2.41428 12.2327C3.07172 13.1054 3.92368 13.8128 4.90245 14.2986C5.20612 14.4562 5.52402 14.5847 5.8519 14.6824C7.04112 15.0569 8.30837 15.1092 9.52442 14.8341C10.7405 14.559 11.8618 13.9663 12.774 13.1165C12.8443 13.0505 12.9005 12.9711 12.9394 12.883C12.9783 12.7948 12.999 12.6998 13.0003 12.6034C13.0016 12.5071 12.9834 12.4115 12.9469 12.3223C12.9105 12.2332 12.8564 12.1523 12.788 12.0845L10.4386 9.735C10.7022 9.3678 10.8788 8.9455 10.9551 8.5H14.5001C14.6327 8.5 14.7599 8.44732 14.8537 8.35355C14.9474 8.25979 15.0001 8.13261 15.0001 8C14.998 6.14413 14.2598 4.36486 12.9475 3.05256C11.6352 1.74026 9.85597 1.00209 8.0001 1ZM8.0001 6C8.39566 6 8.78234 6.1173 9.11124 6.33706C9.44014 6.55682 9.69648 6.86918 9.84786 7.23463C9.99923 7.60009 10.0388 8.00222 9.96167 8.39018C9.8845 8.77814 9.69402 9.13451 9.41431 9.41421C9.13461 9.69392 8.77824 9.8844 8.39028 9.96157C8.00232 10.0387 7.60019 9.99913 7.23473 9.84776C6.86928 9.69638 6.55692 9.44004 6.33716 9.11114C6.1174 8.78224 6.0001 8.39556 6.0001 8C6.0007 7.46975 6.2116 6.96139 6.58654 6.58644C6.96149 6.2115 7.46985 6.0006 8.0001 6ZM3.4151 4.1255L5.56305 6.27345C5.1981 6.77661 5.00111 7.38204 5.00009 8.00361C4.99908 8.62519 5.1941 9.23125 5.5574 9.7356L3.41915 11.8741C2.50421 10.7907 2.00195 9.41856 2.0012 8.00051C2.00046 6.58247 2.5013 5.20985 3.4151 4.1255ZM4.1265 12.5805L6.26445 10.4425C6.63217 10.7048 7.0547 10.88 7.5001 10.955V13.976C6.25697 13.8766 5.07667 13.3884 4.12655 12.5806L4.1265 12.5805ZM8.5001 13.9781V10.9546C8.94377 10.8785 9.36443 10.7029 9.73055 10.441L11.8715 12.5818C10.9218 13.3891 9.74246 13.8775 8.5001 13.9781ZM10.9551 7.5C10.8505 6.88696 10.5581 6.32153 10.1183 5.88178C9.67857 5.44203 9.11314 5.14965 8.5001 5.045V2.0205C9.91304 2.14072 11.238 2.75663 12.2407 3.75937C13.2433 4.7621 13.8592 6.08706 13.9794 7.5H10.9551Z" fill="black"/>
</svg>
