<svg width="28" height="28" viewBox="0 0 28 28" fill="none" xmlns="http://www.w3.org/2000/svg">
<path fill-rule="evenodd" clip-rule="evenodd" d="M14 1.75C11.5772 1.75 9.20877 2.46845 7.19427 3.8145C5.17977 5.16054 3.60965 7.07373 2.68248 9.31213C1.75531 11.5505 1.51272 14.0136 1.98539 16.3899C2.45805 18.7661 3.62475 20.9489 5.33795 22.6621C7.05114 24.3752 9.23388 25.542 11.6101 26.0146C13.9864 26.4873 16.4495 26.2447 18.6879 25.3175C20.9263 24.3904 22.8395 22.8202 24.1855 20.8057C25.5316 18.7912 26.25 16.4228 26.25 14C26.25 10.7511 24.9594 7.63526 22.6621 5.33794C20.3647 3.04062 17.2489 1.75 14 1.75ZM14 24.5C11.9233 24.5 9.89323 23.8842 8.16652 22.7304C6.4398 21.5767 5.09399 19.9368 4.29927 18.0182C3.50455 16.0996 3.29662 13.9884 3.70176 11.9516C4.1069 9.91475 5.10693 8.04383 6.57538 6.57538C8.04384 5.10693 9.91476 4.1069 11.9516 3.70175C13.9884 3.29661 16.0996 3.50454 18.0182 4.29926C19.9368 5.09399 21.5767 6.4398 22.7304 8.16651C23.8842 9.89323 24.5 11.9233 24.5 14C24.5 16.7848 23.3938 19.4555 21.4246 21.4246C19.4555 23.3938 16.7848 24.5 14 24.5ZM14 21.875C14.7249 21.875 15.3125 21.2874 15.3125 20.5625C15.3125 19.8376 14.7249 19.25 14 19.25C13.2751 19.25 12.6875 19.8376 12.6875 20.5625C12.6875 21.2874 13.2751 21.875 14 21.875ZM13.5625 7.00001H14.875C15.9193 7.00001 16.9208 7.41485 17.6592 8.15328C18.3977 8.8917 18.8125 9.89322 18.8125 10.9375C18.8125 11.9818 18.3977 12.9833 17.6592 13.7217C16.9208 14.4602 15.9193 14.875 14.875 14.875V17.0625H13.125V13.125H14.875C15.4552 13.125 16.0116 12.8945 16.4218 12.4843C16.832 12.0741 17.0625 11.5177 17.0625 10.9375C17.0625 10.3573 16.832 9.80095 16.4218 9.39071C16.0116 8.98048 15.4552 8.75001 14.875 8.75001H13.5625C12.9823 8.75001 12.4259 8.98048 12.0157 9.39071C11.6055 9.80095 11.375 10.3573 11.375 10.9375V11.375H9.62501V10.9375C9.62385 10.4201 9.72491 9.90757 9.92238 9.42933C10.1199 8.95109 10.4098 8.51656 10.7757 8.1507C11.1416 7.78484 11.5761 7.49485 12.0543 7.29738C12.5326 7.09992 13.0451 6.99886 13.5625 7.00001Z" fill="#008CE3"/>
</svg>
