<svg width="22" height="24" viewBox="0 0 22 24" fill="none" xmlns="http://www.w3.org/2000/svg">
<path d="M3.16129 22C2.8 22 2.48387 21.85 2.2129 21.55C1.94193 21.25 1.80645 20.9 1.80645 20.5V8.5C1.80645 8.1 1.94193 7.75 2.2129 7.45C2.48387 7.15 2.8 7 3.16129 7H8.80645V3.5C8.80645 3.1 8.94193 2.75 9.2129 2.45C9.48387 2.15 9.80309 2 10.1706 2H11.5068C11.8743 2 12.1935 2.15 12.4645 2.45C12.7355 2.75 12.871 3.1 12.871 3.5V7H18.5161C18.8774 7 19.1935 7.15 19.4645 7.45C19.7355 7.75 19.871 8.1 19.871 8.5V20.5C19.871 20.9 19.7355 21.25 19.4645 21.55C19.1935 21.85 18.8774 22 18.5161 22H3.16129ZM3.16129 20.5H18.5161V8.5H12.871V9.25C12.871 9.71667 12.7355 10.0833 12.4645 10.35C12.1935 10.6167 11.8743 10.75 11.5068 10.75H10.1706C9.80309 10.75 9.48387 10.6167 9.2129 10.35C8.94193 10.0833 8.80645 9.71667 8.80645 9.25V8.5H3.16129V20.5ZM5.23871 17.825H10.6355V17.475C10.6355 17.175 10.5677 16.9083 10.4323 16.675C10.2968 16.4417 10.1237 16.2833 9.9129 16.2C9.43118 16.0167 9.05484 15.8958 8.78387 15.8375C8.5129 15.7792 8.24946 15.75 7.99355 15.75C7.70753 15.75 7.40269 15.7875 7.07903 15.8625C6.75537 15.9375 6.39032 16.05 5.98387 16.2C5.75806 16.2833 5.57742 16.4417 5.44193 16.675C5.30645 16.9083 5.23871 17.175 5.23871 17.475V17.825ZM12.8258 16.15H16.6645V14.9H12.8258V16.15ZM7.99355 14.9C8.33226 14.9 8.62016 14.7688 8.85726 14.5063C9.09435 14.2438 9.2129 13.925 9.2129 13.55C9.2129 13.175 9.09435 12.8562 8.85726 12.5938C8.62016 12.3313 8.33226 12.2 7.99355 12.2C7.65484 12.2 7.36693 12.3313 7.12984 12.5938C6.89274 12.8562 6.77419 13.175 6.77419 13.55C6.77419 13.925 6.89274 14.2438 7.12984 14.5063C7.36693 14.7688 7.65484 14.9 7.99355 14.9ZM12.8258 13.325H16.6645V12.075H12.8258V13.325ZM10.1613 9.25H11.5161V3.5H10.1613V9.25Z" fill="#008CE3"/>
</svg>
