<svg width="16" height="16" viewBox="0 0 16 16" fill="none" xmlns="http://www.w3.org/2000/svg">
<path fill-rule="evenodd" clip-rule="evenodd" d="M11.4999 11.0003H11.7499C12.5517 10.9952 13.3233 10.6939 13.9164 10.1543C14.5095 9.61474 14.8822 8.87496 14.9629 8.07721C15.0435 7.27946 14.8264 6.48006 14.3533 5.8327C13.8802 5.18534 13.1845 4.73572 12.3999 4.57027C12.1841 3.56353 11.6295 2.66126 10.8288 2.01401C10.028 1.36676 9.02955 1.01367 7.99993 1.01367C6.97031 1.01367 5.97183 1.36676 5.17109 2.01401C4.37035 2.66126 3.81578 3.56353 3.59993 4.57027C2.81537 4.73572 2.11966 5.18534 1.64656 5.8327C1.17345 6.48006 0.956351 7.27946 1.03699 8.07721C1.11764 8.87496 1.49033 9.61474 2.08342 10.1543C2.67651 10.6939 3.44813 10.9952 4.24993 11.0003H4.49993V10.0003H4.24993C3.65319 10.0241 3.07141 9.80998 2.63258 9.4049C2.19374 8.99983 1.9338 8.43701 1.90993 7.84027C1.88606 7.24354 2.10022 6.66176 2.5053 6.22292C2.91038 5.78409 3.47319 5.52414 4.06993 5.50027H4.49993L4.50993 5.09027C4.62086 4.2485 5.034 3.47575 5.67238 2.91597C6.31077 2.35619 7.13088 2.04755 7.97993 2.04755C8.82898 2.04755 9.64909 2.35619 10.2875 2.91597C10.9259 3.47575 11.339 4.2485 11.4499 5.09027L11.4999 5.50027H11.9299C12.5267 5.52414 13.0895 5.78409 13.4946 6.22292C13.8996 6.66176 14.1138 7.24354 14.0899 7.84027C14.0661 8.43701 13.8061 8.99983 13.3673 9.4049C12.9284 9.80998 12.3467 10.0241 11.7499 10.0003H11.4999V11.0003ZM8.49992 7.00027V13.0853L9.79492 11.7953L10.4999 12.5003L7.99992 15.0003L5.49992 12.5003L6.20492 11.7953L7.49992 13.0853V7.00027H8.49992Z" fill="black"/>
</svg>
