<svg width="16" height="16" viewBox="0 0 16 16" fill="none" xmlns="http://www.w3.org/2000/svg">
<path fill-rule="evenodd" clip-rule="evenodd" d="M14.7071 6.29289C14.8946 6.48043 15 6.73478 15 7V15H1V2C1 1.73478 1.10536 1.48043 1.29289 1.29289C1.48043 1.10536 1.73478 1 2 1H10C10.2652 1 10.5196 1.10536 10.7071 1.29289C10.8946 1.48043 11 1.73478 11 2V6H14C14.2652 6 14.5196 6.10536 14.7071 6.29289ZM10 2H2V14H10V2ZM11 7V14H14V7H11ZM5 4H4V6H5V4ZM5 7H4V9H5V7ZM7 4H8V6H7V4ZM8 7H7V9H8V7ZM4 10H5V12H4V10ZM8 10H7V12H8V10Z" fill="black"/>
</svg>
