<svg width="16" height="16" viewBox="0 0 16 16" fill="none" xmlns="http://www.w3.org/2000/svg">
<path fill-rule="evenodd" clip-rule="evenodd" d="M12.8334 2.2528C12.5867 2.08797 12.2967 2 12 2C11.6022 2 11.2206 2.15804 10.9393 2.43934C10.658 2.72064 10.5 3.10218 10.5 3.5C10.5 3.79667 10.588 4.08668 10.7528 4.33336C10.9176 4.58003 11.1519 4.77229 11.426 4.88582C11.7001 4.99935 12.0017 5.02906 12.2926 4.97118C12.5836 4.9133 12.8509 4.77044 13.0607 4.56066C13.2704 4.35088 13.4133 4.08361 13.4712 3.79264C13.5291 3.50166 13.4994 3.20006 13.3858 2.92597C13.2723 2.65189 13.08 2.41762 12.8334 2.2528ZM10.6111 1.42133C11.0222 1.14662 11.5055 1 12 1C12.663 1 13.2989 1.26339 13.7678 1.73223C14.2366 2.20107 14.5 2.83696 14.5 3.5C14.5 3.99445 14.3534 4.4778 14.0787 4.88893C13.804 5.30005 13.4135 5.62048 12.9567 5.8097C12.4999 5.99892 11.9972 6.04843 11.5123 5.95196C11.0273 5.8555 10.5819 5.6174 10.2322 5.26777C9.8826 4.91814 9.6445 4.47268 9.54804 3.98773C9.45158 3.50277 9.50108 3.00011 9.6903 2.54329C9.87952 2.08648 10.2 1.69603 10.6111 1.42133ZM12 7H13C13.6628 7.00077 14.2982 7.26441 14.7669 7.73308C15.2356 8.20176 15.4992 8.83719 15.5 9.5V11.5H14.5V9.5C14.4996 9.10231 14.3414 8.72103 14.0602 8.43982C13.779 8.15861 13.3977 8.00044 13 8H12V7ZM11.5 15H10.5V14C10.4996 13.6023 10.3414 13.221 10.0602 12.9398C9.77897 12.6586 9.39769 12.5004 9 12.5H7C6.60231 12.5004 6.22103 12.6586 5.93982 12.9398C5.65861 13.221 5.50044 13.6023 5.5 14V15H4.5V14C4.50078 13.3372 4.76442 12.7018 5.2331 12.2331C5.70177 11.7644 6.3372 11.5008 7 11.5H9C9.6628 11.5008 10.2982 11.7644 10.7669 12.2331C11.2356 12.7018 11.4992 13.3372 11.5 14V15ZM8.83336 6.7528C8.58668 6.58797 8.29667 6.5 8 6.5C7.60218 6.5 7.22065 6.65804 6.93934 6.93934C6.65804 7.22064 6.5 7.60218 6.5 8C6.5 8.29667 6.58797 8.58668 6.7528 8.83336C6.91762 9.08003 7.15189 9.27229 7.42598 9.38582C7.70007 9.49935 8.00167 9.52906 8.29264 9.47118C8.58361 9.4133 8.85088 9.27044 9.06066 9.06066C9.27044 8.85088 9.4133 8.58361 9.47118 8.29264C9.52906 8.00166 9.49935 7.70006 9.38582 7.42597C9.27229 7.15189 9.08003 6.91762 8.83336 6.7528ZM6.61108 5.92133C7.0222 5.64662 7.50555 5.5 8 5.5C8.66304 5.5 9.29893 5.76339 9.76777 6.23223C10.2366 6.70107 10.5 7.33696 10.5 8C10.5 8.49445 10.3534 8.9778 10.0787 9.38893C9.80397 9.80005 9.41353 10.1205 8.95671 10.3097C8.49989 10.4989 7.99723 10.5484 7.51228 10.452C7.02732 10.3555 6.58187 10.1174 6.23223 9.76777C5.8826 9.41814 5.6445 8.97268 5.54804 8.48773C5.45157 8.00277 5.50108 7.50011 5.6903 7.04329C5.87952 6.58648 6.19995 6.19603 6.61108 5.92133ZM4 7H3C2.3372 7.00078 1.70177 7.26442 1.2331 7.7331C0.764423 8.20177 0.500781 8.8372 0.5 9.5V11.5H1.5V9.5C1.50044 9.10231 1.65861 8.72103 1.93982 8.43982C2.22103 8.15861 2.60231 8.00044 3 8H4V7ZM4.83335 2.2528C4.58668 2.08797 4.29667 2 4 2C3.60217 2 3.22064 2.15804 2.93934 2.43934C2.65803 2.72064 2.5 3.10218 2.5 3.5C2.5 3.79667 2.58797 4.08668 2.75279 4.33336C2.91762 4.58003 3.15188 4.77229 3.42597 4.88582C3.70006 4.99935 4.00166 5.02906 4.29263 4.97118C4.5836 4.9133 4.85088 4.77044 5.06066 4.56066C5.27044 4.35088 5.4133 4.08361 5.47118 3.79264C5.52905 3.50166 5.49935 3.20006 5.38582 2.92597C5.27229 2.65189 5.08003 2.41762 4.83335 2.2528ZM2.61107 1.42133C3.02219 1.14662 3.50554 1 4 1C4.66304 1 5.29892 1.26339 5.76776 1.73223C6.23661 2.20107 6.5 2.83696 6.5 3.5C6.5 3.99445 6.35337 4.4778 6.07867 4.88893C5.80397 5.30005 5.41352 5.62048 4.95671 5.8097C4.49989 5.99892 3.99722 6.04843 3.51227 5.95196C3.02732 5.8555 2.58186 5.6174 2.23223 5.26777C1.8826 4.91814 1.6445 4.47268 1.54803 3.98773C1.45157 3.50277 1.50108 3.00011 1.6903 2.54329C1.87952 2.08648 2.19995 1.69603 2.61107 1.42133Z" fill="black"/>
</svg>
