<svg width="16" height="16" viewBox="0 0 16 16" fill="none" xmlns="http://www.w3.org/2000/svg">
<path fill-rule="evenodd" clip-rule="evenodd" d="M7.34571 3.34582C8.84548 1.84605 10.8789 1.00242 12.9999 1H14.9999V3C14.9975 5.12099 14.1538 7.15441 12.6541 8.65418C11.1543 10.1539 9.12088 10.9976 6.99989 11H5.99989V14.5C5.99987 14.5989 5.97054 14.6955 5.91559 14.7777C5.86065 14.8599 5.78257 14.924 5.69122 14.9618C5.59987 14.9997 5.49935 15.0096 5.40238 14.9903C5.3054 14.971 5.21632 14.9234 5.14639 14.8535L1.14639 10.8535C1.07649 10.7836 1.02889 10.6945 1.0096 10.5975C0.990318 10.5005 1.00022 10.4 1.03805 10.3087C1.07589 10.2173 1.13996 10.1392 1.22216 10.0843C1.30437 10.0294 1.40102 10 1.49989 10H4.99989V9C5.00232 6.87901 5.84595 4.84559 7.34571 3.34582ZM2.70694 11L4.99989 13.2929V11H2.70694ZM5.99989 9V10H6.99989C8.80508 9.99985 10.5398 9.29933 11.8389 8.0459L7.95389 4.16115C6.70051 5.4602 6.00003 7.19487 5.99989 9ZM12.5099 7.30275C13.4751 6.0762 13.9999 4.56077 13.9999 3V2H12.9999C11.4391 2.00004 9.92369 2.52482 8.69714 3.49L12.5099 7.30275ZM12.4999 3.49988C12.4999 3.77602 12.276 3.99988 11.9999 3.99988C11.7238 3.99988 11.4999 3.77602 11.4999 3.49988C11.4999 3.22374 11.7238 2.99988 11.9999 2.99988C12.276 2.99988 12.4999 3.22374 12.4999 3.49988Z" fill="black"/>
</svg>
