<svg width="26" height="26" viewBox="0 0 26 26" fill="none" xmlns="http://www.w3.org/2000/svg">
<rect width="26" height="26" rx="4" fill="#32C1FF"/>
<path fill-rule="evenodd" clip-rule="evenodd" d="M18.5001 12.9997V13.3797L19.4451 14.2447C19.6196 14.3977 19.7354 14.6065 19.7728 14.8354C19.8102 15.0644 19.7668 15.2992 19.6501 15.4997L18.5101 17.4997C18.4224 17.6516 18.2964 17.7777 18.1445 17.8655C17.9927 17.9532 17.8205 17.9995 17.6451 17.9997C17.5365 18.0005 17.4284 17.9837 17.3251 17.9497L16.1151 17.5397C15.9036 17.6791 15.6832 17.8044 15.4551 17.9147L15.2001 19.1747C15.1544 19.4049 15.0292 19.6117 14.8464 19.7589C14.6635 19.906 14.4348 19.9842 14.2001 19.9797H11.8401C11.6055 19.9842 11.3767 19.906 11.1939 19.7589C11.0111 19.6117 10.8858 19.4049 10.8401 19.1747L10.5851 17.9147C10.3587 17.8044 10.1399 17.6791 9.93013 17.5397L8.71513 17.9497C8.61189 17.9837 8.5038 18.0005 8.39513 17.9997C8.21976 17.9995 8.04753 17.9532 7.89571 17.8655C7.74388 17.7777 7.61781 17.6516 7.53013 17.4997L6.35013 15.4997C6.22807 15.2973 6.1817 15.0581 6.21923 14.8247C6.25675 14.5913 6.37576 14.3787 6.55513 14.2247L7.50013 13.3847V12.9997V12.6197L6.55513 11.7547C6.38069 11.6018 6.26485 11.393 6.22745 11.164C6.19005 10.935 6.23342 10.7002 6.35013 10.4997L7.53013 8.49972C7.61781 8.34785 7.74388 8.22171 7.89571 8.13395C8.04753 8.04619 8.21976 7.99989 8.39513 7.99971C8.50271 7.9924 8.61077 8.00253 8.71513 8.02972L9.90513 8.45972C10.1166 8.32029 10.3371 8.19502 10.5651 8.08472L10.8201 6.82472C10.8658 6.59452 10.9911 6.38774 11.1739 6.24057C11.3567 6.0934 11.5855 6.01522 11.8201 6.01971H14.1601C14.3948 6.01522 14.6235 6.0934 14.8064 6.24057C14.9892 6.38774 15.1144 6.59452 15.1601 6.82472L15.4151 8.08472C15.6415 8.19504 15.8604 8.32032 16.0701 8.45972L17.2851 8.04972C17.3884 8.01577 17.4965 7.99888 17.6051 7.99971C17.7805 7.99989 17.9527 8.04619 18.1045 8.13395C18.2564 8.22171 18.3824 8.34785 18.4701 8.49972L19.6501 10.4997C19.7739 10.7005 19.8228 10.9386 19.788 11.1719C19.7532 11.4052 19.6371 11.6187 19.4601 11.7747L18.5001 12.6147V12.9997ZM15.8901 16.4197L17.6051 16.9997L18.7851 14.9997L17.4251 13.7647C17.5176 13.2471 17.5176 12.7173 17.4251 12.1997L18.7851 10.9997L17.6051 8.99972L15.8851 9.55972C15.4823 9.22429 15.0259 8.95893 14.5351 8.77472L14.1801 6.99971H11.8201L11.4651 8.79472C10.9704 8.97384 10.5116 9.23966 10.1101 9.57971L8.39513 8.99972L7.21513 10.9997L8.57513 12.2347C8.48267 12.7523 8.48267 13.2821 8.57513 13.7997L7.21513 14.9997L8.39513 16.9997L10.1151 16.4397C10.518 16.7751 10.9743 17.0405 11.4651 17.2247L11.8201 18.9997H14.1801L14.5351 17.2047C15.0298 17.0256 15.4887 16.7598 15.8901 16.4197ZM11.3334 15.4942C11.8268 15.8238 12.4068 15.9998 13.0001 15.9998C13.3952 16.0038 13.7871 15.9289 14.1529 15.7796C14.5187 15.6302 14.851 15.4094 15.1304 15.13C15.4098 14.8506 15.6306 14.5183 15.7799 14.1525C15.9293 13.7867 16.0041 13.3948 16.0001 12.9998C16.0001 12.4064 15.8242 11.8264 15.4945 11.333C15.1649 10.8397 14.6964 10.4552 14.1482 10.2281C13.6 10.0011 12.9968 9.94165 12.4149 10.0574C11.8329 10.1732 11.2984 10.4589 10.8788 10.8784C10.4592 11.298 10.1735 11.8325 10.0578 12.4145C9.94201 12.9964 10.0014 13.5996 10.2285 14.1478C10.4555 14.696 10.8401 15.1645 11.3334 15.4942ZM12.2275 11.1395C12.473 11.0411 12.7358 10.9936 13.0001 10.9998C13.2645 10.9936 13.5273 11.0411 13.7727 11.1395C14.0181 11.2378 14.2411 11.3849 14.428 11.5718C14.615 11.7588 14.7621 11.9817 14.8604 12.2272C14.9588 12.4726 15.0063 12.7354 15.0001 12.9998C15.0063 13.2641 14.9588 13.5269 14.8604 13.7723C14.7621 14.0178 14.615 14.2407 14.428 14.4277C14.2411 14.6146 14.0181 14.7617 13.7727 14.8601C13.5273 14.9584 13.2645 15.0059 13.0001 14.9998C12.7358 15.0059 12.473 14.9584 12.2275 14.8601C11.9821 14.7617 11.7592 14.6146 11.5722 14.4277C11.3852 14.2407 11.2381 14.0178 11.1398 13.7723C11.0415 13.5269 10.994 13.2641 11.0001 12.9998C10.994 12.7354 11.0415 12.4726 11.1398 12.2272C11.2381 11.9817 11.3852 11.7588 11.5722 11.5718C11.7592 11.3849 11.9821 11.2378 12.2275 11.1395Z" fill="white"/>
</svg>
