<svg width="36" height="36" viewBox="0 0 36 36" fill="none" xmlns="http://www.w3.org/2000/svg">
<path d="M28.125 11.2508H28.0575C27.7712 8.78413 26.5885 6.50869 24.7342 4.8571C22.8798 3.20552 20.4832 2.29297 18 2.29297C15.5168 2.29297 13.1202 3.20552 11.2658 4.8571C9.4115 6.50869 8.22876 8.78413 7.9425 11.2508H7.875C6.38316 11.2508 4.95242 11.8434 3.89752 12.8983C2.84263 13.9532 2.25 15.3839 2.25 16.8758C2.25 18.3676 2.84263 19.7984 3.89752 20.8533C4.95242 21.9082 6.38316 22.5008 7.875 22.5008H10.125V12.3758C10.125 10.2872 10.9547 8.28417 12.4315 6.80732C13.9084 5.33047 15.9114 4.50078 18 4.50078C20.0886 4.50078 22.0916 5.33047 23.5685 6.80732C25.0453 8.28417 25.875 10.2872 25.875 12.3758V23.6258C25.8742 24.6565 25.5197 25.6558 24.8705 26.4564C24.2214 27.2571 23.3171 27.8107 22.3087 28.0245C22.0084 26.9713 21.3343 26.0637 20.4127 25.4719C19.4911 24.8801 18.3853 24.6447 17.3026 24.8099C16.2199 24.975 15.2346 25.5294 14.5314 26.369C13.8281 27.2087 13.4553 28.276 13.4826 29.3709C13.51 30.4658 13.9357 31.5131 14.6801 32.3166C15.4244 33.12 16.4362 33.6245 17.5258 33.7353C18.6154 33.8462 19.708 33.5558 20.5989 32.9187C21.4898 32.2816 22.1177 31.3415 22.365 30.2745C23.9614 30.0379 25.4201 29.2371 26.4768 28.0173C27.5335 26.7976 28.1182 25.2396 28.125 23.6258V22.5008C29.6168 22.5008 31.0476 21.9082 32.1025 20.8533C33.1574 19.7984 33.75 18.3676 33.75 16.8758C33.75 15.3839 33.1574 13.9532 32.1025 12.8983C31.0476 11.8434 29.6168 11.2508 28.125 11.2508ZM4.5 16.8758C4.5 15.9807 4.85558 15.1222 5.48851 14.4893C6.12145 13.8564 6.97989 13.5008 7.875 13.5008V20.2508C6.97989 20.2508 6.12145 19.8952 5.48851 19.2623C4.85558 18.6293 4.5 17.7709 4.5 16.8758V16.8758ZM18 31.5008C17.555 31.5008 17.12 31.3688 16.75 31.1216C16.38 30.8744 16.0916 30.523 15.9213 30.1118C15.751 29.7007 15.7064 29.2483 15.7932 28.8118C15.88 28.3754 16.0943 27.9745 16.409 27.6598C16.7237 27.3451 17.1246 27.1308 17.561 27.044C17.9975 26.9572 18.4499 27.0018 18.861 27.1721C19.2722 27.3424 19.6236 27.6307 19.8708 28.0008C20.118 28.3708 20.25 28.8058 20.25 29.2508C20.25 29.8475 20.0129 30.4198 19.591 30.8418C19.169 31.2637 18.5967 31.5008 18 31.5008V31.5008ZM28.125 20.2508V13.5008C29.0201 13.5008 29.8786 13.8564 30.5115 14.4893C31.1444 15.1222 31.5 15.9807 31.5 16.8758C31.5 17.7709 31.1444 18.6293 30.5115 19.2623C29.8786 19.8952 29.0201 20.2508 28.125 20.2508V20.2508Z" fill="black"/>
</svg>
