<svg width="36" height="36" viewBox="0 0 36 36" fill="none" xmlns="http://www.w3.org/2000/svg">
<path d="M28.125 11.2498H28.0575C27.7712 8.78316 26.5885 6.50771 24.7342 4.85613C22.8798 3.20454 20.4832 2.29199 18 2.29199C15.5168 2.29199 13.1202 3.20454 11.2658 4.85613C9.4115 6.50771 8.22876 8.78316 7.9425 11.2498H7.875C6.38316 11.2498 4.95242 11.8424 3.89752 12.8973C2.84263 13.9522 2.25 15.383 2.25 16.8748C2.25 18.3667 2.84263 19.7974 3.89752 20.8523C4.95242 21.9072 6.38316 22.4998 7.875 22.4998H10.125V12.3748C10.125 10.2862 10.9547 8.28319 12.4315 6.80634C13.9084 5.32949 15.9114 4.49981 18 4.49981C20.0886 4.49981 22.0916 5.32949 23.5685 6.80634C25.0453 8.28319 25.875 10.2862 25.875 12.3748V23.6248C25.8742 24.6556 25.5197 25.6548 24.8705 26.4555C24.2214 27.2561 23.3171 27.8097 22.3087 28.0236C22.0084 26.9703 21.3343 26.0627 20.4127 25.4709C19.4911 24.8791 18.3853 24.6437 17.3026 24.8089C16.2199 24.9741 15.2346 25.5284 14.5314 26.3681C13.8281 27.2077 13.4553 28.275 13.4826 29.3699C13.51 30.4648 13.9357 31.5121 14.6801 32.3156C15.4244 33.1191 16.4362 33.6235 17.5258 33.7343C18.6154 33.8452 19.708 33.5549 20.5989 32.9178C21.4898 32.2806 22.1177 31.3405 22.365 30.2736C23.9614 30.0369 25.4201 29.2361 26.4768 28.0163C27.5335 26.7966 28.1182 25.2386 28.125 23.6248V22.4998C29.6168 22.4998 31.0476 21.9072 32.1025 20.8523C33.1574 19.7974 33.75 18.3667 33.75 16.8748C33.75 15.383 33.1574 13.9522 32.1025 12.8973C31.0476 11.8424 29.6168 11.2498 28.125 11.2498ZM4.5 16.8748C4.5 15.9797 4.85558 15.1213 5.48851 14.4883C6.12145 13.8554 6.97989 13.4998 7.875 13.4998V20.2498C6.97989 20.2498 6.12145 19.8942 5.48851 19.2613C4.85558 18.6284 4.5 17.7699 4.5 16.8748V16.8748ZM18 31.4998C17.555 31.4998 17.12 31.3678 16.75 31.1206C16.38 30.8734 16.0916 30.522 15.9213 30.1108C15.751 29.6997 15.7064 29.2473 15.7932 28.8109C15.88 28.3744 16.0943 27.9735 16.409 27.6588C16.7237 27.3442 17.1246 27.1299 17.561 27.043C17.9975 26.9562 18.4499 27.0008 18.861 27.1711C19.2722 27.3414 19.6236 27.6298 19.8708 27.9998C20.118 28.3698 20.25 28.8048 20.25 29.2498C20.25 29.8465 20.0129 30.4188 19.591 30.8408C19.169 31.2628 18.5967 31.4998 18 31.4998V31.4998ZM28.125 20.2498V13.4998C29.0201 13.4998 29.8786 13.8554 30.5115 14.4883C31.1444 15.1213 31.5 15.9797 31.5 16.8748C31.5 17.7699 31.1444 18.6284 30.5115 19.2613C29.8786 19.8942 29.0201 20.2498 28.125 20.2498V20.2498Z" fill="#008CE3"/>
</svg>
