<svg width="16" height="16" viewBox="0 0 16 16" fill="none" xmlns="http://www.w3.org/2000/svg">
<path fill-rule="evenodd" clip-rule="evenodd" d="M3 12.0024H13C13.2651 12.0021 13.5193 11.8966 13.7067 11.7092C13.8942 11.5217 13.9996 11.2675 14 11.0024V4.00244C13.9997 3.73732 13.8942 3.48314 13.7068 3.29567C13.5193 3.1082 13.2651 3.00275 13 3.00244H3C2.73486 3.00271 2.48066 3.10815 2.29319 3.29563C2.10571 3.48311 2.00026 3.73731 2 4.00244V11.0024C2.0003 11.2676 2.10576 11.5217 2.29323 11.7092C2.4807 11.8967 2.73488 12.0021 3 12.0024ZM3 11.0024V4.00244H13V11.0024H3ZM1 13.0024H15V14.0024H1V13.0024Z" fill="black"/>
</svg>
