<svg width="16" height="16" viewBox="0 0 16 16" fill="none" xmlns="http://www.w3.org/2000/svg">
<path fill-rule="evenodd" clip-rule="evenodd" d="M3 15H6V14H3V2H11V7H12V2C11.9997 1.73487 11.8943 1.48068 11.7068 1.2932C11.5193 1.10572 11.2651 1.00028 11 1H3C2.73487 1.00028 2.48068 1.10572 2.2932 1.2932C2.10572 1.48068 2.00028 1.73487 2 2V14C2.00028 14.2651 2.10572 14.5193 2.2932 14.7068C2.48068 14.8943 2.73487 14.9997 3 15ZM4 3H10V4H4V3ZM4 5H10V6H4V5ZM7 7H4V8H7V7ZM4 12H6V13H4V12ZM14.8535 9.64652L13.3535 8.14652C13.3071 8.10007 13.252 8.06322 13.1913 8.03808C13.1307 8.01294 13.0657 8 13 8C12.9343 8 12.8693 8.01294 12.8087 8.03808C12.748 8.06322 12.6929 8.10007 12.6465 8.14652L8 12.793V15H10.2071L14.8535 10.3535C14.9 10.3071 14.9368 10.252 14.9619 10.1913C14.9871 10.1307 15 10.0657 15 10C15 9.93436 14.9871 9.86934 14.9619 9.80869C14.9368 9.74803 14.9 9.69292 14.8535 9.64652ZM9.79295 14H9V13.2071L11.5 10.7071L12.2929 11.5L9.79295 14ZM13 10.793L12.2071 10L13 9.20707L13.7929 10L13 10.793Z" fill="black"/>
</svg>
