<svg width="16" height="16" viewBox="0 0 16 16" fill="none" xmlns="http://www.w3.org/2000/svg">
<path fill-rule="evenodd" clip-rule="evenodd" d="M3 15H7V14H3V2H11V7H12V2C11.9997 1.73487 11.8943 1.48068 11.7068 1.2932C11.5193 1.10572 11.2651 1.00028 11 1H3C2.73487 1.00028 2.48068 1.10572 2.2932 1.2932C2.10572 1.48068 2.00028 1.73487 2 2V14C2.00028 14.2651 2.10572 14.5193 2.2932 14.7068C2.48068 14.8943 2.73487 14.9997 3 15ZM10 3H4V4H10V3ZM7 7H4V8H7V7ZM4 5H10V6H4V5ZM7 12H4V13H7V12ZM13.5 12.5C13.8978 12.5 14.2794 12.658 14.5607 12.9393C14.842 13.2206 15 13.6022 15 14V15H14V14C14 13.8674 13.9473 13.7402 13.8536 13.6464C13.7598 13.5527 13.6326 13.5 13.5 13.5H10.5C10.3674 13.5 10.2402 13.5527 10.1464 13.6464C10.0527 13.7402 10 13.8674 10 14V15H9V14C9 13.6022 9.15804 13.2206 9.43934 12.9393C9.72064 12.658 10.1022 12.5 10.5 12.5H13.5ZM12 12C12.3956 12 12.7822 11.8827 13.1111 11.6629C13.44 11.4432 13.6964 11.1308 13.8478 10.7654C13.9991 10.3999 14.0387 9.99778 13.9616 9.60982C13.8844 9.22186 13.6939 8.86549 13.4142 8.58579C13.1345 8.30608 12.7781 8.1156 12.3902 8.03843C12.0022 7.96126 11.6001 8.00087 11.2346 8.15224C10.8692 8.30362 10.5568 8.55996 10.3371 8.88886C10.1173 9.21776 10 9.60444 10 10C10 10.5304 10.2107 11.0391 10.5858 11.4142C10.9609 11.7893 11.4696 12 12 12ZM12 9C12.1978 9 12.3911 9.05865 12.5556 9.16853C12.72 9.27841 12.8482 9.43459 12.9239 9.61732C12.9996 9.80004 13.0194 10.0011 12.9808 10.1951C12.9422 10.3891 12.847 10.5673 12.7071 10.7071C12.5673 10.847 12.3891 10.9422 12.1951 10.9808C12.0011 11.0194 11.8 10.9996 11.6173 10.9239C11.4346 10.8482 11.2784 10.72 11.1685 10.5556C11.0586 10.3911 11 10.1978 11 10C11 9.73479 11.1054 9.48043 11.2929 9.29289C11.4804 9.10536 11.7348 9 12 9Z" fill="black"/>
</svg>
