<svg width="12" height="10" viewBox="0 0 12 10" fill="none" xmlns="http://www.w3.org/2000/svg">
<path d="M9.98607 3.63095H7.61571V1.51071C7.61536 1.22964 7.49039 0.960179 7.2682 0.761435C7.04601 0.562691 6.74475 0.450901 6.43053 0.450592H5.58795C5.39795 0.451274 5.21453 0.512886 5.071 0.624238C4.92747 0.73559 4.83335 0.889297 4.80573 1.05744L4.47179 3.14817L3.05862 5.04444H0.504639V9.99166H8.80089C9.53407 9.99093 10.237 9.73009 10.7554 9.26635C11.2739 8.80262 11.5655 8.17387 11.5663 7.51805V5.04444C11.5658 4.66969 11.3992 4.31041 11.1029 4.04542C10.8067 3.78043 10.405 3.63137 9.98607 3.63095ZM2.875 9.28492H1.29476V5.75119H2.875V9.28492ZM10.7762 7.51805C10.7756 7.98649 10.5673 8.43559 10.197 8.76683C9.82666 9.09806 9.32459 9.28438 8.80089 9.28492H3.66511V5.50478L5.22868 3.40698L5.58795 1.15734H6.43053C6.53528 1.15741 6.63572 1.19467 6.70979 1.26092C6.78386 1.32718 6.82551 1.41701 6.82559 1.51071V4.3377H9.98607C10.1955 4.33793 10.3964 4.41246 10.5445 4.54495C10.6926 4.67744 10.7759 4.85707 10.7762 5.04444V7.51805Z" fill="#151B26"/>
</svg>
