<svg width="16" height="16" viewBox="0 0 16 16" fill="none" xmlns="http://www.w3.org/2000/svg">
<path fill-rule="evenodd" clip-rule="evenodd" d="M9 15H3C2.73488 14.9997 2.4807 14.8942 2.29323 14.7068C2.10576 14.5193 2.0003 14.2651 2 14V2C2.0003 1.73488 2.10576 1.4807 2.29323 1.29323C2.4807 1.10576 2.73488 1.0003 3 1H9C9.26512 1.0003 9.5193 1.10576 9.70677 1.29323C9.89424 1.4807 9.9997 1.73488 10 2V3.5H9V2H3V14H9V12.5H10V14C9.9997 14.2651 9.89424 14.5193 9.70677 14.7068C9.5193 14.8942 9.26512 14.9997 9 15ZM12.086 8.5L10.293 10.293L11 11L14 8L11 5L10.293 5.707L12.086 7.5H5V8.5H12.086Z" fill="black"/>
</svg>
