<svg width="24" height="24" viewBox="0 0 24 24" fill="none" xmlns="http://www.w3.org/2000/svg">
<g clip-path="url(#clip0_995_13727)">
<path d="M12.4426 15.3075L15.1276 18L12.4351 20.6925L13.5001 21.75L17.2501 18L13.5001 14.25L12.4426 15.3075Z" fill="#008CE3"/>
<path d="M17.6926 15.3075L20.3776 18L17.6851 20.6925L18.7501 21.75L22.5001 18L18.7501 14.25L17.6926 15.3075Z" fill="#008CE3"/>
<path d="M10.5 17.25H3V5.9325L11.5725 11.865C11.698 11.9521 11.8472 11.9988 12 11.9988C12.1528 11.9988 12.302 11.9521 12.4275 11.865L21 5.9325V12.75H22.5V5.25C22.5 4.85218 22.342 4.47064 22.0607 4.18934C21.7794 3.90804 21.3978 3.75 21 3.75H3C2.60218 3.75 2.22064 3.90804 1.93934 4.18934C1.65804 4.47064 1.5 4.85218 1.5 5.25V17.25C1.5 17.6478 1.65804 18.0294 1.93934 18.3107C2.22064 18.592 2.60218 18.75 3 18.75H10.5V17.25ZM19.35 5.25L12 10.335L4.65 5.25H19.35Z" fill="#008CE3"/>
</g>
<defs>
<clipPath id="clip0_995_13727">
<rect width="24" height="24" fill="white"/>
</clipPath>
</defs>
</svg>
