<svg width="110" height="110" viewBox="0 0 110 110" fill="none" xmlns="http://www.w3.org/2000/svg">
<path fill-rule="evenodd" clip-rule="evenodd" d="M74.8609 32.0577C77.1221 33.5686 79.7805 34.375 82.5 34.375C86.1455 34.3712 89.6407 32.9213 92.2185 30.3435C94.7963 27.7657 96.2462 24.2706 96.25 20.625C96.25 17.9055 95.4436 15.2471 93.9327 12.9859C92.4218 10.7247 90.2744 8.96237 87.7619 7.92166C85.2494 6.88096 82.4847 6.60866 79.8175 7.13921C77.1503 7.66976 74.7002 8.97932 72.7773 10.9023C70.8543 12.8253 69.5447 15.2753 69.0142 17.9425C68.4837 20.6098 68.7559 23.3744 69.7966 25.8869C70.8373 28.3994 72.5997 30.5468 74.8609 32.0577ZM78.6804 14.9087C79.811 14.1532 81.1402 13.75 82.5 13.75C84.3227 13.7521 86.0702 14.4771 87.359 15.766C88.6479 17.0548 89.3729 18.8023 89.375 20.625C89.375 21.9848 88.9718 23.314 88.2163 24.4446C87.4609 25.5751 86.3872 26.4563 85.1309 26.9767C83.8747 27.497 82.4924 27.6332 81.1587 27.3679C79.8251 27.1026 78.6001 26.4479 77.6386 25.4864C76.6771 24.5249 76.0224 23.2999 75.7571 21.9663C75.4918 20.6326 75.628 19.2503 76.1483 17.9941C76.6687 16.7378 77.5499 15.6641 78.6804 14.9087ZM61.875 55H68.75V48.125C68.7508 47.2136 69.1132 46.3397 69.7577 45.6952C70.4022 45.0507 71.2761 44.6883 72.1875 44.6875H92.8125C93.7239 44.6883 94.5978 45.0507 95.2423 45.6952C95.8868 46.3397 96.2492 47.2136 96.25 48.125V55H103.125V48.125C103.122 45.3909 102.035 42.7696 100.101 40.8363C98.1679 38.903 95.5466 37.8155 92.8125 37.8125H72.1875C69.4534 37.8155 66.8321 38.903 64.8988 40.8363C62.9655 42.7696 61.878 45.3909 61.875 48.125V55ZM74.8609 83.6202C77.1221 85.1311 79.7805 85.9375 82.5 85.9375C86.1456 85.934 89.6409 84.4842 92.2188 81.9063C94.7967 79.3285 96.2464 75.8331 96.25 72.1875C96.25 69.468 95.4436 66.8096 93.9327 64.5484C92.4218 62.2872 90.2744 60.5249 87.7619 59.4842C85.2494 58.4435 82.4847 58.1712 79.8175 58.7017C77.1503 59.2323 74.7002 60.5418 72.7773 62.4648C70.8543 64.3878 69.5447 66.8378 69.0142 69.505C68.4837 72.1723 68.7559 74.9369 69.7966 77.4494C70.8373 79.9619 72.5997 82.1093 74.8609 83.6202ZM78.6804 66.4712C79.811 65.7157 81.1402 65.3125 82.5 65.3125C84.3226 65.315 86.0699 66.0401 87.3586 67.3289C88.6474 68.6176 89.3725 70.3649 89.375 72.1875C89.375 73.5473 88.9718 74.8765 88.2163 76.0071C87.4609 77.1376 86.3872 78.0188 85.1309 78.5392C83.8747 79.0595 82.4924 79.1957 81.1587 78.9304C79.8251 78.6651 78.6001 78.0104 77.6386 77.0489C76.6771 76.0874 76.0224 74.8624 75.7571 73.5288C75.4918 72.1951 75.628 70.8128 76.1483 69.5566C76.6687 68.3003 77.5499 67.2266 78.6804 66.4712ZM68.75 106.562H61.875V99.6875C61.878 96.9534 62.9655 94.3321 64.8988 92.3988C66.8321 90.4655 69.4534 89.378 72.1875 89.375H92.8125C95.5466 89.378 98.1679 90.4655 100.101 92.3988C102.035 94.3321 103.122 96.9534 103.125 99.6875V106.562H96.25V99.6875C96.2495 98.776 95.8871 97.902 95.2426 97.2574C94.598 96.6129 93.724 96.2505 92.8125 96.25H72.1875C71.276 96.2505 70.402 96.6129 69.7574 97.2574C69.1129 97.902 68.7505 98.776 68.75 99.6875V106.562ZM6.875 106.562H13.75V99.6875C13.7508 98.7761 14.1132 97.9022 14.7577 97.2577C15.4022 96.6132 16.2761 96.2508 17.1875 96.25H37.8125C38.7239 96.2508 39.5978 96.6132 40.2423 97.2577C40.8868 97.9022 41.2492 98.7761 41.25 99.6875V106.562H48.125V99.6875C48.122 96.9534 47.0345 94.3321 45.1012 92.3988C43.1679 90.4655 40.5466 89.378 37.8125 89.375H17.1875C14.4534 89.378 11.8321 90.4655 9.89878 92.3988C7.96546 94.3321 6.878 96.9534 6.875 99.6875V106.562ZM19.8609 83.6202C22.1221 85.1311 24.7805 85.9375 27.5 85.9375C31.1456 85.9337 34.6407 84.4838 37.2185 81.906C39.7963 79.3282 41.2462 75.8331 41.25 72.1875C41.25 69.468 40.4436 66.8096 38.9327 64.5484C37.4218 62.2872 35.2744 60.5249 32.7619 59.4842C30.2494 58.4435 27.4848 58.1712 24.8175 58.7017C22.1503 59.2323 19.7003 60.5418 17.7773 62.4648C15.8543 64.3878 14.5448 66.8378 14.0142 69.505C13.4837 72.1723 13.756 74.9369 14.7967 77.4494C15.8374 79.9619 17.5997 82.1093 19.8609 83.6202ZM23.6805 66.4712C24.8111 65.7157 26.1403 65.3125 27.5 65.3125C29.3227 65.3146 31.0702 66.0396 32.3591 67.3285C33.6479 68.6173 34.3729 70.3648 34.375 72.1875C34.375 73.5473 33.9718 74.8765 33.2164 76.0071C32.4609 77.1376 31.3872 78.0188 30.131 78.5392C28.8747 79.0595 27.4924 79.1957 26.1588 78.9304C24.8251 78.6651 23.6001 78.0104 22.6386 77.0489C21.6772 76.0874 21.0224 74.8624 20.7571 73.5288C20.4918 72.1951 20.628 70.8128 21.1483 69.5566C21.6687 68.3003 22.5499 67.2266 23.6805 66.4712ZM6.875 55H13.75V48.125C13.7512 47.2137 14.1137 46.34 14.7581 45.6956C15.4025 45.0512 16.2762 44.6887 17.1875 44.6875H37.8125C38.7238 44.6887 39.5975 45.0512 40.2419 45.6956C40.8863 46.34 41.2488 47.2137 41.25 48.125V55H48.125V48.125C48.122 45.3909 47.0345 42.7696 45.1012 40.8363C43.1679 38.903 40.5466 37.8155 37.8125 37.8125H17.1875C14.4534 37.8155 11.8321 38.903 9.89878 40.8363C7.96546 42.7696 6.878 45.3909 6.875 48.125V55ZM19.8609 32.0577C22.1221 33.5686 24.7805 34.375 27.5 34.375C31.1455 34.3709 34.6405 32.9209 37.2182 30.3432C39.7959 27.7655 41.2459 24.2705 41.25 20.625C41.25 17.9055 40.4436 15.2471 38.9327 12.9859C37.4218 10.7247 35.2744 8.96237 32.7619 7.92166C30.2494 6.88096 27.4848 6.60866 24.8175 7.13921C22.1503 7.66976 19.7003 8.97932 17.7773 10.9023C15.8543 12.8253 14.5448 15.2753 14.0142 17.9425C13.4837 20.6098 13.756 23.3744 14.7967 25.8869C15.8374 28.3994 17.5997 30.5468 19.8609 32.0577ZM23.6805 14.9087C24.8111 14.1532 26.1403 13.75 27.5 13.75C29.3228 13.7518 31.0704 14.4767 32.3594 15.7657C33.6483 17.0546 34.3732 18.8022 34.375 20.625C34.375 21.9848 33.9718 23.314 33.2164 24.4446C32.4609 25.5751 31.3872 26.4563 30.131 26.9767C28.8747 27.497 27.4924 27.6332 26.1588 27.3679C24.8251 27.1026 23.6001 26.4479 22.6386 25.4864C21.6772 24.5249 21.0224 23.2999 20.7571 21.9663C20.4918 20.6326 20.628 19.2503 21.1483 17.9941C21.6687 16.7378 22.5499 15.6641 23.6805 14.9087Z" fill="#008CE3"/>
</svg>
