<svg width="36" height="36" viewBox="0 0 36 36" fill="none" xmlns="http://www.w3.org/2000/svg">
<path fill-rule="evenodd" clip-rule="evenodd" d="M29.0589 32.625H29.2502C30.1453 32.625 31.0037 32.2694 31.6367 31.6365C32.2696 31.0036 32.6252 30.1451 32.6252 29.25V23.31C32.6283 22.8632 32.4984 22.4257 32.252 22.053C32.0055 21.6803 31.6538 21.3895 31.2414 21.2175L27.0002 19.5188C26.5929 19.3475 26.1442 19.2999 25.7101 19.3819C25.276 19.4639 24.8756 19.6719 24.5589 19.98L22.1177 22.3988C19.9909 22.0204 18.032 20.997 16.5065 19.4676C14.9811 17.9381 13.963 15.9765 13.5902 13.8488L15.9864 11.43C16.2979 11.118 16.5109 10.7214 16.5989 10.2894C16.6869 9.85734 16.6461 9.40899 16.4814 9L14.7714 4.7925C14.6047 4.37385 14.3161 4.01492 13.943 3.76218C13.5699 3.50945 13.1295 3.37456 12.6789 3.375H6.75017C6.66017 3.375 6.57062 3.3783 6.48152 3.3849C6.03961 3.41888 5.60871 3.53956 5.21344 3.74006C4.81817 3.94057 4.46626 4.21696 4.17781 4.55347C3.88936 4.88998 3.67001 5.28 3.53229 5.70128C3.39458 6.12256 3.34119 6.56684 3.37517 7.00875C3.81392 12.7013 6.95267 31.3538 29.0589 32.625ZM6.31938 5.70926C6.45605 5.65316 6.60243 5.62453 6.75017 5.625H12.6902L14.3777 9.86625L11.1827 13.095L11.2502 13.635C11.2502 13.7363 12.5777 23.5238 22.3652 24.75L22.9052 24.8175L26.1339 21.6112L30.3752 23.31V29.25C30.3752 29.2732 30.3745 29.2964 30.3731 29.3195C30.3643 29.467 30.3265 29.6113 30.2618 29.7441C30.1972 29.877 30.107 29.9958 29.9965 30.0938C29.886 30.1918 29.7572 30.2671 29.6175 30.3153C29.4779 30.3636 29.3301 30.3839 29.1827 30.375C9.46142 29.25 6.14267 13.5 5.62517 6.84C5.62277 6.80888 5.62157 6.77768 5.62157 6.7464C5.62204 6.59866 5.65161 6.45247 5.70858 6.31616C5.76555 6.17984 5.84882 6.05609 5.95362 5.95196C6.05842 5.84783 6.1827 5.76536 6.31938 5.70926ZM31.5002 14.625H29.2502C29.2478 12.5371 28.4174 10.5354 26.9411 9.0591C25.4647 7.58275 23.463 6.75232 21.3752 6.75V4.5C24.0596 4.50298 26.6332 5.57067 28.5313 7.46883C30.4295 9.36699 31.4972 11.9406 31.5002 14.625ZM27.0002 14.625H24.7502C24.7492 13.7302 24.3933 12.8723 23.7606 12.2396C23.1278 11.6069 22.27 11.251 21.3752 11.25V9C22.8665 9.0017 24.2962 9.59487 25.3508 10.6494C26.4053 11.7039 26.9985 13.1337 27.0002 14.625Z" fill="#008CE3"/>
</svg>
