<svg width="110" height="110" viewBox="0 0 110 110" fill="none" xmlns="http://www.w3.org/2000/svg">
<path fill-rule="evenodd" clip-rule="evenodd" d="M77.9173 20.7019C71.1338 16.1693 63.1585 13.75 55 13.75C44.0598 13.75 33.5677 18.096 25.8319 25.8318C18.096 33.5677 13.75 44.0598 13.75 55C13.75 63.1585 16.1693 71.1337 20.7019 77.9173C25.2345 84.7008 31.6769 89.9879 39.2143 93.11C46.7518 96.2321 55.0458 97.049 63.0475 95.4574C71.0492 93.8658 78.3993 89.9371 84.1682 84.1682C89.9371 78.3992 93.8658 71.0492 95.4574 63.0475C97.049 55.0458 96.2322 46.7518 93.11 39.2143C89.9879 31.6769 84.7008 25.2345 77.9173 20.7019ZM28.2632 14.9855C36.1773 9.69748 45.4818 6.875 55 6.875C67.7636 6.875 80.0043 11.9453 89.0295 20.9705C98.0547 29.9957 103.125 42.2365 103.125 55C103.125 64.5182 100.303 73.8227 95.0145 81.7368C89.7264 89.6509 82.2103 95.8192 73.4167 99.4617C64.623 103.104 54.9466 104.057 45.6113 102.2C36.276 100.343 27.7009 95.7599 20.9705 89.0295C14.2401 82.2991 9.65664 73.7241 7.79973 64.3887C5.94282 55.0534 6.89585 45.3771 10.5383 36.5834C14.1808 27.7897 20.3491 20.2736 28.2632 14.9855ZM35.3818 78.0561C36.0265 78.7007 36.9008 79.0629 37.8125 79.0629C38.3462 79.0629 38.8726 78.9387 39.3501 78.7002L80.6001 58.0752C81.1712 57.7898 81.6516 57.3509 81.9873 56.8078C82.323 56.2647 82.5008 55.6389 82.5008 55.0004C82.5008 54.3619 82.323 53.7361 81.9873 53.193C81.6516 52.6499 81.1712 52.211 80.6001 51.9256L39.3501 31.3006C38.826 31.0384 38.2436 30.9147 37.6582 30.941C37.0727 30.9673 36.5038 31.1428 36.0053 31.4509C35.5068 31.759 35.0954 32.1894 34.81 32.7013C34.5247 33.2131 34.375 33.7894 34.375 34.3754V75.6254C34.375 76.5371 34.7372 77.4114 35.3818 78.0561ZM71.377 55.0004L41.25 70.0639V39.9369L71.377 55.0004Z" fill="#008CE3"/>
</svg>
