<svg width="46" height="46" viewBox="0 0 46 46" fill="none" xmlns="http://www.w3.org/2000/svg">
<circle cx="23" cy="23" r="23" fill="#F4F6F6"/>
<path d="M18.375 30.5C18.2092 30.5 18.0503 30.4342 17.9331 30.317C17.8158 30.1998 17.75 30.0408 17.75 29.875V16.125C17.75 16.0164 17.7783 15.9097 17.8321 15.8153C17.8859 15.721 17.9634 15.6423 18.0569 15.587C18.1504 15.5317 18.2566 15.5018 18.3652 15.5001C18.4738 15.4984 18.581 15.525 18.6762 15.5774L31.1762 22.4524C31.2743 22.5063 31.356 22.5856 31.413 22.6819C31.47 22.7782 31.5 22.8881 31.5 23C31.5 23.1119 31.47 23.2218 31.413 23.3181C31.356 23.4145 31.2743 23.4937 31.1762 23.5477L18.6762 30.4227C18.5839 30.4734 18.4803 30.5 18.375 30.5Z" fill="black"/>
</svg>
