<svg width="16" height="16" viewBox="0 0 16 16" fill="none" xmlns="http://www.w3.org/2000/svg">
<path fill-rule="evenodd" clip-rule="evenodd" d="M11 2.5H12.5C12.7652 2.5 13.0196 2.60536 13.2071 2.79289C13.3946 2.98043 13.5 3.23478 13.5 3.5V14C13.5 14.2652 13.3946 14.5196 13.2071 14.7071C13.0196 14.8946 12.7652 15 12.5 15H3.5C3.23478 15 2.98043 14.8946 2.79289 14.7071C2.60536 14.5196 2.5 14.2652 2.5 14V3.5C2.5 3.23478 2.60536 2.98043 2.79289 2.79289C2.98043 2.60536 3.23478 2.5 3.5 2.5H5V2C5 1.73478 5.10536 1.48043 5.29289 1.29289C5.48043 1.10536 5.73478 1 6 1H10C10.2652 1 10.5196 1.10536 10.7071 1.29289C10.8946 1.48043 11 1.73478 11 2V2.5ZM10 2H6V4H10V2ZM3.5 14H12.5V3.5H11V5H5V3.5H3.5V14ZM6 7H5V12H6V7ZM10 9H11V12H10V9ZM7.5 10H8.5V12H7.5V10Z" fill="black"/>
</svg>
