<svg width="21" height="21" viewBox="0 0 21 21" fill="none" xmlns="http://www.w3.org/2000/svg">
<g clip-path="url(#clip0_6426_1368)">
<path d="M11.1562 6.5625H9.84375V11.8125H11.1562V6.5625Z" fill="#008CE3"/>
<path d="M14.4375 9.1875H13.125V11.8125H14.4375V9.1875Z" fill="#008CE3"/>
<path d="M7.875 7.875H6.5625V11.8125H7.875V7.875Z" fill="#008CE3"/>
<path d="M16.4062 2.625H11.1562V1.3125H9.84375V2.625H4.59375C4.24565 2.625 3.91181 2.76328 3.66567 3.00942C3.41953 3.25556 3.28125 3.5894 3.28125 3.9375V13.125C3.28125 13.4731 3.41953 13.8069 3.66567 14.0531C3.91181 14.2992 4.24565 14.4375 4.59375 14.4375H9.84375V18.375H7.21875V19.6875H13.7812V18.375H11.1562V14.4375H16.4062C16.7543 14.4375 17.0882 14.2992 17.3343 14.0531C17.5805 13.8069 17.7188 13.4731 17.7188 13.125V3.9375C17.7188 3.5894 17.5805 3.25556 17.3343 3.00942C17.0882 2.76328 16.7543 2.625 16.4062 2.625ZM16.4062 13.125H4.59375V3.9375H16.4062V13.125Z" fill="#008CE3"/>
</g>
<defs>
<clipPath id="clip0_6426_1368">
<rect width="21" height="21" fill="white"/>
</clipPath>
</defs>
</svg>
