<svg width="16" height="16" viewBox="0 0 16 16" fill="none" xmlns="http://www.w3.org/2000/svg">
<path fill-rule="evenodd" clip-rule="evenodd" d="M9 1H1V2H9V1ZM12.6557 11.9489L15 14.2931L14.2929 15.0001L11.9487 12.6559C11.1423 13.2825 10.1274 13.5781 9.11065 13.4826C8.0939 13.3871 7.15178 12.9076 6.47613 12.1419C5.80047 11.3761 5.4421 10.3816 5.47397 9.36088C5.50585 8.34016 5.92558 7.36996 6.64769 6.64784C7.3698 5.92573 8.34 5.506 9.36073 5.47413C10.3815 5.44225 11.376 5.80063 12.1417 6.47628C12.9075 7.15193 13.3869 8.09405 13.4824 9.1108C13.5779 10.1275 13.2823 11.1425 12.6557 11.9489ZM7.83328 11.9946C8.32663 12.3242 8.90665 12.5001 9.49999 12.5001C10.2954 12.4993 11.0579 12.1829 11.6203 11.6205C12.1828 11.0581 12.4991 10.2955 12.5 9.50015C12.5 8.9068 12.324 8.32678 11.9944 7.83344C11.6648 7.34009 11.1962 6.95557 10.648 6.72851C10.0999 6.50145 9.49667 6.44204 8.91472 6.55779C8.33278 6.67355 7.79823 6.95927 7.37867 7.37883C6.95912 7.79838 6.67339 8.33293 6.55764 8.91488C6.44188 9.49682 6.50129 10.1 6.72836 10.6482C6.95542 11.1964 7.33994 11.6649 7.83328 11.9946ZM1 6H5V7H1V6ZM1 3.5H9V4.5H1V3.5Z" fill="black"/>
</svg>
