<svg width="17" height="17" viewBox="0 0 17 17" fill="none" xmlns="http://www.w3.org/2000/svg">
<path fill-rule="evenodd" clip-rule="evenodd" d="M11.1098 14.0389L11.0153 2.03932C11.0135 1.7742 11.117 1.51919 11.303 1.33025C11.489 1.1413 11.7423 1.03385 12.0074 1.03147L14.0074 1.01572C14.2725 1.01391 14.5275 1.11735 14.7164 1.30335C14.9054 1.48934 15.0128 1.74269 15.0152 2.00781L15.1097 14.0074C15.1115 14.2726 15.0081 14.5276 14.8221 14.7165C14.6361 14.9055 14.3827 15.0129 14.1176 15.0153L12.1177 15.031C11.8526 15.0328 11.5976 14.9294 11.4086 14.7434C11.2197 14.5574 11.1122 14.3041 11.1098 14.0389ZM14.0152 2.01569L12.0153 2.03144L12.1098 14.0311L14.1097 14.0153L14.0152 2.01569ZM1.11015 14.1177L1.01563 2.11808C1.01384 1.85296 1.11728 1.59796 1.30327 1.40901C1.48926 1.22007 1.74261 1.11262 2.00773 1.11024L4.00767 1.09449C4.27279 1.09268 4.52781 1.19612 4.71675 1.38211C4.9057 1.5681 5.01314 1.82146 5.01551 2.08658L5.11003 14.0862C5.11184 14.3513 5.0084 14.6063 4.8224 14.7953C4.63641 14.9842 4.38306 15.0917 4.11794 15.0941L2.118 15.1098C1.85288 15.1116 1.59787 15.0082 1.40893 14.8222C1.21998 14.6362 1.11253 14.3828 1.11015 14.1177ZM4.01554 2.09446L2.0156 2.11021L2.11012 14.1098L4.11006 14.0941L4.01554 2.09446ZM6.01548 2.0787L6.11 14.0783C6.11238 14.3434 6.21983 14.5968 6.40877 14.7828C6.59771 14.9688 6.85272 15.0722 7.11784 15.0704L9.11778 15.0547C9.3829 15.0523 9.63626 14.9449 9.82225 14.7559C10.0082 14.567 10.1117 14.3119 10.1099 14.0468L10.0154 2.0472C10.013 1.78208 9.90554 1.52872 9.7166 1.34273C9.52765 1.15673 9.27264 1.05329 9.00751 1.0551L7.00757 1.07086C6.74246 1.07324 6.48911 1.18069 6.30312 1.36963C6.11713 1.55857 6.01368 1.81358 6.01548 2.0787ZM7.01545 2.07083L9.01539 2.05507L9.1099 14.0547L7.10997 14.0705L7.01545 2.07083Z" fill="black"/>
</svg>
