<svg width="16" height="16" viewBox="0 0 16 16" fill="none" xmlns="http://www.w3.org/2000/svg">
<path fill-rule="evenodd" clip-rule="evenodd" d="M15 4H13.9494C13.885 3.68703 13.7607 3.38944 13.5835 3.12355L14.3285 2.37855L13.6215 1.67155L12.8765 2.41655C12.6106 2.2393 12.313 2.11503 12 2.05055V1H11V2.05055C10.687 2.11502 10.3894 2.23928 10.1236 2.4165L9.37855 1.6715L8.67155 2.3785L9.41655 3.1235C9.2393 3.3894 9.11503 3.68701 9.05055 4H8V5H9.05055C9.11502 5.31297 9.23928 5.61056 9.4165 5.87645L8.6715 6.62145L9.3785 7.32845L10.1235 6.58345C10.3894 6.7607 10.687 6.88497 11 6.94945V8H12V6.94945C12.313 6.88498 12.6106 6.76072 12.8764 6.5835L13.6215 7.3285L14.3285 6.6215L13.5835 5.8765C13.7607 5.6106 13.885 5.31299 13.9494 5H15V4ZM11.5 6C11.2033 6 10.9133 5.91203 10.6666 5.7472C10.42 5.58238 10.2277 5.34811 10.1142 5.07403C10.0006 4.79994 9.97094 4.49834 10.0288 4.20736C10.0867 3.91639 10.2296 3.64912 10.4393 3.43934C10.6491 3.22956 10.9164 3.0867 11.2074 3.02882C11.4983 2.97094 11.7999 3.00065 12.074 3.11418C12.3481 3.22771 12.5824 3.41997 12.7472 3.66664C12.912 3.91332 13 4.20333 13 4.5C12.9996 4.89769 12.8414 5.27897 12.5602 5.56018C12.279 5.84139 11.8977 5.99956 11.5 6ZM8 15H7V12.5C6.99956 12.1023 6.84139 11.721 6.56018 11.4398C6.27897 11.1586 5.89769 11.0004 5.5 11H3.5C3.10231 11.0004 2.72103 11.1586 2.43982 11.4398C2.15861 11.721 2.00044 12.1023 2 12.5V15H1V12.5C1.00078 11.8372 1.26442 11.2018 1.7331 10.7331C2.20177 10.2644 2.8372 10.0008 3.5 10H5.5C6.1628 10.0008 6.79823 10.2644 7.2669 10.7331C7.73558 11.2018 7.99922 11.8372 8 12.5V15ZM5.33336 5.2528C5.08668 5.08797 4.79667 5 4.5 5C4.10218 5 3.72065 5.15803 3.43934 5.43934C3.15804 5.72064 3 6.10218 3 6.5C3 6.79667 3.08797 7.08668 3.2528 7.33335C3.41762 7.58003 3.65189 7.77229 3.92598 7.88582C4.20007 7.99935 4.50167 8.02906 4.79264 7.97118C5.08361 7.9133 5.35088 7.77044 5.56066 7.56066C5.77044 7.35088 5.9133 7.08361 5.97118 6.79263C6.02906 6.50166 5.99935 6.20006 5.88582 5.92597C5.77229 5.65189 5.58003 5.41762 5.33336 5.2528ZM3.11108 4.42133C3.5222 4.14662 4.00555 4 4.5 4C4.82831 4 5.1534 4.06466 5.45671 4.1903C5.76002 4.31594 6.03562 4.50009 6.26777 4.73223C6.49991 4.96438 6.68406 5.23998 6.8097 5.54329C6.93534 5.84661 7 6.1717 7 6.5C7 6.99445 6.85338 7.4778 6.57867 7.88893C6.30397 8.30005 5.91353 8.62048 5.45671 8.8097C4.99989 8.99892 4.49723 9.04843 4.01228 8.95196C3.52732 8.8555 3.08187 8.6174 2.73223 8.26777C2.3826 7.91814 2.1445 7.47268 2.04804 6.98773C1.95157 6.50277 2.00108 6.00011 2.1903 5.54329C2.37952 5.08648 2.69995 4.69603 3.11108 4.42133Z" fill="black"/>
</svg>
