<svg width="10" height="10" viewBox="0 0 10 10" fill="none" xmlns="http://www.w3.org/2000/svg">
<g clip-path="url(#clip0_112_183)">
<path fill-rule="evenodd" clip-rule="evenodd" d="M5 0.625C4.13471 0.625 3.28885 0.881589 2.56938 1.36232C1.84992 1.84305 1.28916 2.52633 0.958029 3.32576C0.626896 4.12519 0.540256 5.00485 0.709066 5.85352C0.877877 6.70219 1.29456 7.48174 1.90641 8.09359C2.51826 8.70545 3.29782 9.12212 4.14648 9.29094C4.99515 9.45975 5.87482 9.37311 6.67424 9.04197C7.47367 8.71084 8.15695 8.15008 8.63768 7.43062C9.11841 6.71115 9.375 5.86529 9.375 5C9.375 3.83968 8.91407 2.72688 8.09359 1.90641C7.27312 1.08594 6.16032 0.625 5 0.625ZM5 8.75C4.25832 8.75 3.5333 8.53007 2.91661 8.11801C2.29993 7.70596 1.81928 7.12029 1.53545 6.43506C1.25163 5.74984 1.17736 4.99584 1.32206 4.26841C1.46675 3.54098 1.8239 2.8728 2.34835 2.34835C2.8728 1.8239 3.54098 1.46675 4.26841 1.32206C4.99584 1.17736 5.74984 1.25162 6.43506 1.53545C7.12029 1.81928 7.70596 2.29993 8.11801 2.91661C8.53007 3.5333 8.75 4.25832 8.75 5C8.75 5.99456 8.35491 6.94839 7.65165 7.65165C6.94839 8.35491 5.99456 8.75 5 8.75ZM5.3125 2.5H4.6875V5.9375H5.3125V2.5ZM4.73958 6.954C4.81666 6.90249 4.90729 6.875 5 6.875C5.12432 6.875 5.24355 6.92439 5.33146 7.01229C5.41936 7.1002 5.46875 7.21943 5.46875 7.34375C5.46875 7.43646 5.44126 7.52709 5.38975 7.60417C5.33824 7.68126 5.26504 7.74134 5.17938 7.77682C5.09373 7.8123 4.99948 7.82158 4.90855 7.80349C4.81762 7.78541 4.7341 7.74076 4.66854 7.67521C4.60299 7.60965 4.55834 7.52613 4.54026 7.4352C4.52217 7.34427 4.53145 7.25002 4.56693 7.16437C4.60241 7.07871 4.66249 7.00551 4.73958 6.954Z" fill="#FF0000"/>
</g>
<defs>
<clipPath id="clip0_112_183">
<rect width="10" height="10" fill="white"/>
</clipPath>
</defs>
</svg>
