<svg width="16" height="16" viewBox="0 0 16 16" fill="none" xmlns="http://www.w3.org/2000/svg">
<path fill-rule="evenodd" clip-rule="evenodd" d="M9.36205 4.2671C9.85675 4.10942 10.3705 4.01957 10.8894 4C13.1853 4 14 6.1547 14 8C14 11.755 11.9654 13.9995 10 14C9.57084 13.9773 9.1493 13.8773 8.7556 13.705C8.51599 13.5976 8.26103 13.5284 8 13.5C7.7395 13.5285 7.48507 13.5977 7.246 13.705C6.85209 13.8773 6.43035 13.9773 6.001 14H6.00025C4.03395 13.9995 2 11.755 2 8C2 5.5326 3.1555 4 5.01585 4C5.55459 4.02238 6.0884 4.11229 6.60475 4.2676C6.8849 4.33965 7.1543 4.40605 7.41335 4.45C7.2948 4.03352 7.04406 3.66686 6.69894 3.40532C6.35382 3.14378 5.93302 3.00152 5.5 3V2C6.20373 2.00114 6.8847 2.24942 7.42402 2.70149C7.96334 3.15356 8.32675 3.78069 8.4508 4.4734C8.75865 4.42421 9.06303 4.3553 9.36205 4.2671ZM9.10475 12.7681C9.38795 12.8953 9.69064 12.9737 10 13C11.4741 12.9994 13 11.1293 13 8C13 7.4989 12.8982 5 10.8894 5C10.4594 5.02169 10.0342 5.09967 9.6245 5.23195C9.1389 5.3856 8.63545 5.4757 8.1267 5.5H7.8806C7.36377 5.47318 6.852 5.38466 6.3562 5.2363C5.92064 5.10351 5.47056 5.02416 5.01585 5C3.19655 5 3 7.09815 3 8C3 11.1288 4.52513 12.9988 6 13C6.30989 12.9736 6.61313 12.8952 6.89695 12.7681C7.24574 12.6137 7.61929 12.5229 8 12.5C8.38127 12.5229 8.75539 12.6137 9.10475 12.7681ZM8.5 3.5H9C9.26513 3.49972 9.51932 3.39428 9.7068 3.2068C9.89428 3.01932 9.99972 2.76513 10 2.5V2H9.5C9.23487 2.00028 8.98068 2.10572 8.7932 2.2932C8.60572 2.48068 8.50028 2.73487 8.5 3V3.5Z" fill="black"/>
</svg>
