<svg width="16" height="16" viewBox="0 0 16 16" fill="none" xmlns="http://www.w3.org/2000/svg">
<path fill-rule="evenodd" clip-rule="evenodd" d="M4 1H13C13.2652 1 13.5196 1.10536 13.7071 1.29289C13.8946 1.48043 14 1.73478 14 2V14C14 14.2652 13.8946 14.5196 13.7071 14.7071C13.5196 14.8946 13.2652 15 13 15H4C3.73478 15 3.48043 14.8946 3.29289 14.7071C3.10536 14.5196 3 14.2652 3 14V12H2V11H3V8.5H2V7.5H3V5H2V4H3V2C3 1.73478 3.10536 1.48043 3.29289 1.29289C3.48043 1.10536 3.73478 1 4 1ZM4 14H13V2H4V4H5V5H4V7.5H5V8.5H4V11H5V12H4V14ZM7 4H11V5H7V4ZM11 7.5H7V8.5H11V7.5ZM7 11H11V12H7V11Z" fill="black"/>
</svg>
