<svg width="10" height="10" viewBox="0 0 10 10" fill="none" xmlns="http://www.w3.org/2000/svg">
<g clip-path="url(#clip0_112_184)">
<path fill-rule="evenodd" clip-rule="evenodd" d="M2.56938 1.36232C3.28885 0.881589 4.13471 0.625 5 0.625C6.16032 0.625 7.27312 1.08594 8.09359 1.90641C8.91407 2.72688 9.375 3.83968 9.375 5C9.375 5.86529 9.11841 6.71115 8.63768 7.43062C8.15695 8.15008 7.47367 8.71084 6.67424 9.04197C5.87482 9.37311 4.99515 9.45975 4.14648 9.29094C3.29782 9.12212 2.51826 8.70545 1.90641 8.09359C1.29456 7.48174 0.877877 6.70219 0.709066 5.85352C0.540256 5.00485 0.626896 4.12519 0.958029 3.32576C1.28916 2.52633 1.84992 1.84305 2.56938 1.36232ZM2.91661 8.11801C3.5333 8.53007 4.25832 8.75 5 8.75C5.99456 8.75 6.94839 8.35491 7.65165 7.65165C8.35491 6.94839 8.75 5.99456 8.75 5C8.75 4.25832 8.53007 3.5333 8.11801 2.91661C7.70596 2.29993 7.12029 1.81928 6.43506 1.53545C5.74984 1.25162 4.99584 1.17736 4.26841 1.32206C3.54098 1.46675 2.8728 1.8239 2.34835 2.34835C1.8239 2.8728 1.46675 3.54098 1.32206 4.26841C1.17736 4.99584 1.25163 5.74984 1.53545 6.43506C1.81928 7.12029 2.29993 7.70596 2.91661 8.11801ZM2.8125 5.12906L4.375 6.69187L7.1875 3.87969L6.74531 3.4375L4.375 5.80813L3.25406 4.6875L2.8125 5.12906Z" fill="#3FCD9A"/>
</g>
<defs>
<clipPath id="clip0_112_184">
<rect width="10" height="10" fill="white"/>
</clipPath>
</defs>
</svg>
