<svg width="48" height="48" viewBox="0 0 48 48" fill="none" xmlns="http://www.w3.org/2000/svg">
<path fill-rule="evenodd" clip-rule="evenodd" d="M34.4996 8.11128L36.6231 5.99219L41.9951 11.3754L39.8715 13.4945L34.4996 8.11128ZM11.3729 6.00533L6.00098 11.3885L8.12452 13.5076L13.4964 8.12443L11.3729 6.00533ZM14.8335 39.2197C17.5469 41.0327 20.737 42.0005 24.0004 42.0005C28.3765 42.0005 32.5733 40.2621 35.6677 37.1677C38.7621 34.0734 40.5004 29.8765 40.5004 25.5005C40.5004 22.2371 39.5327 19.047 37.7197 16.3335C35.9066 13.6201 33.3297 11.5053 30.3147 10.2564C27.2997 9.00759 23.9821 8.68084 20.7814 9.3175C17.5808 9.95415 14.6407 11.5256 12.3332 13.8332C10.0256 16.1408 8.45413 19.0808 7.81748 22.2815C7.18082 25.4821 7.50758 28.7997 8.75642 31.8147C10.0053 34.8297 12.1201 37.4067 14.8335 39.2197ZM16.5002 14.2756C18.7203 12.7922 21.3304 12.0005 24.0004 12.0005C27.5809 12.0005 31.0146 13.4228 33.5464 15.9545C36.0781 18.4863 37.5004 21.92 37.5004 25.5005C37.5004 28.1705 36.7087 30.7806 35.2253 33.0007C33.7419 35.2207 31.6335 36.951 29.1667 37.9728C26.6999 38.9946 23.9855 39.262 21.3667 38.7411C18.748 38.2202 16.3425 36.9344 14.4545 35.0464C12.5665 33.1584 11.2807 30.7529 10.7598 28.1342C10.2389 25.5154 10.5063 22.801 11.5281 20.3342C12.5498 17.8674 14.2802 15.759 16.5002 14.2756ZM22.5004 26.1154L27.8854 31.5004L30.0004 29.3854L25.5004 24.8704V16.5004H22.5004V26.1154Z" fill="black"/>
</svg>
