<svg width="16" height="16" viewBox="0 0 16 16" fill="none" xmlns="http://www.w3.org/2000/svg">
<path fill-rule="evenodd" clip-rule="evenodd" d="M5.27775 3.70507C5.56554 3.89736 5.90388 4 6.25 4C6.71396 3.99944 7.15876 3.81489 7.48682 3.48682C7.81489 3.15876 7.99945 2.71396 8 2.25C8 1.90388 7.89737 1.56554 7.70507 1.27775C7.51278 0.989967 7.23947 0.765665 6.9197 0.633212C6.59993 0.500758 6.24806 0.466102 5.90859 0.533627C5.56913 0.601151 5.25731 0.767822 5.01256 1.01256C4.76782 1.25731 4.60115 1.56913 4.53363 1.90859C4.4661 2.24806 4.50076 2.59993 4.63321 2.9197C4.76567 3.23947 4.98997 3.51278 5.27775 3.70507ZM5.83332 1.6264C5.95666 1.54399 6.10167 1.5 6.25 1.5C6.44884 1.50023 6.63948 1.57932 6.78008 1.71992C6.92069 1.86052 6.99978 2.05116 7 2.25C7 2.39834 6.95601 2.54334 6.8736 2.66668C6.79119 2.79002 6.67406 2.88614 6.53701 2.94291C6.39997 2.99968 6.24917 3.01453 6.10368 2.98559C5.9582 2.95665 5.82456 2.88522 5.71967 2.78033C5.61478 2.67544 5.54335 2.5418 5.51441 2.39632C5.48547 2.25083 5.50033 2.10003 5.55709 1.96299C5.61386 1.82594 5.70999 1.70881 5.83332 1.6264ZM14.3692 8.0176C14.4684 7.99076 14.5734 7.99509 14.67 8.03C14.7666 8.06494 14.8502 8.1288 14.9092 8.2129C14.9683 8.29699 15 8.39724 15 8.5V14.5C15 14.6326 14.9473 14.7598 14.8536 14.8536C14.7598 14.9473 14.6326 15 14.5 15H9.5C9.40499 15 9.31195 14.9729 9.23178 14.9219C9.15162 14.8709 9.08764 14.7981 9.04734 14.7121C9.00704 14.626 8.99209 14.5303 9.00424 14.4361C9.01639 14.3418 9.05514 14.253 9.11595 14.18L11.495 11.3254L7.45445 10.5909L8 11.9V15H7V12.1L6.2826 10.3777L4.5 10.0537V15H3.5V9.87185L1 9.41725V6.2168L3.505 4.71385C3.73818 4.57396 4.00498 4.50004 4.2769 4.5H6.3069C6.61197 4.501 6.90956 4.59456 7.16031 4.76832C7.41107 4.94208 7.60318 5.18786 7.71125 5.47315L9.51225 9.94875L12.23 10.4429L14.1158 8.18C14.1816 8.10114 14.2701 8.04444 14.3692 8.0176ZM2 6.7832V8.58275L3.5 8.8556V5.8832L2 6.7832ZM4.5 5.5V9.03735L8.34955 9.7373L6.77955 5.83545C6.74448 5.73794 6.68038 5.65351 6.59588 5.59354C6.51137 5.53356 6.41052 5.50092 6.3069 5.5H4.5ZM10.5676 14H14V9.88085L10.5676 14Z" fill="black"/>
</svg>
