<svg width="13" height="13" viewBox="0 0 13 13" fill="none" xmlns="http://www.w3.org/2000/svg">
<g clip-path="url(#clip0_167_232)">
<path fill-rule="evenodd" clip-rule="evenodd" d="M0.8125 7.3125H1.625V1.625H7.3125V0.8125H1.625C1.40951 0.8125 1.20285 0.898102 1.05048 1.05048C0.898102 1.20285 0.8125 1.40951 0.8125 1.625V7.3125ZM11.375 11.375V4.0625H4.0625V11.375H11.375ZM4.0625 3.25H11.375C11.5905 3.25 11.7972 3.3356 11.9495 3.48798C12.1019 3.64035 12.1875 3.84701 12.1875 4.0625V11.375C12.1875 11.5905 12.1019 11.7972 11.9495 11.9495C11.7972 12.1019 11.5905 12.1875 11.375 12.1875H4.0625C3.84701 12.1875 3.64035 12.1019 3.48798 11.9495C3.3356 11.7972 3.25 11.5905 3.25 11.375V4.0625C3.25 3.84701 3.3356 3.64035 3.48798 3.48798C3.64035 3.3356 3.84701 3.25 4.0625 3.25Z" fill="black"/>
</g>
<defs>
<clipPath id="clip0_167_232">
<rect width="13" height="13" fill="white"/>
</clipPath>
</defs>
</svg>
