<svg width="16" height="16" viewBox="0 0 16 16" fill="none" xmlns="http://www.w3.org/2000/svg">
<path fill-rule="evenodd" clip-rule="evenodd" d="M2 2V1H14V2H11.5V5.5C11.5 6.42826 11.1313 7.3185 10.4749 7.97487C9.8185 8.63125 8.92826 9 8 9C7.07174 9 6.1815 8.63125 5.52513 7.97487C4.86875 7.3185 4.5 6.42826 4.5 5.5V2H2ZM10.5 2H5.5V3.5H10.5V2ZM6.23223 7.26777C6.70107 7.73661 7.33696 8 8 8C8.66304 8 9.29893 7.73661 9.76777 7.26777C10.2366 6.79893 10.5 6.16304 10.5 5.5V4.5H5.5V5.5C5.5 6.16304 5.76339 6.79893 6.23223 7.26777ZM2.5 3C2.36739 3 2.24021 3.05268 2.14645 3.14645C2.05268 3.24021 2 3.36739 2 3.5V8H3V3.5C3 3.36739 2.94732 3.24021 2.85355 3.14645C2.75979 3.05268 2.63261 3 2.5 3ZM13 15H12V13.5C11.9992 12.8372 11.7356 12.2018 11.2669 11.7331C10.7982 11.2644 10.1628 11.0008 9.5 11H6.5C5.8372 11.0008 5.20177 11.2644 4.7331 11.7331C4.26442 12.2018 4.00078 12.8372 4 13.5V15H3V13.5C3.00109 12.5721 3.37018 11.6825 4.02632 11.0263C4.68247 10.3702 5.57208 10.0011 6.5 10H9.5C10.4279 10.0011 11.3175 10.3702 11.9737 11.0263C12.6298 11.6825 12.9989 12.5721 13 13.5V15Z" fill="black"/>
</svg>
