<svg width="36" height="36" viewBox="0 0 36 36" fill="none" xmlns="http://www.w3.org/2000/svg">
<path fill-rule="evenodd" clip-rule="evenodd" d="M18 34C26.8366 34 34 26.8366 34 18C34 9.1634 26.8366 2 18 2C9.1634 2 2 9.1634 2 18C2 26.8366 9.1634 34 18 34ZM18 36C27.9411 36 36 27.9411 36 18C36 8.0589 27.9411 0 18 0C8.0589 0 0 8.0589 0 18C0 27.9411 8.0589 36 18 36Z" fill="#151B26"/>
<path fill-rule="evenodd" clip-rule="evenodd" d="M10.6945 22C12.2496 25.8319 15.1138 28 17.9996 28C20.8854 28 23.7496 25.8319 25.3047 22H10.6945ZM17.9996 30C13.9615 30 10.4614 26.9521 8.74146 22.5C8.72496 22.4572 8.70856 22.4143 8.69236 22.3713C8.24406 21.18 9.19936 20 10.4723 20H25.5269C26.7998 20 27.7551 21.18 27.3068 22.3713C27.2906 22.4143 27.2742 22.4572 27.2577 22.5C25.5378 26.9521 22.0377 30 17.9996 30Z" fill="#151B26"/>
<mask id="path-3-inside-1_246_511" fill="white">
<path d="M15.3028 16.4417C15.4328 16.084 15.3939 15.647 15.2862 15.2485C15.1739 14.8329 14.9671 14.3851 14.6758 13.9692C14.0952 13.14 13.1323 12.3777 11.8315 12.323C10.4847 12.2665 9.47825 13.1212 8.85825 14.0284C8.54375 14.4887 8.30996 14.9866 8.16336 15.4447C8.02066 15.8903 7.94496 16.3465 7.99486 16.7111C8.01796 16.8803 8.12586 17.026 8.28086 17.0974C8.43596 17.1689 8.61676 17.1563 8.76036 17.0641C9.15976 16.8077 9.57946 16.4568 9.96726 16.1326C10.1439 15.9849 10.314 15.8428 10.4724 15.7177C11.0347 15.2736 11.4722 15.0205 11.835 15.0028C12.1796 14.9859 12.5779 15.1835 13.0796 15.5588C13.259 15.6931 13.4331 15.8351 13.6134 15.9823C13.6777 16.0347 13.7427 16.0878 13.809 16.1413C14.0528 16.3382 14.3124 16.5405 14.5741 16.6987C14.7021 16.7762 14.8581 16.7922 14.9992 16.7425C15.1403 16.6927 15.2517 16.5823 15.3028 16.4417ZM20.6137 16.4417C20.4837 16.084 20.5226 15.647 20.6303 15.2485C20.7426 14.8329 20.9494 14.3851 21.2407 13.9692C21.8213 13.14 22.7843 12.3777 24.085 12.323C25.4318 12.2665 26.4382 13.1212 27.0582 14.0284C27.3728 14.4887 27.6065 14.9866 27.7532 15.4447C27.8959 15.8903 27.9715 16.3465 27.9216 16.7111C27.8985 16.8803 27.7906 17.026 27.6356 17.0974C27.4806 17.1689 27.2998 17.1563 27.1561 17.0641C26.7568 16.8077 26.337 16.4568 25.9492 16.1326C25.7726 15.9849 25.6025 15.8428 25.4441 15.7177C24.8818 15.2736 24.4443 15.0205 24.0815 15.0028C23.737 14.9859 23.3386 15.1835 22.837 15.5588C22.6576 15.6931 22.4835 15.8351 22.3031 15.9823C22.2389 16.0347 22.1738 16.0878 22.1075 16.1413C21.8637 16.3382 21.6041 16.5405 21.3425 16.6987C21.2144 16.7762 21.0585 16.7922 20.9174 16.7425C20.7763 16.6927 20.6649 16.5823 20.6137 16.4417Z"/>
</mask>
<path d="M15.3028 16.4417C15.4328 16.084 15.3939 15.647 15.2862 15.2485C15.1739 14.8329 14.9671 14.3851 14.6758 13.9692C14.0952 13.14 13.1323 12.3777 11.8315 12.323C10.4847 12.2665 9.47825 13.1212 8.85825 14.0284C8.54375 14.4887 8.30996 14.9866 8.16336 15.4447C8.02066 15.8903 7.94496 16.3465 7.99486 16.7111C8.01796 16.8803 8.12586 17.026 8.28086 17.0974C8.43596 17.1689 8.61676 17.1563 8.76036 17.0641C9.15976 16.8077 9.57946 16.4568 9.96726 16.1326C10.1439 15.9849 10.314 15.8428 10.4724 15.7177C11.0347 15.2736 11.4722 15.0205 11.835 15.0028C12.1796 14.9859 12.5779 15.1835 13.0796 15.5588C13.259 15.6931 13.4331 15.8351 13.6134 15.9823C13.6777 16.0347 13.7427 16.0878 13.809 16.1413C14.0528 16.3382 14.3124 16.5405 14.5741 16.6987C14.7021 16.7762 14.8581 16.7922 14.9992 16.7425C15.1403 16.6927 15.2517 16.5823 15.3028 16.4417ZM20.6137 16.4417C20.4837 16.084 20.5226 15.647 20.6303 15.2485C20.7426 14.8329 20.9494 14.3851 21.2407 13.9692C21.8213 13.14 22.7843 12.3777 24.085 12.323C25.4318 12.2665 26.4382 13.1212 27.0582 14.0284C27.3728 14.4887 27.6065 14.9866 27.7532 15.4447C27.8959 15.8903 27.9715 16.3465 27.9216 16.7111C27.8985 16.8803 27.7906 17.026 27.6356 17.0974C27.4806 17.1689 27.2998 17.1563 27.1561 17.0641C26.7568 16.8077 26.337 16.4568 25.9492 16.1326C25.7726 15.9849 25.6025 15.8428 25.4441 15.7177C24.8818 15.2736 24.4443 15.0205 24.0815 15.0028C23.737 14.9859 23.3386 15.1835 22.837 15.5588C22.6576 15.6931 22.4835 15.8351 22.3031 15.9823C22.2389 16.0347 22.1738 16.0878 22.1075 16.1413C21.8637 16.3382 21.6041 16.5405 21.3425 16.6987C21.2144 16.7762 21.0585 16.7922 20.9174 16.7425C20.7763 16.6927 20.6649 16.5823 20.6137 16.4417Z" fill="#151B26"/>
<path d="M15.3028 16.4417L16.2426 16.7832L16.2426 16.7832L15.3028 16.4417ZM15.2862 15.2485L14.3208 15.5093L14.3208 15.5094L15.2862 15.2485ZM14.6758 13.9692L13.8566 14.5427L13.8567 14.5429L14.6758 13.9692ZM11.8315 12.323L11.8735 11.3238L11.8734 11.3238L11.8315 12.323ZM8.85825 14.0284L8.03264 13.4641L8.03258 13.4642L8.85825 14.0284ZM8.16336 15.4447L9.11571 15.7497L9.11577 15.7495L8.16336 15.4447ZM7.99486 16.7111L8.98566 16.5758L8.98562 16.5755L7.99486 16.7111ZM8.28086 17.0974L8.69951 16.1892L8.69924 16.1891L8.28086 17.0974ZM8.76036 17.0641L8.22013 16.2225L8.22007 16.2226L8.76036 17.0641ZM9.96726 16.1326L10.6086 16.8998L10.6088 16.8996L9.96726 16.1326ZM10.4724 15.7177L11.0921 16.5024L11.0922 16.5024L10.4724 15.7177ZM11.835 15.0028L11.8837 16.0016L11.8839 16.0016L11.835 15.0028ZM13.0796 15.5588L13.6788 14.7582L13.6786 14.758L13.0796 15.5588ZM13.6134 15.9823L12.9809 16.7569L12.9816 16.7575L13.6134 15.9823ZM13.809 16.1413L14.4373 15.3633L14.4369 15.363L13.809 16.1413ZM14.5741 16.6987L15.092 15.8432L15.0914 15.8429L14.5741 16.6987ZM14.9992 16.7425L15.3314 17.6857L15.332 17.6855L14.9992 16.7425ZM20.6137 16.4417L19.6738 16.7832L19.674 16.7838L20.6137 16.4417ZM20.6303 15.2485L21.5956 15.5094L21.5956 15.5093L20.6303 15.2485ZM21.2407 13.9692L22.0597 14.5429L22.0598 14.5427L21.2407 13.9692ZM24.085 12.323L24.043 11.3238L24.0429 11.3238L24.085 12.323ZM27.0582 14.0284L26.2325 14.5926L26.2326 14.5926L27.0582 14.0284ZM27.7532 15.4447L26.8008 15.7496L26.8008 15.7497L27.7532 15.4447ZM27.9216 16.7111L26.9308 16.5755L26.9307 16.5758L27.9216 16.7111ZM27.6356 17.0974L27.2172 16.1891L27.2167 16.1893L27.6356 17.0974ZM27.1561 17.0641L26.6157 17.9055L26.616 17.9057L27.1561 17.0641ZM25.9492 16.1326L25.3076 16.8996L25.3078 16.8998L25.9492 16.1326ZM25.4441 15.7177L24.8243 16.5024L24.8243 16.5024L25.4441 15.7177ZM24.0815 15.0028L24.0325 16.0016L24.0327 16.0016L24.0815 15.0028ZM22.837 15.5588L22.2379 14.7581L22.2377 14.7582L22.837 15.5588ZM22.3031 15.9823L21.6708 15.2075L21.6707 15.2076L22.3031 15.9823ZM22.1075 16.1413L21.4795 15.363L21.4791 15.3633L22.1075 16.1413ZM21.3425 16.6987L20.825 15.843L20.8248 15.8431L21.3425 16.6987ZM20.9174 16.7425L20.5845 17.6855L20.5851 17.6857L20.9174 16.7425ZM16.2426 16.7832C16.4749 16.144 16.3817 15.4693 16.2515 14.9876L14.3208 15.5094C14.406 15.8246 14.3906 16.0239 14.3629 16.1001L16.2426 16.7832ZM16.2515 14.9876C16.1074 14.4542 15.8491 13.9013 15.4948 13.3955L13.8567 14.5429C14.085 14.8688 14.2403 15.2115 14.3208 15.5093L16.2515 14.9876ZM15.4949 13.3956C14.7929 12.393 13.5731 11.3953 11.8735 11.3238L11.7894 13.3221C12.6914 13.36 13.3974 13.887 13.8566 14.5427L15.4949 13.3956ZM11.8734 11.3238C10.0347 11.2467 8.74666 12.4194 8.03264 13.4641L9.68387 14.5926C10.2098 13.823 10.9346 13.2862 11.7895 13.3221L11.8734 11.3238ZM8.03258 13.4642C7.66136 14.0075 7.38584 14.5933 7.21094 15.1399L9.11577 15.7495C9.23407 15.3798 9.42615 14.9698 9.68393 14.5925L8.03258 13.4642ZM7.211 15.1397C7.04789 15.649 6.92516 16.2699 7.00409 16.8467L8.98562 16.5755C8.96476 16.423 8.99342 16.1315 9.11571 15.7497L7.211 15.1397ZM7.00405 16.8463C7.07335 17.354 7.39704 17.7912 7.86247 18.0056L8.69924 16.1891C8.85467 16.2607 8.96256 16.4066 8.98566 16.5758L7.00405 16.8463ZM7.86221 18.0055C8.32736 18.2199 8.86972 18.1822 9.30064 17.9055L8.22007 16.2226C8.36379 16.1303 8.54455 16.1178 8.69951 16.1892L7.86221 18.0055ZM9.30058 17.9056C9.76317 17.6086 10.2332 17.2137 10.6086 16.8998L9.32587 15.3654C8.92575 15.6998 8.55634 16.0067 8.22013 16.2225L9.30058 17.9056ZM10.6088 16.8996C10.7876 16.7501 10.9467 16.6173 11.0921 16.5024L9.85257 14.9329C9.6812 15.0682 9.50012 15.2196 9.3257 15.3655L10.6088 16.8996ZM11.0922 16.5024C11.3526 16.2967 11.5506 16.1625 11.7021 16.081C11.858 15.9972 11.908 16.0004 11.8837 16.0016L11.7862 14.004C11.3991 14.0228 11.049 14.1614 10.7549 14.3196C10.4563 14.4801 10.1544 14.6945 9.85256 14.9329L11.0922 16.5024ZM11.8839 16.0016C11.8452 16.0035 11.8674 15.9903 11.9814 16.0426C12.0965 16.0954 12.2578 16.1929 12.4806 16.3595L13.6786 14.758C13.1695 14.3772 12.5164 13.9681 11.786 14.004L11.8839 16.0016ZM12.4803 16.3593C12.6401 16.4789 12.7981 16.6076 12.9809 16.7569L14.2458 15.2076C14.068 15.0625 13.8778 14.9072 13.6788 14.7582L12.4803 16.3593ZM12.9816 16.7575C13.0446 16.8088 13.1123 16.864 13.181 16.9195L14.4369 15.363C14.3731 15.3115 14.3107 15.2605 14.2451 15.2071L12.9816 16.7575ZM13.1806 16.9192C13.4268 17.1181 13.732 17.3581 14.0567 17.5545L15.0914 15.8429C14.8927 15.7228 14.6787 15.5583 14.4373 15.3633L13.1806 16.9192ZM14.0561 17.5541C14.4405 17.7868 14.9085 17.8346 15.3314 17.6857L14.6669 15.7993C14.8076 15.7497 14.9636 15.7655 15.092 15.8432L14.0561 17.5541ZM15.332 17.6855C15.7553 17.5361 16.0893 17.205 16.2426 16.7832L14.3629 16.1001C14.414 15.9596 14.5252 15.8493 14.6663 15.7995L15.332 17.6855ZM21.5535 16.1001C21.5258 16.024 21.5104 15.8246 21.5956 15.5094L19.6649 14.9876C19.5347 15.4693 19.4415 16.144 19.6738 16.7832L21.5535 16.1001ZM21.5956 15.5093C21.6761 15.2115 21.8314 14.8688 22.0597 14.5429L20.4216 13.3955C20.0673 13.9013 19.809 14.4542 19.6649 14.9876L21.5956 15.5093ZM22.0598 14.5427C22.519 13.887 23.2251 13.36 24.127 13.3221L24.0429 11.3238C22.3434 11.3953 21.1236 12.3929 20.4215 13.3956L22.0598 14.5427ZM24.1269 13.3221C24.9818 13.2862 25.7066 13.823 26.2325 14.5926L27.8838 13.4641C27.1697 12.4194 25.8817 11.2467 24.043 11.3238L24.1269 13.3221ZM26.2326 14.5926C26.4903 14.9698 26.6823 15.3797 26.8008 15.7496L28.7055 15.1397C28.5306 14.5934 28.2552 14.0076 27.8838 13.4641L26.2326 14.5926ZM26.8008 15.7497C26.923 16.1314 26.9517 16.4229 26.9308 16.5755L28.9123 16.8467C28.9912 16.27 28.8687 15.6492 28.7055 15.1397L26.8008 15.7497ZM26.9307 16.5758C26.9539 16.4066 27.0617 16.2607 27.2172 16.1891L28.0539 18.0056C28.5194 17.7912 28.8431 17.354 28.9124 16.8463L26.9307 16.5758ZM27.2167 16.1893C27.3721 16.1176 27.5528 16.1305 27.6961 16.2224L26.616 17.9057C27.0467 18.1821 27.589 18.2201 28.0544 18.0054L27.2167 16.1893ZM27.6964 16.2226C27.3602 16.0067 26.9906 15.6998 26.5905 15.3654L25.3078 16.8998C25.6834 17.2138 26.1533 17.6086 26.6157 17.9055L27.6964 16.2226ZM26.5907 15.3655C26.4163 15.2196 26.2352 15.0682 26.0638 14.9329L24.8243 16.5024C24.9697 16.6173 25.1288 16.7501 25.3076 16.8996L26.5907 15.3655ZM26.0639 14.9329C25.762 14.6945 25.4601 14.4801 25.1616 14.3196C24.8674 14.1614 24.5173 14.0228 24.1302 14.004L24.0327 16.0016C24.0084 16.0004 24.0585 15.9972 24.2143 16.081C24.3658 16.1625 24.5638 16.2967 24.8243 16.5024L26.0639 14.9329ZM24.1305 14.004C23.4001 13.9681 22.7469 14.3772 22.2379 14.7581L23.436 16.3595C23.6587 16.1929 23.82 16.0954 23.935 16.0426C24.0491 15.9903 24.0712 16.0035 24.0325 16.0016L24.1305 14.004ZM22.2377 14.7582C22.0387 14.9071 21.8485 15.0625 21.6708 15.2075L22.9353 16.7571C23.1184 16.6076 23.2764 16.479 23.4362 16.3593L22.2377 14.7582ZM21.6707 15.2076C21.6065 15.26 21.5433 15.3115 21.4795 15.363L22.7354 16.9195C22.8042 16.864 22.8713 16.8093 22.9354 16.757L21.6707 15.2076ZM21.4791 15.3633C21.2377 15.5583 21.0236 15.7228 20.825 15.843L21.8599 17.5544C22.1845 17.3581 22.4896 17.1181 22.7358 16.9192L21.4791 15.3633ZM20.8248 15.8431C20.9528 15.7656 21.1088 15.7497 21.2496 15.7993L20.5851 17.6857C21.0082 17.8347 21.4759 17.7867 21.8601 17.5543L20.8248 15.8431ZM21.2502 15.7995C21.3913 15.8493 21.5023 15.9595 21.5533 16.0995L19.674 16.7838C19.8274 17.205 20.1612 17.536 20.5845 17.6855L21.2502 15.7995Z" fill="#151B26" mask="url(#path-3-inside-1_246_511)"/>
</svg>
