<svg width="36" height="36" viewBox="0 0 36 36" fill="none" xmlns="http://www.w3.org/2000/svg">
<circle cx="18" cy="18" r="18" fill="#FCBD01"/>
<path fill-rule="evenodd" clip-rule="evenodd" d="M18 34C26.8366 34 34 26.8366 34 18C34 9.1634 26.8366 2 18 2C9.1634 2 2 9.1634 2 18C2 26.8366 9.1634 34 18 34ZM18 36C27.9411 36 36 27.9411 36 18C36 8.0589 27.9411 0 18 0C8.0589 0 0 8.0589 0 18C0 27.9411 8.0589 36 18 36Z" fill="#151B26"/>
<path fill-rule="evenodd" clip-rule="evenodd" d="M24.5 14C24.2239 14 24 14.2239 24 14.5C24 14.7761 24.2239 15 24.5 15C24.7761 15 25 14.7761 25 14.5C25 14.2239 24.7761 14 24.5 14ZM22 14.5C22 13.1193 23.1193 12 24.5 12C25.8807 12 27 13.1193 27 14.5C27 15.8807 25.8807 17 24.5 17C23.1193 17 22 15.8807 22 14.5ZM11.5 14C11.2239 14 11 14.2239 11 14.5C11 14.7761 11.2239 15 11.5 15C11.7761 15 12 14.7761 12 14.5C12 14.2239 11.7761 14 11.5 14ZM9 14.5C9 13.1193 10.1193 12 11.5 12C12.8807 12 14 13.1193 14 14.5C14 15.8807 12.8807 17 11.5 17C10.1193 17 9 15.8807 9 14.5ZM10 25C10 24.4477 10.4477 24 11 24H25C25.5523 24 26 24.4477 26 25C26 25.5523 25.5523 26 25 26H11C10.4477 26 10 25.5523 10 25Z" fill="#151B26"/>
</svg>
