<svg width="36" height="36" viewBox="0 0 36 36" fill="none" xmlns="http://www.w3.org/2000/svg">
<path d="M8.80767 16.2326C8.12457 15.7951 7.62407 15.0876 7.74317 14.3499C7.76707 14.2022 7.85577 14.0729 7.98507 13.9976C8.11437 13.9223 8.27057 13.9088 8.41087 13.9609C10.2291 14.6359 12.2571 14.2172 14.053 12.5124C14.1768 12.3949 14.3521 12.3486 14.5178 12.3898C14.6835 12.4309 14.8167 12.5538 14.8711 12.7156C15.1028 13.4044 14.8952 14.3339 14.3909 15.0973C13.8689 15.8875 12.9834 16.5788 11.7374 16.7627C10.539 16.9397 9.52137 16.6897 8.80767 16.2326ZM26.7546 16.2326C27.4377 15.7951 27.9381 15.0876 27.8191 14.3499C27.7952 14.2022 27.7065 14.0729 27.5772 13.9976C27.4479 13.9223 27.2917 13.9088 27.1514 13.9609C25.3331 14.6359 23.3052 14.2172 21.5093 12.5124C21.3855 12.3949 21.2102 12.3486 21.0445 12.3898C20.8788 12.4309 20.7456 12.5538 20.6911 12.7156C20.4594 13.4044 20.667 14.3339 21.1714 15.0973C21.6934 15.8875 22.5789 16.5788 23.8248 16.7627C25.0233 16.9397 26.0408 16.6897 26.7546 16.2326Z" fill="#151B26"/>
<path fill-rule="evenodd" clip-rule="evenodd" d="M27.2583 25C25.5384 21.4383 22.0383 19 18.0002 19C13.9621 19 10.462 21.4383 8.74208 25C8.27318 25.9709 9.05838 27 10.1365 27H25.8639C26.942 27 27.7272 25.9709 27.2583 25ZM18.0002 21C20.8699 21 23.4527 22.5553 24.978 25H11.0224C12.5477 22.5553 15.1305 21 18.0002 21Z" fill="#151B26"/>
<path fill-rule="evenodd" clip-rule="evenodd" d="M36 18C36 27.9411 27.9411 36 18 36C8.0589 36 0 27.9411 0 18C0 8.0589 8.0589 0 18 0C27.9411 0 36 8.0589 36 18ZM34 18C34 26.8366 26.8366 34 18 34C9.1634 34 2 26.8366 2 18C2 9.1634 9.1634 2 18 2C26.8366 2 34 9.1634 34 18Z" fill="#151B26"/>
</svg>
