<svg width="36" height="36" viewBox="0 0 36 36" fill="none" xmlns="http://www.w3.org/2000/svg">
<circle cx="18" cy="18" r="18" fill="#FCBD01"/>
<path d="M22.7071 11.2929C22.3166 10.9024 21.6834 10.9024 21.2929 11.2929C20.9024 11.6834 20.9024 12.3166 21.2929 12.7071L23.0858 14.5L21.2929 16.2929C20.9024 16.6834 20.9024 17.3166 21.2929 17.7071C21.6834 18.0976 22.3166 18.0976 22.7071 17.7071L24.5 15.9142L26.2929 17.7071C26.6834 18.0976 27.3166 18.0976 27.7071 17.7071C28.0976 17.3166 28.0976 16.6834 27.7071 16.2929L25.9142 14.5L27.7071 12.7071C28.0976 12.3166 28.0976 11.6834 27.7071 11.2929C27.3166 10.9024 26.6834 10.9024 26.2929 11.2929L24.5 13.0858L22.7071 11.2929ZM9.70707 11.2929C9.31657 10.9024 8.68338 10.9024 8.29287 11.2929C7.90237 11.6834 7.90237 12.3166 8.29287 12.7071L10.0858 14.5L8.29287 16.2929C7.90237 16.6834 7.90237 17.3166 8.29287 17.7071C8.68338 18.0976 9.31657 18.0976 9.70707 17.7071L11.5 15.9142L13.2929 17.7071C13.6834 18.0976 14.3166 18.0976 14.7071 17.7071C15.0976 17.3166 15.0976 16.6834 14.7071 16.2929L12.9142 14.5L14.7071 12.7071C15.0976 12.3166 15.0976 11.6834 14.7071 11.2929C14.3166 10.9024 13.6834 10.9024 13.2929 11.2929L11.5 13.0858L9.70707 11.2929Z" fill="#151B26"/>
<path fill-rule="evenodd" clip-rule="evenodd" d="M25 26C25 29.3137 21.866 30 18 30C14.134 30 11 29.3137 11 26C11 22.6863 14.134 20 18 20C21.866 20 25 22.6863 25 26ZM23 26C23 26.5015 22.8862 26.7633 22.7868 26.9121C22.6821 27.0688 22.4917 27.251 22.1103 27.4273C21.2668 27.8174 19.8965 28 18 28C16.1035 28 14.7332 27.8174 13.8897 27.4273C13.5083 27.251 13.3179 27.0688 13.2132 26.9121C13.1138 26.7633 13 26.5015 13 26C13 24.069 14.9382 22 18 22C21.0618 22 23 24.069 23 26Z" fill="#151B26"/>
<path fill-rule="evenodd" clip-rule="evenodd" d="M36 18C36 27.9411 27.9411 36 18 36C8.0589 36 0 27.9411 0 18C0 8.0589 8.0589 0 18 0C27.9411 0 36 8.0589 36 18ZM34 18C34 26.8366 26.8366 34 18 34C9.1634 34 2 26.8366 2 18C2 9.1634 9.1634 2 18 2C26.8366 2 34 9.1634 34 18Z" fill="#151B26"/>
<path d="M17.5 28.5L13 27.5L11 25L14.5 22H19H21L23 23.5V25V27.5L17.5 28.5Z" fill="#151B26"/>
</svg>
