<svg width="36" height="36" viewBox="0 0 36 36" fill="none" xmlns="http://www.w3.org/2000/svg">
<circle cx="18" cy="18" r="18" fill="#FCBD01"/>
<path d="M15.2862 15.9144C15.3939 16.3129 15.4328 16.7499 15.3028 17.1076C15.2517 17.2483 15.1403 17.3586 14.9992 17.4084C14.8581 17.4581 14.7021 17.4421 14.5741 17.3647C14.3124 17.2064 14.0528 17.0041 13.809 16.8073C13.7431 16.754 13.6786 16.7013 13.6148 16.6493L13.614 16.6486C13.4336 16.5015 13.259 16.359 13.0796 16.2248C12.5779 15.8494 12.1796 15.6518 11.835 15.6687C11.4722 15.6865 11.0347 15.9395 10.4724 16.3836C10.314 16.5087 10.1439 16.6508 9.96726 16.7985C9.57946 17.1227 9.15976 17.4736 8.76036 17.73C8.61676 17.8223 8.43596 17.8348 8.28086 17.7633C8.12586 17.6919 8.01796 17.5462 7.99486 17.3771C7.94496 17.0125 8.02066 16.5563 8.16336 16.1106C8.30996 15.6526 8.54375 15.1546 8.85825 14.6943C9.47825 13.7872 10.4847 12.9324 11.8315 12.989C13.1323 13.0436 14.0952 13.8059 14.6758 14.6351C14.9671 15.051 15.1739 15.4988 15.2862 15.9144ZM20.6303 15.9144C20.5226 16.3129 20.4837 16.7499 20.6137 17.1076C20.6649 17.2483 20.7763 17.3586 20.9174 17.4084C21.0585 17.4581 21.2144 17.4421 21.3425 17.3647C21.6041 17.2064 21.8637 17.0041 22.1075 16.8073C22.1734 16.754 22.238 16.7014 22.3018 16.6493L22.3031 16.6482C22.4835 16.5011 22.6576 16.359 22.837 16.2248C23.3386 15.8494 23.737 15.6518 24.0815 15.6687C24.4443 15.6865 24.8818 15.9395 25.4441 16.3836C25.6025 16.5087 25.7726 16.6508 25.9492 16.7985C26.337 17.1227 26.7568 17.4736 27.1561 17.73C27.2998 17.8223 27.4806 17.8348 27.6356 17.7633C27.7906 17.6919 27.8985 17.5462 27.9216 17.3771C27.9715 17.0125 27.8959 16.5563 27.7532 16.1106C27.6065 15.6526 27.3728 15.1546 27.0582 14.6943C26.4382 13.7872 25.4318 12.9324 24.085 12.989C22.7843 13.0436 21.8213 13.8059 21.2407 14.6351C20.9494 15.051 20.7426 15.4988 20.6303 15.9144Z" fill="#151B26"/>
<path fill-rule="evenodd" clip-rule="evenodd" d="M24.3684 25.4939C24.572 25.2446 24.7335 24.9262 24.8397 24.6161C24.9454 24.3076 25.0289 23.9129 24.9905 23.5093C24.9508 23.0926 24.7608 22.5533 24.2113 22.2321C23.7031 21.935 23.1149 21.9635 22.5945 22.094L22.5811 22.0976C20.1852 22.7336 19.0121 22.9968 17.8768 22.9917C16.7388 22.9866 15.5915 22.7126 13.2383 22.0991C12.7837 21.9713 12.2429 21.9402 11.7618 22.2294C11.2647 22.5281 11.0803 23.0171 11.0244 23.3834C10.9688 23.7482 11.0156 24.111 11.0909 24.4046C11.1668 24.7003 11.292 25.0057 11.4623 25.2591C11.5785 25.4322 11.7509 25.6111 11.8133 25.6758C11.8232 25.6861 11.8303 25.6935 11.834 25.6975C13.1575 27.1459 15.4962 27.9999 18.0132 27.9999C20.6364 27.9999 23.0811 27.0702 24.3684 25.4939ZM17.8678 24.9917C19.2736 24.998 20.6653 24.6732 22.9027 24.0814C22.8928 24.103 22.8828 24.1235 22.8727 24.1425C22.8452 24.1945 22.8248 24.2222 22.8193 24.2288C22.0331 25.1915 20.2582 25.9999 18.0132 25.9999C15.8715 25.9999 14.1453 25.2621 13.3105 24.3484C13.2797 24.3147 13.2493 24.2828 13.226 24.2582L13.2243 24.2564C13.2057 24.2369 13.1912 24.2215 13.1782 24.2076L13.1636 24.1918C13.1321 24.1574 13.1224 24.1438 13.1224 24.1438C13.1206 24.141 13.1184 24.1377 13.1162 24.1339C15.1823 24.6702 16.5107 24.9856 17.8678 24.9917Z" fill="#151B26"/>
<path fill-rule="evenodd" clip-rule="evenodd" d="M36 18C36 27.9411 27.9411 36 18 36C8.0589 36 0 27.9411 0 18C0 8.0589 8.0589 0 18 0C27.9411 0 36 8.0589 36 18ZM34 18C34 26.8366 26.8366 34 18 34C9.1634 34 2 26.8366 2 18C2 9.1634 9.1634 2 18 2C26.8366 2 34 9.1634 34 18Z" fill="#151B26"/>
<path d="M15.619 26C15.2698 25.8333 13 25.5 12.5 24H20.8571H24L22.9524 26H19.8095H18.2381H15.619Z" fill="#151B26"/>
</svg>
