<svg width="16" height="16" viewBox="0 0 16 16" fill="none" xmlns="http://www.w3.org/2000/svg">
<path fill-rule="evenodd" clip-rule="evenodd" d="M10 1V2C10.663 2 11.2989 2.26339 11.7678 2.73223C12.2366 3.20107 12.5 3.83696 12.5 4.5C12.5 5.16304 12.2366 5.79893 11.7678 6.26777C11.2989 6.73661 10.663 7 10 7V8C10.9283 8 11.8185 7.63125 12.4749 6.97487C13.1313 6.3185 13.5 5.42826 13.5 4.5C13.5 3.57174 13.1313 2.6815 12.4749 2.02513C11.8185 1.36875 10.9283 1 10 1ZM10 15H11V12.5C10.9989 11.5721 10.6298 10.6825 9.97368 10.0263C9.31753 9.37018 8.42792 9.00109 7.5 9H4.5C3.57208 9.00109 2.68247 9.37018 2.02632 10.0263C1.37018 10.6825 1.00109 11.5721 1 12.5V15H2V12.5C2.00078 11.8372 2.26442 11.2018 2.7331 10.7331C3.20177 10.2644 3.8372 10.0008 4.5 10H7.5C8.1628 10.0008 8.79823 10.2644 9.2669 10.7331C9.73558 11.2018 9.99922 11.8372 10 12.5V15ZM14 15H15V12.5C14.999 11.5721 14.6299 10.6824 13.9737 10.0263C13.3176 9.37011 12.4279 9.00103 11.5 9V10C12.1628 10.0008 12.7983 10.2644 13.2669 10.7331C13.7356 11.2017 13.9992 11.8372 14 12.5V15ZM7.38893 2.42133C6.9778 2.14662 6.49445 2 6 2C5.33696 2 4.70108 2.26339 4.23223 2.73223C3.76339 3.20107 3.5 3.83696 3.5 4.5C3.5 4.99445 3.64662 5.4778 3.92133 5.88893C4.19603 6.30005 4.58648 6.62048 5.04329 6.8097C5.50011 6.99892 6.00277 7.04843 6.48773 6.95196C6.97268 6.8555 7.41814 6.6174 7.76777 6.26777C8.1174 5.91814 8.3555 5.47268 8.45196 4.98773C8.54843 4.50277 8.49892 4.00011 8.3097 3.54329C8.12048 3.08648 7.80005 2.69603 7.38893 2.42133ZM4.05551 1.58986C4.63108 1.20527 5.30777 1 6 1C6.92826 1 7.8185 1.36875 8.47487 2.02513C9.13125 2.6815 9.5 3.57174 9.5 4.5C9.5 5.19223 9.29473 5.86892 8.91015 6.4445C8.52556 7.02007 7.97894 7.46867 7.33939 7.73358C6.69985 7.99848 5.99612 8.0678 5.31719 7.93275C4.63825 7.7977 4.01461 7.46436 3.52513 6.97487C3.03564 6.48539 2.7023 5.86175 2.56725 5.18282C2.4322 4.50388 2.50152 3.80015 2.76642 3.16061C3.03133 2.52107 3.47993 1.97444 4.05551 1.58986Z" fill="black"/>
</svg>
