<svg width="16" height="16" viewBox="0 0 16 16" fill="none" xmlns="http://www.w3.org/2000/svg">
<path fill-rule="evenodd" clip-rule="evenodd" d="M2 3H13V2H2C1.73478 2 1.48043 2.10536 1.29289 2.29289C1.10536 2.48043 1 2.73478 1 3V4.585C0.999896 4.71696 1.02591 4.84763 1.07654 4.96948C1.12717 5.09134 1.20142 5.20197 1.295 5.295L5 9V13C5 13.2652 5.10536 13.5196 5.29289 13.7071C5.48043 13.8946 5.73478 14 6 14H8C8.26522 14 8.51957 13.8946 8.70711 13.7071C8.89464 13.5196 9 13.2652 9 13V12H8V13H6V8.585L5.705 8.295L2 4.585V3ZM13.355 4.14503L14.855 5.64503C14.9019 5.69151 14.9391 5.74681 14.9644 5.80774C14.9898 5.86867 15.0029 5.93402 15.0029 6.00003C15.0029 6.06604 14.9898 6.13139 14.9644 6.19232C14.9391 6.25325 14.9019 6.30855 14.855 6.35503L10.205 11H8V8.79503L12.645 4.14503C12.6915 4.09817 12.7468 4.06097 12.8077 4.03558C12.8686 4.0102 12.934 3.99713 13 3.99713C13.066 3.99713 13.1314 4.0102 13.1923 4.03558C13.2532 4.06097 13.3085 4.09817 13.355 4.14503ZM9 10H9.795L12.295 7.50003L11.5 6.70503L9 9.20503V10ZM12.205 6.00003L13 6.79503L13.795 6.00003L13 5.20503L12.205 6.00003Z" fill="black"/>
</svg>
