<svg width="16" height="16" viewBox="0 0 16 16" fill="none" xmlns="http://www.w3.org/2000/svg">
<path fill-rule="evenodd" clip-rule="evenodd" d="M1.29289 2.29289C1.48043 2.10536 1.73478 2 2 2H12C12.2652 2 12.5196 2.10536 12.7071 2.29289C12.8946 2.48043 13 2.73478 13 3V4H12V3H2V4.58545L5.70705 8.2927L6 8.58545V13H8V12H9V13C9 13.2652 8.89464 13.5196 8.70711 13.7071C8.51957 13.8946 8.26522 14 8 14H6C5.73478 14 5.48043 13.8946 5.29289 13.7071C5.10536 13.5196 5 13.2652 5 13V9L1.29295 5.2927C1.20006 5.19983 1.12638 5.08957 1.07612 4.96822C1.02585 4.84687 0.999989 4.7168 1 4.58545V3C1 2.73478 1.10536 2.48043 1.29289 2.29289ZM14.293 5L15 5.707L12.707 8L15 10.2935L14.2935 11L12 8.707L9.7075 11L9 10.2925L11.293 8L9 5.707L9.707 5L12 7.293L14.293 5Z" fill="black"/>
</svg>
