<svg viewBox="0 0 24 24" fill="none" xmlns="http://www.w3.org/2000/svg" class="hidden h-6 w-6 text-green-500 transition hover:brightness-110 group-disabled:text-slate-800 sm:block lg:h-10 lg:w-10"><path d="M11.9998 0.800049C5.7998 0.800049 0.799805 5.80005 0.799805 12C0.799805 18.2 5.7998 23.2001 11.9998 23.2001C18.1998 23.2001 23.1998 18.2 23.1998 12C23.1998 5.80005 18.1998 0.800049 11.9998 0.800049ZM11.9998 21.8C6.5998 21.8 2.1998 17.4 2.1998 12C2.1998 6.60005 6.5998 2.20005 11.9998 2.20005C17.3998 2.20005 21.7998 6.60005 21.7998 12C21.7998 17.4 17.3998 21.8 11.9998 21.8ZM13.4998 6.70005L18.7998 12L13.4998 17.3L12.3998 16.2L15.8998 12.7H6.2998V11.2H15.8998L12.3998 7.70005L13.4998 6.70005Z" fill="currentColor"></path></svg>