<svg width="16" height="16" viewBox="0 0 16 16" fill="none" xmlns="http://www.w3.org/2000/svg">
<path fill-rule="evenodd" clip-rule="evenodd" d="M13.4996 7.99971V8.37971L14.4446 9.24471C14.6191 9.39765 14.7349 9.60648 14.7723 9.83543C14.8097 10.0644 14.7663 10.2992 14.6496 10.4997L13.5096 12.4997C13.422 12.6516 13.2959 12.7777 13.1441 12.8655C12.9922 12.9532 12.82 12.9995 12.6446 12.9997C12.536 13.0005 12.4279 12.9837 12.3246 12.9497L11.1146 12.5397C10.9032 12.6791 10.6827 12.8044 10.4546 12.9147L10.1996 14.1747C10.1539 14.4049 10.0287 14.6117 9.84587 14.7589C9.66305 14.906 9.43429 14.9842 9.19964 14.9797H6.83964C6.60499 14.9842 6.37623 14.906 6.19341 14.7589C6.01059 14.6117 5.88536 14.4049 5.83964 14.1747L5.58464 12.9147C5.35823 12.8044 5.13941 12.6791 4.92964 12.5397L3.71464 12.9497C3.6114 12.9837 3.50331 13.0005 3.39464 12.9997C3.21928 12.9995 3.04704 12.9532 2.89522 12.8655C2.7434 12.7777 2.61732 12.6516 2.52964 12.4997L1.34964 10.4997C1.22759 10.2973 1.18121 10.0581 1.21874 9.82469C1.25627 9.59128 1.37527 9.37871 1.55464 9.22472L2.49964 8.38472V7.99971V7.61971L1.55464 6.75471C1.3802 6.60178 1.26436 6.39295 1.22696 6.164C1.18956 5.93504 1.23293 5.70021 1.34964 5.49971L2.52964 3.49972C2.61732 3.34785 2.7434 3.22171 2.89522 3.13395C3.04704 3.04619 3.21928 2.99989 3.39464 2.99971C3.50222 2.9924 3.61029 3.00253 3.71464 3.02972L4.90464 3.45972C5.11612 3.32029 5.3366 3.19502 5.56464 3.08472L5.81964 1.82472C5.86536 1.59452 5.99059 1.38774 6.17341 1.24057C6.35623 1.0934 6.58499 1.01522 6.81964 1.01971H9.15964C9.39429 1.01522 9.62305 1.0934 9.80587 1.24057C9.98868 1.38774 10.1139 1.59452 10.1596 1.82472L10.4146 3.08472C10.6411 3.19504 10.8599 3.32032 11.0696 3.45972L12.2846 3.04972C12.3879 3.01577 12.496 2.99888 12.6046 2.99971C12.78 2.99989 12.9522 3.04619 13.1041 3.13395C13.2559 3.22171 13.382 3.34785 13.4696 3.49972L14.6496 5.49971C14.7734 5.70051 14.8223 5.9386 14.7875 6.17192C14.7527 6.40523 14.6366 6.61874 14.4596 6.77471L13.4996 7.61471V7.99971ZM10.8896 11.4197L12.6046 11.9997L13.7846 9.99971L12.4246 8.76472C12.5171 8.24714 12.5171 7.71729 12.4246 7.19971L13.7846 5.99971L12.6046 3.99972L10.8846 4.55972C10.4818 4.22429 10.0254 3.95893 9.53464 3.77472L9.17964 1.99971H6.81964L6.46464 3.79472C5.96994 3.97384 5.51111 4.23966 5.10964 4.57971L3.39464 3.99972L2.21464 5.99971L3.57464 7.23471C3.48219 7.75229 3.48219 8.28214 3.57464 8.79972L2.21464 9.99971L3.39464 11.9997L5.11464 11.4397C5.5175 11.7751 5.97385 12.0405 6.46464 12.2247L6.81964 13.9997H9.17964L9.53464 12.2047C10.0293 12.0256 10.4882 11.7598 10.8896 11.4197ZM6.33292 10.4942C6.82627 10.8238 7.40629 10.9998 7.99963 10.9998C8.39472 11.0038 8.78663 10.9289 9.15241 10.7796C9.5182 10.6302 9.85052 10.4094 10.1299 10.13C10.4093 9.85064 10.6301 9.51832 10.7794 9.15254C10.9288 8.78675 11.0036 8.39484 10.9996 7.99976C10.9996 7.40641 10.8237 6.82639 10.494 6.33305C10.1644 5.8397 9.69586 5.45518 9.14768 5.22812C8.59951 5.00106 7.99631 4.94165 7.41436 5.0574C6.83242 5.17316 6.29787 5.45888 5.87831 5.87844C5.45876 6.29799 5.17303 6.83254 5.05728 7.41449C4.94152 7.99643 5.00093 8.59963 5.228 9.14781C5.45506 9.69598 5.83958 10.1645 6.33292 10.4942ZM7.22704 6.13945C7.47248 6.04112 7.73531 5.9936 7.99963 5.99976C8.26396 5.9936 8.52679 6.04112 8.77223 6.13945C9.01766 6.23778 9.2406 6.38487 9.42756 6.57183C9.61452 6.75879 9.76161 6.98173 9.85994 7.22716C9.95827 7.4726 10.0058 7.73543 9.99963 7.99976C10.0058 8.26408 9.95827 8.52691 9.85994 8.77235C9.76161 9.01778 9.61452 9.24072 9.42756 9.42768C9.2406 9.61464 9.01766 9.76173 8.77223 9.86006C8.52679 9.95839 8.26396 10.0059 7.99963 9.99976C7.73531 10.0059 7.47248 9.95839 7.22704 9.86006C6.98161 9.76173 6.75867 9.61464 6.57171 9.42768C6.38475 9.24072 6.23766 9.01778 6.13933 8.77235C6.041 8.52691 5.99348 8.26408 5.99963 7.99976C5.99348 7.73543 6.041 7.4726 6.13933 7.22716C6.23766 6.98173 6.38475 6.75879 6.57171 6.57183C6.75867 6.38487 6.98161 6.23778 7.22704 6.13945Z" fill="#008CE3"/>
</svg>
