<svg width="16" height="16" viewBox="0 0 16 16" fill="none" xmlns="http://www.w3.org/2000/svg">
<path fill-rule="evenodd" clip-rule="evenodd" d="M13.4722 3.47805L14.6525 5.52195C14.768 5.72221 14.8106 5.95631 14.773 6.18443C14.7354 6.41254 14.62 6.62059 14.4463 6.7732L13.0463 8L12.387 7.24805L13.7859 6.02195L12.6059 3.97805L10.8825 4.56105C10.482 4.22355 10.0261 3.95776 9.53513 3.7754L9.18013 2H6.82013L6.46483 3.7754C5.97037 3.95508 5.51111 4.2198 5.10778 4.5576L3.39443 3.97805L2.21388 6.02195L3.57303 7.21655C3.48214 7.73401 3.48332 8.26345 3.57653 8.7805L2.21433 9.97805L3.39433 12.0219L5.11773 11.4389C5.51827 11.7765 5.9741 12.0423 6.46513 12.2246L6.82013 14H8.00013V15H6.82013C6.58892 15 6.36483 14.9199 6.18602 14.7734C6.00721 14.6268 5.88471 14.4228 5.83938 14.196L5.58753 12.9368C5.36039 12.8256 5.1412 12.6989 4.93153 12.5576L3.71448 12.9692C3.49552 13.0435 3.25756 13.0395 3.04121 12.958C2.82485 12.8764 2.6435 12.7223 2.52808 12.5219L1.34778 10.4781C1.23223 10.2778 1.1896 10.0437 1.22715 9.81562C1.2647 9.58751 1.3801 9.37944 1.55373 9.2268L2.51403 8.3828C2.50513 8.25635 2.50013 8.1289 2.50013 8C2.50013 7.89242 2.50758 7.78675 2.51504 7.68097C2.51644 7.66119 2.51783 7.6414 2.51918 7.6216L1.55373 6.7732C1.3801 6.62056 1.2647 6.41249 1.22715 6.18438C1.1896 5.95626 1.23223 5.72219 1.34778 5.52195L2.52808 3.47805C2.6435 3.2777 2.82485 3.12359 3.04121 3.04202C3.25756 2.96045 3.49552 2.95647 3.71448 3.03075L4.92418 3.44C5.13635 3.29916 5.35807 3.17327 5.58773 3.06325L5.83958 1.80395C5.8849 1.57726 6.00737 1.37327 6.18614 1.22669C6.36491 1.08012 6.58895 1.00001 6.82013 1H9.18013C9.41134 0.999964 9.63543 1.08005 9.81424 1.22663C9.99306 1.37321 10.1156 1.57722 10.1609 1.80395L10.4127 3.06325C10.6398 3.17446 10.859 3.30114 11.0687 3.4424L12.2858 3.03075C12.5047 2.95647 12.7427 2.96045 12.9591 3.04202C13.1754 3.12359 13.3568 3.2777 13.4722 3.47805ZM8.00013 10C7.73585 10.006 7.47309 9.95836 7.22773 9.85997C6.98237 9.76158 6.7595 9.61449 6.57257 9.42756C6.38565 9.24064 6.23855 9.01776 6.14016 8.7724C6.04177 8.52704 5.99414 8.26429 6.00013 8C5.99414 7.73572 6.04177 7.47296 6.14016 7.2276C6.23855 6.98224 6.38565 6.75937 6.57257 6.57244C6.7595 6.38552 6.98237 6.23842 7.22773 6.14003C7.47309 6.04164 7.73585 5.99401 8.00013 6C8.26441 5.99401 8.52717 6.04164 8.77253 6.14003C9.01789 6.23842 9.24077 6.38552 9.42769 6.57244C9.61462 6.75937 9.76171 6.98224 9.8601 7.2276C9.95849 7.47296 10.0061 7.73572 10.0001 8H11.0001C11.0001 7.40666 10.8242 6.82664 10.4945 6.33329C10.1649 5.83994 9.69636 5.45543 9.14818 5.22836C8.6 5.0013 7.9968 4.94189 7.41486 5.05765C6.83292 5.1734 6.29837 5.45912 5.87881 5.87868C5.45925 6.29824 5.17353 6.83279 5.05778 7.41473C4.94202 7.99667 5.00143 8.59987 5.22849 9.14805C5.45556 9.69623 5.84007 10.1648 6.33342 10.4944C6.82677 10.8241 7.40679 11 8.00013 11V10ZM15.0001 10H10.0001V11H15.0001V10ZM15.0001 12H10.0001V13H15.0001V12ZM10.0001 14H15.0001V15H10.0001V14Z" fill="black"/>
</svg>
