<svg width="16" height="16" viewBox="0 0 16 16" fill="none" xmlns="http://www.w3.org/2000/svg">
<path fill-rule="evenodd" clip-rule="evenodd" d="M7.16665 3.24721C7.41332 3.41203 7.70333 3.5 8 3.5C8.39769 3.49956 8.77897 3.34139 9.06018 3.06018C9.34139 2.77897 9.49956 2.39769 9.5 2C9.5 1.70333 9.41203 1.41332 9.24721 1.16665C9.08238 0.919972 8.84811 0.727713 8.57403 0.614181C8.29994 0.50065 7.99834 0.470945 7.70737 0.528823C7.41639 0.586701 7.14912 0.729562 6.93934 0.939341C6.72956 1.14912 6.5867 1.41639 6.52882 1.70737C6.47094 1.99834 6.50065 2.29994 6.61418 2.57403C6.72771 2.84811 6.91997 3.08238 7.16665 3.24721ZM7.72222 1.58427C7.80444 1.52933 7.90111 1.5 8 1.5C8.13257 1.50013 8.25967 1.55285 8.35341 1.64659C8.44715 1.74033 8.49987 1.86743 8.5 2C8.5 2.09889 8.47068 2.19556 8.41574 2.27779C8.3608 2.36001 8.28271 2.4241 8.19134 2.46194C8.09998 2.49978 7.99945 2.50969 7.90246 2.49039C7.80547 2.4711 7.71637 2.42348 7.64645 2.35355C7.57652 2.28363 7.5289 2.19454 7.50961 2.09755C7.49032 2.00056 7.50022 1.90002 7.53806 1.80866C7.5759 1.7173 7.63999 1.63921 7.72222 1.58427ZM4.66665 14.7472C4.91332 14.912 5.20333 15 5.5 15C5.89769 14.9996 6.27897 14.8414 6.56018 14.5602C6.84139 14.279 6.99956 13.8977 7 13.5C7 13.2033 6.91203 12.9133 6.7472 12.6666C6.58238 12.42 6.34811 12.2277 6.07403 12.1142C5.79994 12.0007 5.49834 11.9709 5.20737 12.0288C4.91639 12.0867 4.64912 12.2296 4.43934 12.4393C4.22956 12.6491 4.0867 12.9164 4.02882 13.2074C3.97094 13.4983 4.00065 13.7999 4.11418 14.074C4.22771 14.3481 4.41997 14.5824 4.66665 14.7472ZM5.22222 13.0843C5.30444 13.0293 5.40111 13 5.5 13C5.63257 13.0001 5.75967 13.0529 5.85341 13.1466C5.94715 13.2403 5.99987 13.3674 6 13.5C6 13.5989 5.97068 13.6956 5.91574 13.7778C5.8608 13.86 5.78271 13.9241 5.69134 13.9619C5.59998 13.9998 5.49945 14.0097 5.40246 13.9904C5.30547 13.9711 5.21637 13.9235 5.14645 13.8536C5.07652 13.7836 5.0289 13.6945 5.00961 13.5975C4.99032 13.5006 5.00022 13.4 5.03806 13.3087C5.0759 13.2173 5.13999 13.1392 5.22222 13.0843ZM3.5 5.5C3.20333 5.5 2.91332 5.41203 2.66665 5.2472C2.41997 5.08238 2.22771 4.84811 2.11418 4.57403C2.00065 4.29994 1.97094 3.99834 2.02882 3.70737C2.0867 3.41639 2.22956 3.14912 2.43934 2.93934C2.64912 2.72956 2.91639 2.5867 3.20737 2.52882C3.49834 2.47094 3.79994 2.50065 4.07403 2.61418C4.34811 2.72771 4.58238 2.91997 4.7472 3.16665C4.91203 3.41332 5 3.70333 5 4C4.99956 4.39769 4.84139 4.77897 4.56018 5.06018C4.27897 5.34139 3.89769 5.49956 3.5 5.5ZM3.5 3.5C3.40111 3.5 3.30444 3.52933 3.22222 3.58427C3.13999 3.63921 3.0759 3.7173 3.03806 3.80866C3.00022 3.90002 2.99032 4.00056 3.00961 4.09755C3.0289 4.19454 3.07652 4.28363 3.14645 4.35355C3.21637 4.42348 3.30546 4.4711 3.40246 4.49039C3.49945 4.50969 3.59998 4.49978 3.69134 4.46194C3.78271 4.4241 3.86079 4.36001 3.91574 4.27779C3.97068 4.19556 4 4.09889 4 4C3.99987 3.86743 3.94715 3.74033 3.85341 3.64659C3.75967 3.55285 3.63257 3.50013 3.5 3.5ZM9.66665 14.7472C9.91332 14.912 10.2033 15 10.5 15C10.8977 14.9996 11.279 14.8414 11.5602 14.5602C11.8414 14.279 11.9996 13.8977 12 13.5C12 13.2033 11.912 12.9133 11.7472 12.6666C11.5824 12.42 11.3481 12.2277 11.074 12.1142C10.7999 12.0007 10.4983 11.9709 10.2074 12.0288C9.91639 12.0867 9.64912 12.2296 9.43934 12.4393C9.22956 12.6491 9.0867 12.9164 9.02882 13.2074C8.97095 13.4983 9.00065 13.7999 9.11418 14.074C9.22771 14.3481 9.41997 14.5824 9.66665 14.7472ZM10.2222 13.0843C10.3044 13.0293 10.4011 13 10.5 13C10.6326 13.0001 10.7597 13.0529 10.8534 13.1466C10.9471 13.2403 10.9999 13.3674 11 13.5C11 13.5989 10.9707 13.6956 10.9157 13.7778C10.8608 13.86 10.7827 13.9241 10.6913 13.9619C10.6 13.9998 10.4994 14.0097 10.4025 13.9904C10.3055 13.9711 10.2164 13.9235 10.1464 13.8536C10.0765 13.7836 10.0289 13.6945 10.0096 13.5975C9.99032 13.5006 10.0002 13.4 10.0381 13.3087C10.0759 13.2173 10.14 13.1392 10.2222 13.0843ZM12.5 5.5C12.2033 5.5 11.9133 5.41203 11.6666 5.2472C11.42 5.08238 11.2277 4.84811 11.1142 4.57403C11.0007 4.29994 10.9709 3.99834 11.0288 3.70737C11.0867 3.41639 11.2296 3.14912 11.4393 2.93934C11.6491 2.72956 11.9164 2.5867 12.2074 2.52882C12.4983 2.47094 12.7999 2.50065 13.074 2.61418C13.3481 2.72771 13.5824 2.91997 13.7472 3.16665C13.912 3.41332 14 3.70333 14 4C13.9996 4.39769 13.8414 4.77897 13.5602 5.06018C13.279 5.34139 12.8977 5.49956 12.5 5.5ZM12.5 3.5C12.4011 3.5 12.3044 3.52933 12.2222 3.58427C12.14 3.63921 12.0759 3.7173 12.0381 3.80866C12.0002 3.90002 11.9903 4.00056 12.0096 4.09755C12.0289 4.19454 12.0765 4.28363 12.1464 4.35355C12.2164 4.42348 12.3055 4.4711 12.4025 4.49039C12.4994 4.50969 12.6 4.49978 12.6913 4.46194C12.7827 4.4241 12.8608 4.36001 12.9157 4.27779C12.9707 4.19556 13 4.09889 13 4C12.9999 3.86743 12.9471 3.74033 12.8534 3.64659C12.7597 3.55285 12.6326 3.50013 12.5 3.5ZM1.16665 10.2472C1.41332 10.412 1.70333 10.5 2 10.5C2.39769 10.4996 2.77897 10.3414 3.06018 10.0602C3.34139 9.77897 3.49956 9.39769 3.5 9C3.5 8.70333 3.41203 8.41332 3.24721 8.16665C3.08238 7.91997 2.84811 7.72771 2.57403 7.61418C2.29994 7.50065 1.99834 7.47094 1.70737 7.52882C1.41639 7.5867 1.14912 7.72956 0.939341 7.93934C0.729562 8.14912 0.586701 8.41639 0.528823 8.70737C0.470945 8.99834 0.50065 9.29994 0.614181 9.57403C0.727713 9.84811 0.919972 10.0824 1.16665 10.2472ZM1.72222 8.58427C1.80444 8.52932 1.90111 8.5 2 8.5C2.13257 8.50013 2.25967 8.55285 2.35341 8.64659C2.44715 8.74033 2.49987 8.86743 2.5 9C2.5 9.09889 2.47068 9.19556 2.41574 9.27779C2.36079 9.36001 2.28271 9.4241 2.19134 9.46194C2.09998 9.49978 1.99945 9.50969 1.90246 9.49039C1.80547 9.4711 1.71637 9.42348 1.64645 9.35355C1.57652 9.28363 1.5289 9.19454 1.50961 9.09755C1.49032 9.00056 1.50022 8.90002 1.53806 8.80866C1.5759 8.7173 1.63999 8.63921 1.72222 8.58427ZM14 10.5C13.7033 10.5 13.4133 10.412 13.1666 10.2472C12.92 10.0824 12.7277 9.84811 12.6142 9.57403C12.5007 9.29994 12.4709 8.99834 12.5288 8.70737C12.5867 8.41639 12.7296 8.14912 12.9393 7.93934C13.1491 7.72956 13.4164 7.5867 13.7074 7.52882C13.9983 7.47094 14.2999 7.50065 14.574 7.61418C14.8481 7.72771 15.0824 7.91997 15.2472 8.16665C15.412 8.41332 15.5 8.70333 15.5 9C15.4996 9.39769 15.3414 9.77897 15.0602 10.0602C14.779 10.3414 14.3977 10.4996 14 10.5ZM14 8.5C13.9011 8.5 13.8044 8.52932 13.7222 8.58427C13.64 8.63921 13.5759 8.7173 13.5381 8.80866C13.5002 8.90002 13.4903 9.00056 13.5096 9.09755C13.5289 9.19454 13.5765 9.28363 13.6464 9.35355C13.7164 9.42348 13.8055 9.4711 13.9025 9.49039C13.9994 9.50969 14.1 9.49978 14.1913 9.46194C14.2827 9.4241 14.3608 9.36001 14.4157 9.27779C14.4707 9.19556 14.5 9.09889 14.5 9C14.4999 8.86743 14.4471 8.74033 14.3534 8.64659C14.2597 8.55285 14.1326 8.50013 14 8.5ZM6.33329 10.4944C6.82664 10.8241 7.40666 11 8 11C8.79537 10.9991 9.5579 10.6827 10.1203 10.1203C10.6827 9.5579 10.9991 8.79537 11 8C11 7.40666 10.8241 6.82664 10.4944 6.33329C10.1648 5.83994 9.69623 5.45543 9.14805 5.22836C8.59987 5.0013 7.99667 4.94189 7.41473 5.05765C6.83279 5.1734 6.29824 5.45912 5.87868 5.87868C5.45912 6.29824 5.1734 6.83279 5.05765 7.41473C4.94189 7.99667 5.0013 8.59987 5.22836 9.14805C5.45543 9.69623 5.83994 10.1648 6.33329 10.4944ZM6.88886 6.33706C7.21776 6.1173 7.60444 6 8 6C8.53025 6.0006 9.03861 6.2115 9.41356 6.58645C9.7885 6.96139 9.99941 7.46975 10 8C10 8.39556 9.8827 8.78224 9.66294 9.11114C9.44318 9.44004 9.13082 9.69639 8.76537 9.84776C8.39992 9.99914 7.99778 10.0387 7.60982 9.96157C7.22186 9.8844 6.86549 9.69392 6.58579 9.41421C6.30608 9.13451 6.1156 8.77814 6.03843 8.39018C5.96126 8.00222 6.00087 7.60009 6.15224 7.23463C6.30362 6.86918 6.55996 6.55683 6.88886 6.33706Z" fill="#008CE3"/>
</svg>
