<svg width="16" height="16" viewBox="0 0 16 16" fill="none" xmlns="http://www.w3.org/2000/svg">
<path fill-rule="evenodd" clip-rule="evenodd" d="M3 2H13C13.2652 2 13.5196 2.10536 13.7071 2.29289C13.8946 2.48043 14 2.73478 14 3V13C14 13.2652 13.8946 13.5196 13.7071 13.7071C13.5196 13.8946 13.2652 14 13 14H3C2.73478 14 2.48043 13.8946 2.29289 13.7071C2.10536 13.5196 2 13.2652 2 13V3C2 2.73478 2.10536 2.48043 2.29289 2.29289C2.48043 2.10536 2.73478 2 3 2ZM3 10V13H13V12L10.5 9.5L9.705 10.295C9.51764 10.4813 9.26419 10.5858 9 10.5858C8.73581 10.5858 8.48236 10.4813 8.295 10.295L5.5 7.5L3 10ZM11.205 8.79L13 10.585V3H3V8.585L4.795 6.79C4.98236 6.60375 5.23581 6.49921 5.5 6.49921C5.76419 6.49921 6.01764 6.60375 6.205 6.79L9 9.585L9.795 8.79C9.98236 8.60375 10.2358 8.49921 10.5 8.49921C10.7642 8.49921 11.0176 8.60375 11.205 8.79ZM10.3334 6.74721C10.0867 6.91203 9.79667 7 9.5 7C9.10218 7 8.72064 6.84197 8.43934 6.56066C8.15804 6.27936 8 5.89783 8 5.5C8 5.20333 8.08797 4.91332 8.2528 4.66665C8.41762 4.41997 8.65189 4.22771 8.92597 4.11418C9.20006 4.00065 9.50167 3.97094 9.79264 4.02882C10.0836 4.0867 10.3509 4.22956 10.5607 4.43934C10.7704 4.64912 10.9133 4.91639 10.9712 5.20737C11.0291 5.49834 10.9994 5.79994 10.8858 6.07403C10.7723 6.34811 10.58 6.58238 10.3334 6.74721ZM9.77779 5.08427C9.69556 5.02933 9.59889 5 9.5 5C9.36739 5 9.24021 5.05268 9.14645 5.14645C9.05268 5.24022 9 5.36739 9 5.5C9 5.59889 9.02932 5.69556 9.08426 5.77779C9.13921 5.86001 9.2173 5.9241 9.30866 5.96194C9.40002 5.99978 9.50056 6.00969 9.59755 5.99039C9.69454 5.9711 9.78363 5.92348 9.85355 5.85355C9.92348 5.78363 9.9711 5.69454 9.99039 5.59755C10.0097 5.50056 9.99978 5.40002 9.96194 5.30866C9.9241 5.2173 9.86001 5.13921 9.77779 5.08427Z" fill="black"/>
</svg>
