<svg width="26" height="26" viewBox="0 0 26 26" fill="none" xmlns="http://www.w3.org/2000/svg">
<rect width="26" height="26" rx="4" fill="#32C1FF"/>
<path d="M19.765 8.075C19.689 8.03112 19.6028 8.00801 19.515 8.00801C19.4272 8.00801 19.341 8.03112 19.265 8.075L15 10.19V8.5C14.9997 8.41477 14.9777 8.33102 14.936 8.2567C14.8942 8.18238 14.8342 8.11997 14.7616 8.07538C14.6889 8.0308 14.6061 8.00552 14.5209 8.00195C14.4358 7.99838 14.3511 8.01665 14.275 8.055L10 10.19V6.5C10 6.36739 9.94732 6.24021 9.85355 6.14645C9.75979 6.05268 9.63261 6 9.5 6H6.5C6.36739 6 6.24021 6.05268 6.14645 6.14645C6.05268 6.24021 6 6.36739 6 6.5V19H20V8.5C20.0002 8.41503 19.9787 8.33141 19.9376 8.25705C19.8964 8.18269 19.8371 8.12004 19.765 8.075V8.075ZM16 18H14V14.5H16V18ZM19 18H17V14C17 13.8674 16.9473 13.7402 16.8536 13.6464C16.7598 13.5527 16.6326 13.5 16.5 13.5H13.5C13.3674 13.5 13.2402 13.5527 13.1464 13.6464C13.0527 13.7402 13 13.8674 13 14V18H7V7H9V11.81L14 9.31V11.81L19 9.31V18Z" fill="white"/>
</svg>
