<svg width="26" height="26" viewBox="0 0 26 26" fill="none" xmlns="http://www.w3.org/2000/svg">
<rect width="26" height="26" rx="4" fill="#32C1FF"/>
<path d="M19.2236 13.0528L16.5 11.6909V8.50001C16.5 8.40715 16.4742 8.31613 16.4254 8.23713C16.3765 8.15814 16.3067 8.0943 16.2236 8.05276L13.2236 6.55276C13.1542 6.51806 13.0776 6.5 13 6.5C12.9224 6.5 12.8458 6.51806 12.7764 6.55276L9.77635 8.05276C9.6933 8.0943 9.62346 8.15814 9.57465 8.23713C9.52584 8.31613 9.49999 8.40715 9.5 8.50001V11.6909L6.77635 13.0528C6.6933 13.0943 6.62346 13.1581 6.57465 13.2371C6.52584 13.3161 6.49999 13.4072 6.5 13.5V17C6.49999 17.0929 6.52584 17.1839 6.57465 17.2629C6.62346 17.3419 6.6933 17.4057 6.77635 17.4473L9.77635 18.9473C9.8458 18.982 9.92237 19 10 19C10.0776 19 10.1542 18.982 10.2236 18.9473L13 17.5591L15.7764 18.9473C15.8458 18.982 15.9224 19 16 19C16.0776 19 16.1542 18.982 16.2236 18.9473L19.2236 17.4473C19.3067 17.4057 19.3765 17.3419 19.4254 17.2629C19.4742 17.1839 19.5 17.0929 19.5 17V13.5C19.5 13.4072 19.4742 13.3161 19.4254 13.2371C19.3765 13.1581 19.3067 13.0943 19.2236 13.0528ZM15.5 11.6909L13.5 12.6909V10.3091L15.5 9.30911V11.6909ZM13 7.55911L14.8819 8.50001L13 9.44091L11.1182 8.50001L13 7.55911ZM10.5 9.30911L12.5 10.3091V12.6909L10.5 11.6909V9.30911ZM9.5 17.6909L7.5 16.6909V14.3091L9.5 15.3091V17.6909ZM10 14.4409L8.11815 13.5L10 12.5591L11.8818 13.5L10 14.4409ZM10.5 15.3091L12.5 14.3091V16.6909L10.5 17.6909V15.3091ZM15.5 17.6909L13.5 16.6909V14.3091L15.5 15.3091V17.6909ZM16 14.4409L14.1181 13.5L16 12.5591L17.8819 13.5L16 14.4409ZM18.5 16.6909L16.5 17.6909V15.3091L18.5 14.3091V16.6909Z" fill="white"/>
</svg>
