<svg xmlns="http://www.w3.org/2000/svg" xmlns:xlink="http://www.w3.org/1999/xlink" width="40" zoomAndPan="magnify" viewBox="0 0 30 30.000001" height="40" preserveAspectRatio="xMidYMid meet" version="1.0"><defs><clipPath id="d393647421"><path d="M 0.484375 0 L 29.515625 0 L 29.515625 29.03125 L 0.484375 29.03125 Z M 0.484375 0 " clip-rule="nonzero"/></clipPath></defs><g clip-path="url(#d393647421)"><path fill="#0177b5" d="M 27.367188 0 L 2.625 0 C 1.445312 0 0.484375 0.9375 0.484375 2.09375 L 0.484375 26.9375 C 0.484375 28.09375 1.445312 29.03125 2.625 29.03125 L 27.367188 29.03125 C 28.550781 29.03125 29.515625 28.09375 29.515625 26.9375 L 29.515625 2.09375 C 29.515625 0.9375 28.550781 0 27.367188 0 Z M 27.367188 0 " fill-opacity="1" fill-rule="nonzero"/></g><path fill="#ffffff" d="M 4.789062 10.882812 L 9.101562 10.882812 L 9.101562 24.738281 L 4.789062 24.738281 Z M 6.941406 3.988281 C 8.320312 3.988281 9.4375 5.109375 9.4375 6.484375 C 9.4375 7.859375 8.320312 8.980469 6.945312 8.980469 C 6.613281 8.980469 6.292969 8.917969 5.988281 8.789062 C 5.683594 8.664062 5.414062 8.484375 5.179688 8.25 C 4.945312 8.015625 4.765625 7.746094 4.636719 7.4375 C 4.507812 7.132812 4.445312 6.816406 4.445312 6.484375 C 4.445312 6.152344 4.507812 5.835938 4.636719 5.527344 C 4.761719 5.222656 4.941406 4.953125 5.175781 4.71875 C 5.410156 4.484375 5.679688 4.304688 5.988281 4.179688 C 6.292969 4.050781 6.613281 3.988281 6.941406 3.988281 M 11.796875 10.882812 L 15.925781 10.882812 L 15.925781 12.777344 L 15.984375 12.777344 C 16.558594 11.6875 17.964844 10.539062 20.066406 10.539062 C 24.425781 10.539062 25.230469 13.410156 25.230469 17.140625 L 25.230469 24.738281 L 20.929688 24.738281 L 20.929688 18 C 20.929688 16.394531 20.898438 14.324219 18.691406 14.324219 C 16.449219 14.324219 16.105469 16.078125 16.105469 17.882812 L 16.105469 24.734375 L 11.804688 24.734375 L 11.804688 10.882812 Z M 11.796875 10.882812 " fill-opacity="1" fill-rule="nonzero"/></svg>