<svg width="112" height="110" viewBox="0 0 112 110" fill="none" xmlns="http://www.w3.org/2000/svg">
<path fill-rule="evenodd" clip-rule="evenodd" d="M34.1575 12.9226C38.0944 9.05592 43.4323 6.88101 49 6.875C53.8386 6.88492 58.5262 8.53107 62.2742 11.5366C66.0223 14.5421 68.6022 18.7236 69.58 23.3778L62.72 24.7472C62.0291 21.4053 60.0984 18.4348 57.3028 16.4124C54.5072 14.3901 51.0461 13.4601 47.5916 13.8032C44.1371 14.1462 40.9357 15.7378 38.6088 18.2689C36.282 20.7999 34.9958 24.0899 35 27.5V48.125H52.5V55H21V96.25H59.5V103.125H21C19.1441 103.123 17.3649 102.398 16.0526 101.109C14.7403 99.8202 14.0021 98.0727 14 96.25V55C14.0021 53.1773 14.7403 51.4298 16.0526 50.141C17.3649 48.8521 19.1441 48.1271 21 48.125H28V27.5C28.0061 22.0318 30.2206 16.7892 34.1575 12.9226ZM102.469 41.7045C104.137 44.7318 105.007 48.1209 105 51.5631C104.998 54.4586 104.374 57.3211 103.168 59.9632C101.961 62.6052 100.2 64.9672 98 66.8943V99.6881L84 93.2125L70 99.6881V66.8943C67.3877 64.5995 65.4017 61.6991 64.2231 58.4575C63.0445 55.2158 62.7107 51.736 63.2521 48.3352C63.7935 44.9343 65.193 41.7207 67.3229 38.9871C69.4528 36.2535 72.2454 34.087 75.4462 32.6849C78.647 31.2828 82.1542 30.6899 85.6481 30.96C89.142 31.2301 92.5116 32.3548 95.4496 34.2315C98.3876 36.1083 100.801 38.6773 102.469 41.7045ZM84 85.6156L91 88.852V70.9849C86.4763 72.5896 81.5236 72.5896 77 70.9849V88.852L84 85.6156ZM76.222 62.9958C78.5243 64.5066 81.231 65.3131 84 65.3131C87.7117 65.309 91.2702 63.859 93.8949 61.2813C96.5195 58.7035 97.9958 55.2085 98 51.5631C98 48.8436 97.1789 46.1851 95.6405 43.924C94.1022 41.6628 91.9157 39.9004 89.3575 38.8597C86.7994 37.819 83.9844 37.5467 81.2687 38.0773C78.553 38.6078 76.0584 39.9174 74.1005 41.8403C72.1425 43.7633 70.8092 46.2133 70.269 48.8806C69.7288 51.5478 70.006 54.3125 71.0657 56.825C72.1253 59.3374 73.9197 61.4849 76.222 62.9958Z" fill="#008CE3"/>
</svg>
