<svg width="32" height="32" viewBox="0 0 32 32" fill="none" xmlns="http://www.w3.org/2000/svg">
<g clip-path="url(#clip0_341_249)">
<rect width="32" height="32" rx="2" fill="#151B26"/>
<path d="M26.3571 10H5.92857C5.41574 10 5 10.4157 5 10.9286C5 11.4414 5.41574 11.8571 5.92857 11.8571H26.3571C26.87 11.8571 27.2857 11.4414 27.2857 10.9286C27.2857 10.4157 26.87 10 26.3571 10Z" fill="white"/>
<path d="M26.3571 15.5723H5.92857C5.41574 15.5723 5 15.988 5 16.5008C5 17.0137 5.41574 17.4294 5.92857 17.4294H26.3571C26.87 17.4294 27.2857 17.0137 27.2857 16.5008C27.2857 15.988 26.87 15.5723 26.3571 15.5723Z" fill="white"/>
<path d="M26.3571 21.1426H5.92857C5.41574 21.1426 5 21.5583 5 22.0712C5 22.584 5.41574 22.9997 5.92857 22.9997H26.3571C26.87 22.9997 27.2857 22.584 27.2857 22.0712C27.2857 21.5583 26.87 21.1426 26.3571 21.1426Z" fill="white"/>
<path d="M1 1H31V31H1V1Z" stroke="white" stroke-width="2"/>
</g>
<rect x="0.5" y="0.5" width="31" height="31" rx="1.5" stroke="#151B26"/>
<defs>
<clipPath id="clip0_341_249">
<rect width="32" height="32" rx="2" fill="white"/>
</clipPath>
</defs>
</svg>
