<svg width="13" height="13" viewBox="0 0 13 13" fill="none" xmlns="http://www.w3.org/2000/svg">
<path fill-rule="evenodd" clip-rule="evenodd" d="M6.5 4.0625C6.94873 4.0625 7.3125 3.69873 7.3125 3.25C7.3125 2.80127 6.94873 2.4375 6.5 2.4375C6.05127 2.4375 5.6875 2.80127 5.6875 3.25C5.6875 3.69873 6.05127 4.0625 6.5 4.0625ZM6.5 7.3125C6.94873 7.3125 7.3125 6.94873 7.3125 6.5C7.3125 6.05127 6.94873 5.6875 6.5 5.6875C6.05127 5.6875 5.6875 6.05127 5.6875 6.5C5.6875 6.94873 6.05127 7.3125 6.5 7.3125ZM7.3125 9.75C7.3125 10.1987 6.94873 10.5625 6.5 10.5625C6.05127 10.5625 5.6875 10.1987 5.6875 9.75C5.6875 9.30127 6.05127 8.9375 6.5 8.9375C6.94873 8.9375 7.3125 9.30127 7.3125 9.75Z" fill="black"/>
</svg>
