<svg width="46" height="46" viewBox="0 0 46 46" fill="none" xmlns="http://www.w3.org/2000/svg">
<circle cx="23" cy="23" r="23" fill="#F4F6F6"/>
<path fill-rule="evenodd" clip-rule="evenodd" d="M19.25 16.75H20.5C20.8315 16.75 21.1495 16.8817 21.3839 17.1161C21.6183 17.3505 21.75 17.6685 21.75 18V28C21.75 28.3315 21.6183 28.6495 21.3839 28.8839C21.1495 29.1183 20.8315 29.25 20.5 29.25H19.25C18.9185 29.25 18.6005 29.1183 18.3661 28.8839C18.1317 28.6495 18 28.3315 18 28V18C18 17.6685 18.1317 17.3505 18.3661 17.1161C18.6005 16.8817 18.9185 16.75 19.25 16.75ZM25.5 16.75H26.75C27.0815 16.75 27.3995 16.8817 27.6339 17.1161C27.8683 17.3505 28 17.6685 28 18V28C28 28.3315 27.8683 28.6495 27.6339 28.8839C27.3995 29.1183 27.0815 29.25 26.75 29.25H25.5C25.1685 29.25 24.8505 29.1183 24.6161 28.8839C24.3817 28.6495 24.25 28.3315 24.25 28V18C24.25 17.6685 24.3817 17.3505 24.6161 17.1161C24.8505 16.8817 25.1685 16.75 25.5 16.75Z" fill="black"/>
</svg>
