<svg width="16" height="16" viewBox="0 0 16 16" fill="none" xmlns="http://www.w3.org/2000/svg">
<path fill-rule="evenodd" clip-rule="evenodd" d="M9.00001 7.54125C9.60701 7.18698 10.2972 7.0002 11 7C11.6598 6.99972 12.3094 7.16274 12.8909 7.4745C13.4724 7.78627 13.9677 8.23709 14.3327 8.78678C14.6976 9.33646 14.9209 9.96791 14.9825 10.6248C15.0441 11.2817 14.9422 11.9437 14.6859 12.5517C14.4295 13.1596 14.0267 13.6947 13.5134 14.1092C13 14.5237 12.392 14.8047 11.7437 14.9271C11.0954 15.0496 10.4268 15.0097 9.79763 14.811C9.16845 14.6123 8.59823 14.261 8.13781 13.7884C7.67189 14.3286 7.05174 14.7132 6.36075 14.8904C5.66975 15.0677 4.94106 15.0291 4.27264 14.7799C3.60422 14.5307 3.02813 14.0828 2.62184 13.4964C2.21556 12.9101 1.99855 12.2134 2.00001 11.5V4.5C2.00001 3.57174 2.36876 2.6815 3.02513 2.02513C3.68151 1.36875 4.57175 1 5.50001 1C6.42827 1 7.3185 1.36875 7.97488 2.02513C8.63126 2.6815 9.00001 3.57174 9.00001 4.5V7.54125ZM7.26691 2.7331C6.79824 2.26442 6.16281 2.00078 5.50001 2C4.83721 2.00078 4.20177 2.26442 3.7331 2.7331C3.26443 3.20177 3.00079 3.8372 3.00001 4.5V7.5H8.00001V4.5C7.99923 3.8372 7.73558 3.20177 7.26691 2.7331ZM3.7331 13.2669C4.20177 13.7356 4.83721 13.9992 5.50001 14C5.89439 13.9987 6.28291 13.9044 6.63399 13.7247C6.98507 13.545 7.28882 13.2851 7.52056 12.966C7.12531 12.2713 6.94845 11.4738 7.01301 10.6772C7.07757 9.88058 7.38056 9.12191 7.88251 8.5H3.00001V11.5C3.00079 12.1628 3.26443 12.7982 3.7331 13.2669ZM9.3333 13.4944C9.82664 13.8241 10.4067 14 11 14C11.7954 13.9991 12.5579 13.6828 13.1204 13.1204C13.6828 12.5579 13.9991 11.7954 14 11C14 10.4067 13.8241 9.82664 13.4944 9.33329C13.1648 8.83994 12.6962 8.45542 12.1481 8.22836C11.5999 8.0013 10.9967 7.94189 10.4147 8.05764C9.83279 8.1734 9.29824 8.45912 8.87869 8.87868C8.45913 9.29824 8.17341 9.83279 8.05765 10.4147C7.9419 10.9967 8.00131 11.5999 8.22837 12.1481C8.45543 12.6962 8.83995 13.1648 9.3333 13.4944ZM11.5 10.5H12.5V11.5H11.5V12.5H10.5V11.5H9.50001V10.5H10.5V9.5H11.5V10.5Z" fill="black"/>
</svg>
