<svg xmlns="http://www.w3.org/2000/svg" xmlns:xlink="http://www.w3.org/1999/xlink" width="2240" zoomAndPan="magnify" viewBox="0 0 1680 944.999993" height="1260" preserveAspectRatio="xMidYMid meet" version="1.0"><defs><clipPath id="d631c71b84"><path d="M 299.128906 38.78125 L 1380.628906 38.78125 L 1380.628906 884.78125 L 299.128906 884.78125 Z M 299.128906 38.78125 " clip-rule="nonzero"/></clipPath></defs><g clip-path="url(#d631c71b84)"><path fill="#ffffff" d="M 562.941406 464.15625 L 724.449219 464.15625 L 724.449219 884.78125 L 299.304688 884.78125 L 299.304688 530.222656 C 299.304688 356.746094 341.582031 232.457031 425.898438 157.125 C 510.214844 81.792969 630.394531 42.347656 786.199219 38.78125 L 788.339844 209.40625 C 602.605469 228.894531 548.929688 310.167969 562.941406 464.15625 Z M 1157.191406 464.15625 L 1318.699219 464.15625 L 1318.699219 884.78125 L 893.554688 884.78125 L 893.554688 530.222656 C 893.554688 356.746094 935.832031 232.457031 1020.148438 157.125 C 1104.464844 81.792969 1224.644531 42.347656 1380.449219 38.78125 L 1380.449219 211.070312 C 1194.71875 230.320312 1143.179688 310.167969 1157.191406 464.15625 Z M 1157.191406 464.15625 " fill-opacity="1" fill-rule="nonzero"/></g></svg>