<svg width="16" height="16" viewBox="0 0 16 16" fill="none" xmlns="http://www.w3.org/2000/svg">
<path fill-rule="evenodd" clip-rule="evenodd" d="M8.315 14.965C8.3739 14.9883 8.43668 15.0002 8.5 15C8.61278 14.9994 8.72203 14.9606 8.81 14.89L11.31 12.89C11.3689 12.8435 11.4166 12.7842 11.4495 12.7167C11.4824 12.6492 11.4997 12.5751 11.5 12.5V8.70503L13.39 6.82003C13.9024 6.31045 14.3086 5.7042 14.585 5.03645C14.8614 4.36869 15.0024 3.65271 15 2.93003V2.00003C15 1.73481 14.8946 1.48046 14.7071 1.29292C14.5196 1.10539 14.2652 1.00003 14 1.00003H13.07C12.3473 0.997596 11.6313 1.13865 10.9636 1.41503C10.2958 1.6914 9.68959 2.09758 9.18 2.61003L7.295 4.50003H3.5C3.42449 4.50097 3.35017 4.51901 3.28263 4.55278C3.21508 4.58655 3.15606 4.63519 3.11 4.69503L1.11 7.19503C1.0542 7.26419 1.01783 7.34697 1.00465 7.43485C0.991465 7.52274 1.00194 7.61254 1.035 7.69503C1.06766 7.77695 1.1214 7.84877 1.19077 7.90321C1.26014 7.95765 1.34267 7.99278 1.43 8.00503L4.93 8.50503L5.07 7.50503L2.435 7.13003L3.74 5.50003H7.5C7.56581 5.50041 7.63104 5.4878 7.69196 5.46292C7.75287 5.43803 7.80828 5.40137 7.855 5.35503L9.89 3.32003C10.3065 2.90071 10.802 2.56814 11.3478 2.34157C11.8937 2.11499 12.479 1.99891 13.07 2.00003H14V2.93003C14.0011 3.52103 13.885 4.10638 13.6585 4.65222C13.4319 5.19806 13.0993 5.69356 12.68 6.11003L10.645 8.14503C10.5987 8.19175 10.562 8.24716 10.5371 8.30808C10.5122 8.369 10.4996 8.43423 10.5 8.50003V12.26L8.88 13.565L8.505 10.93L7.505 11.07L8.005 14.57C8.01725 14.6574 8.05238 14.7399 8.10682 14.8093C8.16127 14.8786 8.23309 14.9324 8.315 14.965ZM3.64404 11.646L7.64273 7.64731L8.34984 8.35441L4.35115 12.3531L3.64404 11.646Z" fill="black"/>
</svg>
