<svg width="16" height="16" viewBox="0 0 16 16" fill="none" xmlns="http://www.w3.org/2000/svg">
<path d="M14.5 13.7931L10.724 10.017C11.6313 8.9277 12.0838 7.5305 11.9872 6.11608C11.8907 4.70165 11.2525 3.37891 10.2055 2.423C9.15856 1.4671 7.78335 0.951637 6.366 0.983845C4.94866 1.01605 3.59829 1.59345 2.59581 2.59593C1.59333 3.5984 1.01593 4.94877 0.983727 6.36612C0.951519 7.78347 1.46698 9.15867 2.42289 10.2057C3.37879 11.2526 4.70154 11.8908 6.11596 11.9873C7.53038 12.0839 8.92758 11.6314 10.0169 10.7241L13.7929 14.5001L14.5 13.7931ZM2 6.50012C2 5.6101 2.26392 4.74007 2.75839 4.00005C3.25285 3.26003 3.95566 2.68325 4.77792 2.34266C5.60019 2.00207 6.50499 1.91295 7.37791 2.08658C8.25082 2.26022 9.05264 2.6888 9.68198 3.31814C10.3113 3.94747 10.7399 4.7493 10.9135 5.62221C11.0872 6.49513 10.9981 7.39993 10.6575 8.22219C10.3169 9.04446 9.74009 9.74726 9.00007 10.2417C8.26004 10.7362 7.39002 11.0001 6.5 11.0001C5.30693 10.9988 4.16311 10.5243 3.31948 9.68064C2.47585 8.83701 2.00132 7.69319 2 6.50012Z" fill="black"/>
</svg>
