<svg width="110" height="110" viewBox="0 0 110 110" fill="none" xmlns="http://www.w3.org/2000/svg">
<path fill-rule="evenodd" clip-rule="evenodd" d="M13.75 13.75V6.875H96.25V13.75H79.0625V37.8125C79.0625 44.1943 76.5274 50.3147 72.0148 54.8273C67.5022 59.3399 61.3818 61.875 55 61.875C48.6182 61.875 42.4978 59.3399 37.9852 54.8273C33.4727 50.3147 30.9375 44.1943 30.9375 37.8125V13.75H13.75ZM72.1875 13.75H37.8125V24.0625H72.1875V13.75ZM42.8466 49.9659C46.0699 53.1892 50.4416 55 55 55C59.5584 55 63.9301 53.1892 67.1534 49.9659C70.3767 46.7426 72.1875 42.3709 72.1875 37.8125V30.9375H37.8125V37.8125C37.8125 42.3709 39.6233 46.7426 42.8466 49.9659ZM17.1875 20.625C16.2758 20.625 15.4015 20.9872 14.7568 21.6318C14.1122 22.2765 13.75 23.1508 13.75 24.0625V55H20.625V24.0625C20.625 23.1508 20.2628 22.2765 19.6182 21.6318C18.9735 20.9872 18.0992 20.625 17.1875 20.625ZM89.375 103.125H82.5V92.8125C82.4946 88.2557 80.6821 83.8871 77.46 80.665C74.2379 77.4429 69.8693 75.6304 65.3125 75.625H44.6875C40.1307 75.6304 35.7621 77.4429 32.54 80.665C29.3179 83.8871 27.5054 88.2557 27.5 92.8125V103.125H20.625V92.8125C20.6325 86.433 23.17 80.317 27.681 75.806C32.192 71.295 38.308 68.7575 44.6875 68.75H65.3125C71.692 68.7575 77.808 71.295 82.319 75.806C86.83 80.317 89.3675 86.433 89.375 92.8125V103.125Z" fill="#008CE3"/>
</svg>
