<svg width="16" height="16" viewBox="0 0 16 16" fill="none" xmlns="http://www.w3.org/2000/svg">
<path fill-rule="evenodd" clip-rule="evenodd" d="M2 12H8.5V13H2C1.73488 12.9997 1.4807 12.8942 1.29323 12.7068C1.10576 12.5193 1.0003 12.2651 1 12V5C1.00026 4.73486 1.10571 4.48066 1.29319 4.29319C1.48066 4.10571 1.73486 4.00026 2 4H5V2C5.00026 1.73486 5.10571 1.48066 5.29319 1.29319C5.48066 1.10571 5.73486 1.00026 6 1H10C10.2651 1.0003 10.5193 1.10576 10.7068 1.29323C10.8942 1.4807 10.9997 1.73488 11 2V4H14C14.2651 4.0003 14.5193 4.10576 14.7068 4.29323C14.8942 4.4807 14.9997 4.73488 15 5V7.5H14V5H2V12ZM10 2H6V4H10V2ZM9.5 8.5H11.5V10.5H9.5V8.5ZM11.5 12H9.5V14H11.5V12ZM15 10.5V8.5H13V10.5H15ZM15 12H13V14H15V12Z" fill="black"/>
</svg>
