<svg width="21" height="21" viewBox="0 0 21 21" fill="none" xmlns="http://www.w3.org/2000/svg">
<g clip-path="url(#clip0_6426_1314)">
<path d="M15.0938 6.03828L13.3875 4.33203L12.4688 5.25078L15.0938 7.87578L19.6875 3.28203L18.7688 2.36328L15.0938 6.03828Z" fill="#008CE3"/>
<path d="M7.875 3.54375L6.95625 2.625L5.25 4.33125L3.54375 2.625L2.625 3.54375L4.33125 5.25L2.625 6.95625L3.54375 7.875L5.25 6.16875L6.95625 7.875L7.875 6.95625L6.16875 5.25L7.875 3.54375Z" fill="#008CE3"/>
<path d="M7.875 14.0437L6.95625 13.125L5.25 14.8313L3.54375 13.125L2.625 14.0437L4.33125 15.75L2.625 17.4563L3.54375 18.375L5.25 16.6687L6.95625 18.375L7.875 17.4563L6.16875 15.75L7.875 14.0437Z" fill="#008CE3"/>
<path d="M11.1562 9.84375V1.3125H9.84375V9.84375H1.3125V11.1562H9.84375V19.6875H11.1562V11.1562H19.6875V9.84375H11.1562Z" fill="#008CE3"/>
</g>
<defs>
<clipPath id="clip0_6426_1314">
<rect width="21" height="21" fill="white"/>
</clipPath>
</defs>
</svg>
