<svg width="26" height="26" viewBox="0 0 26 26" fill="none" xmlns="http://www.w3.org/2000/svg">
<rect width="26" height="26" rx="4" fill="#32C1FF"/>
<path d="M11.05 6.00003C10.0911 5.99677 9.15233 6.27492 8.35 6.80003L11.55 10C11.6566 10.091 11.7439 10.2023 11.8068 10.3275C11.8696 10.4527 11.9068 10.5892 11.9161 10.729C11.9255 10.8687 11.9067 11.009 11.861 11.1414C11.8153 11.2738 11.7436 11.3958 11.65 11.5C11.5457 11.5936 11.4238 11.6653 11.2914 11.711C11.1589 11.7568 11.0187 11.7755 10.8789 11.7662C10.7391 11.7569 10.6026 11.7197 10.4774 11.6568C10.3523 11.5939 10.2409 11.5066 10.15 11.4L6.85 8.20003C6.27944 9.0396 5.98254 10.0351 6 11.05C6.00526 12.3878 6.53901 13.6692 7.48492 14.6151C8.43084 15.561 9.71227 16.0948 11.05 16.1C11.4878 16.1024 11.9243 16.0521 12.35 15.95L15.7 19.3C16.1708 19.7708 16.8092 20.0353 17.475 20.0353C18.1407 20.0353 18.7792 19.7708 19.25 19.3C19.7208 18.8293 19.9852 18.1908 19.9852 17.525C19.9852 16.8593 19.7208 16.2208 19.25 15.75L15.9 12.4C16.002 11.9743 16.0524 11.5378 16.05 11.1C16.0633 10.4351 15.9438 9.7741 15.6985 9.15589C15.4532 8.53767 15.087 7.97461 14.6214 7.49967C14.1557 7.02473 13.6 6.64747 12.9868 6.38997C12.3736 6.13246 11.7151 5.9999 11.05 6.00003V6.00003ZM15.05 11.05C15.0493 11.4053 14.9988 11.7587 14.9 12.1L14.75 12.65L15.15 13.05L18.5 16.4C18.6427 16.5351 18.7562 16.6979 18.8336 16.8785C18.911 17.0591 18.9506 17.2536 18.95 17.45C18.9556 17.6472 18.9183 17.8433 18.8406 18.0246C18.7629 18.2059 18.6467 18.3681 18.5 18.5C18.3646 18.6422 18.2017 18.7554 18.0212 18.8328C17.8407 18.9101 17.6464 18.95 17.45 18.95C17.2536 18.95 17.0593 18.9101 16.8788 18.8328C16.6983 18.7554 16.5354 18.6422 16.4 18.5L13.05 15.15L12.65 14.75L12.1 14.9C11.7587 14.9988 11.4053 15.0493 11.05 15.05C9.98753 15.0471 8.96697 14.6353 8.2 13.9C7.81212 13.5351 7.50496 13.0929 7.29828 12.6021C7.09161 12.1112 6.99 11.5825 7 11.05C7.00068 10.6783 7.05113 10.3084 7.15 9.95003L9.35 12.15C9.53589 12.3523 9.7602 12.5156 10.0098 12.6303C10.2595 12.745 10.5295 12.8089 10.804 12.8182C11.0786 12.8275 11.3523 12.7821 11.6091 12.6845C11.866 12.587 12.1008 12.4393 12.3 12.25C12.4892 12.0509 12.6369 11.816 12.7345 11.5592C12.832 11.3023 12.8775 11.0287 12.8682 10.7541C12.8589 10.4795 12.795 10.2095 12.6803 9.95987C12.5656 9.71023 12.4023 9.48593 12.2 9.30003L10 7.10003C10.3234 6.99776 10.6608 6.94713 11 6.95003C12.0625 6.95298 13.083 7.36478 13.85 8.10003C14.6177 8.89037 15.048 9.94823 15.05 11.05V11.05Z" fill="white"/>
</svg>
