<svg width="16" height="16" viewBox="0 0 16 16" fill="none" xmlns="http://www.w3.org/2000/svg">
<path d="M1.75093 14.2466H2.97657L10.5274 6.68493L9.3018 5.45753L1.75093 13.0192V14.2466ZM14.27 5.4137L10.5493 1.73151L11.775 0.50411C12.1106 0.168037 12.5228 0 13.0116 0C13.5004 0 13.9126 0.168037 14.2482 0.50411L15.4738 1.73151C15.8094 2.06758 15.9845 2.47306 15.9991 2.94795C16.0137 3.42283 15.8532 3.82831 15.5176 4.16438L14.27 5.4137ZM13.0006 6.70685L3.72072 16H0V12.274L9.27991 2.98082L13.0006 6.70685ZM9.91462 6.07123L9.3018 5.45753L10.5274 6.68493L9.91462 6.07123Z" fill="white"/>
</svg>
