<svg width="26" height="26" viewBox="0 0 26 26" fill="none" xmlns="http://www.w3.org/2000/svg">
<rect width="26" height="26" rx="4" fill="#32C1FF"/>
<path d="M11 19.5C10.9013 19.4995 10.8049 19.4698 10.7231 19.4146C10.6412 19.3595 10.5775 19.2813 10.54 19.19L8.165 13.5H6V12.5H8.5C8.59871 12.5005 8.69507 12.5302 8.77693 12.5854C8.85879 12.6405 8.92249 12.7187 8.96 12.81L11 17.64L15.03 6.825C15.0658 6.7293 15.13 6.64685 15.214 6.58875C15.298 6.53064 15.3978 6.49967 15.5 6.5C15.6031 6.5018 15.7031 6.53544 15.7864 6.59631C15.8696 6.65718 15.932 6.7423 15.965 6.84L17.86 12.5H20V13.5H17.5C17.3952 13.5003 17.2929 13.4676 17.2077 13.4066C17.1224 13.3456 17.0585 13.2593 17.025 13.16L15.5 8.5L11.47 19.175C11.4342 19.2707 11.37 19.3532 11.286 19.4113C11.202 19.4694 11.1022 19.5003 11 19.5Z" fill="white"/>
</svg>
