<svg width="18" height="18" viewBox="0 0 18 18" fill="none" xmlns="http://www.w3.org/2000/svg">
<path d="M9.00118 2.03906H8.99861L1.70264 16.0695L1.70386 16.0717H16.2959L16.2972 16.0695L9.00118 2.03906ZM8.27668 5.78602H9.72311V11.5717H8.27668V5.78602ZM8.9999 14.786C8.80918 14.786 8.62275 14.7295 8.46417 14.6235C8.30559 14.5175 8.182 14.3669 8.10901 14.1907C8.03603 14.0145 8.01693 13.8207 8.05414 13.6336C8.09135 13.4466 8.18319 13.2747 8.31805 13.1399C8.4529 13.005 8.62472 12.9132 8.81177 12.876C8.99883 12.8388 9.19271 12.8579 9.36891 12.9308C9.54511 13.0038 9.69571 13.1274 9.80167 13.286C9.90763 13.4446 9.96418 13.631 9.96418 13.8217C9.96418 14.0775 9.86259 14.3227 9.68175 14.5036C9.50091 14.6844 9.25564 14.786 8.9999 14.786Z" fill="#FC5456"/>
<path d="M17.3571 17.3571H0.642862C0.532415 17.3571 0.423831 17.3287 0.327579 17.2745C0.231327 17.2204 0.150654 17.1423 0.0933378 17.0479C0.036022 16.9535 0.00399699 16.8459 0.000350525 16.7355C-0.00329594 16.6251 0.0215591 16.5157 0.0725192 16.4177L8.42966 0.346252C8.48394 0.241874 8.56582 0.154393 8.66639 0.0933393C8.76696 0.0322854 8.88235 0 9 0C9.11765 0 9.23304 0.0322854 9.33361 0.0933393C9.43418 0.154393 9.51606 0.241874 9.57034 0.346252L17.9275 16.4177C17.9784 16.5157 18.0033 16.6251 17.9996 16.7355C17.996 16.8459 17.964 16.9535 17.9067 17.0479C17.8493 17.1423 17.7687 17.2204 17.6724 17.2745C17.5762 17.3287 17.4676 17.3571 17.3571 17.3571ZM1.70403 16.0714H16.296L16.2973 16.0693L9.00129 2.03877H8.99871L1.70274 16.0693L1.70403 16.0714Z" fill="#FC5456"/>
</svg>
