<svg width="1113" height="617" viewBox="0 0 1113 617" fill="none" xmlns="http://www.w3.org/2000/svg">
<rect width="1113" height="617" fill="#41BD8B"/>
<path d="M86 397L77.3397 412L94.6603 412L86 397ZM87.5 447L87.5 410.5L84.5 410.5L84.5 447L87.5 447Z" fill="black"/>
<path d="M1032 174L1023.34 189L1040.66 189L1032 174ZM1033.5 224L1033.5 187.5L1030.5 187.5L1030.5 224L1033.5 224Z" fill="black"/>
<path d="M223 309L208 300.34L208 317.66L223 309ZM173 310.5L209.5 310.5L209.5 307.5L173 307.5L173 310.5Z" fill="black"/>
<path d="M173 80L303 80" stroke="black" stroke-width="3"/>
<path d="M492 279L477 270.34V287.66L492 279ZM394 280.5H478.5V277.5H394V280.5Z" fill="black"/>
<path d="M492 470L477 461.34L477 478.66L492 470ZM443 471.5L478.5 471.5L478.5 468.5L443 468.5L443 471.5Z" fill="black"/>
<path d="M492 375L477 366.34L477 383.66L492 375ZM443 376.5L478.5 376.5L478.5 373.5L443 373.5L443 376.5Z" fill="black"/>
<path d="M939 273L924 264.34V281.66L939 273ZM841 274.5H925.5V271.5H841V274.5Z" fill="black"/>
<path d="M754 80L769 88.6603V71.3397L754 80ZM939 78.5L767.5 78.5V81.5L939 81.5V78.5Z" fill="black"/>
<path d="M292 80L307 88.6603V71.3397L292 80ZM477 78.5L305.5 78.5V81.5L477 81.5V78.5Z" fill="black"/>
<path d="M173 559L188 567.66V550.34L173 559ZM939 557.5L186.5 557.5V560.5L939 560.5V557.5Z" fill="black"/>
<path d="M85 224L93.6603 209L76.3397 209L85 224ZM83.5 174L83.5 210.5L86.5 210.5L86.5 174L83.5 174Z" fill="black"/>
<path d="M443 279L443 470" stroke="black" stroke-width="3"/>
<path d="M1032 447L1040.66 432L1023.34 432L1032 447ZM1030.5 397L1030.5 433.5L1033.5 433.5L1033.5 397L1030.5 397Z" fill="black"/>
</svg>
