<svg width="1297" height="1027" viewBox="0 0 1297 1027" fill="none" xmlns="http://www.w3.org/2000/svg">
<line x1="1296.5" y1="6.55671e-08" x2="1296.5" y2="1026" stroke="black" stroke-opacity="0.1"/>
<line x1="864.5" y1="6.55671e-08" x2="864.5" y2="1026" stroke="black" stroke-opacity="0.1"/>
<line x1="1080.5" y1="6.55671e-08" x2="1080.5" y2="1026" stroke="black" stroke-opacity="0.1"/>
<line x1="648.5" y1="6.55671e-08" x2="648.5" y2="1026" stroke="black" stroke-opacity="0.1"/>
<line x1="1188.5" y1="6.55671e-08" x2="1188.5" y2="1026" stroke="black" stroke-opacity="0.1"/>
<line x1="756.5" y1="6.55671e-08" x2="756.5" y2="1026" stroke="black" stroke-opacity="0.1"/>
<line x1="972.5" y1="6.55671e-08" x2="972.5" y2="1026" stroke="black" stroke-opacity="0.1"/>
<line x1="1242.5" y1="6.55671e-08" x2="1242.5" y2="1026" stroke="black" stroke-opacity="0.1"/>
<line x1="810.5" y1="6.55671e-08" x2="810.5" y2="1026" stroke="black" stroke-opacity="0.1"/>
<line x1="1026.5" y1="6.55671e-08" x2="1026.5" y2="1026" stroke="black" stroke-opacity="0.1"/>
<line x1="1134.5" y1="6.55671e-08" x2="1134.5" y2="1026" stroke="black" stroke-opacity="0.1"/>
<line x1="702.5" y1="6.55671e-08" x2="702.5" y2="1026" stroke="black" stroke-opacity="0.1"/>
<line x1="918.5" y1="6.55671e-08" x2="918.5" y2="1026" stroke="black" stroke-opacity="0.1"/>
<line x1="1269.5" y1="6.55671e-08" x2="1269.5" y2="1026" stroke="black" stroke-opacity="0.1"/>
<line x1="837.5" y1="6.55671e-08" x2="837.5" y2="1026" stroke="black" stroke-opacity="0.1"/>
<line x1="1053.5" y1="6.55671e-08" x2="1053.5" y2="1026" stroke="black" stroke-opacity="0.1"/>
<line x1="1161.5" y1="6.55671e-08" x2="1161.5" y2="1026" stroke="black" stroke-opacity="0.1"/>
<line x1="729.5" y1="6.55671e-08" x2="729.5" y2="1026" stroke="black" stroke-opacity="0.1"/>
<line x1="945.5" y1="6.55671e-08" x2="945.5" y2="1026" stroke="black" stroke-opacity="0.1"/>
<line x1="1215.5" y1="6.55671e-08" x2="1215.5" y2="1026" stroke="black" stroke-opacity="0.1"/>
<line x1="783.5" y1="6.55671e-08" x2="783.5" y2="1026" stroke="black" stroke-opacity="0.1"/>
<line x1="999.5" y1="6.55671e-08" x2="999.5" y2="1026" stroke="black" stroke-opacity="0.1"/>
<line x1="1107.5" y1="6.55671e-08" x2="1107.5" y2="1026" stroke="black" stroke-opacity="0.1"/>
<line x1="675.5" y1="6.55671e-08" x2="675.5" y2="1026" stroke="black" stroke-opacity="0.1"/>
<line x1="891.5" y1="6.55671e-08" x2="891.5" y2="1026" stroke="black" stroke-opacity="0.1"/>
<line x1="1296" y1="648.5" x2="648" y2="648.5" stroke="black" stroke-opacity="0.1"/>
<line x1="1296" y1="216.5" x2="648" y2="216.5" stroke="black" stroke-opacity="0.1"/>
<line x1="1296" y1="864.5" x2="648" y2="864.5" stroke="black" stroke-opacity="0.1"/>
<line x1="1296" y1="432.5" x2="648" y2="432.5" stroke="black" stroke-opacity="0.1"/>
<line x1="1296" y1="0.5" x2="648" y2="0.499887" stroke="black" stroke-opacity="0.1"/>
<line x1="1296" y1="648.5" x2="648" y2="648.5" stroke="black" stroke-opacity="0.1"/>
<line x1="1296" y1="540.5" x2="648" y2="540.5" stroke="black" stroke-opacity="0.1"/>
<line x1="1296" y1="108.5" x2="648" y2="108.5" stroke="black" stroke-opacity="0.1"/>
<line x1="1296" y1="756.5" x2="648" y2="756.5" stroke="black" stroke-opacity="0.1"/>
<line x1="1296" y1="324.5" x2="648" y2="324.5" stroke="black" stroke-opacity="0.1"/>
<line x1="1296" y1="972.5" x2="648" y2="972.5" stroke="black" stroke-opacity="0.1"/>
<line x1="1296" y1="594.5" x2="648" y2="594.5" stroke="black" stroke-opacity="0.1"/>
<line x1="1296" y1="162.5" x2="648" y2="162.5" stroke="black" stroke-opacity="0.1"/>
<line x1="1296" y1="810.5" x2="648" y2="810.5" stroke="black" stroke-opacity="0.1"/>
<line x1="1296" y1="378.5" x2="648" y2="378.5" stroke="black" stroke-opacity="0.1"/>
<line x1="1296" y1="1026.5" x2="648" y2="1026.5" stroke="black" stroke-opacity="0.1"/>
<line x1="1296" y1="486.5" x2="648" y2="486.5" stroke="black" stroke-opacity="0.1"/>
<line x1="1296" y1="54.5" x2="648" y2="54.4999" stroke="black" stroke-opacity="0.1"/>
<line x1="1296" y1="702.5" x2="648" y2="702.5" stroke="black" stroke-opacity="0.1"/>
<line x1="1296" y1="270.5" x2="648" y2="270.5" stroke="black" stroke-opacity="0.1"/>
<line x1="1296" y1="918.5" x2="648" y2="918.5" stroke="black" stroke-opacity="0.1"/>
<line x1="1296" y1="621.5" x2="648" y2="621.5" stroke="black" stroke-opacity="0.1"/>
<line x1="1296" y1="189.5" x2="648" y2="189.5" stroke="black" stroke-opacity="0.1"/>
<line x1="1296" y1="837.5" x2="648" y2="837.5" stroke="black" stroke-opacity="0.1"/>
<line x1="1296" y1="405.5" x2="648" y2="405.5" stroke="black" stroke-opacity="0.1"/>
<line x1="1296" y1="513.5" x2="648" y2="513.5" stroke="black" stroke-opacity="0.1"/>
<line x1="1296" y1="81.5" x2="648" y2="81.4999" stroke="black" stroke-opacity="0.1"/>
<line x1="1296" y1="729.5" x2="648" y2="729.5" stroke="black" stroke-opacity="0.1"/>
<line x1="1296" y1="297.5" x2="648" y2="297.5" stroke="black" stroke-opacity="0.1"/>
<line x1="1296" y1="945.5" x2="648" y2="945.5" stroke="black" stroke-opacity="0.1"/>
<line x1="1296" y1="567.5" x2="648" y2="567.5" stroke="black" stroke-opacity="0.1"/>
<line x1="1296" y1="135.5" x2="648" y2="135.5" stroke="black" stroke-opacity="0.1"/>
<line x1="1296" y1="783.5" x2="648" y2="783.5" stroke="black" stroke-opacity="0.1"/>
<line x1="1296" y1="351.5" x2="648" y2="351.5" stroke="black" stroke-opacity="0.1"/>
<line x1="1296" y1="999.5" x2="648" y2="999.5" stroke="black" stroke-opacity="0.1"/>
<line x1="1296" y1="459.5" x2="648" y2="459.5" stroke="black" stroke-opacity="0.1"/>
<line x1="1296" y1="27.5" x2="648" y2="27.4999" stroke="black" stroke-opacity="0.1"/>
<line x1="1296" y1="675.5" x2="648" y2="675.5" stroke="black" stroke-opacity="0.1"/>
<line x1="1296" y1="243.5" x2="648" y2="243.5" stroke="black" stroke-opacity="0.1"/>
<line x1="1296" y1="891.5" x2="648" y2="891.5" stroke="black" stroke-opacity="0.1"/>
<line x1="648.5" y1="6.55671e-08" x2="648.5" y2="1026" stroke="black" stroke-opacity="0.1"/>
<line x1="216.5" y1="6.55671e-08" x2="216.5" y2="1026" stroke="black" stroke-opacity="0.1"/>
<line x1="432.5" y1="6.55671e-08" x2="432.5" y2="1026" stroke="black" stroke-opacity="0.1"/>
<line x1="0.5" y1="6.55671e-08" x2="0.499865" y2="1026" stroke="black" stroke-opacity="0.1"/>
<line x1="540.5" y1="6.55671e-08" x2="540.5" y2="1026" stroke="black" stroke-opacity="0.1"/>
<line x1="108.5" y1="6.55671e-08" x2="108.5" y2="1026" stroke="black" stroke-opacity="0.1"/>
<line x1="324.5" y1="6.55671e-08" x2="324.5" y2="1026" stroke="black" stroke-opacity="0.1"/>
<line x1="594.5" y1="6.55671e-08" x2="594.5" y2="1026" stroke="black" stroke-opacity="0.1"/>
<line x1="162.5" y1="6.55671e-08" x2="162.5" y2="1026" stroke="black" stroke-opacity="0.1"/>
<line x1="378.5" y1="6.55671e-08" x2="378.5" y2="1026" stroke="black" stroke-opacity="0.1"/>
<line x1="486.5" y1="6.55671e-08" x2="486.5" y2="1026" stroke="black" stroke-opacity="0.1"/>
<line x1="54.5" y1="6.55671e-08" x2="54.4999" y2="1026" stroke="black" stroke-opacity="0.1"/>
<line x1="270.5" y1="6.55671e-08" x2="270.5" y2="1026" stroke="black" stroke-opacity="0.1"/>
<line x1="621.5" y1="6.55671e-08" x2="621.5" y2="1026" stroke="black" stroke-opacity="0.1"/>
<line x1="189.5" y1="6.55671e-08" x2="189.5" y2="1026" stroke="black" stroke-opacity="0.1"/>
<line x1="405.5" y1="6.55671e-08" x2="405.5" y2="1026" stroke="black" stroke-opacity="0.1"/>
<line x1="513.5" y1="6.55671e-08" x2="513.5" y2="1026" stroke="black" stroke-opacity="0.1"/>
<line x1="81.5" y1="6.55671e-08" x2="81.4999" y2="1026" stroke="black" stroke-opacity="0.1"/>
<line x1="297.5" y1="6.55671e-08" x2="297.5" y2="1026" stroke="black" stroke-opacity="0.1"/>
<line x1="567.5" y1="6.55671e-08" x2="567.5" y2="1026" stroke="black" stroke-opacity="0.1"/>
<line x1="135.5" y1="6.55671e-08" x2="135.5" y2="1026" stroke="black" stroke-opacity="0.1"/>
<line x1="351.5" y1="6.55671e-08" x2="351.5" y2="1026" stroke="black" stroke-opacity="0.1"/>
<line x1="459.5" y1="6.55671e-08" x2="459.5" y2="1026" stroke="black" stroke-opacity="0.1"/>
<line x1="27.5" y1="6.55671e-08" x2="27.4999" y2="1026" stroke="black" stroke-opacity="0.1"/>
<line x1="243.5" y1="6.55671e-08" x2="243.5" y2="1026" stroke="black" stroke-opacity="0.1"/>
<line x1="648" y1="648.5" x2="-8.74228e-08" y2="648.5" stroke="black" stroke-opacity="0.1"/>
<line x1="648" y1="216.5" x2="-8.74228e-08" y2="216.5" stroke="black" stroke-opacity="0.1"/>
<line x1="648" y1="864.5" x2="-8.74228e-08" y2="864.5" stroke="black" stroke-opacity="0.1"/>
<line x1="648" y1="432.5" x2="-8.74228e-08" y2="432.5" stroke="black" stroke-opacity="0.1"/>
<line x1="648" y1="0.5" x2="-8.74228e-08" y2="0.499887" stroke="black" stroke-opacity="0.1"/>
<line x1="648" y1="648.5" x2="-8.74228e-08" y2="648.5" stroke="black" stroke-opacity="0.1"/>
<line x1="648" y1="540.5" x2="-8.74228e-08" y2="540.5" stroke="black" stroke-opacity="0.1"/>
<line x1="648" y1="108.5" x2="-8.74228e-08" y2="108.5" stroke="black" stroke-opacity="0.1"/>
<line x1="648" y1="756.5" x2="-8.74228e-08" y2="756.5" stroke="black" stroke-opacity="0.1"/>
<line x1="648" y1="324.5" x2="-8.74228e-08" y2="324.5" stroke="black" stroke-opacity="0.1"/>
<line x1="648" y1="972.5" x2="-8.74228e-08" y2="972.5" stroke="black" stroke-opacity="0.1"/>
<line x1="648" y1="594.5" x2="-8.74228e-08" y2="594.5" stroke="black" stroke-opacity="0.1"/>
<line x1="648" y1="162.5" x2="-8.74228e-08" y2="162.5" stroke="black" stroke-opacity="0.1"/>
<line x1="648" y1="810.5" x2="-8.74228e-08" y2="810.5" stroke="black" stroke-opacity="0.1"/>
<line x1="648" y1="378.5" x2="-8.74228e-08" y2="378.5" stroke="black" stroke-opacity="0.1"/>
<line x1="648" y1="1026.5" x2="-8.74228e-08" y2="1026.5" stroke="black" stroke-opacity="0.1"/>
<line x1="648" y1="486.5" x2="-8.74228e-08" y2="486.5" stroke="black" stroke-opacity="0.1"/>
<line x1="648" y1="54.5" x2="-8.74228e-08" y2="54.4999" stroke="black" stroke-opacity="0.1"/>
<line x1="648" y1="702.5" x2="-8.74228e-08" y2="702.5" stroke="black" stroke-opacity="0.1"/>
<line x1="648" y1="270.5" x2="-8.74228e-08" y2="270.5" stroke="black" stroke-opacity="0.1"/>
<line x1="648" y1="918.5" x2="-8.74228e-08" y2="918.5" stroke="black" stroke-opacity="0.1"/>
<line x1="648" y1="621.5" x2="-8.74228e-08" y2="621.5" stroke="black" stroke-opacity="0.1"/>
<line x1="648" y1="189.5" x2="-8.74228e-08" y2="189.5" stroke="black" stroke-opacity="0.1"/>
<line x1="648" y1="837.5" x2="-8.74228e-08" y2="837.5" stroke="black" stroke-opacity="0.1"/>
<line x1="648" y1="405.5" x2="-8.74228e-08" y2="405.5" stroke="black" stroke-opacity="0.1"/>
<line x1="648" y1="513.5" x2="-8.74228e-08" y2="513.5" stroke="black" stroke-opacity="0.1"/>
<line x1="648" y1="81.5" x2="-8.74228e-08" y2="81.4999" stroke="black" stroke-opacity="0.1"/>
<line x1="648" y1="729.5" x2="-8.74228e-08" y2="729.5" stroke="black" stroke-opacity="0.1"/>
<line x1="648" y1="297.5" x2="-8.74228e-08" y2="297.5" stroke="black" stroke-opacity="0.1"/>
<line x1="648" y1="945.5" x2="-8.74228e-08" y2="945.5" stroke="black" stroke-opacity="0.1"/>
<line x1="648" y1="567.5" x2="-8.74228e-08" y2="567.5" stroke="black" stroke-opacity="0.1"/>
<line x1="648" y1="135.5" x2="-8.74228e-08" y2="135.5" stroke="black" stroke-opacity="0.1"/>
<line x1="648" y1="783.5" x2="-8.74228e-08" y2="783.5" stroke="black" stroke-opacity="0.1"/>
<line x1="648" y1="351.5" x2="-8.74228e-08" y2="351.5" stroke="black" stroke-opacity="0.1"/>
<line x1="648" y1="999.5" x2="-8.74228e-08" y2="999.5" stroke="black" stroke-opacity="0.1"/>
<line x1="648" y1="459.5" x2="-8.74228e-08" y2="459.5" stroke="black" stroke-opacity="0.1"/>
<line x1="648" y1="27.5" x2="-8.74228e-08" y2="27.4999" stroke="black" stroke-opacity="0.1"/>
<line x1="648" y1="675.5" x2="-8.74228e-08" y2="675.5" stroke="black" stroke-opacity="0.1"/>
<line x1="648" y1="243.5" x2="-8.74228e-08" y2="243.5" stroke="black" stroke-opacity="0.1"/>
<line x1="648" y1="891.5" x2="-8.74228e-08" y2="891.5" stroke="black" stroke-opacity="0.1"/>
</svg>
