<svg width="590" height="386" viewBox="0 0 590 386" fill="none" xmlns="http://www.w3.org/2000/svg">
<g clip-path="url(#clip0_77_504)">
<path d="M163 92.1411V379.685" stroke="white" stroke-width="2" stroke-dasharray="10 10"/>
<path d="M565.5 201.757L535.652 202.65L548.637 226.234L565.5 201.757ZM1.1111 377.733C288.236 338.714 483.535 247.435 545.555 215.242L543.407 211.104C481.827 243.068 287.193 334.071 0.90448 372.976L1.1111 377.733Z" fill="#FF0000"/>
<path d="M562 347.515L540.13 328.645L534.747 356.999L562 347.515ZM5.16394 189.968C128.182 267.907 190.551 293.676 257.979 306.515C291.593 312.915 326.455 316.098 370.552 320.985C414.688 325.876 468.245 332.489 539.458 345.753L540.367 340.837C468.991 327.543 415.303 320.915 371.096 316.015C326.851 311.112 292.273 307.956 258.908 301.603C192.377 288.935 130.629 263.542 7.8361 185.745L5.16394 189.968Z" fill="#FCC045"/>
<path d="M565.836 10.7432L536.133 11.1585L554.134 34.9977L565.836 10.7432ZM5.83592 148.161C3.88672 149.544 3.88923 149.546 3.89186 149.549C3.8929 149.551 3.89565 149.554 3.89773 149.556C3.90188 149.561 3.90652 149.566 3.91165 149.572C3.92191 149.584 3.93414 149.597 3.94837 149.613C3.97683 149.644 4.01329 149.684 4.05811 149.732C4.14777 149.827 4.27078 149.953 4.4298 150.109C4.74791 150.42 5.20969 150.845 5.83638 151.365C7.09027 152.405 9.00047 153.817 11.7355 155.434C17.2067 158.668 25.9589 162.712 39.3363 166.246C66.0709 173.309 111.349 178.353 186.05 170.787L184.95 166.004C110.651 173.53 66.0971 168.457 40.2496 161.629C27.336 158.218 19.1098 154.373 14.1751 151.456C11.7073 149.997 10.0578 148.767 9.05268 147.933C8.54988 147.516 8.20735 147.198 8.00352 146.999C7.90158 146.899 7.83422 146.829 7.79874 146.791C7.78099 146.773 7.77121 146.762 7.76906 146.759C7.76798 146.758 7.7688 146.759 7.7715 146.762C7.77284 146.764 7.77465 146.766 7.77692 146.768C7.77806 146.77 7.78011 146.772 7.78068 146.773C7.78284 146.775 7.78512 146.778 5.83592 148.161ZM186.05 170.787C248.287 164.483 324.552 136.15 392.325 105.29C460.166 74.3993 519.769 40.8488 548.746 23.9189L545.661 19.7702C516.753 36.6601 457.298 70.1261 389.656 100.926C321.945 131.758 246.3 159.79 184.95 166.004L186.05 170.787Z" fill="#00BF9C"/>
<path d="M175 170C175 177.244 169.34 183 162.5 183C155.66 183 150 177.244 150 170C150 162.756 155.66 157 162.5 157C169.34 157 175 162.756 175 170Z" fill="#D9D9D9" stroke="white" stroke-width="4"/>
<path d="M3 0L3.00002 377.302" stroke="white" stroke-width="4"/>
<path d="M562 379.302H1" stroke="white" stroke-width="4"/>
<path d="M181.481 200.477L181.425 188.841L185.357 188.822C186.27 188.818 187.017 188.979 187.598 189.305C188.183 189.628 188.617 190.068 188.9 190.623C189.183 191.179 189.326 191.799 189.329 192.485C189.332 193.17 189.195 193.794 188.918 194.356C188.644 194.918 188.218 195.367 187.64 195.703C187.062 196.035 186.32 196.204 185.415 196.208L182.597 196.222L182.591 194.972L185.364 194.958C185.989 194.955 186.49 194.845 186.868 194.627C187.246 194.409 187.519 194.117 187.687 193.748C187.86 193.376 187.945 192.957 187.943 192.491C187.941 192.025 187.851 191.609 187.675 191.243C187.503 190.876 187.225 190.589 186.842 190.383C186.458 190.173 185.95 190.069 185.317 190.072L182.84 190.084L182.89 200.47L181.481 200.477ZM196.938 196.835L196.913 191.676L198.254 191.669L198.296 200.396L196.955 200.403L196.948 198.926H196.857C196.655 199.37 196.338 199.749 195.908 200.061C195.478 200.37 194.933 200.526 194.274 200.529C193.729 200.532 193.243 200.415 192.818 200.178C192.392 199.938 192.057 199.576 191.812 199.092C191.568 198.605 191.444 197.99 191.44 197.247L191.413 191.702L192.754 191.696L192.78 197.15C192.784 197.786 192.964 198.293 193.322 198.67C193.684 199.047 194.143 199.234 194.7 199.232C195.033 199.23 195.371 199.143 195.715 198.971C196.063 198.799 196.353 198.536 196.587 198.183C196.824 197.83 196.941 197.38 196.938 196.835ZM202.068 195.128L202.093 200.378L200.752 200.385L200.71 191.657L202.006 191.651L202.012 193.015L202.126 193.014C202.328 192.57 202.637 192.213 203.053 191.942C203.468 191.667 204.005 191.528 204.664 191.525C205.255 191.522 205.773 191.641 206.217 191.881C206.661 192.118 207.008 192.48 207.256 192.967C207.505 193.451 207.631 194.064 207.634 194.806L207.661 200.352L206.32 200.358L206.294 194.903C206.291 194.218 206.11 193.685 205.752 193.304C205.394 192.919 204.905 192.728 204.284 192.731C203.856 192.733 203.473 192.828 203.137 193.015C202.805 193.202 202.543 193.474 202.351 193.831C202.16 194.188 202.065 194.621 202.068 195.128ZM213.865 191.594L213.87 192.731L209.348 192.752L209.342 191.616L213.865 191.594ZM210.65 189.519L211.991 189.512L212.031 197.831C212.033 198.209 212.089 198.493 212.2 198.682C212.314 198.867 212.459 198.991 212.634 199.055C212.812 199.115 213 199.144 213.197 199.143C213.344 199.142 213.465 199.134 213.56 199.119C213.655 199.099 213.73 199.084 213.787 199.072L214.066 200.275C213.975 200.31 213.848 200.345 213.685 200.379C213.523 200.418 213.316 200.438 213.066 200.439C212.688 200.441 212.316 200.361 211.952 200.2C211.591 200.039 211.291 199.792 211.05 199.46C210.814 199.128 210.694 198.708 210.692 198.201L210.65 189.519ZM219.376 200.477C218.588 200.481 217.896 200.297 217.3 199.925C216.707 199.552 216.242 199.03 215.906 198.357C215.573 197.685 215.405 196.898 215.4 195.996C215.396 195.087 215.557 194.293 215.883 193.613C216.213 192.934 216.673 192.405 217.262 192.027C217.855 191.649 218.545 191.458 219.333 191.455C220.121 191.451 220.811 191.635 221.404 192.007C222 192.379 222.465 192.904 222.798 193.58C223.134 194.256 223.305 195.049 223.309 195.958C223.314 196.86 223.151 197.648 222.821 198.324C222.494 199 222.035 199.527 221.442 199.905C220.853 200.283 220.164 200.473 219.376 200.477ZM219.37 199.273C219.969 199.27 220.461 199.114 220.846 198.805C221.23 198.497 221.514 198.092 221.698 197.591C221.881 197.09 221.971 196.548 221.968 195.965C221.966 195.381 221.87 194.838 221.682 194.335C221.494 193.833 221.206 193.427 220.818 193.118C220.43 192.809 219.937 192.656 219.339 192.659C218.74 192.662 218.249 192.82 217.864 193.132C217.479 193.445 217.195 193.853 217.012 194.358C216.829 194.862 216.738 195.406 216.741 195.99C216.744 196.573 216.839 197.114 217.027 197.613C217.215 198.113 217.503 198.515 217.891 198.82C218.279 199.124 218.772 199.276 219.37 199.273ZM233.423 200.41C232.635 200.414 231.943 200.229 231.346 199.857C230.754 199.485 230.289 198.963 229.953 198.29C229.62 197.617 229.451 196.83 229.447 195.929C229.443 195.02 229.604 194.225 229.93 193.546C230.26 192.866 230.719 192.338 231.309 191.96C231.901 191.582 232.592 191.391 233.38 191.387C234.168 191.384 234.858 191.568 235.451 191.94C236.047 192.312 236.512 192.836 236.845 193.513C237.181 194.189 237.352 194.982 237.356 195.891C237.36 196.793 237.197 197.581 236.867 198.257C236.541 198.933 236.081 199.46 235.488 199.837C234.899 200.215 234.211 200.406 233.423 200.41ZM233.417 199.205C234.016 199.203 234.507 199.047 234.892 198.738C235.277 198.429 235.561 198.025 235.744 197.524C235.928 197.023 236.018 196.481 236.015 195.897C236.012 195.314 235.917 194.771 235.729 194.268C235.541 193.765 235.253 193.359 234.865 193.051C234.477 192.742 233.984 192.589 233.386 192.592C232.787 192.595 232.295 192.752 231.91 193.065C231.526 193.377 231.242 193.786 231.058 194.29C230.875 194.795 230.785 195.339 230.788 195.922C230.791 196.506 230.886 197.047 231.074 197.546C231.262 198.045 231.55 198.447 231.938 198.752C232.326 199.057 232.819 199.208 233.417 199.205ZM232.761 190.322L234.135 187.679L235.703 187.672L233.943 190.316L232.761 190.322ZM239.439 203.472L239.382 191.472L240.677 191.466L240.684 192.852H240.843C240.941 192.7 241.076 192.506 241.249 192.27C241.426 192.031 241.679 191.817 242.007 191.63C242.34 191.439 242.79 191.342 243.358 191.339C244.093 191.336 244.742 191.517 245.304 191.881C245.866 192.246 246.306 192.765 246.624 193.437C246.942 194.11 247.103 194.905 247.107 195.822C247.112 196.746 246.958 197.548 246.647 198.227C246.336 198.903 245.903 199.428 245.348 199.802C244.793 200.172 244.152 200.358 243.424 200.362C242.864 200.365 242.414 200.274 242.076 200.09C241.738 199.902 241.478 199.689 241.295 199.452C241.112 199.21 240.971 199.01 240.872 198.851L240.758 198.852L240.78 203.466L239.439 203.472ZM240.721 195.829C240.724 196.489 240.823 197.069 241.019 197.572C241.214 198.071 241.498 198.462 241.871 198.744C242.244 199.023 242.699 199.161 243.237 199.158C243.797 199.156 244.264 199.006 244.638 198.708C245.015 198.407 245.297 198.004 245.484 197.5C245.675 196.991 245.769 196.426 245.766 195.805C245.763 195.192 245.666 194.639 245.474 194.148C245.286 193.652 245.002 193.262 244.622 192.975C244.245 192.686 243.773 192.542 243.205 192.545C242.66 192.547 242.202 192.688 241.832 192.966C241.462 193.241 241.184 193.625 240.997 194.118C240.81 194.607 240.718 195.178 240.721 195.829ZM252.927 191.407L252.932 192.544L248.41 192.565L248.404 191.429L252.927 191.407ZM249.712 189.332L251.053 189.325L251.093 197.643C251.095 198.022 251.151 198.306 251.262 198.495C251.377 198.68 251.521 198.804 251.696 198.868C251.874 198.928 252.062 198.957 252.259 198.956C252.406 198.955 252.527 198.947 252.622 198.932C252.717 198.912 252.792 198.897 252.849 198.885L253.128 200.088C253.037 200.123 252.91 200.157 252.747 200.192C252.585 200.231 252.378 200.251 252.128 200.252C251.75 200.254 251.378 200.174 251.014 200.013C250.653 199.852 250.353 199.605 250.112 199.273C249.876 198.941 249.756 198.521 249.754 198.013L249.712 189.332ZM254.986 200.125L254.944 191.398L256.285 191.391L256.327 200.118L254.986 200.125ZM255.619 189.94C255.357 189.941 255.132 189.853 254.941 189.676C254.755 189.499 254.661 189.285 254.66 189.035C254.659 188.785 254.75 188.571 254.935 188.392C255.124 188.213 255.349 188.123 255.61 188.122C255.871 188.12 256.095 188.208 256.282 188.385C256.472 188.563 256.568 188.776 256.569 189.026C256.57 189.276 256.477 189.491 256.288 189.67C256.103 189.848 255.88 189.939 255.619 189.94ZM258.783 200.107L258.741 191.379L260.036 191.373L260.043 192.737L260.156 192.736C260.336 192.269 260.628 191.906 261.032 191.647C261.436 191.384 261.922 191.251 262.49 191.248C263.066 191.245 263.546 191.373 263.93 191.633C264.317 191.889 264.62 192.249 264.838 192.714L264.929 192.713C265.15 192.262 265.484 191.902 265.93 191.635C266.375 191.364 266.911 191.227 267.536 191.224C268.316 191.22 268.955 191.461 269.454 191.947C269.952 192.43 270.204 193.184 270.209 194.211L270.237 200.052L268.896 200.058L268.868 194.217C268.865 193.573 268.687 193.114 268.333 192.839C267.98 192.564 267.564 192.428 267.087 192.43C266.473 192.433 265.999 192.621 265.663 192.994C265.328 193.363 265.162 193.83 265.164 194.394L265.192 200.076L263.828 200.082L263.799 194.105C263.797 193.609 263.634 193.21 263.311 192.909C262.987 192.603 262.572 192.452 262.064 192.454C261.716 192.456 261.39 192.55 261.088 192.737C260.79 192.925 260.549 193.183 260.365 193.514C260.184 193.84 260.095 194.218 260.097 194.646L260.124 200.1L258.783 200.107ZM276.235 200.205C275.447 200.209 274.755 200.024 274.158 199.652C273.566 199.28 273.101 198.758 272.765 198.085C272.432 197.412 272.263 196.625 272.259 195.724C272.255 194.815 272.416 194.02 272.742 193.341C273.072 192.661 273.532 192.132 274.121 191.755C274.714 191.377 275.404 191.186 276.192 191.182C276.98 191.178 277.67 191.363 278.263 191.735C278.859 192.107 279.324 192.631 279.657 193.308C279.993 193.984 280.164 194.777 280.168 195.686C280.172 196.587 280.009 197.376 279.679 198.052C279.353 198.728 278.893 199.255 278.3 199.632C277.711 200.01 277.023 200.201 276.235 200.205ZM276.229 199C276.828 198.997 277.319 198.842 277.704 198.533C278.089 198.224 278.373 197.819 278.556 197.319C278.74 196.818 278.83 196.276 278.827 195.692C278.824 195.109 278.729 194.566 278.541 194.063C278.353 193.56 278.065 193.154 277.677 192.845C277.289 192.537 276.796 192.384 276.198 192.387C275.599 192.39 275.107 192.547 274.723 192.86C274.338 193.172 274.054 193.581 273.87 194.085C273.687 194.59 273.597 195.134 273.6 195.717C273.603 196.301 273.698 196.842 273.886 197.341C274.074 197.84 274.362 198.242 274.75 198.547C275.138 198.852 275.631 199.003 276.229 199ZM190.897 211.432L189.488 211.439C189.403 211.034 189.255 210.678 189.045 210.373C188.839 210.067 188.588 209.81 188.292 209.604C187.999 209.393 187.674 209.235 187.318 209.131C186.961 209.027 186.59 208.975 186.204 208.977C185.499 208.981 184.862 209.162 184.291 209.52C183.725 209.879 183.275 210.406 182.941 211.101C182.611 211.796 182.448 212.647 182.453 213.654C182.458 214.662 182.629 215.511 182.965 216.203C183.306 216.895 183.761 217.417 184.331 217.77C184.905 218.124 185.544 218.299 186.248 218.295C186.635 218.293 187.006 218.239 187.361 218.131C187.717 218.023 188.04 217.864 188.33 217.655C188.625 217.441 188.874 217.18 189.077 216.873C189.283 216.561 189.428 216.204 189.509 215.802L190.918 215.796C190.815 216.391 190.624 216.924 190.346 217.395C190.068 217.866 189.722 218.267 189.307 218.599C188.891 218.927 188.425 219.177 187.907 219.35C187.392 219.523 186.842 219.611 186.255 219.613C185.262 219.618 184.378 219.38 183.603 218.899C182.828 218.418 182.217 217.731 181.77 216.839C181.322 215.948 181.095 214.888 181.09 213.661C181.084 212.434 181.3 211.372 181.739 210.476C182.178 209.58 182.783 208.887 183.553 208.399C184.323 207.91 185.205 207.664 186.197 207.659C186.784 207.656 187.336 207.739 187.852 207.907C188.372 208.075 188.841 208.322 189.259 208.65C189.677 208.974 190.027 209.37 190.31 209.838C190.593 210.303 190.788 210.834 190.897 211.432ZM196.577 219.587C195.789 219.59 195.097 219.406 194.5 219.034C193.908 218.662 193.443 218.14 193.107 217.467C192.774 216.794 192.605 216.007 192.601 215.106C192.597 214.197 192.757 213.402 193.084 212.723C193.414 212.043 193.873 211.514 194.463 211.136C195.055 210.759 195.746 210.568 196.534 210.564C197.322 210.56 198.012 210.744 198.605 211.117C199.201 211.489 199.666 212.013 199.998 212.69C200.335 213.366 200.506 214.159 200.51 215.068C200.514 215.969 200.351 216.758 200.021 217.434C199.695 218.11 199.235 218.636 198.642 219.014C198.053 219.392 197.365 219.583 196.577 219.587ZM196.571 218.382C197.17 218.379 197.661 218.224 198.046 217.915C198.431 217.606 198.715 217.201 198.898 216.701C199.082 216.2 199.172 215.658 199.169 215.074C199.166 214.491 199.071 213.948 198.883 213.445C198.695 212.942 198.407 212.536 198.019 212.227C197.631 211.919 197.138 211.766 196.539 211.769C195.941 211.771 195.449 211.929 195.064 212.242C194.68 212.554 194.396 212.963 194.212 213.467C194.029 213.972 193.939 214.516 193.942 215.099C193.945 215.683 194.04 216.224 194.228 216.723C194.416 217.222 194.704 217.624 195.092 217.929C195.48 218.234 195.973 218.385 196.571 218.382ZM208.727 212.574L207.524 212.921C207.447 212.72 207.334 212.526 207.186 212.337C207.041 212.144 206.843 211.986 206.593 211.862C206.342 211.739 206.022 211.678 205.631 211.68C205.097 211.682 204.653 211.807 204.298 212.055C203.947 212.299 203.772 212.609 203.774 212.984C203.776 213.317 203.898 213.58 204.142 213.772C204.385 213.964 204.764 214.123 205.28 214.249L206.577 214.561C207.358 214.747 207.941 215.034 208.326 215.422C208.71 215.807 208.904 216.304 208.907 216.914C208.909 217.414 208.767 217.862 208.481 218.257C208.199 218.652 207.803 218.965 207.293 219.194C206.782 219.424 206.188 219.541 205.51 219.544C204.62 219.548 203.882 219.358 203.297 218.975C202.712 218.591 202.34 218.029 202.181 217.287L203.452 216.963C203.576 217.432 203.807 217.783 204.145 218.016C204.487 218.25 204.932 218.365 205.482 218.362C206.107 218.359 206.602 218.224 206.968 217.957C207.338 217.687 207.522 217.364 207.521 216.989C207.519 216.686 207.412 216.432 207.199 216.229C206.986 216.022 206.659 215.868 206.219 215.768L204.763 215.434C203.963 215.248 203.374 214.957 202.998 214.562C202.624 214.162 202.436 213.661 202.434 213.059C202.431 212.566 202.567 212.13 202.842 211.75C203.121 211.37 203.5 211.07 203.98 210.852C204.464 210.634 205.012 210.523 205.626 210.52C206.49 210.516 207.168 210.702 207.663 211.079C208.161 211.455 208.515 211.954 208.727 212.574ZM214.69 210.591L214.696 211.727L210.173 211.749L210.168 210.612L214.69 210.591ZM211.476 208.515L212.817 208.509L212.857 216.827C212.858 217.206 212.915 217.489 213.025 217.678C213.14 217.863 213.284 217.988 213.459 218.051C213.637 218.111 213.825 218.14 214.022 218.139C214.17 218.139 214.291 218.131 214.385 218.115C214.48 218.096 214.556 218.08 214.612 218.068L214.891 219.272C214.8 219.306 214.674 219.341 214.511 219.376C214.348 219.414 214.142 219.434 213.892 219.436C213.513 219.437 213.141 219.358 212.777 219.197C212.416 219.035 212.116 218.789 211.876 218.457C211.639 218.124 211.52 217.704 211.517 217.197L211.476 208.515ZM220.202 219.473C219.414 219.477 218.722 219.293 218.125 218.921C217.532 218.549 217.068 218.026 216.731 217.354C216.398 216.681 216.23 215.894 216.226 214.992C216.221 214.083 216.382 213.289 216.709 212.609C217.039 211.93 217.498 211.401 218.087 211.023C218.68 210.645 219.371 210.455 220.158 210.451C220.946 210.447 221.637 210.631 222.229 211.003C222.826 211.376 223.29 211.9 223.623 212.576C223.96 213.253 224.13 214.045 224.135 214.955C224.139 215.856 223.976 216.645 223.646 217.321C223.32 217.996 222.86 218.523 222.267 218.901C221.678 219.279 220.99 219.47 220.202 219.473ZM220.196 218.269C220.794 218.266 221.286 218.11 221.671 217.802C222.056 217.493 222.34 217.088 222.523 216.587C222.706 216.086 222.797 215.544 222.794 214.961C222.791 214.378 222.696 213.835 222.507 213.332C222.319 212.829 222.032 212.423 221.644 212.114C221.256 211.805 220.763 211.653 220.164 211.655C219.566 211.658 219.074 211.816 218.689 212.128C218.304 212.441 218.02 212.849 217.837 213.354C217.654 213.859 217.564 214.403 217.567 214.986C217.569 215.569 217.665 216.111 217.853 216.61C218.041 217.109 218.329 217.511 218.716 217.816C219.104 218.121 219.597 218.272 220.196 218.269ZM231.175 213.625L231.181 214.875L226.09 214.9L226.084 213.65L231.175 213.625ZM233.743 219.227L233.688 207.591L237.619 207.572C238.528 207.567 239.275 207.719 239.86 208.027C240.445 208.331 240.879 208.751 241.162 209.288C241.445 209.824 241.588 210.435 241.591 211.121C241.594 211.806 241.457 212.415 241.179 212.947C240.901 213.478 240.473 213.897 239.895 214.203C239.317 214.505 238.577 214.658 237.676 214.662L234.494 214.678L234.488 213.405L237.624 213.39C238.246 213.387 238.745 213.294 239.123 213.11C239.505 212.926 239.78 212.667 239.949 212.333C240.122 211.995 240.207 211.593 240.205 211.128C240.202 210.662 240.113 210.255 239.937 209.907C239.761 209.56 239.482 209.292 239.098 209.104C238.715 208.913 238.209 208.819 237.58 208.822L235.103 208.834L235.152 219.22L233.743 219.227ZM239.195 213.973L242.084 219.187L240.448 219.195L237.605 213.981L239.195 213.973ZM243.796 219.179L243.754 210.451L245.095 210.445L245.137 219.172L243.796 219.179ZM244.429 208.994C244.167 208.995 243.942 208.907 243.751 208.73C243.565 208.553 243.471 208.339 243.47 208.089C243.469 207.839 243.56 207.625 243.745 207.446C243.934 207.267 244.159 207.177 244.42 207.175C244.681 207.174 244.905 207.262 245.092 207.439C245.282 207.616 245.378 207.83 245.379 208.08C245.38 208.33 245.286 208.544 245.098 208.723C244.913 208.902 244.69 208.992 244.429 208.994ZM251.252 219.325C250.412 219.329 249.685 219.147 249.074 218.778C248.466 218.406 247.996 217.886 247.663 217.217C247.334 216.544 247.167 215.761 247.163 214.867C247.159 213.973 247.318 213.184 247.64 212.501C247.966 211.814 248.422 211.278 249.007 210.892C249.597 210.503 250.285 210.306 251.073 210.303C251.527 210.301 251.977 210.374 252.421 210.524C252.864 210.673 253.269 210.917 253.634 211.256C254 211.592 254.291 212.037 254.51 212.593C254.729 213.149 254.84 213.834 254.844 214.648L254.846 215.217L248.119 215.249L248.114 214.09L253.477 214.064C253.475 213.572 253.374 213.133 253.176 212.747C252.98 212.362 252.703 212.058 252.342 211.836C251.984 211.615 251.563 211.505 251.079 211.507C250.545 211.51 250.083 211.645 249.694 211.912C249.309 212.175 249.013 212.517 248.807 212.939C248.601 213.36 248.499 213.811 248.501 214.292L248.505 215.065C248.508 215.724 248.624 216.282 248.854 216.74C249.087 217.193 249.409 217.538 249.819 217.775C250.229 218.008 250.705 218.123 251.247 218.12C251.599 218.118 251.917 218.068 252.201 217.968C252.488 217.864 252.735 217.712 252.943 217.51C253.15 217.304 253.31 217.05 253.422 216.746L254.719 217.104C254.585 217.544 254.358 217.931 254.037 218.266C253.717 218.597 253.32 218.856 252.848 219.044C252.375 219.228 251.843 219.322 251.252 219.325ZM263.054 212.314L261.851 212.66C261.775 212.46 261.662 212.265 261.513 212.077C261.368 211.884 261.171 211.726 260.92 211.602C260.67 211.478 260.349 211.417 259.959 211.419C259.425 211.422 258.98 211.547 258.626 211.795C258.274 212.039 258.1 212.349 258.102 212.724C258.103 213.057 258.226 213.32 258.469 213.512C258.712 213.704 259.092 213.863 259.608 213.989L260.905 214.301C261.686 214.487 262.269 214.774 262.653 215.162C263.038 215.547 263.231 216.044 263.234 216.654C263.237 217.154 263.095 217.601 262.809 217.997C262.527 218.392 262.13 218.704 261.62 218.934C261.11 219.164 260.516 219.28 259.838 219.284C258.947 219.288 258.21 219.098 257.625 218.715C257.039 218.331 256.667 217.768 256.509 217.027L257.78 216.702C257.903 217.172 258.134 217.523 258.472 217.756C258.814 217.989 259.26 218.104 259.809 218.102C260.434 218.099 260.93 217.964 261.296 217.697C261.666 217.426 261.85 217.103 261.848 216.728C261.847 216.425 261.739 216.172 261.526 215.969C261.313 215.761 260.987 215.608 260.547 215.507L259.091 215.173C258.29 214.988 257.702 214.697 257.325 214.301C256.952 213.901 256.764 213.4 256.761 212.798C256.759 212.306 256.895 211.87 257.17 211.489C257.448 211.109 257.827 210.81 258.307 210.592C258.791 210.374 259.34 210.263 259.953 210.26C260.817 210.256 261.496 210.442 261.99 210.819C262.488 211.195 262.843 211.693 263.054 212.314ZM268.803 222.513C268.156 222.516 267.599 222.436 267.132 222.271C266.665 222.111 266.276 221.897 265.964 221.629C265.656 221.366 265.41 221.083 265.227 220.78L266.291 220.025C266.413 220.184 266.568 220.365 266.754 220.569C266.941 220.776 267.196 220.955 267.518 221.105C267.845 221.258 268.271 221.334 268.798 221.332C269.502 221.328 270.083 221.155 270.54 220.812C270.996 220.469 271.223 219.934 271.219 219.206L271.211 217.434H271.097C271 217.594 270.86 217.791 270.68 218.027C270.503 218.259 270.246 218.467 269.91 218.65C269.577 218.83 269.127 218.921 268.559 218.924C267.854 218.927 267.221 218.763 266.659 218.433C266.1 218.102 265.657 217.619 265.328 216.984C265.003 216.35 264.838 215.578 264.834 214.669C264.83 213.775 264.983 212.996 265.294 212.331C265.606 211.663 266.041 211.146 266.599 210.779C267.158 210.409 267.805 210.223 268.54 210.219C269.108 210.216 269.559 210.309 269.894 210.497C270.232 210.681 270.49 210.892 270.669 211.129C270.852 211.363 270.993 211.556 271.093 211.707L271.229 211.706L271.222 210.32L272.518 210.314L272.561 219.291C272.564 220.041 272.397 220.651 272.058 221.123C271.723 221.598 271.27 221.947 270.7 222.169C270.132 222.395 269.5 222.51 268.803 222.513ZM268.735 217.718C269.273 217.716 269.727 217.59 270.097 217.342C270.467 217.094 270.747 216.739 270.938 216.276C271.129 215.813 271.223 215.259 271.22 214.615C271.217 213.987 271.12 213.432 270.928 212.952C270.736 212.472 270.454 212.096 270.082 211.825C269.709 211.554 269.25 211.42 268.705 211.423C268.137 211.426 267.664 211.572 267.286 211.861C266.913 212.151 266.633 212.539 266.445 213.025C266.262 213.51 266.172 214.049 266.175 214.639C266.178 215.246 266.275 215.781 266.467 216.246C266.662 216.707 266.948 217.07 267.324 217.333C267.704 217.592 268.174 217.721 268.735 217.718ZM278.56 219.194C277.773 219.198 277.08 219.013 276.484 218.641C275.891 218.269 275.427 217.747 275.09 217.074C274.757 216.401 274.589 215.614 274.584 214.713C274.58 213.804 274.741 213.009 275.067 212.33C275.397 211.65 275.857 211.121 276.446 210.744C277.039 210.366 277.729 210.175 278.517 210.171C279.305 210.167 279.995 210.352 280.588 210.724C281.184 211.096 281.649 211.62 281.982 212.297C282.318 212.973 282.489 213.766 282.493 214.675C282.498 215.576 282.335 216.365 282.005 217.041C281.678 217.717 281.219 218.244 280.626 218.621C280.037 218.999 279.348 219.19 278.56 219.194ZM278.555 217.989C279.153 217.986 279.645 217.831 280.03 217.522C280.415 217.213 280.699 216.809 280.882 216.308C281.065 215.807 281.155 215.265 281.152 214.681C281.15 214.098 281.054 213.555 280.866 213.052C280.678 212.549 280.39 212.143 280.002 211.835C279.615 211.526 279.121 211.373 278.523 211.376C277.924 211.379 277.433 211.536 277.048 211.849C276.663 212.161 276.379 212.57 276.196 213.074C276.013 213.579 275.922 214.123 275.925 214.706C275.928 215.29 276.023 215.831 276.211 216.33C276.399 216.829 276.687 217.231 277.075 217.536C277.463 217.841 277.956 217.992 278.555 217.989ZM289.534 213.346L289.54 214.596L284.449 214.62L284.443 213.37L289.534 213.346ZM292.102 218.947L292.046 207.311L296.114 207.291C296.925 207.288 297.594 207.424 298.122 207.702C298.65 207.976 299.044 208.347 299.304 208.816C299.563 209.281 299.695 209.797 299.697 210.365C299.7 210.865 299.613 211.278 299.436 211.605C299.264 211.932 299.034 212.19 298.747 212.381C298.464 212.572 298.155 212.714 297.823 212.806V212.92C298.179 212.941 298.538 213.064 298.899 213.29C299.26 213.515 299.562 213.839 299.807 214.262C300.051 214.686 300.175 215.204 300.178 215.817C300.181 216.401 300.051 216.926 299.788 217.393C299.525 217.86 299.108 218.232 298.537 218.507C297.967 218.783 297.223 218.923 296.306 218.927L292.102 218.947ZM293.505 217.69L296.3 217.677C297.221 217.673 297.873 217.491 298.258 217.134C298.647 216.772 298.84 216.335 298.837 215.824C298.835 215.43 298.733 215.067 298.531 214.734C298.328 214.398 298.041 214.131 297.669 213.932C297.297 213.729 296.857 213.629 296.349 213.631L293.486 213.645L293.505 217.69ZM293.48 212.418L296.093 212.405C296.518 212.403 296.9 212.318 297.24 212.15C297.584 211.981 297.855 211.745 298.055 211.441C298.258 211.137 298.358 210.781 298.356 210.372C298.354 209.86 298.174 209.427 297.816 209.073C297.458 208.715 296.893 208.538 296.12 208.541L293.461 208.554L293.48 212.418ZM305.986 219.062C305.145 219.066 304.419 218.884 303.807 218.516C303.2 218.144 302.729 217.623 302.397 216.955C302.068 216.282 301.901 215.499 301.897 214.605C301.892 213.711 302.051 212.922 302.374 212.239C302.7 211.552 303.156 211.015 303.741 210.63C304.33 210.241 305.019 210.044 305.807 210.04C306.261 210.038 306.71 210.112 307.154 210.261C307.598 210.411 308.003 210.655 308.368 210.994C308.733 211.329 309.025 211.775 309.244 212.331C309.462 212.887 309.574 213.572 309.577 214.386L309.58 214.954L302.853 214.986L302.847 213.827L308.211 213.802C308.209 213.309 308.108 212.87 307.909 212.485C307.714 212.1 307.436 211.796 307.075 211.574C306.718 211.352 306.297 211.243 305.812 211.245C305.278 211.248 304.817 211.382 304.428 211.649C304.043 211.913 303.747 212.255 303.541 212.676C303.334 213.098 303.232 213.549 303.235 214.03L303.238 214.803C303.242 215.462 303.358 216.02 303.587 216.477C303.821 216.931 304.142 217.276 304.553 217.512C304.963 217.745 305.439 217.86 305.98 217.858C306.333 217.856 306.651 217.805 306.934 217.706C307.222 217.602 307.469 217.449 307.676 217.247C307.884 217.042 308.044 216.787 308.156 216.484L309.453 216.841C309.319 217.281 309.091 217.669 308.771 218.004C308.451 218.335 308.054 218.594 307.581 218.782C307.109 218.966 306.577 219.06 305.986 219.062ZM312.954 213.597L312.98 218.847L311.639 218.854L311.597 210.126L312.892 210.12L312.899 211.484L313.012 211.483C313.215 211.039 313.524 210.682 313.939 210.411C314.355 210.136 314.892 209.997 315.551 209.994C316.142 209.991 316.659 210.11 317.104 210.35C317.548 210.586 317.894 210.948 318.143 211.436C318.392 211.92 318.518 212.533 318.521 213.275L318.548 218.82L317.207 218.827L317.181 213.372C317.177 212.687 316.997 212.154 316.639 211.773C316.281 211.388 315.791 211.197 315.17 211.2C314.742 211.202 314.36 211.297 314.024 211.484C313.691 211.671 313.429 211.943 313.238 212.3C313.046 212.657 312.952 213.09 312.954 213.597ZM324.658 218.973C323.817 218.977 323.091 218.795 322.479 218.427C321.871 218.054 321.401 217.534 321.068 216.865C320.739 216.192 320.573 215.409 320.568 214.515C320.564 213.621 320.723 212.833 321.046 212.149C321.372 211.462 321.828 210.926 322.413 210.54C323.002 210.151 323.69 209.955 324.478 209.951C324.933 209.949 325.382 210.022 325.826 210.172C326.27 210.321 326.674 210.565 327.04 210.905C327.405 211.24 327.697 211.686 327.915 212.241C328.134 212.797 328.245 213.482 328.249 214.297L328.252 214.865L321.525 214.897L321.519 213.738L326.883 213.712C326.88 213.22 326.78 212.781 326.581 212.395C326.386 212.01 326.108 211.706 325.747 211.485C325.39 211.263 324.969 211.153 324.484 211.156C323.95 211.158 323.488 211.293 323.1 211.56C322.714 211.823 322.419 212.165 322.212 212.587C322.006 213.008 321.904 213.46 321.906 213.941L321.91 214.713C321.913 215.372 322.03 215.931 322.259 216.388C322.492 216.841 322.814 217.186 323.224 217.423C323.634 217.656 324.11 217.771 324.652 217.768C325.004 217.767 325.322 217.716 325.606 217.616C325.893 217.512 326.141 217.36 326.348 217.158C326.555 216.952 326.715 216.698 326.827 216.394L328.125 216.752C327.99 217.192 327.763 217.579 327.443 217.914C327.122 218.245 326.726 218.505 326.253 218.693C325.781 218.877 325.249 218.97 324.658 218.973ZM334.155 210.018L334.16 211.155L329.456 211.177L329.45 210.041L334.155 210.018ZM330.901 218.761L330.854 208.83C330.851 208.33 330.967 207.912 331.2 207.578C331.433 207.243 331.737 206.992 332.111 206.823C332.485 206.655 332.881 206.57 333.297 206.568C333.627 206.566 333.896 206.591 334.105 206.643C334.313 206.695 334.469 206.744 334.571 206.789L334.19 207.95C334.122 207.927 334.027 207.9 333.906 207.866C333.788 207.832 333.633 207.816 333.44 207.817C332.997 207.819 332.677 207.933 332.481 208.157C332.289 208.381 332.194 208.709 332.196 209.141L332.242 218.755L330.901 218.761ZM336.076 218.736L336.034 210.009L337.375 210.003L337.417 218.73L336.076 218.736ZM336.709 208.551C336.448 208.553 336.222 208.465 336.032 208.288C335.845 208.111 335.751 207.897 335.75 207.647C335.749 207.397 335.841 207.183 336.025 207.004C336.214 206.825 336.439 206.735 336.7 206.733C336.962 206.732 337.185 206.82 337.372 206.997C337.562 207.174 337.658 207.388 337.659 207.638C337.66 207.888 337.567 208.102 337.378 208.281C337.193 208.46 336.97 208.55 336.709 208.551ZM343.419 218.883C342.601 218.887 341.895 218.697 341.303 218.314C340.71 217.93 340.253 217.4 339.931 216.724C339.61 216.047 339.447 215.273 339.443 214.402C339.439 213.516 339.598 212.733 339.92 212.053C340.247 211.37 340.702 210.835 341.288 210.45C341.877 210.061 342.565 209.864 343.353 209.861C343.967 209.858 344.52 209.969 345.014 210.194C345.507 210.418 345.912 210.735 346.229 211.142C346.545 211.55 346.742 212.026 346.821 212.571L345.48 212.578C345.376 212.18 345.147 211.829 344.793 211.524C344.443 211.215 343.972 211.062 343.382 211.065C342.859 211.067 342.401 211.206 342.009 211.481C341.62 211.751 341.317 212.134 341.099 212.627C340.886 213.117 340.78 213.691 340.784 214.35C340.787 215.024 340.896 215.611 341.11 216.11C341.329 216.609 341.633 216.996 342.025 217.27C342.42 217.545 342.883 217.681 343.413 217.679C343.762 217.677 344.078 217.615 344.361 217.492C344.645 217.37 344.884 217.194 345.08 216.966C345.276 216.738 345.415 216.464 345.497 216.146L346.838 216.139C346.764 216.655 346.579 217.12 346.282 217.534C345.988 217.945 345.598 218.272 345.11 218.517C344.627 218.758 344.063 218.88 343.419 218.883ZM348.81 218.675L348.768 209.948L350.109 209.942L350.151 218.669L348.81 218.675ZM349.443 208.49C349.182 208.492 348.956 208.404 348.766 208.227C348.579 208.05 348.485 207.836 348.484 207.586C348.483 207.336 348.575 207.121 348.76 206.943C348.948 206.764 349.173 206.674 349.434 206.672C349.696 206.671 349.92 206.759 350.106 206.936C350.296 207.113 350.392 207.327 350.393 207.577C350.395 207.827 350.301 208.041 350.112 208.22C349.928 208.399 349.705 208.489 349.443 208.49ZM356.153 218.822C355.365 218.826 354.673 218.642 354.077 218.269C353.484 217.897 353.019 217.375 352.683 216.702C352.35 216.03 352.181 215.243 352.177 214.341C352.173 213.432 352.334 212.638 352.66 211.958C352.99 211.278 353.45 210.75 354.039 210.372C354.632 209.994 355.322 209.803 356.11 209.799C356.898 209.796 357.588 209.98 358.181 210.352C358.777 210.724 359.242 211.248 359.575 211.925C359.911 212.601 360.082 213.394 360.086 214.303C360.09 215.205 359.928 215.993 359.598 216.669C359.271 217.345 358.812 217.872 358.219 218.25C357.63 218.627 356.941 218.818 356.153 218.822ZM356.147 217.618C356.746 217.615 357.238 217.459 357.623 217.15C358.007 216.842 358.291 216.437 358.475 215.936C358.658 215.435 358.748 214.893 358.745 214.31C358.742 213.726 358.647 213.183 358.459 212.68C358.271 212.177 357.983 211.772 357.595 211.463C357.207 211.154 356.714 211.001 356.116 211.004C355.517 211.007 355.026 211.164 354.641 211.477C354.256 211.789 353.972 212.198 353.789 212.703C353.605 213.207 353.515 213.751 353.518 214.335C353.521 214.918 353.616 215.459 353.804 215.958C353.992 216.457 354.28 216.859 354.668 217.164C355.056 217.469 355.549 217.62 356.147 217.618Z" fill="white"/>
<path d="M162.867 77.9628L162.728 48.8722L164.591 48.8633L164.731 77.9539L162.867 77.9628ZM167.717 58.4507C167.621 57.5345 167.228 56.8242 166.536 56.32C165.844 55.8157 164.907 55.5664 163.726 55.5721C162.923 55.5759 162.245 55.6928 161.693 55.9227C161.141 56.145 160.718 56.4539 160.425 56.8492C160.139 57.2446 159.997 57.6922 159.999 58.1922C159.986 58.6089 160.075 58.9722 160.266 59.2819C160.464 59.5915 160.735 59.8592 161.077 60.0848C161.419 60.3029 161.813 60.4941 162.261 60.6587C162.709 60.8156 163.187 60.9497 163.695 61.0609L165.788 61.5509C166.805 61.7733 167.738 62.0718 168.588 62.4466C169.438 62.8213 170.175 63.2837 170.799 63.8337C171.423 64.3838 171.907 65.033 172.252 65.7813C172.604 66.5296 172.786 67.3886 172.798 68.3583C172.798 69.7825 172.44 71.0191 171.725 72.068C171.018 73.1093 169.992 73.921 168.646 74.5032C167.308 75.0778 165.692 75.3697 163.798 75.3788C161.919 75.3878 160.281 75.1077 158.885 74.5386C157.495 73.9695 156.408 73.1225 155.622 71.9974C154.844 70.8648 154.432 69.4614 154.386 67.7874L159.148 67.7646C159.204 68.5446 159.431 69.1951 159.827 69.7159C160.231 70.2291 160.767 70.6167 161.435 70.8787C162.111 71.133 162.873 71.2581 163.721 71.2541C164.554 71.2501 165.277 71.1254 165.89 70.88C166.51 70.6346 166.989 70.2952 167.328 69.8618C167.667 69.4283 167.835 68.9313 167.832 68.3707C167.83 67.848 167.672 67.4093 167.36 67.0548C167.055 66.7002 166.607 66.3993 166.015 66.1521C165.43 65.9049 164.713 65.6811 163.864 65.4806L161.327 64.8564C159.362 64.3885 157.81 63.6497 156.668 62.64C155.527 61.6303 154.956 60.2656 154.956 58.5459C154.941 57.1369 155.31 55.904 156.063 54.8474C156.823 53.7907 157.868 52.9637 159.199 52.3664C160.529 51.7691 162.043 51.4664 163.74 51.4583C165.467 51.45 166.976 51.7383 168.267 52.323C169.565 52.9077 170.577 53.7248 171.301 54.7744C172.026 55.824 172.403 57.0419 172.433 58.4281L167.717 58.4507Z" fill="white"/>
</g>
<defs>
<clipPath id="clip0_77_504">
<rect width="590" height="386" fill="white"/>
</clipPath>
</defs>
</svg>
