<svg width="562" height="389" viewBox="0 0 562 389" fill="none" xmlns="http://www.w3.org/2000/svg">
<g clip-path="url(#clip0_145_1032)">
<path d="M562 0H1V380H562V0Z" fill="#0F62FE" fill-opacity="0.1"/>
<path d="M163 0L163 382" stroke="black" stroke-width="2" stroke-dasharray="10 10"/>
<path d="M565.5 203L535.672 203.932L548.757 227.522L565.5 203ZM1.11987 380.048C288.348 340.775 483.684 248.881 545.631 216.521L543.464 212.382C481.957 244.513 287.286 336.127 0.895767 375.286L1.11987 380.048Z" fill="#FF0000"/>
<path d="M562 349.655L540.152 330.761L534.736 359.109L562 349.655ZM5.15802 191.121C128.176 269.541 190.545 295.469 257.976 308.387C291.59 314.827 326.453 318.03 370.55 322.947C414.686 327.868 468.242 334.522 539.455 347.867L540.37 342.952C468.993 329.577 415.305 322.907 371.098 317.978C326.852 313.044 292.275 309.869 258.911 303.477C192.382 290.731 130.635 265.183 7.84204 186.906L5.15802 191.121Z" fill="white"/>
<path d="M552.5 18L522.832 18.5414L540.856 42.3424L552.5 18ZM5.83593 149.073C3.88301 150.457 3.8855 150.46 3.88811 150.463C3.88914 150.464 3.89187 150.467 3.89394 150.469C3.89806 150.474 3.90268 150.479 3.90778 150.485C3.91799 150.497 3.93016 150.51 3.94433 150.526C3.97268 150.558 4.00905 150.598 4.05376 150.645C4.1432 150.741 4.26599 150.868 4.4248 151.024C4.74248 151.337 5.20385 151.765 5.83015 152.287C7.08325 153.332 8.99278 154.753 11.7273 156.379C17.1975 159.633 25.9493 163.702 39.327 167.258C66.0622 174.364 111.342 179.44 186.043 171.827L184.957 167.039C110.658 174.611 66.1057 169.507 40.2589 162.637C27.3456 159.205 19.1189 155.336 14.1833 152.4C11.715 150.932 10.0648 149.694 9.05893 148.855C8.55574 148.435 8.21281 148.114 8.00855 147.913C7.90639 147.813 7.83881 147.742 7.80311 147.704C7.78526 147.685 7.77537 147.674 7.77311 147.672C7.77198 147.67 7.77275 147.671 7.77539 147.674C7.77671 147.676 7.77849 147.678 7.78074 147.68C7.78186 147.682 7.78389 147.684 7.78445 147.685C7.78659 147.687 7.78885 147.69 5.83593 149.073ZM186.043 171.827C247.9 165.523 321.35 138.547 386.163 109.146C451.035 79.719 507.502 47.7469 535.443 31.2752L532.358 27.1308C504.491 43.5588 448.179 75.4419 383.515 104.775C318.791 134.135 245.945 160.824 184.957 167.039L186.043 171.827Z" fill="#0F62FE"/>
<path d="M175 171.047C175 178.354 169.329 184.14 162.5 184.14C155.671 184.14 150 178.354 150 171.047C150 163.741 155.671 157.955 162.5 157.955C169.329 157.955 175 163.741 175 171.047Z" fill="black" stroke="black" stroke-width="4"/>
<path d="M3 0L3.00002 379.626" stroke="black" stroke-width="4"/>
<path d="M562 381.626H1" stroke="black" stroke-width="4"/>
</g>
<defs>
<clipPath id="clip0_145_1032">
<rect width="562" height="389" fill="white"/>
</clipPath>
</defs>
</svg>
