<svg width="480" height="475" viewBox="0 0 480 475" fill="none" xmlns="http://www.w3.org/2000/svg">
<path d="M15 248.88L15 252.471L3.36364 252.471L3.36364 248.721C3.36364 247.592 3.59659 246.626 4.0625 245.823C4.52462 245.02 5.18939 244.405 6.05682 243.976C6.92045 243.548 7.95454 243.334 9.15909 243.334C10.3712 243.334 11.4148 243.55 12.2898 243.982C13.161 244.414 13.8314 245.043 14.3011 245.869C14.767 246.694 15 247.698 15 248.88ZM13.75 251.062L13.75 248.971C13.75 248.009 13.5644 247.211 13.1932 246.579C12.822 245.946 12.2936 245.475 11.608 245.164C10.9223 244.853 10.1061 244.698 9.15909 244.698C8.2197 244.698 7.41098 244.851 6.73295 245.158C6.05114 245.465 5.52841 245.923 5.16477 246.533C4.79735 247.143 4.61364 247.903 4.61364 248.812L4.61364 251.062L13.75 251.062ZM15 240.971L3.36364 240.971L3.36364 233.948L4.61364 233.948L4.61364 239.562L8.54545 239.562L8.54545 234.312L9.79545 234.312L9.79545 239.562L13.75 239.562L13.75 233.857L15 233.857L15 240.971ZM3.36363 222.181L15 222.181L15 223.545L5.86363 229.886L5.86363 229.999L15 229.999L15 231.408L3.36364 231.408L3.36363 230.045L12.5227 223.681L12.5227 223.567L3.36363 223.567L3.36363 222.181ZM6.27273 212.998C5.69697 213.066 5.25 213.342 4.93182 213.827C4.61363 214.312 4.45454 214.907 4.45454 215.611C4.45454 216.127 4.53788 216.577 4.70454 216.964C4.87121 217.346 5.10038 217.646 5.39204 217.861C5.68371 218.074 6.01515 218.18 6.38636 218.18C6.69697 218.18 6.96401 218.106 7.1875 217.958C7.4072 217.806 7.59091 217.613 7.73863 217.378C7.88257 217.144 8.00189 216.897 8.09659 216.64C8.1875 216.382 8.26136 216.146 8.31818 215.93L8.63636 214.748C8.71591 214.445 8.82576 214.108 8.96591 213.736C9.10606 213.361 9.29735 213.003 9.53977 212.663C9.77841 212.318 10.0852 212.034 10.4602 211.81C10.8352 211.587 11.2955 211.475 11.8409 211.475C12.4697 211.475 13.0379 211.64 13.5455 211.969C14.053 212.295 14.4564 212.772 14.7557 213.401C15.0549 214.026 15.2045 214.786 15.2045 215.68C15.2045 216.513 15.0701 217.235 14.8011 217.844C14.5322 218.45 14.1572 218.928 13.6761 219.276C13.1951 219.621 12.6364 219.816 12 219.861L12 218.407C12.4394 218.369 12.803 218.221 13.0909 217.964C13.375 217.702 13.5871 217.373 13.7273 216.975C13.8636 216.574 13.9318 216.142 13.9318 215.68C13.9318 215.142 13.8447 214.659 13.6705 214.231C13.4924 213.803 13.2462 213.464 12.9318 213.214C12.6136 212.964 12.2424 212.839 11.8182 212.839C11.4318 212.839 11.1174 212.947 10.875 213.163C10.6326 213.378 10.4356 213.663 10.2841 214.015C10.1326 214.367 10 214.748 9.88636 215.157L9.47727 216.589C9.21591 217.498 8.8428 218.217 8.35795 218.748C7.8731 219.278 7.23863 219.543 6.45454 219.543C5.80303 219.543 5.23485 219.367 4.75 219.015C4.26136 218.659 3.88257 218.181 3.61363 217.583C3.34091 216.981 3.20454 216.308 3.20454 215.566C3.20454 214.816 3.33901 214.149 3.60795 213.566C3.8731 212.983 4.23674 212.521 4.69886 212.18C5.16098 211.835 5.6856 211.653 6.27273 211.634L6.27273 212.998ZM3.36363 207.749L15 207.749L15 209.158L3.36363 209.158L3.36363 207.749ZM15 201.333L15 204.924L3.36363 204.924L3.36363 201.174C3.36363 200.045 3.59659 199.079 4.0625 198.276C4.52462 197.473 5.18939 196.858 6.05682 196.43C6.92045 196.002 7.95454 195.788 9.15909 195.788C10.3712 195.788 11.4148 196.003 12.2898 196.435C13.161 196.867 13.8314 197.496 14.3011 198.322C14.767 199.147 15 200.151 15 201.333ZM13.75 203.515L13.75 201.424C13.75 200.462 13.5644 199.664 13.1932 199.032C12.822 198.399 12.2936 197.928 11.608 197.617C10.9223 197.306 10.1061 197.151 9.15909 197.151C8.21969 197.151 7.41098 197.305 6.73295 197.611C6.05113 197.918 5.52841 198.377 5.16477 198.986C4.79735 199.596 4.61363 200.356 4.61363 201.265L4.61363 203.515L13.75 203.515ZM15 193.494L15 194.971L3.36363 190.698L3.36363 189.244L15 184.971L15 186.448L5.20454 189.925L5.20454 190.016L15 193.494ZM10.4545 192.948L10.4545 186.994L11.7045 186.994L11.7045 192.948L10.4545 192.948ZM15 179.567L15 183.158L3.36363 183.158L3.36363 179.408C3.36363 178.28 3.59659 177.314 4.0625 176.511C4.52462 175.708 5.18939 175.092 6.05681 174.664C6.92045 174.236 7.95454 174.022 9.15909 174.022C10.3712 174.022 11.4148 174.238 12.2898 174.67C13.161 175.101 13.8314 175.73 14.3011 176.556C14.767 177.382 15 178.386 15 179.567ZM13.75 181.749L13.75 179.658C13.75 178.696 13.5644 177.899 13.1932 177.266C12.822 176.634 12.2936 176.162 11.608 175.851C10.9223 175.541 10.1061 175.386 9.15909 175.386C8.21969 175.386 7.41098 175.539 6.73295 175.846C6.05113 176.153 5.52841 176.611 5.16477 177.221C4.79734 177.831 4.61363 178.59 4.61363 179.499L4.61363 181.749L13.75 181.749Z" fill="black"/>
<path d="M252 470.88H248.409V459.244H252.159C253.288 459.244 254.254 459.476 255.057 459.942C255.86 460.405 256.475 461.069 256.903 461.937C257.331 462.8 257.545 463.834 257.545 465.039C257.545 466.251 257.33 467.295 256.898 468.17C256.466 469.041 255.837 469.711 255.011 470.181C254.186 470.647 253.182 470.88 252 470.88ZM249.818 469.63H251.909C252.871 469.63 253.669 469.444 254.301 469.073C254.934 468.702 255.405 468.173 255.716 467.488C256.027 466.802 256.182 465.986 256.182 465.039C256.182 464.1 256.028 463.291 255.722 462.613C255.415 461.931 254.956 461.408 254.347 461.045C253.737 460.677 252.977 460.494 252.068 460.494H249.818V469.63ZM259.839 470.88H258.362L262.635 459.244H264.089L268.362 470.88H266.885L263.408 461.084H263.317L259.839 470.88ZM260.385 466.334H266.339V467.584H260.385V466.334ZM268.179 460.494V459.244H276.906V460.494H273.247V470.88H271.838V460.494H268.179ZM278.199 470.88H276.722L280.994 459.244H282.449L286.722 470.88H285.244L281.767 461.084H281.676L278.199 470.88ZM278.744 466.334H284.699V467.584H278.744V466.334Z" fill="black"/>
<mask id="mask0_142_38" style="mask-type:luminance" maskUnits="userSpaceOnUse" x="33" y="0" width="447" height="444">
<path d="M34.5 442.02V1.5H477.9V442.02H34.5Z" fill="white" stroke="white" stroke-width="3"/>
</mask>
<g mask="url(#mask0_142_38)">
<mask id="mask1_142_38" style="mask-type:luminance" maskUnits="userSpaceOnUse" x="33" y="0" width="447" height="444">
<path d="M479.4 0H33V443.52H479.4V0Z" fill="white"/>
</mask>
<g mask="url(#mask1_142_38)">
<path d="M53.291 443.52H73.5819V269.701H53.291V443.52Z" stroke="#0F62FE" stroke-width="3"/>
</g>
<mask id="mask2_142_38" style="mask-type:luminance" maskUnits="userSpaceOnUse" x="33" y="0" width="447" height="444">
<path d="M479.4 0H33V443.52H479.4V0Z" fill="white"/>
</mask>
<g mask="url(#mask2_142_38)">
<path d="M73.582 443.52H93.8729V188.113H73.582V443.52Z" stroke="#0F62FE" stroke-width="3"/>
</g>
<mask id="mask3_142_38" style="mask-type:luminance" maskUnits="userSpaceOnUse" x="33" y="0" width="447" height="444">
<path d="M479.4 0H33V443.52H479.4V0Z" fill="white"/>
</mask>
<g mask="url(#mask3_142_38)">
<path d="M93.8726 443.52H114.163V85.2412H93.8726V443.52Z" stroke="#0F62FE" stroke-width="3"/>
</g>
<mask id="mask4_142_38" style="mask-type:luminance" maskUnits="userSpaceOnUse" x="33" y="0" width="447" height="444">
<path d="M479.4 0H33V443.52H479.4V0Z" fill="white"/>
</mask>
<g mask="url(#mask4_142_38)">
<path d="M114.164 443.52H134.454V46.2207H114.164V443.52Z" stroke="#0F62FE" stroke-width="3"/>
</g>
<mask id="mask5_142_38" style="mask-type:luminance" maskUnits="userSpaceOnUse" x="33" y="0" width="447" height="444">
<path d="M479.4 0H33V443.52H479.4V0Z" fill="white"/>
</mask>
<g mask="url(#mask5_142_38)">
<path d="M134.455 443.52H154.746V24.937H134.455V443.52Z" stroke="#0F62FE" stroke-width="3"/>
</g>
<mask id="mask6_142_38" style="mask-type:luminance" maskUnits="userSpaceOnUse" x="33" y="0" width="447" height="444">
<path d="M479.4 0H33V443.52H479.4V0Z" fill="white"/>
</mask>
<g mask="url(#mask6_142_38)">
<path d="M154.746 443.52H175.036V56.8628H154.746V443.52Z" stroke="#0F62FE" stroke-width="3"/>
</g>
<mask id="mask7_142_38" style="mask-type:luminance" maskUnits="userSpaceOnUse" x="33" y="0" width="447" height="444">
<path d="M479.4 0H33V443.52H479.4V0Z" fill="white"/>
</mask>
<g mask="url(#mask7_142_38)">
<path d="M175.036 443.52H195.327V42.6733H175.036V443.52Z" stroke="#0F62FE" stroke-width="3"/>
</g>
<mask id="mask8_142_38" style="mask-type:luminance" maskUnits="userSpaceOnUse" x="33" y="0" width="447" height="444">
<path d="M479.4 0H33V443.52H479.4V0Z" fill="white"/>
</mask>
<g mask="url(#mask8_142_38)">
<path d="M195.327 443.52H215.618V163.282H195.327V443.52Z" stroke="#0F62FE" stroke-width="3"/>
</g>
<mask id="mask9_142_38" style="mask-type:luminance" maskUnits="userSpaceOnUse" x="33" y="0" width="447" height="444">
<path d="M479.4 0H33V443.52H479.4V0Z" fill="white"/>
</mask>
<g mask="url(#mask9_142_38)">
<path d="M215.618 443.52H235.909V202.303H215.618V443.52Z" stroke="#0F62FE" stroke-width="3"/>
</g>
<mask id="mask10_142_38" style="mask-type:luminance" maskUnits="userSpaceOnUse" x="33" y="0" width="447" height="444">
<path d="M479.4 0H33V443.52H479.4V0Z" fill="white"/>
</mask>
<g mask="url(#mask10_142_38)">
<path d="M235.909 443.52H256.2V266.154H235.909V443.52Z" stroke="#0F62FE" stroke-width="3"/>
</g>
<mask id="mask11_142_38" style="mask-type:luminance" maskUnits="userSpaceOnUse" x="33" y="0" width="447" height="444">
<path d="M479.4 0H33V443.52H479.4V0Z" fill="white"/>
</mask>
<g mask="url(#mask11_142_38)">
<path d="M256.2 443.52H276.491V276.796H256.2V443.52Z" stroke="#0F62FE" stroke-width="3"/>
</g>
<mask id="mask12_142_38" style="mask-type:luminance" maskUnits="userSpaceOnUse" x="33" y="0" width="447" height="444">
<path d="M479.4 0H33V443.52H479.4V0Z" fill="white"/>
</mask>
<g mask="url(#mask12_142_38)">
<path d="M276.491 443.52H296.782V305.175H276.491V443.52Z" stroke="#0F62FE" stroke-width="3"/>
</g>
<mask id="mask13_142_38" style="mask-type:luminance" maskUnits="userSpaceOnUse" x="33" y="0" width="447" height="444">
<path d="M479.4 0H33V443.52H479.4V0Z" fill="white"/>
</mask>
<g mask="url(#mask13_142_38)">
<path d="M296.782 443.52H317.073V386.763H296.782V443.52Z" stroke="#0F62FE" stroke-width="3"/>
</g>
<mask id="mask14_142_38" style="mask-type:luminance" maskUnits="userSpaceOnUse" x="33" y="0" width="447" height="444">
<path d="M479.4 0H33V443.52H479.4V0Z" fill="white"/>
</mask>
<g mask="url(#mask14_142_38)">
<path d="M317.073 443.52H337.364V418.688H317.073V443.52Z" stroke="#0F62FE" stroke-width="3"/>
</g>
<mask id="mask15_142_38" style="mask-type:luminance" maskUnits="userSpaceOnUse" x="33" y="0" width="447" height="444">
<path d="M479.4 0H33V443.52H479.4V0Z" fill="white"/>
</mask>
<g mask="url(#mask15_142_38)">
<path d="M337.364 443.52H357.655V393.857H337.364V443.52Z" stroke="#0F62FE" stroke-width="3"/>
</g>
<path d="M33.0005 443.521H37.6672H33.0005Z" fill="black"/>
<path d="M33.0005 443.521H37.6672" stroke="black" stroke-width="3"/>
<path d="M33.0005 394.024H37.6672H33.0005Z" fill="black"/>
<path d="M33.0005 394.024H37.6672" stroke="black" stroke-width="3"/>
<path d="M33.0005 344.528H37.6672H33.0005Z" fill="black"/>
<path d="M33.0005 344.528H37.6672" stroke="black" stroke-width="3"/>
<path d="M33.0005 295.032H37.6672H33.0005Z" fill="black"/>
<path d="M33.0005 295.032H37.6672" stroke="black" stroke-width="3"/>
<path d="M33.0005 245.536H37.6672H33.0005Z" fill="black"/>
<path d="M33.0005 245.536H37.6672" stroke="black" stroke-width="3"/>
<path d="M33.0005 196.041H37.6672H33.0005Z" fill="black"/>
<path d="M33.0005 196.041H37.6672" stroke="black" stroke-width="3"/>
<path d="M33.0005 146.545H37.6672H33.0005Z" fill="black"/>
<path d="M33.0005 146.545H37.6672" stroke="black" stroke-width="3"/>
<path d="M33.0005 97.0488H37.6672H33.0005Z" fill="black"/>
<path d="M33.0005 97.0488H37.6672" stroke="black" stroke-width="3"/>
<path d="M33.0005 47.5532H37.6672H33.0005Z" fill="black"/>
<path d="M33.0005 47.5532H37.6672" stroke="black" stroke-width="3"/>
<path d="M63.4365 304.196L83.7274 183.833L104.018 93.3125L124.309 38.8475L144.6 21.1201L164.891 35.7526L185.182 74.8471L205.473 128.97L225.764 189.021L246.055 247.595L266.346 299.655L286.637 342.581L306.927 375.755L327.218 399.942L347.509 416.654L367.8 427.629L388.091 434.497L408.382 438.6L428.673 440.942L448.964 442.222" stroke="#FF0000" stroke-width="3" stroke-linecap="square"/>
<path d="M33 443.52V0" stroke="black" stroke-width="3" stroke-linecap="square"/>
<path d="M33 443.521H479.4" stroke="black" stroke-width="3" stroke-linecap="square"/>
<path opacity="0.8" d="M317.296 115H459.547C461.448 115 462.398 114.05 462.398 112.149V71.7307C462.398 69.8301 461.448 68.8799 459.547 68.8799H317.296C315.396 68.8799 314.445 69.8301 314.445 71.7307V112.149C314.445 114.05 315.396 115 317.296 115Z" stroke="black" stroke-width="2"/>
<path d="M325.333 88.3446H352V79.0112H325.333V88.3446Z" stroke="#0F62FE" stroke-width="3"/>
<path d="M365.29 79.7051V87.2635H366.879C368.221 87.2635 369.203 86.96 369.825 86.3531C370.447 85.7447 370.758 84.785 370.758 83.4739C370.758 82.1725 370.447 81.219 369.825 80.6135C369.203 80.0079 368.221 79.7051 366.879 79.7051H365.29ZM363.975 78.6239H366.677C368.561 78.6239 369.942 79.0156 370.823 79.7989C371.705 80.5822 372.146 81.8072 372.146 83.4739C372.146 85.1503 371.703 86.3815 370.817 87.1676C369.932 87.9524 368.552 88.3447 366.677 88.3447H363.975V78.6239Z" fill="black"/>
<path d="M377.505 84.68C376.537 84.68 375.866 84.7904 375.492 85.0113C375.119 85.2321 374.932 85.6099 374.932 86.1446C374.932 86.5696 375.072 86.9071 375.353 87.1571C375.633 87.4057 376.014 87.53 376.494 87.53C377.16 87.53 377.693 87.2946 378.094 86.8238C378.496 86.3529 378.696 85.7272 378.696 84.9467V84.68H377.505ZM379.894 84.1842V88.3446H378.696V87.2383C378.423 87.68 378.082 88.0064 377.673 88.2175C377.265 88.4286 376.766 88.5342 376.176 88.5342C375.43 88.5342 374.836 88.3245 374.394 87.905C373.954 87.4856 373.734 86.9245 373.734 86.2217C373.734 85.4022 374.008 84.7842 374.557 84.3675C375.107 83.9508 375.926 83.7425 377.015 83.7425H378.696V83.6238C378.696 83.0724 378.515 82.646 378.153 82.3446C377.79 82.0432 377.281 81.8925 376.626 81.8925C376.209 81.8925 375.803 81.9425 375.407 82.0425C375.012 82.1425 374.633 82.2925 374.269 82.4925V81.3842C374.707 81.2147 375.132 81.0883 375.544 81.005C375.957 80.9203 376.358 80.8779 376.748 80.8779C377.804 80.8779 378.592 81.1515 379.113 81.6988C379.634 82.2446 379.894 83.0731 379.894 84.1842Z" fill="black"/>
<path d="M383.546 78.9822V81.0531H386.012V81.9843H383.546V85.9426C383.546 86.5371 383.627 86.919 383.789 87.0885C383.952 87.2579 384.283 87.3426 384.783 87.3426H386.012V88.3447H384.783C383.858 88.3447 383.22 88.1725 382.869 87.8281C382.517 87.4822 382.342 86.8538 382.342 85.9426V81.9843H381.462V81.0531H382.342V78.9822H383.546Z" fill="black"/>
<path d="M390.903 84.68C389.935 84.68 389.264 84.7904 388.891 85.0113C388.517 85.2321 388.33 85.6099 388.33 86.1446C388.33 86.5696 388.471 86.9071 388.751 87.1571C389.032 87.4057 389.412 87.53 389.893 87.53C390.558 87.53 391.091 87.2946 391.493 86.8238C391.894 86.3529 392.095 85.7272 392.095 84.9467V84.68H390.903ZM393.293 84.1842V88.3446H392.095V87.2383C391.821 87.68 391.48 88.0064 391.072 88.2175C390.664 88.4286 390.164 88.5342 389.574 88.5342C388.828 88.5342 388.234 88.3245 387.793 87.905C387.352 87.4856 387.132 86.9245 387.132 86.2217C387.132 85.4022 387.407 84.7842 387.955 84.3675C388.505 83.9508 389.325 83.7425 390.414 83.7425H392.095V83.6238C392.095 83.0724 391.914 82.646 391.551 82.3446C391.189 82.0432 390.68 81.8925 390.024 81.8925C389.607 81.8925 389.201 81.9425 388.805 82.0425C388.411 82.1425 388.032 82.2925 387.668 82.4925V81.3842C388.105 81.2147 388.53 81.0883 388.943 81.005C389.355 80.9203 389.757 80.8779 390.147 80.8779C391.202 80.8779 391.991 81.1515 392.511 81.6988C393.032 82.2446 393.293 83.0731 393.293 84.1842Z" fill="black"/>
<path d="M325.333 103.249H338.667H352" stroke="#FF0000" stroke-width="3" stroke-linecap="square"/>
<path d="M363.975 98.1947H369.561V99.303H365.29V102.168H369.144V103.274H365.29V107.916H363.975V98.1947Z" fill="black"/>
<path d="M370.625 100.624H371.823V107.916H370.625V100.624ZM370.625 97.7843H371.823V99.303H370.625V97.7843Z" fill="black"/>
<path d="M375.515 98.553V100.624H377.982V101.555H375.515V105.513C375.515 106.108 375.597 106.49 375.759 106.659C375.922 106.829 376.253 106.913 376.753 106.913H377.982V107.916H376.753C375.828 107.916 375.19 107.743 374.838 107.399C374.487 107.053 374.311 106.425 374.311 105.513V101.555H373.432V100.624H374.311V98.553H375.515Z" fill="black"/>
<path d="M380.743 98.553V100.624H383.21V101.555H380.743V105.513C380.743 106.108 380.825 106.49 380.987 106.659C381.15 106.829 381.481 106.913 381.981 106.913H383.21V107.916H381.981C381.056 107.916 380.418 107.743 380.066 107.399C379.715 107.053 379.539 106.425 379.539 105.513V101.555H378.66V100.624H379.539V98.553H380.743Z" fill="black"/>
<path d="M391.023 103.97V104.555H385.515C385.568 105.38 385.817 106.008 386.261 106.44C386.705 106.872 387.325 107.088 388.119 107.088C388.579 107.088 389.025 107.032 389.457 106.92C389.889 106.807 390.318 106.638 390.744 106.411V107.545C390.314 107.727 389.873 107.865 389.421 107.961C388.97 108.057 388.512 108.105 388.048 108.105C386.885 108.105 385.963 107.767 385.284 107.09C384.605 106.413 384.265 105.496 384.265 104.34C384.265 103.147 384.587 102.201 385.232 101.501C385.876 100.799 386.746 100.449 387.84 100.449C388.821 100.449 389.596 100.765 390.167 101.397C390.738 102.027 391.023 102.885 391.023 103.97ZM389.826 103.617C389.817 102.963 389.634 102.441 389.276 102.051C388.917 101.659 388.443 101.463 387.853 101.463C387.185 101.463 386.65 101.652 386.248 102.03C385.847 102.408 385.616 102.94 385.555 103.626L389.826 103.617Z" fill="black"/>
<path d="M397.787 101.73V97.7841H398.985V107.915H397.787V106.822C397.536 107.255 397.218 107.577 396.833 107.788C396.45 107.999 395.988 108.105 395.45 108.105C394.569 108.105 393.852 107.754 393.297 107.051C392.745 106.347 392.468 105.422 392.468 104.276C392.468 103.13 392.745 102.206 393.297 101.503C393.852 100.8 394.569 100.449 395.45 100.449C395.988 100.449 396.45 100.554 396.833 100.765C397.218 100.975 397.536 101.297 397.787 101.73ZM393.706 104.276C393.706 105.156 393.887 105.847 394.25 106.349C394.612 106.85 395.11 107.101 395.743 107.101C396.377 107.101 396.875 106.85 397.239 106.349C397.604 105.847 397.787 105.156 397.787 104.276C397.787 103.395 397.604 102.704 397.239 102.203C396.875 101.702 396.377 101.451 395.743 101.451C395.11 101.451 394.612 101.702 394.25 102.203C393.887 102.704 393.706 103.395 393.706 104.276Z" fill="black"/>
<path d="M404.878 98.1947H406.206L408.249 106.411L410.287 98.1947H411.766L413.81 106.411L415.847 98.1947H417.183L414.741 107.916H413.087L411.037 99.478L408.966 107.916H407.312L404.878 98.1947Z" fill="black"/>
<path d="M424.329 103.97V104.555H418.82C418.873 105.38 419.122 106.008 419.566 106.44C420.011 106.872 420.63 107.088 421.424 107.088C421.884 107.088 422.33 107.032 422.762 106.92C423.194 106.807 423.623 106.638 424.049 106.411V107.545C423.619 107.727 423.178 107.865 422.727 107.961C422.275 108.057 421.818 108.105 421.354 108.105C420.19 108.105 419.268 107.767 418.589 107.09C417.91 106.413 417.57 105.496 417.57 104.34C417.57 103.147 417.893 102.201 418.537 101.501C419.181 100.799 420.051 100.449 421.145 100.449C422.126 100.449 422.902 100.765 423.472 101.397C424.043 102.027 424.329 102.885 424.329 103.97ZM423.131 103.617C423.122 102.963 422.939 102.441 422.581 102.051C422.222 101.659 421.748 101.463 421.158 101.463C420.49 101.463 419.955 101.652 419.554 102.03C419.152 102.408 418.921 102.94 418.86 103.626L423.131 103.617Z" fill="black"/>
<path d="M426.294 100.624H427.492V107.916H426.294V100.624ZM426.294 97.7843H427.492V99.303H426.294V97.7843Z" fill="black"/>
<path d="M435.234 104.276C435.234 103.395 435.053 102.704 434.69 102.203C434.328 101.702 433.83 101.451 433.196 101.451C432.562 101.451 432.063 101.702 431.701 102.203C431.338 102.704 431.157 103.395 431.157 104.276C431.157 105.156 431.338 105.847 431.701 106.349C432.063 106.85 432.562 107.101 433.196 107.101C433.83 107.101 434.328 106.85 434.69 106.349C435.053 105.847 435.234 105.156 435.234 104.276ZM431.157 101.73C431.41 101.297 431.728 100.975 432.111 100.765C432.496 100.554 432.955 100.449 433.488 100.449C434.374 100.449 435.094 100.8 435.646 101.503C436.201 102.206 436.478 103.13 436.478 104.276C436.478 105.422 436.201 106.347 435.646 107.051C435.094 107.754 434.374 108.105 433.488 108.105C432.955 108.105 432.496 107.999 432.111 107.788C431.728 107.577 431.41 107.255 431.157 106.822V107.915H429.953V97.7841H431.157V101.73Z" fill="black"/>
<path d="M438.339 105.038V100.624H439.537V104.992C439.537 105.683 439.671 106.201 439.939 106.547C440.209 106.891 440.613 107.063 441.152 107.063C441.798 107.063 442.308 106.857 442.683 106.445C443.059 106.032 443.248 105.47 443.248 104.757V100.624H444.446V107.915H443.248V106.795C442.957 107.238 442.62 107.567 442.235 107.782C441.852 107.997 441.406 108.105 440.898 108.105C440.06 108.105 439.424 107.845 438.989 107.324C438.556 106.803 438.339 106.041 438.339 105.038Z" fill="black"/>
<path d="M446.913 97.7843H448.111V107.916H446.913V97.7843Z" fill="black"/>
<path d="M450.617 97.7843H451.815V107.916H450.617V97.7843Z" fill="black"/>
</g>
</svg>
