<svg width="998" height="473" viewBox="0 0 998 473" fill="none" xmlns="http://www.w3.org/2000/svg">
<path d="M796 267.001L781.566 292.001L810.434 292.001L796 267.001ZM796 401.001L796 403.501L798.5 403.501L798.5 401.001L796 401.001ZM653 403.501L796 403.501L796 398.501L653 398.501L653 403.501ZM798.5 401.001L798.5 289.501L793.5 289.501L793.5 401.001L798.5 401.001Z" fill="black"/>
<path d="M796.5 201.501L810.934 176.501L782.067 176.501L796.5 201.501ZM796.5 58.0014L799 58.0014L799 55.5015L796.5 55.5014L796.5 58.0014ZM694.5 60.5002L796.5 60.5014L796.5 55.5014L694.5 55.5002L694.5 60.5002ZM794 58.0014L794 179.001L799 179.001L799 58.0014L794 58.0014Z" fill="black"/>
<path d="M764 232.001L739 217.567L739 246.435L764 232.001ZM629 234.501L741.5 234.501L741.5 229.501L629 229.501L629 234.501Z" fill="black"/>
<rect x="318" y="2.00098" width="109" height="109" fill="#0F62FE" fill-opacity="0.5" stroke="black" stroke-width="4"/>
<rect x="318" y="176.001" width="109" height="109" fill="#DBF0DE" stroke="black" stroke-width="4"/>
<rect x="2" y="176.001" width="109" height="109" fill="#DBF0DE" stroke="black" stroke-width="4"/>
<rect x="887" y="178.001" width="109" height="109" fill="#DBF0DE" stroke="black" stroke-width="4"/>
<rect x="314" y="342.001" width="109" height="109" fill="#FF0000" stroke="black" stroke-width="4"/>
<rect x="582" y="2.00098" width="110" height="109" fill="#0F62FE" fill-opacity="0.5" stroke="black" stroke-width="4"/>
<rect x="582" y="176.001" width="110" height="109" fill="#DBF0DE" stroke="black" stroke-width="4"/>
<rect x="578" y="342.001" width="110" height="109" fill="#DBF0DE" stroke="black" stroke-width="4"/>
<path d="M312.5 58.0016L287.5 43.5678L287.5 72.4354L312.5 58.0016ZM223 58.0015L223 55.5015L220.5 55.5015L220.5 58.0015L223 58.0015ZM225.5 226.001L225.5 58.0015L220.5 58.0015L220.5 226.001L225.5 226.001ZM223 60.5015L290 60.5016L290 55.5016L223 55.5015L223 60.5015Z" fill="black"/>
<path d="M170 232.001L145 217.567L145 246.435L170 232.001ZM113 234.501L147.5 234.501L147.5 229.501L113 229.501L113 234.501Z" fill="black"/>
<path d="M888 234.001L863 219.567L863 248.435L888 234.001ZM831 236.501L865.5 236.501L865.5 231.501L831 231.501L831 236.501Z" fill="black"/>
<path d="M309 404.001L284 389.567L284 418.435L309 404.001ZM224 404.001L221.5 404.001L221.5 406.501L224 406.501L224 404.001ZM221.5 221.001L221.5 404.001L226.5 404.001L226.5 221.001L221.5 221.001ZM224 406.501L286.5 406.501L286.5 401.501L224 401.501L224 406.501Z" fill="black"/>
<path d="M584 57.001L559 42.5672V71.4347L584 57.001ZM430 59.501H561.5V54.501H430V59.501Z" fill="black"/>
<path d="M584 232.001L559 217.567V246.435L584 232.001ZM430 234.501H561.5V229.501H430V234.501Z" fill="black"/>
<path d="M316 232.001L291 217.567V246.435L316 232.001ZM237 234.501H293.5V229.501H237V234.501Z" fill="black"/>
<path d="M577 401.001L552 386.567V415.435L577 401.001ZM423 403.501H554.5V398.501H423V403.501Z" fill="black"/>
<circle cx="203.5" cy="234.501" r="31.5" fill="#DBF0DE" stroke="black" stroke-width="4"/>
<circle cx="797.5" cy="234.501" r="31.5" fill="#DBF0DE" stroke="black" stroke-width="4"/>
</svg>
