<svg width="1437" height="720" viewBox="0 0 1437 720" fill="none" xmlns="http://www.w3.org/2000/svg">
<rect x="0.5" y="0.5" width="1436" height="719" stroke="#D6D6D6" stroke-opacity="0.2"/>
<path d="M428 206L418 200.226V211.774L428 206ZM359 207H419V205H359V207Z" fill="#0F62FE"/>
<path d="M1009 516L1019 510.226V521.774L1009 516ZM1078 517H1018V515H1078V517Z" fill="#0F62FE"/>
<path d="M753 207L743 201.226V212.774L753 207ZM684 208H744V206H684V208Z" fill="#0F62FE"/>
<path d="M684 516L694 510.226V521.774L684 516ZM753 517H693V515H753V517Z" fill="#0F62FE"/>
<path d="M1078 207L1068 201.226V212.774L1078 207ZM1009 208H1069V206H1009V208Z" fill="#0F62FE"/>
<path d="M359 516L369 510.226V521.774L359 516ZM428 517H368V515H428V517Z" fill="#0F62FE"/>
<path d="M234 327L228.226 337L239.774 337L234 327ZM235 385L235 336L233 336L233 385L235 385Z" fill="#0F62FE"/>
<path d="M1207 385L1201.23 375L1212.77 375L1207 385ZM1208 327L1208 376L1206 376L1206 327L1208 327Z" fill="#0F62FE"/>
<path d="M518 385L512.226 375L523.774 375L518 385ZM519 327L519 376L517 376L517 327L519 327Z" fill="#0F62FE"/>
<path d="M598 327.25L603.774 337.25L592.226 337.25L598 327.25ZM598 342.12L599 342.12L598 342.12ZM798 352.528L798 351.528L799 351.528L799 352.528L798 352.528ZM598 352.528L598 353.528L597 353.528L597 352.528L598 352.528ZM599 336.25L599 342.12L597 342.12L597 336.25L599 336.25ZM799 352.528L799 384.25L797 384.25L797 352.528L799 352.528ZM599 342.12L599 352.528L597 352.528L597 342.12L599 342.12ZM598 351.528L798 351.528L798 353.528L598 353.528L598 351.528Z" fill="#0F62FE"/>
</svg>
