<svg width="243" height="157" viewBox="0 0 243 157" fill="none" xmlns="http://www.w3.org/2000/svg">
<rect x="151" y="17" width="18" height="20" fill="#FFD084"/>
<rect x="169" y="37" width="18" height="40" fill="#FFD084"/>
<rect x="187" y="77" width="18" height="40" fill="#FFD084"/>
<rect x="206" y="117" width="18" height="20" fill="#FFD084"/>
<rect x="224" y="137" width="18" height="20" fill="#FFD084"/>
<line x1="4.37114e-08" y1="16.5" x2="242" y2="16.5" stroke="black"/>
<line x1="4.37114e-08" y1="36.5" x2="242" y2="36.5" stroke="black"/>
<line x1="4.37114e-08" y1="56.5" x2="242" y2="56.5" stroke="black"/>
<line x1="4.37114e-08" y1="76.5" x2="242" y2="76.5" stroke="black"/>
<line x1="4.37114e-08" y1="96.5" x2="242" y2="96.5" stroke="black"/>
<line x1="4.37114e-08" y1="116.5" x2="242" y2="116.5" stroke="black"/>
<line x1="4.37114e-08" y1="136.5" x2="242" y2="136.5" stroke="black"/>
<line x1="4.37114e-08" y1="156.5" x2="242" y2="156.5" stroke="black"/>
<path d="M158.003 24.1818V30H156.773V25.3494H156.739L155.406 26.1847V25.0938L156.847 24.1818H158.003ZM162.576 25.8551C162.553 25.6259 162.456 25.4479 162.283 25.321C162.111 25.1941 161.877 25.1307 161.582 25.1307C161.381 25.1307 161.211 25.1591 161.073 25.2159C160.935 25.2708 160.829 25.3475 160.755 25.446C160.683 25.5445 160.647 25.6562 160.647 25.7812C160.643 25.8854 160.665 25.9763 160.712 26.054C160.762 26.1316 160.829 26.1989 160.914 26.2557C160.999 26.3106 161.098 26.3589 161.21 26.4006C161.321 26.4403 161.441 26.4744 161.567 26.5028L162.09 26.6278C162.344 26.6847 162.577 26.7604 162.789 26.8551C163.001 26.9498 163.185 27.0663 163.34 27.2045C163.496 27.3428 163.616 27.5057 163.701 27.6932C163.788 27.8807 163.833 28.0956 163.835 28.3381C163.833 28.6941 163.742 29.0028 163.562 29.2642C163.384 29.5237 163.126 29.7254 162.789 29.8693C162.454 30.0114 162.049 30.0824 161.576 30.0824C161.106 30.0824 160.697 30.0104 160.349 29.8665C160.002 29.7225 159.731 29.5095 159.536 29.2273C159.343 28.9432 159.242 28.5919 159.232 28.1733H160.423C160.436 28.3684 160.492 28.5312 160.59 28.6619C160.691 28.7907 160.824 28.8883 160.991 28.9545C161.159 29.0189 161.35 29.0511 161.562 29.0511C161.77 29.0511 161.951 29.0208 162.104 28.9602C162.26 28.8996 162.38 28.8153 162.465 28.7074C162.55 28.5994 162.593 28.4754 162.593 28.3352C162.593 28.2045 162.554 28.0947 162.477 28.0057C162.401 27.9167 162.289 27.8409 162.141 27.7784C161.996 27.7159 161.817 27.6591 161.604 27.608L160.971 27.4489C160.48 27.3295 160.093 27.143 159.809 26.8892C159.525 26.6354 159.384 26.2936 159.386 25.8636C159.384 25.5114 159.478 25.2036 159.667 24.9403C159.858 24.6771 160.121 24.4716 160.454 24.3239C160.787 24.1761 161.166 24.1023 161.59 24.1023C162.022 24.1023 162.399 24.1761 162.721 24.3239C163.045 24.4716 163.297 24.6771 163.477 24.9403C163.656 25.2036 163.749 25.5085 163.755 25.8551H162.576Z" fill="black"/>
<path d="M12.017 6.36364C12.017 7.13068 11.8786 7.79356 11.6016 8.35227C11.3246 8.91098 10.9446 9.34186 10.4616 9.64489C9.97869 9.94792 9.42708 10.0994 8.80682 10.0994C8.18655 10.0994 7.63494 9.94792 7.15199 9.64489C6.66903 9.34186 6.28906 8.91098 6.01207 8.35227C5.73509 7.79356 5.59659 7.13068 5.59659 6.36364C5.59659 5.59659 5.73509 4.93371 6.01207 4.375C6.28906 3.81629 6.66903 3.38542 7.15199 3.08239C7.63494 2.77936 8.18655 2.62784 8.80682 2.62784C9.42708 2.62784 9.97869 2.77936 10.4616 3.08239C10.9446 3.38542 11.3246 3.81629 11.6016 4.375C11.8786 4.93371 12.017 5.59659 12.017 6.36364ZM11.1648 6.36364C11.1648 5.7339 11.0594 5.20241 10.8487 4.76918C10.6404 4.33594 10.3575 4.00805 10 3.78551C9.64489 3.56297 9.24716 3.4517 8.80682 3.4517C8.36648 3.4517 7.96757 3.56297 7.61009 3.78551C7.25497 4.00805 6.97206 4.33594 6.76136 4.76918C6.55303 5.20241 6.44886 5.7339 6.44886 6.36364C6.44886 6.99337 6.55303 7.52486 6.76136 7.9581C6.97206 8.39134 7.25497 8.71922 7.61009 8.94176C7.96757 9.1643 8.36648 9.27557 8.80682 9.27557C9.24716 9.27557 9.64489 9.1643 10 8.94176C10.3575 8.71922 10.6404 8.39134 10.8487 7.9581C11.0594 7.52486 11.1648 6.99337 11.1648 6.36364ZM13.4979 10V2.72727H15.9553C16.5258 2.72727 16.9922 2.83026 17.3544 3.03622C17.719 3.23982 17.9889 3.51562 18.1641 3.86364C18.3393 4.21165 18.4268 4.59991 18.4268 5.02841C18.4268 5.45691 18.3393 5.84635 18.1641 6.19673C17.9912 6.54711 17.7237 6.82647 17.3615 7.0348C16.9993 7.24077 16.5353 7.34375 15.9695 7.34375H14.2081V6.5625H15.9411C16.3317 6.5625 16.6454 6.49503 16.8821 6.36009C17.1188 6.22514 17.2905 6.04285 17.397 5.81321C17.5059 5.5812 17.5604 5.3196 17.5604 5.02841C17.5604 4.73722 17.5059 4.4768 17.397 4.24716C17.2905 4.01752 17.1177 3.83759 16.8786 3.70739C16.6394 3.57481 16.3222 3.50852 15.9268 3.50852H14.3786V10H13.4979Z" fill="black"/>
<path d="M184.881 10V2.72727H189.241V3.50852H185.761V5.96591H188.915V6.74716H185.761V10H184.881ZM190.75 10V2.72727H193.207C193.775 2.72727 194.242 2.82434 194.606 3.01847C194.971 3.21023 195.241 3.47419 195.416 3.81037C195.591 4.14654 195.679 4.52888 195.679 4.95739C195.679 5.38589 195.591 5.76586 195.416 6.0973C195.241 6.42874 194.972 6.68916 194.61 6.87855C194.248 7.06558 193.785 7.15909 193.221 7.15909H191.233V6.36364H193.193C193.581 6.36364 193.894 6.30682 194.131 6.19318C194.37 6.07955 194.542 5.91856 194.649 5.71023C194.758 5.49953 194.812 5.24858 194.812 4.95739C194.812 4.66619 194.758 4.41169 194.649 4.19389C194.54 3.97609 194.366 3.808 194.127 3.68963C193.888 3.56889 193.572 3.50852 193.179 3.50852H191.631V10H190.75ZM194.173 6.73295L195.963 10H194.94L193.179 6.73295H194.173ZM197.146 10V2.72727H201.536V3.50852H198.027V5.96591H201.308V6.74716H198.027V9.21875H201.592V10H197.146ZM208.975 5H208.094C208.042 4.74669 207.951 4.52415 207.821 4.33239C207.693 4.14062 207.537 3.97964 207.352 3.84943C207.17 3.71686 206.968 3.61742 206.745 3.55114C206.522 3.48485 206.29 3.4517 206.049 3.4517C205.609 3.4517 205.21 3.56297 204.852 3.78551C204.497 4.00805 204.214 4.33594 204.004 4.76918C203.795 5.20241 203.691 5.7339 203.691 6.36364C203.691 6.99337 203.795 7.52486 204.004 7.9581C204.214 8.39134 204.497 8.71922 204.852 8.94176C205.21 9.1643 205.609 9.27557 206.049 9.27557C206.29 9.27557 206.522 9.24242 206.745 9.17614C206.968 9.10985 207.17 9.0116 207.352 8.88139C207.537 8.74882 207.693 8.58665 207.821 8.39489C207.951 8.20076 208.042 7.97822 208.094 7.72727H208.975C208.909 8.09896 208.788 8.43158 208.613 8.72514C208.438 9.0187 208.22 9.26847 207.96 9.47443C207.699 9.67803 207.407 9.8331 207.082 9.93963C206.76 10.0462 206.416 10.0994 206.049 10.0994C205.429 10.0994 204.877 9.94792 204.394 9.64489C203.911 9.34186 203.531 8.91098 203.254 8.35227C202.977 7.79356 202.839 7.13068 202.839 6.36364C202.839 5.59659 202.977 4.93371 203.254 4.375C203.531 3.81629 203.911 3.38542 204.394 3.08239C204.877 2.77936 205.429 2.62784 206.049 2.62784C206.416 2.62784 206.76 2.68111 207.082 2.78764C207.407 2.89418 207.699 3.05043 207.96 3.25639C208.22 3.45999 208.438 3.70857 208.613 4.00213C208.788 4.29332 208.909 4.62595 208.975 5Z" fill="black"/>
<path d="M54.179 10H53.2557L55.9261 2.72727H56.8352L59.5057 10H58.5824L56.4091 3.87784H56.3523L54.179 10ZM54.5199 7.15909H58.2415V7.94034H54.5199V7.15909ZM66.149 5H65.2683C65.2162 4.74669 65.1251 4.52415 64.9949 4.33239C64.867 4.14062 64.7108 3.97964 64.5261 3.84943C64.3438 3.71686 64.1414 3.61742 63.9189 3.55114C63.6963 3.48485 63.4643 3.4517 63.2228 3.4517C62.7825 3.4517 62.3836 3.56297 62.0261 3.78551C61.671 4.00805 61.3881 4.33594 61.1774 4.76918C60.969 5.20241 60.8649 5.7339 60.8649 6.36364C60.8649 6.99337 60.969 7.52486 61.1774 7.9581C61.3881 8.39134 61.671 8.71922 62.0261 8.94176C62.3836 9.1643 62.7825 9.27557 63.2228 9.27557C63.4643 9.27557 63.6963 9.24242 63.9189 9.17614C64.1414 9.10985 64.3438 9.0116 64.5261 8.88139C64.7108 8.74882 64.867 8.58665 64.9949 8.39489C65.1251 8.20076 65.2162 7.97822 65.2683 7.72727H66.149C66.0827 8.09896 65.9619 8.43158 65.7868 8.72514C65.6116 9.0187 65.3938 9.26847 65.1333 9.47443C64.8729 9.67803 64.5806 9.8331 64.2562 9.93963C63.9342 10.0462 63.5898 10.0994 63.2228 10.0994C62.6026 10.0994 62.051 9.94792 61.568 9.64489C61.085 9.34186 60.7051 8.91098 60.4281 8.35227C60.1511 7.79356 60.0126 7.13068 60.0126 6.36364C60.0126 5.59659 60.1511 4.93371 60.4281 4.375C60.7051 3.81629 61.085 3.38542 61.568 3.08239C62.051 2.77936 62.6026 2.62784 63.2228 2.62784C63.5898 2.62784 63.9342 2.68111 64.2562 2.78764C64.5806 2.89418 64.8729 3.05043 65.1333 3.25639C65.3938 3.45999 65.6116 3.70857 65.7868 4.00213C65.9619 4.29332 66.0827 4.62595 66.149 5ZM67.1744 3.50852V2.72727H72.6289V3.50852H70.342V10H69.4613V3.50852H67.1744ZM74.8688 2.72727V10H73.9881V2.72727H74.8688ZM76.9329 2.72727L79.092 8.84943H79.1772L81.3363 2.72727H82.2596L79.5891 10H78.68L76.0096 2.72727H76.9329ZM84.2731 2.72727V10H83.3924V2.72727H84.2731ZM88.2832 10H86.0389V2.72727H88.3826C89.0881 2.72727 89.6918 2.87287 90.1937 3.16406C90.6956 3.45289 91.0803 3.86837 91.3478 4.41051C91.6154 4.95028 91.7491 5.59659 91.7491 6.34943C91.7491 7.10701 91.6142 7.75923 91.3443 8.30611C91.0744 8.85062 90.6814 9.26965 90.1653 9.56321C89.6492 9.8544 89.0218 10 88.2832 10ZM86.9196 9.21875H88.2264C88.8277 9.21875 89.3261 9.10275 89.7214 8.87074C90.1168 8.63873 90.4115 8.30848 90.6056 7.87997C90.7998 7.45147 90.8968 6.94129 90.8968 6.34943C90.8968 5.76231 90.801 5.25687 90.6092 4.8331C90.4174 4.40696 90.131 4.08026 89.7498 3.85298C89.3687 3.62334 88.894 3.50852 88.3258 3.50852H86.9196V9.21875ZM93.1829 10H92.2596L94.93 2.72727H95.8391L98.5096 10H97.5863L95.413 3.87784H95.3562L93.1829 10ZM93.5238 7.15909H97.2454V7.94034H93.5238V7.15909ZM101.887 10H99.6424V2.72727H101.986C102.692 2.72727 103.295 2.87287 103.797 3.16406C104.299 3.45289 104.684 3.86837 104.951 4.41051C105.219 4.95028 105.353 5.59659 105.353 6.34943C105.353 7.10701 105.218 7.75923 104.948 8.30611C104.678 8.85062 104.285 9.26965 103.769 9.56321C103.253 9.8544 102.625 10 101.887 10ZM100.523 9.21875H101.83C102.431 9.21875 102.93 9.10275 103.325 8.87074C103.72 8.63873 104.015 8.30848 104.209 7.87997C104.403 7.45147 104.5 6.94129 104.5 6.34943C104.5 5.76231 104.404 5.25687 104.213 4.8331C104.021 4.40696 103.734 4.08026 103.353 3.85298C102.972 3.62334 102.498 3.50852 101.929 3.50852H100.523V9.21875Z" fill="black"/>
<path d="M34.7614 22.7273V30H33.8807V22.7273H34.7614ZM42.2942 22.7273V30H41.4419L37.4789 24.2898H37.4078V30H36.5272V22.7273H37.3794L41.3567 28.4517H41.4277V22.7273H42.2942ZM48.0337 24.5455C47.9911 24.1856 47.8183 23.9062 47.5153 23.7074C47.2122 23.5085 46.8406 23.4091 46.4002 23.4091C46.0782 23.4091 45.7965 23.4612 45.555 23.5653C45.3159 23.6695 45.1289 23.8127 44.994 23.995C44.8614 24.1773 44.7951 24.3845 44.7951 24.6165C44.7951 24.8106 44.8413 24.9775 44.9336 25.1172C45.0283 25.2545 45.149 25.3693 45.2958 25.4616C45.4426 25.5516 45.5965 25.6262 45.7575 25.6854C45.9184 25.7422 46.0664 25.7884 46.2013 25.8239L46.94 26.0227C47.1294 26.0724 47.3401 26.1411 47.5721 26.2287C47.8065 26.3163 48.0302 26.4358 48.2433 26.5874C48.4587 26.7365 48.6362 26.9283 48.7759 27.1626C48.9156 27.397 48.9854 27.6847 48.9854 28.0256C48.9854 28.4186 48.8825 28.7737 48.6765 29.0909C48.4729 29.4081 48.1746 29.6603 47.7816 29.8473C47.391 30.0343 46.9163 30.1278 46.3576 30.1278C45.8368 30.1278 45.3858 30.0438 45.0046 29.8757C44.6258 29.7076 44.3275 29.4732 44.1097 29.1726C43.8943 28.8719 43.7724 28.5227 43.744 28.125H44.6531C44.6767 28.3996 44.7691 28.6269 44.93 28.8068C45.0934 28.9844 45.2994 29.117 45.5479 29.2045C45.7989 29.2898 46.0688 29.3324 46.3576 29.3324C46.6938 29.3324 46.9956 29.2779 47.2631 29.169C47.5307 29.0578 47.7425 28.9039 47.8988 28.7074C48.055 28.5085 48.1332 28.2765 48.1332 28.0114C48.1332 27.7699 48.0657 27.5734 47.9308 27.4219C47.7958 27.2704 47.6183 27.1473 47.3981 27.0526C47.1779 26.9579 46.94 26.875 46.6843 26.804L45.7894 26.5483C45.2212 26.3849 44.7714 26.1518 44.44 25.8487C44.1085 25.5457 43.9428 25.1491 43.9428 24.6591C43.9428 24.2519 44.0529 23.8968 44.2731 23.5938C44.4956 23.2884 44.7939 23.0516 45.168 22.8835C45.5444 22.7131 45.9646 22.6278 46.4286 22.6278C46.8974 22.6278 47.314 22.7119 47.6786 22.88C48.0432 23.0457 48.332 23.273 48.5451 23.5618C48.7605 23.8506 48.8742 24.1785 48.886 24.5455H48.0337ZM50.4334 30V22.7273H52.8908C53.4614 22.7273 53.9277 22.8303 54.29 23.0362C54.6545 23.2398 54.9244 23.5156 55.0996 23.8636C55.2748 24.2116 55.3624 24.5999 55.3624 25.0284C55.3624 25.4569 55.2748 25.8464 55.0996 26.1967C54.9268 26.5471 54.6593 26.8265 54.2971 27.0348C53.9348 27.2408 53.4708 27.3438 52.905 27.3438H51.1436V26.5625H52.8766C53.2672 26.5625 53.5809 26.495 53.8176 26.3601C54.0544 26.2251 54.226 26.0429 54.3326 25.8132C54.4415 25.5812 54.4959 25.3196 54.4959 25.0284C54.4959 24.7372 54.4415 24.4768 54.3326 24.2472C54.226 24.0175 54.0532 23.8376 53.8141 23.7074C53.575 23.5748 53.2578 23.5085 52.8624 23.5085H51.3141V30H50.4334ZM56.7811 30V22.7273H61.1703V23.5085H57.6618V25.9659H60.943V26.7472H57.6618V29.2188H61.2271V30H56.7811ZM68.6099 25H67.7292C67.6771 24.7467 67.586 24.5241 67.4558 24.3324C67.3279 24.1406 67.1717 23.9796 66.987 23.8494C66.8047 23.7169 66.6023 23.6174 66.3798 23.5511C66.1573 23.4848 65.9252 23.4517 65.6838 23.4517C65.2434 23.4517 64.8445 23.563 64.487 23.7855C64.1319 24.008 63.849 24.3359 63.6383 24.7692C63.43 25.2024 63.3258 25.7339 63.3258 26.3636C63.3258 26.9934 63.43 27.5249 63.6383 27.9581C63.849 28.3913 64.1319 28.7192 64.487 28.9418C64.8445 29.1643 65.2434 29.2756 65.6838 29.2756C65.9252 29.2756 66.1573 29.2424 66.3798 29.1761C66.6023 29.1098 66.8047 29.0116 66.987 28.8814C67.1717 28.7488 67.3279 28.5866 67.4558 28.3949C67.586 28.2008 67.6771 27.9782 67.7292 27.7273H68.6099C68.5436 28.099 68.4229 28.4316 68.2477 28.7251C68.0725 29.0187 67.8547 29.2685 67.5943 29.4744C67.3339 29.678 67.0415 29.8331 66.7172 29.9396C66.3952 30.0462 66.0507 30.0994 65.6838 30.0994C65.0635 30.0994 64.5119 29.9479 64.0289 29.6449C63.546 29.3419 63.166 28.911 62.889 28.3523C62.612 27.7936 62.4735 27.1307 62.4735 26.3636C62.4735 25.5966 62.612 24.9337 62.889 24.375C63.166 23.8163 63.546 23.3854 64.0289 23.0824C64.5119 22.7794 65.0635 22.6278 65.6838 22.6278C66.0507 22.6278 66.3952 22.6811 66.7172 22.7876C67.0415 22.8942 67.3339 23.0504 67.5943 23.2564C67.8547 23.46 68.0725 23.7086 68.2477 24.0021C68.4229 24.2933 68.5436 24.6259 68.6099 25ZM75.8853 25H75.0046C74.9525 24.7467 74.8614 24.5241 74.7312 24.3324C74.6033 24.1406 74.4471 23.9796 74.2624 23.8494C74.0801 23.7169 73.8777 23.6174 73.6552 23.5511C73.4326 23.4848 73.2006 23.4517 72.9592 23.4517C72.5188 23.4517 72.1199 23.563 71.7624 23.7855C71.4073 24.008 71.1244 24.3359 70.9137 24.7692C70.7054 25.2024 70.6012 25.7339 70.6012 26.3636C70.6012 26.9934 70.7054 27.5249 70.9137 27.9581C71.1244 28.3913 71.4073 28.7192 71.7624 28.9418C72.1199 29.1643 72.5188 29.2756 72.9592 29.2756C73.2006 29.2756 73.4326 29.2424 73.6552 29.1761C73.8777 29.1098 74.0801 29.0116 74.2624 28.8814C74.4471 28.7488 74.6033 28.5866 74.7312 28.3949C74.8614 28.2008 74.9525 27.9782 75.0046 27.7273H75.8853C75.819 28.099 75.6983 28.4316 75.5231 28.7251C75.3479 29.0187 75.1301 29.2685 74.8697 29.4744C74.6093 29.678 74.3169 29.8331 73.9925 29.9396C73.6706 30.0462 73.3261 30.0994 72.9592 30.0994C72.3389 30.0994 71.7873 29.9479 71.3043 29.6449C70.8214 29.3419 70.4414 28.911 70.1644 28.3523C69.8874 27.7936 69.7489 27.1307 69.7489 26.3636C69.7489 25.5966 69.8874 24.9337 70.1644 24.375C70.4414 23.8163 70.8214 23.3854 71.3043 23.0824C71.7873 22.7794 72.3389 22.6278 72.9592 22.6278C73.3261 22.6278 73.6706 22.6811 73.9925 22.7876C74.3169 22.8942 74.6093 23.0504 74.8697 23.2564C75.1301 23.46 75.3479 23.7086 75.5231 24.0021C75.6983 24.2933 75.819 24.6259 75.8853 25ZM78.1891 22.7273V30H77.3084V22.7273H78.1891ZM86.0913 26.3636C86.0913 27.1307 85.9528 27.7936 85.6758 28.3523C85.3988 28.911 85.0188 29.3419 84.5359 29.6449C84.0529 29.9479 83.5013 30.0994 82.881 30.0994C82.2608 30.0994 81.7092 29.9479 81.2262 29.6449C80.7433 29.3419 80.3633 28.911 80.0863 28.3523C79.8093 27.7936 79.6708 27.1307 79.6708 26.3636C79.6708 25.5966 79.8093 24.9337 80.0863 24.375C80.3633 23.8163 80.7433 23.3854 81.2262 23.0824C81.7092 22.7794 82.2608 22.6278 82.881 22.6278C83.5013 22.6278 84.0529 22.7794 84.5359 23.0824C85.0188 23.3854 85.3988 23.8163 85.6758 24.375C85.9528 24.9337 86.0913 25.5966 86.0913 26.3636ZM85.239 26.3636C85.239 25.7339 85.1336 25.2024 84.9229 24.7692C84.7146 24.3359 84.4317 24.008 84.0742 23.7855C83.7191 23.563 83.3214 23.4517 82.881 23.4517C82.4407 23.4517 82.0418 23.563 81.6843 23.7855C81.3292 24.008 81.0463 24.3359 80.8356 24.7692C80.6272 25.2024 80.5231 25.7339 80.5231 26.3636C80.5231 26.9934 80.6272 27.5249 80.8356 27.9581C81.0463 28.3913 81.3292 28.7192 81.6843 28.9418C82.0418 29.1643 82.4407 29.2756 82.881 29.2756C83.3214 29.2756 83.7191 29.1643 84.0742 28.9418C84.4317 28.7192 84.7146 28.3913 84.9229 27.9581C85.1336 27.5249 85.239 26.9934 85.239 26.3636ZM82.4975 21.9886L83.364 20.3409H84.3441L83.2362 21.9886H82.4975ZM93.3391 22.7273V30H92.4869L88.5238 24.2898H88.4528V30H87.5721V22.7273H88.4244L92.4016 28.4517H92.4727V22.7273H93.3391ZM98.2122 22.7273L100.371 28.8494H100.456L102.616 22.7273H103.539L100.868 30H99.9593L97.2889 22.7273H98.2122ZM105.552 22.7273V30H104.672V22.7273H105.552ZM111.295 24.5455C111.253 24.1856 111.08 23.9062 110.777 23.7074C110.474 23.5085 110.102 23.4091 109.662 23.4091C109.34 23.4091 109.058 23.4612 108.817 23.5653C108.578 23.6695 108.391 23.8127 108.256 23.995C108.123 24.1773 108.057 24.3845 108.057 24.6165C108.057 24.8106 108.103 24.9775 108.195 25.1172C108.29 25.2545 108.411 25.3693 108.558 25.4616C108.704 25.5516 108.858 25.6262 109.019 25.6854C109.18 25.7422 109.328 25.7884 109.463 25.8239L110.202 26.0227C110.391 26.0724 110.602 26.1411 110.834 26.2287C111.068 26.3163 111.292 26.4358 111.505 26.5874C111.72 26.7365 111.898 26.9283 112.038 27.1626C112.177 27.397 112.247 27.6847 112.247 28.0256C112.247 28.4186 112.144 28.7737 111.938 29.0909C111.735 29.4081 111.436 29.6603 111.043 29.8473C110.653 30.0343 110.178 30.1278 109.619 30.1278C109.098 30.1278 108.647 30.0438 108.266 29.8757C107.888 29.7076 107.589 29.4732 107.371 29.1726C107.156 28.8719 107.034 28.5227 107.006 28.125H107.915C107.938 28.3996 108.031 28.6269 108.192 28.8068C108.355 28.9844 108.561 29.117 108.81 29.2045C109.061 29.2898 109.33 29.3324 109.619 29.3324C109.955 29.3324 110.257 29.2779 110.525 29.169C110.792 29.0578 111.004 28.9039 111.161 28.7074C111.317 28.5085 111.395 28.2765 111.395 28.0114C111.395 27.7699 111.327 27.5734 111.192 27.4219C111.058 27.2704 110.88 27.1473 110.66 27.0526C110.44 26.9579 110.202 26.875 109.946 26.804L109.051 26.5483C108.483 26.3849 108.033 26.1518 107.702 25.8487C107.37 25.5457 107.205 25.1491 107.205 24.6591C107.205 24.2519 107.315 23.8968 107.535 23.5938C107.757 23.2884 108.056 23.0516 108.43 22.8835C108.806 22.7131 109.226 22.6278 109.69 22.6278C110.159 22.6278 110.576 22.7119 110.94 22.88C111.305 23.0457 111.594 23.273 111.807 23.5618C112.022 23.8506 112.136 24.1785 112.148 24.5455H111.295ZM118.468 22.7273H119.349V27.5426C119.349 28.0398 119.231 28.4837 118.997 28.8743C118.765 29.2625 118.437 29.5691 118.013 29.794C117.59 30.0166 117.092 30.1278 116.522 30.1278C115.951 30.1278 115.454 30.0166 115.03 29.794C114.607 29.5691 114.278 29.2625 114.043 28.8743C113.811 28.4837 113.695 28.0398 113.695 27.5426V22.7273H114.576V27.4716C114.576 27.8267 114.654 28.1428 114.81 28.4197C114.966 28.6944 115.189 28.911 115.478 29.0696C115.769 29.2259 116.117 29.304 116.522 29.304C116.927 29.304 117.275 29.2259 117.566 29.0696C117.857 28.911 118.08 28.6944 118.233 28.4197C118.39 28.1428 118.468 27.8267 118.468 27.4716V22.7273ZM121.406 30H120.482L123.153 22.7273H124.062L126.732 30H125.809L123.636 23.8778H123.579L121.406 30ZM121.746 27.1591H125.468V27.9403H121.746V27.1591ZM127.865 30V22.7273H128.746V29.2188H132.126V30H127.865Z" fill="black"/>
<path d="M33.483 43.5085V42.7273H38.9375V43.5085H36.6506V50H35.7699V43.5085H33.483ZM40.2967 50V42.7273H44.6859V43.5085H41.1774V45.9659H44.4586V46.7472H41.1774V49.2188H44.7427V50H40.2967ZM46.2733 50V42.7273H48.7306C49.2988 42.7273 49.7652 42.8243 50.1298 43.0185C50.4944 43.2102 50.7643 43.4742 50.9395 43.8104C51.1146 44.1465 51.2022 44.5289 51.2022 44.9574C51.2022 45.3859 51.1146 45.7659 50.9395 46.0973C50.7643 46.4287 50.4956 46.6892 50.1333 46.8786C49.7711 47.0656 49.3083 47.1591 48.7449 47.1591H46.7562V46.3636H48.7164C49.1047 46.3636 49.4172 46.3068 49.6539 46.1932C49.8931 46.0795 50.0659 45.9186 50.1724 45.7102C50.2813 45.4995 50.3358 45.2486 50.3358 44.9574C50.3358 44.6662 50.2813 44.4117 50.1724 44.1939C50.0635 43.9761 49.8895 43.808 49.6504 43.6896C49.4113 43.5689 49.0952 43.5085 48.7022 43.5085H47.1539V50H46.2733ZM49.6966 46.733L51.4863 50H50.4636L48.7022 46.733H49.6966ZM52.6697 42.7273H53.7209L56.1925 48.7642H56.2777L58.7493 42.7273H59.8004V50H58.9766V44.4744H58.9055L56.6328 50H55.8374L53.5646 44.4744H53.4936V50H52.6697V42.7273ZM67.7026 46.3636C67.7026 47.1307 67.5641 47.7936 67.2871 48.3523C67.0101 48.911 66.6301 49.3419 66.1472 49.6449C65.6642 49.9479 65.1126 50.0994 64.4924 50.0994C63.8721 50.0994 63.3205 49.9479 62.8375 49.6449C62.3546 49.3419 61.9746 48.911 61.6976 48.3523C61.4206 47.7936 61.2821 47.1307 61.2821 46.3636C61.2821 45.5966 61.4206 44.9337 61.6976 44.375C61.9746 43.8163 62.3546 43.3854 62.8375 43.0824C63.3205 42.7794 63.8721 42.6278 64.4924 42.6278C65.1126 42.6278 65.6642 42.7794 66.1472 43.0824C66.6301 43.3854 67.0101 43.8163 67.2871 44.375C67.5641 44.9337 67.7026 45.5966 67.7026 46.3636ZM66.8503 46.3636C66.8503 45.7339 66.745 45.2024 66.5343 44.7692C66.3259 44.3359 66.043 44.008 65.6855 43.7855C65.3304 43.563 64.9327 43.4517 64.4924 43.4517C64.052 43.4517 63.6531 43.563 63.2956 43.7855C62.9405 44.008 62.6576 44.3359 62.4469 44.7692C62.2386 45.2024 62.1344 45.7339 62.1344 46.3636C62.1344 46.9934 62.2386 47.5249 62.4469 47.9581C62.6576 48.3913 62.9405 48.7192 63.2956 48.9418C63.6531 49.1643 64.052 49.2756 64.4924 49.2756C64.9327 49.2756 65.3304 49.1643 65.6855 48.9418C66.043 48.7192 66.3259 48.3913 66.5343 47.9581C66.745 47.5249 66.8503 46.9934 66.8503 46.3636ZM74.155 45C74.0769 44.7609 73.9739 44.5466 73.8461 44.3572C73.7206 44.1655 73.5703 44.0021 73.3951 43.8672C73.2222 43.7322 73.0257 43.6293 72.8056 43.5582C72.5854 43.4872 72.3439 43.4517 72.0811 43.4517C71.6503 43.4517 71.2585 43.563 70.9057 43.7855C70.553 44.008 70.2724 44.3359 70.0641 44.7692C69.8558 45.2024 69.7516 45.7339 69.7516 46.3636C69.7516 46.9934 69.8569 47.5249 70.0676 47.9581C70.2783 48.3913 70.5636 48.7192 70.9235 48.9418C71.2833 49.1643 71.6882 49.2756 72.138 49.2756C72.5546 49.2756 72.9216 49.1868 73.2388 49.0092C73.5584 48.8293 73.807 48.576 73.9846 48.2493C74.1645 47.9202 74.2544 47.5331 74.2544 47.0881L74.5243 47.1449H72.3368V46.3636H75.1067V47.1449C75.1067 47.7438 74.9789 48.2647 74.7232 48.7074C74.4699 49.1501 74.1195 49.4934 73.6721 49.7372C73.227 49.9787 72.7156 50.0994 72.138 50.0994C71.494 50.0994 70.9282 49.9479 70.4405 49.6449C69.9552 49.3419 69.5764 48.911 69.3042 48.3523C69.0343 47.7936 68.8993 47.1307 68.8993 46.3636C68.8993 45.7884 68.9763 45.2711 69.1301 44.8118C69.2864 44.3501 69.5066 43.9571 69.7907 43.6328C70.0748 43.3085 70.4109 43.0599 70.7992 42.8871C71.1874 42.7143 71.6148 42.6278 72.0811 42.6278C72.4647 42.6278 72.8221 42.6858 73.1536 42.8018C73.4874 42.9155 73.7845 43.0777 74.0449 43.2884C74.3077 43.4967 74.5267 43.7464 74.7019 44.0376C74.8771 44.3265 74.9978 44.6473 75.0641 45H74.155ZM76.6151 50V42.7273H79.0724C79.6406 42.7273 80.107 42.8243 80.4716 43.0185C80.8362 43.2102 81.1061 43.4742 81.2812 43.8104C81.4564 44.1465 81.544 44.5289 81.544 44.9574C81.544 45.3859 81.4564 45.7659 81.2812 46.0973C81.1061 46.4287 80.8374 46.6892 80.4751 46.8786C80.1129 47.0656 79.6501 47.1591 79.0866 47.1591H77.098V46.3636H79.0582C79.4465 46.3636 79.759 46.3068 79.9957 46.1932C80.2348 46.0795 80.4077 45.9186 80.5142 45.7102C80.6231 45.4995 80.6776 45.2486 80.6776 44.9574C80.6776 44.6662 80.6231 44.4117 80.5142 44.1939C80.4053 43.9761 80.2313 43.808 79.9922 43.6896C79.7531 43.5689 79.437 43.5085 79.044 43.5085H77.4957V50H76.6151ZM80.0384 46.733L81.8281 50H80.8054L79.044 46.733H80.0384ZM83.3098 50H82.3865L85.057 42.7273H85.9661L88.6365 50H87.7132L85.54 43.8778H85.4831L83.3098 50ZM83.6507 47.1591H87.3723V47.9403H83.6507V47.1591ZM89.7694 50V42.7273H94.1301V43.5085H90.65V45.9659H93.8034V46.7472H90.65V50H89.7694ZM96.5192 42.7273V50H95.6385V42.7273H96.5192ZM95.6953 41.9886L96.5618 40.3409H97.5419L96.4339 41.9886H95.6953ZM98.5833 50H97.66L100.33 42.7273H101.24L103.91 50H102.987L100.813 43.8778H100.757L98.5833 50ZM98.9242 47.1591H102.646V47.9403H98.9242V47.1591Z" fill="black"/>
<path d="M34.179 63.7273L36.3381 69.8494H36.4233L38.5824 63.7273H39.5057L36.8352 71H35.9261L33.2557 63.7273H34.179ZM41.5192 63.7273V71H40.6385V63.7273H41.5192ZM43.285 71V63.7273H45.8276C46.3342 63.7273 46.7521 63.8149 47.0811 63.9901C47.4102 64.1629 47.6552 64.3961 47.8162 64.6896C47.9772 64.9808 48.0577 65.304 48.0577 65.6591C48.0577 65.9716 48.0021 66.2296 47.8908 66.4332C47.7819 66.6368 47.6375 66.7978 47.4576 66.9162C47.28 67.0346 47.0871 67.1222 46.8787 67.179V67.25C47.1013 67.2642 47.325 67.3423 47.5499 67.4844C47.7748 67.6264 47.963 67.83 48.1145 68.0952C48.266 68.3603 48.3418 68.6847 48.3418 69.0682C48.3418 69.4328 48.2589 69.7607 48.0932 70.0518C47.9275 70.343 47.6659 70.5739 47.3084 70.7443C46.9509 70.9148 46.4857 71 45.9128 71H43.285ZM44.1657 70.2188H45.9128C46.4881 70.2188 46.8965 70.1075 47.138 69.8849C47.3818 69.66 47.5037 69.3878 47.5037 69.0682C47.5037 68.822 47.441 68.5947 47.3155 68.3864C47.19 68.1757 47.0113 68.0076 46.7793 67.8821C46.5473 67.7543 46.2727 67.6903 45.9554 67.6903H44.1657V70.2188ZM44.1657 66.9233H45.7992C46.0643 66.9233 46.3034 66.8712 46.5165 66.767C46.7319 66.6629 46.9024 66.5161 47.0279 66.3267C47.1557 66.1373 47.2196 65.9148 47.2196 65.6591C47.2196 65.3395 47.1084 65.0684 46.8858 64.8459C46.6633 64.621 46.3105 64.5085 45.8276 64.5085H44.1657V66.9233ZM49.7889 71V63.7273H52.2463C52.8145 63.7273 53.2808 63.8243 53.6454 64.0185C54.01 64.2102 54.2799 64.4742 54.4551 64.8104C54.6303 65.1465 54.7179 65.5289 54.7179 65.9574C54.7179 66.3859 54.6303 66.7659 54.4551 67.0973C54.2799 67.4287 54.0112 67.6892 53.649 67.8786C53.2868 68.0656 52.8239 68.1591 52.2605 68.1591H50.2718V67.3636H52.2321C52.6203 67.3636 52.9328 67.3068 53.1696 67.1932C53.4087 67.0795 53.5815 66.9186 53.688 66.7102C53.7969 66.4995 53.8514 66.2486 53.8514 65.9574C53.8514 65.6662 53.7969 65.4117 53.688 65.1939C53.5791 64.9761 53.4051 64.808 53.166 64.6896C52.9269 64.5689 52.6109 64.5085 52.2179 64.5085H50.6696V71H49.7889ZM53.2122 67.733L55.002 71H53.9792L52.2179 67.733H53.2122ZM56.4837 71H55.5604L58.2308 63.7273H59.1399L61.8104 71H60.8871L58.7138 64.8778H58.657L56.4837 71ZM56.8246 68.1591H60.5462V68.9403H56.8246V68.1591ZM68.4537 66H67.573C67.5209 65.7467 67.4297 65.5241 67.2995 65.3324C67.1717 65.1406 67.0154 64.9796 66.8308 64.8494C66.6485 64.7169 66.4461 64.6174 66.2235 64.5511C66.001 64.4848 65.769 64.4517 65.5275 64.4517C65.0872 64.4517 64.6883 64.563 64.3308 64.7855C63.9757 65.008 63.6928 65.3359 63.4821 65.7692C63.2737 66.2024 63.1696 66.7339 63.1696 67.3636C63.1696 67.9934 63.2737 68.5249 63.4821 68.9581C63.6928 69.3913 63.9757 69.7192 64.3308 69.9418C64.6883 70.1643 65.0872 70.2756 65.5275 70.2756C65.769 70.2756 66.001 70.2424 66.2235 70.1761C66.4461 70.1098 66.6485 70.0116 66.8308 69.8814C67.0154 69.7488 67.1717 69.5866 67.2995 69.3949C67.4297 69.2008 67.5209 68.9782 67.573 68.7273H68.4537C68.3874 69.099 68.2666 69.4316 68.0914 69.7251C67.9163 70.0187 67.6984 70.2685 67.438 70.4744C67.1776 70.678 66.8852 70.8331 66.5609 70.9396C66.2389 71.0462 65.8945 71.0994 65.5275 71.0994C64.9073 71.0994 64.3556 70.9479 63.8727 70.6449C63.3897 70.3419 63.0098 69.911 62.7328 69.3523C62.4558 68.7936 62.3173 68.1307 62.3173 67.3636C62.3173 66.5966 62.4558 65.9337 62.7328 65.375C63.0098 64.8163 63.3897 64.3854 63.8727 64.0824C64.3556 63.7794 64.9073 63.6278 65.5275 63.6278C65.8945 63.6278 66.2389 63.6811 66.5609 63.7876C66.8852 63.8942 67.1776 64.0504 67.438 64.2564C67.6984 64.46 67.9163 64.7086 68.0914 65.0021C68.2666 65.2933 68.3874 65.6259 68.4537 66ZM70.7575 63.7273V71H69.8768V63.7273H70.7575ZM78.6596 67.3636C78.6596 68.1307 78.5211 68.7936 78.2441 69.3523C77.9672 69.911 77.5872 70.3419 77.1042 70.6449C76.6213 70.9479 76.0697 71.0994 75.4494 71.0994C74.8291 71.0994 74.2775 70.9479 73.7946 70.6449C73.3116 70.3419 72.9316 69.911 72.6547 69.3523C72.3777 68.7936 72.2392 68.1307 72.2392 67.3636C72.2392 66.5966 72.3777 65.9337 72.6547 65.375C72.9316 64.8163 73.3116 64.3854 73.7946 64.0824C74.2775 63.7794 74.8291 63.6278 75.4494 63.6278C76.0697 63.6278 76.6213 63.7794 77.1042 64.0824C77.5872 64.3854 77.9672 64.8163 78.2441 65.375C78.5211 65.9337 78.6596 66.5966 78.6596 67.3636ZM77.8074 67.3636C77.8074 66.7339 77.702 66.2024 77.4913 65.7692C77.283 65.3359 77.0001 65.008 76.6426 64.7855C76.2875 64.563 75.8897 64.4517 75.4494 64.4517C75.0091 64.4517 74.6101 64.563 74.2527 64.7855C73.8975 65.008 73.6146 65.3359 73.4039 65.7692C73.1956 66.2024 73.0914 66.7339 73.0914 67.3636C73.0914 67.9934 73.1956 68.5249 73.4039 68.9581C73.6146 69.3913 73.8975 69.7192 74.2527 69.9418C74.6101 70.1643 75.0091 70.2756 75.4494 70.2756C75.8897 70.2756 76.2875 70.1643 76.6426 69.9418C77.0001 69.7192 77.283 69.3913 77.4913 68.9581C77.702 68.5249 77.8074 67.9934 77.8074 67.3636ZM85.9075 63.7273V71H85.0552L81.0922 65.2898H81.0211V71H80.1404V63.7273H80.9927L84.97 69.4517H85.041V63.7273H85.9075ZM87.6697 71V63.7273H92.0589V64.5085H88.5504V66.9659H91.8317V67.7472H88.5504V70.2188H92.1158V71H87.6697ZM97.6236 65.5455C97.581 65.1856 97.4081 64.9062 97.1051 64.7074C96.8021 64.5085 96.4304 64.4091 95.9901 64.4091C95.6681 64.4091 95.3864 64.4612 95.1449 64.5653C94.9058 64.6695 94.7188 64.8127 94.5838 64.995C94.4512 65.1773 94.3849 65.3845 94.3849 65.6165C94.3849 65.8106 94.4311 65.9775 94.5234 66.1172C94.6181 66.2545 94.7389 66.3693 94.8857 66.4616C95.0324 66.5516 95.1863 66.6262 95.3473 66.6854C95.5083 66.7422 95.6562 66.7884 95.7912 66.8239L96.5298 67.0227C96.7192 67.0724 96.9299 67.1411 97.1619 67.2287C97.3963 67.3163 97.62 67.4358 97.8331 67.5874C98.0485 67.7365 98.2261 67.9283 98.3658 68.1626C98.5054 68.397 98.5753 68.6847 98.5753 69.0256C98.5753 69.4186 98.4723 69.7737 98.2663 70.0909C98.0627 70.4081 97.7644 70.6603 97.3714 70.8473C96.9808 71.0343 96.5062 71.1278 95.9474 71.1278C95.4266 71.1278 94.9756 71.0438 94.5945 70.8757C94.2157 70.7076 93.9174 70.4732 93.6996 70.1726C93.4841 69.8719 93.3622 69.5227 93.3338 69.125H94.2429C94.2666 69.3996 94.3589 69.6269 94.5199 69.8068C94.6832 69.9844 94.8892 70.117 95.1378 70.2045C95.3887 70.2898 95.6586 70.3324 95.9474 70.3324C96.2836 70.3324 96.5855 70.2779 96.853 70.169C97.1205 70.0578 97.3324 69.9039 97.4886 69.7074C97.6449 69.5085 97.723 69.2765 97.723 69.0114C97.723 68.7699 97.6555 68.5734 97.5206 68.4219C97.3857 68.2704 97.2081 68.1473 96.9879 68.0526C96.7678 67.9579 96.5298 67.875 96.2741 67.804L95.3793 67.5483C94.8111 67.3849 94.3613 67.1518 94.0298 66.8487C93.6984 66.5457 93.5327 66.1491 93.5327 65.6591C93.5327 65.2519 93.6428 64.8968 93.8629 64.5938C94.0855 64.2884 94.3838 64.0516 94.7578 63.8835C95.1342 63.7131 95.5545 63.6278 96.0185 63.6278C96.4872 63.6278 96.9039 63.7119 97.2685 63.88C97.633 64.0457 97.9219 64.273 98.1349 64.5618C98.3504 64.8506 98.464 65.1785 98.4759 65.5455H97.6236Z" fill="black"/>
<path d="M33.8807 91V83.7273H34.7614V90.2188H38.142V91H33.8807ZM44.2784 83.7273H45.1591V88.5426C45.1591 89.0398 45.0419 89.4837 44.8075 89.8743C44.5755 90.2625 44.2476 90.5691 43.8239 90.794C43.4001 91.0166 42.9029 91.1278 42.3324 91.1278C41.7618 91.1278 41.2647 91.0166 40.8409 90.794C40.4171 90.5691 40.0881 90.2625 39.8537 89.8743C39.6217 89.4837 39.5057 89.0398 39.5057 88.5426V83.7273H40.3864V88.4716C40.3864 88.8267 40.4645 89.1428 40.6207 89.4197C40.777 89.6944 40.9995 89.911 41.2884 90.0696C41.5795 90.2259 41.9276 90.304 42.3324 90.304C42.7372 90.304 43.0852 90.2259 43.3764 90.0696C43.6676 89.911 43.8902 89.6944 44.044 89.4197C44.2003 89.1428 44.2784 88.8267 44.2784 88.4716V83.7273ZM46.9178 91V83.7273H49.4604C49.967 83.7273 50.3849 83.8149 50.714 83.9901C51.043 84.1629 51.2881 84.3961 51.449 84.6896C51.61 84.9808 51.6905 85.304 51.6905 85.6591C51.6905 85.9716 51.6349 86.2296 51.5236 86.4332C51.4147 86.6368 51.2703 86.7978 51.0904 86.9162C50.9128 87.0346 50.7199 87.1222 50.5115 87.179V87.25C50.7341 87.2642 50.9578 87.3423 51.1827 87.4844C51.4076 87.6264 51.5958 87.83 51.7473 88.0952C51.8989 88.3603 51.9746 88.6847 51.9746 89.0682C51.9746 89.4328 51.8917 89.7607 51.726 90.0518C51.5603 90.343 51.2987 90.5739 50.9412 90.7443C50.5837 90.9148 50.1185 91 49.5456 91H46.9178ZM47.7985 90.2188H49.5456C50.1209 90.2188 50.5293 90.1075 50.7708 89.8849C51.0146 89.66 51.1365 89.3878 51.1365 89.0682C51.1365 88.822 51.0738 88.5947 50.9483 88.3864C50.8229 88.1757 50.6441 88.0076 50.4121 87.8821C50.1801 87.7543 49.9055 87.6903 49.5882 87.6903H47.7985V90.2188ZM47.7985 86.9233H49.432C49.6971 86.9233 49.9363 86.8712 50.1493 86.767C50.3648 86.6629 50.5352 86.5161 50.6607 86.3267C50.7885 86.1373 50.8525 85.9148 50.8525 85.6591C50.8525 85.3395 50.7412 85.0684 50.5186 84.8459C50.2961 84.621 49.9434 84.5085 49.4604 84.5085H47.7985V86.9233ZM53.4217 91V83.7273H55.8791C56.4473 83.7273 56.9136 83.8243 57.2782 84.0185C57.6428 84.2102 57.9127 84.4742 58.0879 84.8104C58.2631 85.1465 58.3507 85.5289 58.3507 85.9574C58.3507 86.3859 58.2631 86.7659 58.0879 87.0973C57.9127 87.4287 57.644 87.6892 57.2818 87.8786C56.9196 88.0656 56.4567 88.1591 55.8933 88.1591H53.9047V87.3636H55.8649C56.2531 87.3636 56.5656 87.3068 56.8024 87.1932C57.0415 87.0795 57.2143 86.9186 57.3208 86.7102C57.4297 86.4995 57.4842 86.2486 57.4842 85.9574C57.4842 85.6662 57.4297 85.4117 57.3208 85.1939C57.2119 84.9761 57.0379 84.808 56.7988 84.6896C56.5597 84.5689 56.2437 84.5085 55.8507 84.5085H54.3024V91H53.4217ZM56.845 87.733L58.6348 91H57.612L55.8507 87.733H56.845ZM60.6989 83.7273V91H59.8182V83.7273H60.6989ZM68.3169 86H67.4363C67.3842 85.7467 67.293 85.5241 67.1628 85.3324C67.035 85.1406 66.8787 84.9796 66.6941 84.8494C66.5118 84.7169 66.3094 84.6174 66.0868 84.5511C65.8643 84.4848 65.6323 84.4517 65.3908 84.4517C64.9505 84.4517 64.5516 84.563 64.1941 84.7855C63.839 85.008 63.556 85.3359 63.3453 85.7692C63.137 86.2024 63.0328 86.7339 63.0328 87.3636C63.0328 87.9934 63.137 88.5249 63.3453 88.9581C63.556 89.3913 63.839 89.7192 64.1941 89.9418C64.5516 90.1643 64.9505 90.2756 65.3908 90.2756C65.6323 90.2756 65.8643 90.2424 66.0868 90.1761C66.3094 90.1098 66.5118 90.0116 66.6941 89.8814C66.8787 89.7488 67.035 89.5866 67.1628 89.3949C67.293 89.2008 67.3842 88.9782 67.4363 88.7273H68.3169C68.2507 89.099 68.1299 89.4316 67.9547 89.7251C67.7795 90.0187 67.5617 90.2685 67.3013 90.4744C67.0409 90.678 66.7485 90.8331 66.4242 90.9396C66.1022 91.0462 65.7578 91.0994 65.3908 91.0994C64.7705 91.0994 64.2189 90.9479 63.736 90.6449C63.253 90.3419 62.873 89.911 62.5961 89.3523C62.3191 88.7936 62.1806 88.1307 62.1806 87.3636C62.1806 86.5966 62.3191 85.9337 62.5961 85.375C62.873 84.8163 63.253 84.3854 63.736 84.0824C64.2189 83.7794 64.7705 83.6278 65.3908 83.6278C65.7578 83.6278 66.1022 83.6811 66.4242 83.7876C66.7485 83.8942 67.0409 84.0504 67.3013 84.2564C67.5617 84.46 67.7795 84.7086 67.9547 85.0021C68.1299 85.2933 68.2507 85.6259 68.3169 86ZM70.0384 91H69.1151L71.7855 83.7273H72.6946L75.3651 91H74.4418L72.2685 84.8778H72.2116L70.0384 91ZM70.3793 88.1591H74.1009V88.9403H70.3793V88.1591ZM82.0083 86H81.1277C81.0756 85.7467 80.9844 85.5241 80.8542 85.3324C80.7264 85.1406 80.5701 84.9796 80.3855 84.8494C80.2032 84.7169 80.0008 84.6174 79.7782 84.5511C79.5557 84.4848 79.3237 84.4517 79.0822 84.4517C78.6419 84.4517 78.243 84.563 77.8855 84.7855C77.5304 85.008 77.2475 85.3359 77.0368 85.7692C76.8284 86.2024 76.7243 86.7339 76.7243 87.3636C76.7243 87.9934 76.8284 88.5249 77.0368 88.9581C77.2475 89.3913 77.5304 89.7192 77.8855 89.9418C78.243 90.1643 78.6419 90.2756 79.0822 90.2756C79.3237 90.2756 79.5557 90.2424 79.7782 90.1761C80.0008 90.1098 80.2032 90.0116 80.3855 89.8814C80.5701 89.7488 80.7264 89.5866 80.8542 89.3949C80.9844 89.2008 81.0756 88.9782 81.1277 88.7273H82.0083C81.9421 89.099 81.8213 89.4316 81.6461 89.7251C81.4709 90.0187 81.2531 90.2685 80.9927 90.4744C80.7323 90.678 80.4399 90.8331 80.1156 90.9396C79.7936 91.0462 79.4492 91.0994 79.0822 91.0994C78.4619 91.0994 77.9103 90.9479 77.4274 90.6449C76.9444 90.3419 76.5645 89.911 76.2875 89.3523C76.0105 88.7936 75.872 88.1307 75.872 87.3636C75.872 86.5966 76.0105 85.9337 76.2875 85.375C76.5645 84.8163 76.9444 84.3854 77.4274 84.0824C77.9103 83.7794 78.4619 83.6278 79.0822 83.6278C79.4492 83.6278 79.7936 83.6811 80.1156 83.7876C80.4399 83.8942 80.7323 84.0504 80.9927 84.2564C81.2531 84.46 81.4709 84.7086 81.6461 85.0021C81.8213 85.2933 81.9421 85.6259 82.0083 86ZM84.3121 83.7273V91H83.4315V83.7273H84.3121ZM92.2143 87.3636C92.2143 88.1307 92.0758 88.7936 91.7988 89.3523C91.5218 89.911 91.1419 90.3419 90.6589 90.6449C90.176 90.9479 89.6243 91.0994 89.0041 91.0994C88.3838 91.0994 87.8322 90.9479 87.3493 90.6449C86.8663 90.3419 86.4863 89.911 86.2093 89.3523C85.9324 88.7936 85.7939 88.1307 85.7939 87.3636C85.7939 86.5966 85.9324 85.9337 86.2093 85.375C86.4863 84.8163 86.8663 84.3854 87.3493 84.0824C87.8322 83.7794 88.3838 83.6278 89.0041 83.6278C89.6243 83.6278 90.176 83.7794 90.6589 84.0824C91.1419 84.3854 91.5218 84.8163 91.7988 85.375C92.0758 85.9337 92.2143 86.5966 92.2143 87.3636ZM91.362 87.3636C91.362 86.7339 91.2567 86.2024 91.046 85.7692C90.8377 85.3359 90.5547 85.008 90.1973 84.7855C89.8422 84.563 89.4444 84.4517 89.0041 84.4517C88.5637 84.4517 88.1648 84.563 87.8074 84.7855C87.4522 85.008 87.1693 85.3359 86.9586 85.7692C86.7503 86.2024 86.6461 86.7339 86.6461 87.3636C86.6461 87.9934 86.7503 88.5249 86.9586 88.9581C87.1693 89.3913 87.4522 89.7192 87.8074 89.9418C88.1648 90.1643 88.5637 90.2756 89.0041 90.2756C89.4444 90.2756 89.8422 90.1643 90.1973 89.9418C90.5547 89.7192 90.8377 89.3913 91.046 88.9581C91.2567 88.5249 91.362 87.9934 91.362 87.3636ZM88.6206 82.9886L89.487 81.3409H90.4672L89.3592 82.9886H88.6206ZM99.4622 83.7273V91H98.6099L94.6468 85.2898H94.5758V91H93.6951V83.7273H94.5474L98.5247 89.4517H98.5957V83.7273H99.4622Z" fill="black"/>
<path d="M33.8807 111V103.727H36.3381C36.9086 103.727 37.375 103.83 37.7372 104.036C38.1018 104.24 38.3717 104.516 38.5469 104.864C38.7221 105.212 38.8097 105.6 38.8097 106.028C38.8097 106.457 38.7221 106.846 38.5469 107.197C38.3741 107.547 38.1065 107.826 37.7443 108.035C37.3821 108.241 36.9181 108.344 36.3523 108.344H34.5909V107.562H36.3239C36.7145 107.562 37.0282 107.495 37.2649 107.36C37.5017 107.225 37.6733 107.043 37.7798 106.813C37.8887 106.581 37.9432 106.32 37.9432 106.028C37.9432 105.737 37.8887 105.477 37.7798 105.247C37.6733 105.018 37.5005 104.838 37.2614 104.707C37.0223 104.575 36.705 104.509 36.3097 104.509H34.7614V111H33.8807ZM40.2283 111V103.727H42.6857C43.2539 103.727 43.7203 103.824 44.0849 104.018C44.4495 104.21 44.7193 104.474 44.8945 104.81C45.0697 105.147 45.1573 105.529 45.1573 105.957C45.1573 106.386 45.0697 106.766 44.8945 107.097C44.7193 107.429 44.4506 107.689 44.0884 107.879C43.7262 108.066 43.2634 108.159 42.6999 108.159H40.7113V107.364H42.6715C43.0598 107.364 43.3723 107.307 43.609 107.193C43.8481 107.08 44.021 106.919 44.1275 106.71C44.2364 106.5 44.2908 106.249 44.2908 105.957C44.2908 105.666 44.2364 105.412 44.1275 105.194C44.0186 104.976 43.8446 104.808 43.6055 104.69C43.3664 104.569 43.0503 104.509 42.6573 104.509H41.109V111H40.2283ZM43.6516 107.733L45.4414 111H44.4187L42.6573 107.733H43.6516ZM51.3975 103.727H52.2782V108.543C52.2782 109.04 52.161 109.484 51.9267 109.874C51.6947 110.263 51.3668 110.569 50.943 110.794C50.5192 111.017 50.0221 111.128 49.4515 111.128C48.881 111.128 48.3838 111.017 47.96 110.794C47.5363 110.569 47.2072 110.263 46.9728 109.874C46.7408 109.484 46.6248 109.04 46.6248 108.543V103.727H47.5055V108.472C47.5055 108.827 47.5836 109.143 47.7399 109.42C47.8961 109.694 48.1187 109.911 48.4075 110.07C48.6987 110.226 49.0467 110.304 49.4515 110.304C49.8564 110.304 50.2044 110.226 50.4956 110.07C50.7868 109.911 51.0093 109.694 51.1632 109.42C51.3194 109.143 51.3975 108.827 51.3975 108.472V103.727ZM54.0369 111V103.727H58.4261V104.509H54.9176V106.966H58.1989V107.747H54.9176V110.219H58.483V111H54.0369ZM60.0135 111V103.727H62.5561C63.0627 103.727 63.4806 103.815 63.8097 103.99C64.1387 104.163 64.3838 104.396 64.5447 104.69C64.7057 104.981 64.7862 105.304 64.7862 105.659C64.7862 105.972 64.7306 106.23 64.6193 106.433C64.5104 106.637 64.366 106.798 64.1861 106.916C64.0085 107.035 63.8156 107.122 63.6072 107.179V107.25C63.8298 107.264 64.0535 107.342 64.2784 107.484C64.5033 107.626 64.6915 107.83 64.843 108.095C64.9946 108.36 65.0703 108.685 65.0703 109.068C65.0703 109.433 64.9875 109.761 64.8217 110.052C64.656 110.343 64.3944 110.574 64.0369 110.744C63.6795 110.915 63.2143 111 62.6413 111H60.0135ZM60.8942 110.219H62.6413C63.2166 110.219 63.625 110.107 63.8665 109.885C64.1103 109.66 64.2322 109.388 64.2322 109.068C64.2322 108.822 64.1695 108.595 64.044 108.386C63.9186 108.176 63.7398 108.008 63.5078 107.882C63.2758 107.754 63.0012 107.69 62.6839 107.69H60.8942V110.219ZM60.8942 106.923H62.5277C62.7929 106.923 63.032 106.871 63.245 106.767C63.4605 106.663 63.6309 106.516 63.7564 106.327C63.8842 106.137 63.9482 105.915 63.9482 105.659C63.9482 105.339 63.8369 105.068 63.6143 104.846C63.3918 104.621 63.0391 104.509 62.5561 104.509H60.8942V106.923ZM66.8157 111H65.8924L68.5629 103.727H69.4719L72.1424 111H71.2191L69.0458 104.878H68.989L66.8157 111ZM67.1566 108.159H70.8782V108.94H67.1566V108.159ZM77.2525 105.545C77.2099 105.186 77.0371 104.906 76.734 104.707C76.431 104.509 76.0593 104.409 75.619 104.409C75.297 104.409 75.0153 104.461 74.7738 104.565C74.5347 104.67 74.3477 104.813 74.2127 104.995C74.0801 105.177 74.0138 105.384 74.0138 105.616C74.0138 105.811 74.06 105.978 74.1523 106.117C74.247 106.254 74.3678 106.369 74.5146 106.462C74.6613 106.552 74.8152 106.626 74.9762 106.685C75.1372 106.742 75.2852 106.788 75.4201 106.824L76.1587 107.023C76.3481 107.072 76.5588 107.141 76.7908 107.229C77.0252 107.316 77.2489 107.436 77.462 107.587C77.6774 107.737 77.855 107.928 77.9947 108.163C78.1344 108.397 78.2042 108.685 78.2042 109.026C78.2042 109.419 78.1012 109.774 77.8952 110.091C77.6916 110.408 77.3933 110.66 77.0004 110.847C76.6097 111.034 76.1351 111.128 75.5763 111.128C75.0555 111.128 74.6045 111.044 74.2234 110.876C73.8446 110.708 73.5463 110.473 73.3285 110.173C73.113 109.872 72.9911 109.523 72.9627 109.125H73.8718C73.8955 109.4 73.9878 109.627 74.1488 109.807C74.3121 109.984 74.5181 110.117 74.7667 110.205C75.0176 110.29 75.2875 110.332 75.5763 110.332C75.9125 110.332 76.2144 110.278 76.4819 110.169C76.7494 110.058 76.9613 109.904 77.1175 109.707C77.2738 109.509 77.3519 109.277 77.3519 109.011C77.3519 108.77 77.2844 108.573 77.1495 108.422C77.0146 108.27 76.837 108.147 76.6168 108.053C76.3967 107.958 76.1587 107.875 75.9031 107.804L75.0082 107.548C74.44 107.385 73.9902 107.152 73.6587 106.849C73.3273 106.546 73.1616 106.149 73.1616 105.659C73.1616 105.252 73.2717 104.897 73.4918 104.594C73.7144 104.288 74.0127 104.052 74.3867 103.884C74.7631 103.713 75.1834 103.628 75.6474 103.628C76.1161 103.628 76.5328 103.712 76.8974 103.88C77.262 104.046 77.5508 104.273 77.7638 104.562C77.9793 104.851 78.0929 105.179 78.1048 105.545H77.2525ZM82.4647 111V103.727H86.8539V104.509H83.3453V106.966H86.6266V107.747H83.3453V110.219H86.9107V111H82.4647ZM88.4412 111V103.727H89.3219V110.219H92.7026V111H88.4412ZM94.0662 111V103.727H98.4554V104.509H94.9469V106.966H98.2282V107.747H94.9469V110.219H98.5123V111H94.0662ZM95.8702 102.989L96.7367 101.341H97.7168L96.6088 102.989H95.8702ZM105.895 106H105.014C104.962 105.747 104.871 105.524 104.741 105.332C104.613 105.141 104.457 104.98 104.272 104.849C104.09 104.717 103.887 104.617 103.665 104.551C103.442 104.485 103.21 104.452 102.969 104.452C102.529 104.452 102.13 104.563 101.772 104.786C101.417 105.008 101.134 105.336 100.923 105.769C100.715 106.202 100.611 106.734 100.611 107.364C100.611 107.993 100.715 108.525 100.923 108.958C101.134 109.391 101.417 109.719 101.772 109.942C102.13 110.164 102.529 110.276 102.969 110.276C103.21 110.276 103.442 110.242 103.665 110.176C103.887 110.11 104.09 110.012 104.272 109.881C104.457 109.749 104.613 109.587 104.741 109.395C104.871 109.201 104.962 108.978 105.014 108.727H105.895C105.829 109.099 105.708 109.432 105.533 109.725C105.358 110.019 105.14 110.268 104.879 110.474C104.619 110.678 104.327 110.833 104.002 110.94C103.68 111.046 103.336 111.099 102.969 111.099C102.349 111.099 101.797 110.948 101.314 110.645C100.831 110.342 100.451 109.911 100.174 109.352C99.8972 108.794 99.7587 108.131 99.7587 107.364C99.7587 106.597 99.8972 105.934 100.174 105.375C100.451 104.816 100.831 104.385 101.314 104.082C101.797 103.779 102.349 103.628 102.969 103.628C103.336 103.628 103.68 103.681 104.002 103.788C104.327 103.894 104.619 104.05 104.879 104.256C105.14 104.46 105.358 104.709 105.533 105.002C105.708 105.293 105.829 105.626 105.895 106ZM106.92 104.509V103.727H112.375V104.509H110.088V111H109.207V104.509H106.92ZM113.734 111V103.727H116.192C116.76 103.727 117.226 103.824 117.591 104.018C117.955 104.21 118.225 104.474 118.4 104.81C118.576 105.147 118.663 105.529 118.663 105.957C118.663 106.386 118.576 106.766 118.4 107.097C118.225 107.429 117.956 107.689 117.594 107.879C117.232 108.066 116.769 108.159 116.206 108.159H114.217V107.364H116.177C116.566 107.364 116.878 107.307 117.115 107.193C117.354 107.08 117.527 106.919 117.633 106.71C117.742 106.5 117.797 106.249 117.797 105.957C117.797 105.666 117.742 105.412 117.633 105.194C117.524 104.976 117.35 104.808 117.111 104.69C116.872 104.569 116.556 104.509 116.163 104.509H114.615V111H113.734ZM117.157 107.733L118.947 111H117.925L116.163 107.733H117.157ZM121.011 103.727V111H120.131V103.727H121.011ZM128.629 106H127.749C127.697 105.747 127.606 105.524 127.475 105.332C127.347 105.141 127.191 104.98 127.007 104.849C126.824 104.717 126.622 104.617 126.399 104.551C126.177 104.485 125.945 104.452 125.703 104.452C125.263 104.452 124.864 104.563 124.507 104.786C124.151 105.008 123.869 105.336 123.658 105.769C123.45 106.202 123.345 106.734 123.345 107.364C123.345 107.993 123.45 108.525 123.658 108.958C123.869 109.391 124.151 109.719 124.507 109.942C124.864 110.164 125.263 110.276 125.703 110.276C125.945 110.276 126.177 110.242 126.399 110.176C126.622 110.11 126.824 110.012 127.007 109.881C127.191 109.749 127.347 109.587 127.475 109.395C127.606 109.201 127.697 108.978 127.749 108.727H128.629C128.563 109.099 128.442 109.432 128.267 109.725C128.092 110.019 127.874 110.268 127.614 110.474C127.353 110.678 127.061 110.833 126.737 110.94C126.415 111.046 126.07 111.099 125.703 111.099C125.083 111.099 124.531 110.948 124.048 110.645C123.566 110.342 123.186 109.911 122.909 109.352C122.632 108.794 122.493 108.131 122.493 107.364C122.493 106.597 122.632 105.934 122.909 105.375C123.186 104.816 123.566 104.385 124.048 104.082C124.531 103.779 125.083 103.628 125.703 103.628C126.07 103.628 126.415 103.681 126.737 103.788C127.061 103.894 127.353 104.05 127.614 104.256C127.874 104.46 128.092 104.709 128.267 105.002C128.442 105.293 128.563 105.626 128.629 106ZM130.351 111H129.428L132.098 103.727H133.007L135.678 111H134.754L132.581 104.878H132.524L130.351 111ZM130.692 108.159H134.413V108.94H130.692V108.159ZM140.788 105.545C140.745 105.186 140.572 104.906 140.269 104.707C139.966 104.509 139.594 104.409 139.154 104.409C138.832 104.409 138.55 104.461 138.309 104.565C138.07 104.67 137.883 104.813 137.748 104.995C137.615 105.177 137.549 105.384 137.549 105.616C137.549 105.811 137.595 105.978 137.688 106.117C137.782 106.254 137.903 106.369 138.05 106.462C138.196 106.552 138.35 106.626 138.511 106.685C138.672 106.742 138.82 106.788 138.955 106.824L139.694 107.023C139.883 107.072 140.094 107.141 140.326 107.229C140.56 107.316 140.784 107.436 140.997 107.587C141.213 107.737 141.39 107.928 141.53 108.163C141.67 108.397 141.739 108.685 141.739 109.026C141.739 109.419 141.636 109.774 141.43 110.091C141.227 110.408 140.929 110.66 140.536 110.847C140.145 111.034 139.67 111.128 139.112 111.128C138.591 111.128 138.14 111.044 137.759 110.876C137.38 110.708 137.081 110.473 136.864 110.173C136.648 109.872 136.526 109.523 136.498 109.125H137.407C137.431 109.4 137.523 109.627 137.684 109.807C137.847 109.984 138.053 110.117 138.302 110.205C138.553 110.29 138.823 110.332 139.112 110.332C139.448 110.332 139.75 110.278 140.017 110.169C140.285 110.058 140.496 109.904 140.653 109.707C140.809 109.509 140.887 109.277 140.887 109.011C140.887 108.77 140.82 108.573 140.685 108.422C140.55 108.27 140.372 108.147 140.152 108.053C139.932 107.958 139.694 107.875 139.438 107.804L138.543 107.548C137.975 107.385 137.525 107.152 137.194 106.849C136.862 106.546 136.697 106.149 136.697 105.659C136.697 105.252 136.807 104.897 137.027 104.594C137.25 104.288 137.548 104.052 137.922 103.884C138.298 103.713 138.719 103.628 139.183 103.628C139.651 103.628 140.068 103.712 140.433 103.88C140.797 104.046 141.086 104.273 141.299 104.562C141.514 104.851 141.628 105.179 141.64 105.545H140.788Z" fill="black"/>
<path d="M33.8807 122.727H34.9318L37.4034 128.764H37.4886L39.9602 122.727H41.0114V130H40.1875V124.474H40.1165L37.8438 130H37.0483L34.7756 124.474H34.7045V130H33.8807V122.727ZM43.0755 130H42.1522L44.8226 122.727H45.7317L48.4022 130H47.4789L45.3056 123.878H45.2488L43.0755 130ZM43.4164 127.159H47.138V127.94H43.4164V127.159ZM55.302 122.727V130H54.4498L50.4867 124.29H50.4157V130H49.535V122.727H50.3873L54.3645 128.452H54.4355V122.727H55.302ZM56.6665 123.509V122.727H62.1211V123.509H59.8342V130H58.9535V123.509H56.6665ZM66.2928 122.727H67.3439L69.8155 128.764H69.9007L72.3723 122.727H73.4235V130H72.5996V124.474H72.5286L70.2559 130H69.4604L67.1877 124.474H67.1167V130H66.2928V122.727ZM75.1893 130V122.727H79.5785V123.509H76.07V125.966H79.3512V126.747H76.07V129.219H79.6353V130H75.1893ZM86.9329 122.727V130H86.0806L82.1175 124.29H82.0465V130H81.1658V122.727H82.0181L85.9954 128.452H86.0664V122.727H86.9329ZM94.8315 126.364C94.8315 127.131 94.693 127.794 94.416 128.352C94.139 128.911 93.7591 129.342 93.2761 129.645C92.7931 129.948 92.2415 130.099 91.6213 130.099C91.001 130.099 90.4494 129.948 89.9664 129.645C89.4835 129.342 89.1035 128.911 88.8265 128.352C88.5495 127.794 88.411 127.131 88.411 126.364C88.411 125.597 88.5495 124.934 88.8265 124.375C89.1035 123.816 89.4835 123.385 89.9664 123.082C90.4494 122.779 91.001 122.628 91.6213 122.628C92.2415 122.628 92.7931 122.779 93.2761 123.082C93.7591 123.385 94.139 123.816 94.416 124.375C94.693 124.934 94.8315 125.597 94.8315 126.364ZM93.9792 126.364C93.9792 125.734 93.8739 125.202 93.6632 124.769C93.4548 124.336 93.1719 124.008 92.8145 123.786C92.4593 123.563 92.0616 123.452 91.6213 123.452C91.1809 123.452 90.782 123.563 90.4245 123.786C90.0694 124.008 89.7865 124.336 89.5758 124.769C89.3675 125.202 89.2633 125.734 89.2633 126.364C89.2633 126.993 89.3675 127.525 89.5758 127.958C89.7865 128.391 90.0694 128.719 90.4245 128.942C90.782 129.164 91.1809 129.276 91.6213 129.276C92.0616 129.276 92.4593 129.164 92.8145 128.942C93.1719 128.719 93.4548 128.391 93.6632 127.958C93.8739 127.525 93.9792 126.993 93.9792 126.364ZM96.3123 130V122.727H98.7697C99.3379 122.727 99.8043 122.824 100.169 123.018C100.533 123.21 100.803 123.474 100.979 123.81C101.154 124.147 101.241 124.529 101.241 124.957C101.241 125.386 101.154 125.766 100.979 126.097C100.803 126.429 100.535 126.689 100.172 126.879C99.8102 127.066 99.3474 127.159 98.7839 127.159H96.7953V126.364H98.7555C99.1438 126.364 99.4563 126.307 99.693 126.193C99.9321 126.08 100.105 125.919 100.211 125.71C100.32 125.5 100.375 125.249 100.375 124.957C100.375 124.666 100.32 124.412 100.211 124.194C100.103 123.976 99.9286 123.808 99.6895 123.69C99.4503 123.569 99.1343 123.509 98.7413 123.509H97.193V130H96.3123ZM99.7356 126.733L101.525 130H100.503L98.7413 126.733H99.7356Z" fill="black"/>
<path d="M33.8807 142.727H34.9318L37.4034 148.764H37.4886L39.9602 142.727H41.0114V150H40.1875V144.474H40.1165L37.8438 150H37.0483L34.7756 144.474H34.7045V150H33.8807V142.727ZM43.0755 150H42.1522L44.8226 142.727H45.7317L48.4022 150H47.4789L45.3056 143.878H45.2488L43.0755 150ZM43.4164 147.159H47.138V147.94H43.4164V147.159ZM55.302 142.727V150H54.4498L50.4867 144.29H50.4157V150H49.535V142.727H50.3873L54.3645 148.452H54.4355V142.727H55.302ZM56.6665 143.509V142.727H62.1211V143.509H59.8342V150H58.9535V143.509H56.6665ZM68.5371 150H66.2928V142.727H68.6365C69.342 142.727 69.9457 142.873 70.4476 143.164C70.9495 143.453 71.3342 143.868 71.6017 144.411C71.8693 144.95 72.003 145.597 72.003 146.349C72.003 147.107 71.8681 147.759 71.5982 148.306C71.3283 148.851 70.9353 149.27 70.4192 149.563C69.9031 149.854 69.2757 150 68.5371 150ZM67.1735 149.219H68.4803C69.0816 149.219 69.58 149.103 69.9753 148.871C70.3707 148.639 70.6654 148.308 70.8596 147.88C71.0537 147.451 71.1507 146.941 71.1507 146.349C71.1507 145.762 71.0549 145.257 70.8631 144.833C70.6713 144.407 70.3849 144.08 70.0037 143.853C69.6226 143.623 69.1479 143.509 68.5797 143.509H67.1735V149.219ZM73.4803 150V142.727H77.8695V143.509H74.361V145.966H77.6422V146.747H74.361V149.219H77.9263V150H73.4803ZM81.8716 143.509V142.727H87.3262V143.509H85.0392V150H84.1586V143.509H81.8716ZM88.1341 150H87.2108L89.8812 142.727H90.7903L93.4608 150H92.5375L90.3642 143.878H90.3074L88.1341 150ZM88.475 147.159H92.1966V147.94H88.475V147.159ZM94.5936 150V142.727H95.4743V149.219H98.8549V150H94.5936ZM100.219 150V142.727H101.099V149.219H104.48V150H100.219ZM105.844 150V142.727H110.233V143.509H106.724V145.966H110.006V146.747H106.724V149.219H110.29V150H105.844ZM111.82 150V142.727H114.278C114.846 142.727 115.312 142.824 115.677 143.018C116.041 143.21 116.311 143.474 116.486 143.81C116.662 144.147 116.749 144.529 116.749 144.957C116.749 145.386 116.662 145.766 116.486 146.097C116.311 146.429 116.042 146.689 115.68 146.879C115.318 147.066 114.855 147.159 114.292 147.159H112.303V146.364H114.263C114.652 146.364 114.964 146.307 115.201 146.193C115.44 146.08 115.613 145.919 115.719 145.71C115.828 145.5 115.883 145.249 115.883 144.957C115.883 144.666 115.828 144.412 115.719 144.194C115.61 143.976 115.436 143.808 115.197 143.69C114.958 143.569 114.642 143.509 114.249 143.509H112.701V150H111.82ZM115.243 146.733L117.033 150H116.01L114.249 146.733H115.243Z" fill="black"/>
<path d="M173.622 49.0795C173.198 49.0795 172.82 49.0066 172.489 48.8608C172.159 48.7131 171.899 48.5104 171.707 48.2528C171.518 47.9934 171.42 47.6941 171.415 47.3551H172.653C172.661 47.4972 172.707 47.6222 172.793 47.7301C172.88 47.8362 172.995 47.9186 173.139 47.9773C173.283 48.036 173.445 48.0653 173.625 48.0653C173.812 48.0653 173.978 48.0322 174.122 47.9659C174.266 47.8996 174.379 47.8078 174.46 47.6903C174.542 47.5729 174.582 47.4375 174.582 47.2841C174.582 47.1288 174.539 46.9915 174.452 46.8722C174.366 46.7509 174.243 46.6562 174.082 46.5881C173.923 46.5199 173.734 46.4858 173.514 46.4858H172.972V45.5824H173.514C173.7 45.5824 173.864 45.5502 174.006 45.4858C174.15 45.4214 174.261 45.3324 174.341 45.2188C174.42 45.1032 174.46 44.9688 174.46 44.8153C174.46 44.6695 174.425 44.5417 174.355 44.4318C174.287 44.3201 174.19 44.233 174.065 44.1705C173.942 44.108 173.798 44.0767 173.634 44.0767C173.467 44.0767 173.314 44.107 173.176 44.1676C173.038 44.2263 172.927 44.3106 172.844 44.4205C172.76 44.5303 172.716 44.6591 172.71 44.8068H171.531C171.537 44.4716 171.633 44.1761 171.818 43.9205C172.004 43.6648 172.254 43.465 172.568 43.321C172.884 43.1752 173.241 43.1023 173.639 43.1023C174.041 43.1023 174.392 43.1752 174.693 43.321C174.994 43.4669 175.228 43.6638 175.395 43.9119C175.563 44.1581 175.647 44.4347 175.645 44.7415C175.647 45.0672 175.545 45.339 175.341 45.5568C175.138 45.7746 174.874 45.9129 174.548 45.9716V46.017C174.976 46.072 175.302 46.2206 175.526 46.4631C175.751 46.7036 175.863 47.0047 175.861 47.3665C175.863 47.6979 175.767 47.9924 175.574 48.25C175.383 48.5076 175.118 48.7102 174.781 48.858C174.444 49.0057 174.058 49.0795 173.622 49.0795ZM176.779 43.1818H178.296L179.898 47.0909H179.967L181.569 43.1818H183.086V49H181.893V45.2131H181.844L180.339 48.9716H179.526L178.021 45.1989H177.972V49H176.779V43.1818Z" fill="black"/>
<path d="M173.622 70.0795C173.198 70.0795 172.82 70.0066 172.489 69.8608C172.159 69.7131 171.899 69.5104 171.707 69.2528C171.518 68.9934 171.42 68.6941 171.415 68.3551H172.653C172.661 68.4972 172.707 68.6222 172.793 68.7301C172.88 68.8362 172.995 68.9186 173.139 68.9773C173.283 69.036 173.445 69.0653 173.625 69.0653C173.812 69.0653 173.978 69.0322 174.122 68.9659C174.266 68.8996 174.379 68.8078 174.46 68.6903C174.542 68.5729 174.582 68.4375 174.582 68.2841C174.582 68.1288 174.539 67.9915 174.452 67.8722C174.366 67.7509 174.243 67.6562 174.082 67.5881C173.923 67.5199 173.734 67.4858 173.514 67.4858H172.972V66.5824H173.514C173.7 66.5824 173.864 66.5502 174.006 66.4858C174.15 66.4214 174.261 66.3324 174.341 66.2188C174.42 66.1032 174.46 65.9688 174.46 65.8153C174.46 65.6695 174.425 65.5417 174.355 65.4318C174.287 65.3201 174.19 65.233 174.065 65.1705C173.942 65.108 173.798 65.0767 173.634 65.0767C173.467 65.0767 173.314 65.107 173.176 65.1676C173.038 65.2263 172.927 65.3106 172.844 65.4205C172.76 65.5303 172.716 65.6591 172.71 65.8068H171.531C171.537 65.4716 171.633 65.1761 171.818 64.9205C172.004 64.6648 172.254 64.465 172.568 64.321C172.884 64.1752 173.241 64.1023 173.639 64.1023C174.041 64.1023 174.392 64.1752 174.693 64.321C174.994 64.4669 175.228 64.6638 175.395 64.9119C175.563 65.1581 175.647 65.4347 175.645 65.7415C175.647 66.0672 175.545 66.339 175.341 66.5568C175.138 66.7746 174.874 66.9129 174.548 66.9716V67.017C174.976 67.072 175.302 67.2206 175.526 67.4631C175.751 67.7036 175.863 68.0047 175.861 68.3665C175.863 68.6979 175.767 68.9924 175.574 69.25C175.383 69.5076 175.118 69.7102 174.781 69.858C174.444 70.0057 174.058 70.0795 173.622 70.0795ZM176.779 64.1818H178.296L179.898 68.0909H179.967L181.569 64.1818H183.086V70H181.893V66.2131H181.844L180.339 69.9716H179.526L178.021 66.1989H177.972V70H176.779V64.1818Z" fill="black"/>
<path d="M192.705 91.0795C192.405 91.0777 192.116 91.0275 191.838 90.929C191.562 90.8305 191.313 90.6705 191.094 90.4489C190.874 90.2273 190.7 89.9337 190.571 89.5682C190.444 89.2027 190.381 88.7538 190.381 88.2216C190.383 87.733 190.438 87.2964 190.548 86.9119C190.66 86.5256 190.819 86.1979 191.026 85.929C191.234 85.66 191.483 85.4555 191.773 85.3153C192.063 85.1733 192.387 85.1023 192.747 85.1023C193.135 85.1023 193.478 85.178 193.776 85.3295C194.073 85.4792 194.312 85.6828 194.491 85.9403C194.673 86.1979 194.783 86.4867 194.821 86.8068H193.608C193.561 86.6042 193.461 86.4451 193.31 86.3295C193.158 86.214 192.971 86.1562 192.747 86.1562C192.368 86.1562 192.08 86.321 191.884 86.6506C191.688 86.9801 191.589 87.428 191.585 87.9943H191.625C191.712 87.822 191.83 87.6752 191.977 87.554C192.127 87.4309 192.296 87.3371 192.486 87.2727C192.677 87.2064 192.879 87.1733 193.091 87.1733C193.436 87.1733 193.742 87.2547 194.011 87.4176C194.28 87.5786 194.492 87.8002 194.648 88.0824C194.803 88.3646 194.881 88.6875 194.881 89.0511C194.881 89.4451 194.789 89.7955 194.605 90.1023C194.423 90.4091 194.169 90.6496 193.841 90.8239C193.515 90.9962 193.136 91.0814 192.705 91.0795ZM192.699 90.1136C192.888 90.1136 193.058 90.0682 193.207 89.9773C193.357 89.8864 193.474 89.7633 193.56 89.608C193.645 89.4527 193.688 89.2784 193.688 89.0852C193.688 88.892 193.645 88.7187 193.56 88.5653C193.476 88.4119 193.361 88.2898 193.213 88.1989C193.065 88.108 192.897 88.0625 192.707 88.0625C192.565 88.0625 192.434 88.089 192.312 88.142C192.193 88.1951 192.088 88.2689 191.997 88.3636C191.908 88.4583 191.838 88.5682 191.787 88.6932C191.736 88.8163 191.71 88.9479 191.71 89.0881C191.71 89.2756 191.753 89.447 191.838 89.6023C191.925 89.7576 192.043 89.8816 192.19 89.9744C192.34 90.0672 192.509 90.1136 192.699 90.1136ZM195.787 85.1818H197.304L198.906 89.0909H198.974L200.577 85.1818H202.094V91H200.901V87.2131H200.852L199.347 90.9716H198.534L197.028 87.1989H196.98V91H195.787V85.1818Z" fill="black"/>
<path d="M192.705 110.08C192.405 110.078 192.116 110.027 191.838 109.929C191.562 109.83 191.313 109.67 191.094 109.449C190.874 109.227 190.7 108.934 190.571 108.568C190.444 108.203 190.381 107.754 190.381 107.222C190.383 106.733 190.438 106.296 190.548 105.912C190.66 105.526 190.819 105.198 191.026 104.929C191.234 104.66 191.483 104.455 191.773 104.315C192.063 104.173 192.387 104.102 192.747 104.102C193.135 104.102 193.478 104.178 193.776 104.33C194.073 104.479 194.312 104.683 194.491 104.94C194.673 105.198 194.783 105.487 194.821 105.807H193.608C193.561 105.604 193.461 105.445 193.31 105.33C193.158 105.214 192.971 105.156 192.747 105.156C192.368 105.156 192.08 105.321 191.884 105.651C191.688 105.98 191.589 106.428 191.585 106.994H191.625C191.712 106.822 191.83 106.675 191.977 106.554C192.127 106.431 192.296 106.337 192.486 106.273C192.677 106.206 192.879 106.173 193.091 106.173C193.436 106.173 193.742 106.255 194.011 106.418C194.28 106.579 194.492 106.8 194.648 107.082C194.803 107.365 194.881 107.687 194.881 108.051C194.881 108.445 194.789 108.795 194.605 109.102C194.423 109.409 194.169 109.65 193.841 109.824C193.515 109.996 193.136 110.081 192.705 110.08ZM192.699 109.114C192.888 109.114 193.058 109.068 193.207 108.977C193.357 108.886 193.474 108.763 193.56 108.608C193.645 108.453 193.688 108.278 193.688 108.085C193.688 107.892 193.645 107.719 193.56 107.565C193.476 107.412 193.361 107.29 193.213 107.199C193.065 107.108 192.897 107.062 192.707 107.062C192.565 107.062 192.434 107.089 192.312 107.142C192.193 107.195 192.088 107.269 191.997 107.364C191.908 107.458 191.838 107.568 191.787 107.693C191.736 107.816 191.71 107.948 191.71 108.088C191.71 108.276 191.753 108.447 191.838 108.602C191.925 108.758 192.043 108.882 192.19 108.974C192.34 109.067 192.509 109.114 192.699 109.114ZM195.787 104.182H197.304L198.906 108.091H198.974L200.577 104.182H202.094V110H200.901V106.213H200.852L199.347 109.972H198.534L197.028 106.199H196.98V110H195.787V104.182Z" fill="black"/>
<path d="M213.054 124.182V130H211.824V125.349H211.789L210.457 126.185V125.094L211.897 124.182H213.054ZM215.473 130H214.155L216.164 124.182H217.749L219.755 130H218.436L216.979 125.511H216.934L215.473 130ZM215.391 127.713H218.505V128.673H215.391V127.713Z" fill="black"/>
<path d="M227.68 148.977V148.009L230.109 144.182H230.945V145.523H230.45L228.919 147.946V147.991H232.371V148.977H227.68ZM230.473 150V148.682L230.496 148.253V144.182H231.649V150H230.473ZM234.227 150H232.909L234.918 144.182H236.503L238.509 150H237.19L235.733 145.511H235.688L234.227 150ZM234.145 147.713H237.259V148.673H234.145V147.713Z" fill="black"/>
<line x1="151.5" y1="17" x2="151.5" y2="157" stroke="black"/>
<line x1="242.5" y1="17" x2="242.5" y2="157" stroke="black"/>
<line x1="0.5" y1="17" x2="0.499994" y2="157" stroke="black"/>
<line x1="28.5" y1="17" x2="28.5" y2="157" stroke="black"/>
<path d="M11.0085 27.0909C11.0085 27.7254 10.8883 28.2652 10.6477 28.7102C10.4091 29.1553 10.0833 29.4953 9.67045 29.7301C9.25947 29.9631 8.79735 30.0795 8.28409 30.0795C7.76705 30.0795 7.30303 29.9621 6.89205 29.7273C6.48106 29.4924 6.15625 29.1525 5.91761 28.7074C5.67898 28.2623 5.55966 27.7235 5.55966 27.0909C5.55966 26.4564 5.67898 25.9167 5.91761 25.4716C6.15625 25.0265 6.48106 24.6875 6.89205 24.4545C7.30303 24.2197 7.76705 24.1023 8.28409 24.1023C8.79735 24.1023 9.25947 24.2197 9.67045 24.4545C10.0833 24.6875 10.4091 25.0265 10.6477 25.4716C10.8883 25.9167 11.0085 26.4564 11.0085 27.0909ZM9.76136 27.0909C9.76136 26.6799 9.69981 26.3333 9.5767 26.0511C9.45549 25.7689 9.28409 25.5549 9.0625 25.4091C8.84091 25.2633 8.58144 25.1903 8.28409 25.1903C7.98674 25.1903 7.72727 25.2633 7.50568 25.4091C7.28409 25.5549 7.11174 25.7689 6.98864 26.0511C6.86742 26.3333 6.80682 26.6799 6.80682 27.0909C6.80682 27.5019 6.86742 27.8485 6.98864 28.1307C7.11174 28.4129 7.28409 28.6269 7.50568 28.7727C7.72727 28.9186 7.98674 28.9915 8.28409 28.9915C8.58144 28.9915 8.84091 28.9186 9.0625 28.7727C9.28409 28.6269 9.45549 28.4129 9.5767 28.1307C9.69981 27.8485 9.76136 27.5019 9.76136 27.0909ZM11.9197 30V24.1818H14.2152C14.6565 24.1818 15.0324 24.2661 15.343 24.4347C15.6536 24.6013 15.8904 24.8333 16.0533 25.1307C16.218 25.4261 16.3004 25.767 16.3004 26.1534C16.3004 26.5398 16.2171 26.8807 16.0504 27.1761C15.8838 27.4716 15.6423 27.7017 15.326 27.8665C15.0116 28.0312 14.6309 28.1136 14.1839 28.1136H12.7209V27.1278H13.9851C14.2218 27.1278 14.4169 27.0871 14.5703 27.0057C14.7256 26.9223 14.8411 26.8078 14.9169 26.6619C14.9946 26.5142 15.0334 26.3447 15.0334 26.1534C15.0334 25.9602 14.9946 25.7917 14.9169 25.6477C14.8411 25.5019 14.7256 25.3892 14.5703 25.3097C14.415 25.2282 14.218 25.1875 13.9794 25.1875H13.1499V30H11.9197ZM17.0994 30V24.1818H19.3949C19.8343 24.1818 20.2093 24.2604 20.5199 24.4176C20.8324 24.5729 21.0701 24.7936 21.233 25.0795C21.3977 25.3636 21.4801 25.6979 21.4801 26.0824C21.4801 26.4687 21.3968 26.8011 21.2301 27.0795C21.0634 27.3561 20.822 27.5682 20.5057 27.7159C20.1913 27.8636 19.8106 27.9375 19.3636 27.9375H17.8267V26.9489H19.1648C19.3996 26.9489 19.5947 26.9167 19.75 26.8523C19.9053 26.7879 20.0208 26.6913 20.0966 26.5625C20.1742 26.4337 20.2131 26.2737 20.2131 26.0824C20.2131 25.8892 20.1742 25.7263 20.0966 25.5938C20.0208 25.4612 19.9044 25.3608 19.7472 25.2926C19.5919 25.2225 19.3958 25.1875 19.1591 25.1875H18.3295V30H17.0994ZM20.2415 27.3523L21.6875 30H20.3295L18.9148 27.3523H20.2415Z" fill="black"/>
<path d="M6.88068 50V44.1818H9.17614C9.61742 44.1818 9.99337 44.2661 10.304 44.4347C10.6146 44.6013 10.8513 44.8333 11.0142 45.1307C11.179 45.4261 11.2614 45.767 11.2614 46.1534C11.2614 46.5398 11.178 46.8807 11.0114 47.1761C10.8447 47.4716 10.6032 47.7017 10.2869 47.8665C9.97254 48.0312 9.59186 48.1136 9.14489 48.1136H7.68182V47.1278H8.94602C9.18277 47.1278 9.37784 47.0871 9.53125 47.0057C9.68655 46.9223 9.80208 46.8078 9.87784 46.6619C9.95549 46.5142 9.99432 46.3447 9.99432 46.1534C9.99432 45.9602 9.95549 45.7917 9.87784 45.6477C9.80208 45.5019 9.68655 45.3892 9.53125 45.3097C9.37595 45.2282 9.17898 45.1875 8.94034 45.1875H8.1108V50H6.88068ZM12.0604 50V44.1818H14.3558C14.7952 44.1818 15.1702 44.2604 15.4808 44.4176C15.7933 44.5729 16.031 44.7936 16.1939 45.0795C16.3587 45.3636 16.4411 45.6979 16.4411 46.0824C16.4411 46.4687 16.3577 46.8011 16.1911 47.0795C16.0244 47.3561 15.7829 47.5682 15.4666 47.7159C15.1522 47.8636 14.7715 47.9375 14.3246 47.9375H12.7876V46.9489H14.1257C14.3606 46.9489 14.5556 46.9167 14.7109 46.8523C14.8662 46.7879 14.9818 46.6913 15.0575 46.5625C15.1352 46.4337 15.174 46.2737 15.174 46.0824C15.174 45.8892 15.1352 45.7263 15.0575 45.5938C14.9818 45.4612 14.8653 45.3608 14.7081 45.2926C14.5528 45.2225 14.3568 45.1875 14.12 45.1875H13.2905V50H12.0604ZM15.2024 47.3523L16.6484 50H15.2905L13.8757 47.3523H15.2024ZM19.3729 50H17.3104V44.1818H19.3899C19.9751 44.1818 20.4789 44.2983 20.9013 44.5312C21.3236 44.7623 21.6484 45.0947 21.8757 45.5284C22.1049 45.9621 22.2195 46.4811 22.2195 47.0852C22.2195 47.6913 22.1049 48.2121 21.8757 48.6477C21.6484 49.0833 21.3217 49.4176 20.8956 49.6506C20.4714 49.8835 19.9638 50 19.3729 50ZM18.5405 48.946H19.3217C19.6854 48.946 19.9912 48.8816 20.2393 48.7528C20.4893 48.6222 20.6768 48.4205 20.8018 48.1477C20.9287 47.8731 20.9922 47.5189 20.9922 47.0852C20.9922 46.6553 20.9287 46.304 20.8018 46.0312C20.6768 45.7585 20.4903 45.5578 20.2422 45.429C19.9941 45.3002 19.6882 45.2358 19.3246 45.2358H18.5405V48.946Z" fill="black"/>
<path d="M6.88068 70V64.1818H9.17614C9.61742 64.1818 9.99337 64.2661 10.304 64.4347C10.6146 64.6013 10.8513 64.8333 11.0142 65.1307C11.179 65.4261 11.2614 65.767 11.2614 66.1534C11.2614 66.5398 11.178 66.8807 11.0114 67.1761C10.8447 67.4716 10.6032 67.7017 10.2869 67.8665C9.97254 68.0312 9.59186 68.1136 9.14489 68.1136H7.68182V67.1278H8.94602C9.18277 67.1278 9.37784 67.0871 9.53125 67.0057C9.68655 66.9223 9.80208 66.8078 9.87784 66.6619C9.95549 66.5142 9.99432 66.3447 9.99432 66.1534C9.99432 65.9602 9.95549 65.7917 9.87784 65.6477C9.80208 65.5019 9.68655 65.3892 9.53125 65.3097C9.37595 65.2282 9.17898 65.1875 8.94034 65.1875H8.1108V70H6.88068ZM12.0604 70V64.1818H14.3558C14.7952 64.1818 15.1702 64.2604 15.4808 64.4176C15.7933 64.5729 16.031 64.7936 16.1939 65.0795C16.3587 65.3636 16.4411 65.6979 16.4411 66.0824C16.4411 66.4687 16.3577 66.8011 16.1911 67.0795C16.0244 67.3561 15.7829 67.5682 15.4666 67.7159C15.1522 67.8636 14.7715 67.9375 14.3246 67.9375H12.7876V66.9489H14.1257C14.3606 66.9489 14.5556 66.9167 14.7109 66.8523C14.8662 66.7879 14.9818 66.6913 15.0575 66.5625C15.1352 66.4337 15.174 66.2737 15.174 66.0824C15.174 65.8892 15.1352 65.7263 15.0575 65.5938C14.9818 65.4612 14.8653 65.3608 14.7081 65.2926C14.5528 65.2225 14.3568 65.1875 14.12 65.1875H13.2905V70H12.0604ZM15.2024 67.3523L16.6484 70H15.2905L13.8757 67.3523H15.2024ZM19.3729 70H17.3104V64.1818H19.3899C19.9751 64.1818 20.4789 64.2983 20.9013 64.5312C21.3236 64.7623 21.6484 65.0947 21.8757 65.5284C22.1049 65.9621 22.2195 66.4811 22.2195 67.0852C22.2195 67.6913 22.1049 68.2121 21.8757 68.6477C21.6484 69.0833 21.3217 69.4176 20.8956 69.6506C20.4714 69.8835 19.9638 70 19.3729 70ZM18.5405 68.946H19.3217C19.6854 68.946 19.9912 68.8816 20.2393 68.7528C20.4893 68.6222 20.6768 68.4205 20.8018 68.1477C20.9287 67.8731 20.9922 67.5189 20.9922 67.0852C20.9922 66.6553 20.9287 66.304 20.8018 66.0312C20.6768 65.7585 20.4903 65.5578 20.2422 65.429C19.9941 65.3002 19.6882 65.2358 19.3246 65.2358H18.5405V68.946Z" fill="black"/>
<path d="M5.88849 84.1818H7.40554L9.00781 88.0909H9.07599L10.6783 84.1818H12.1953V90H11.0021V86.2131H10.9538L9.44815 89.9716H8.63565L7.12997 86.1989H7.08168V90H5.88849V84.1818ZM13.2088 90V84.1818H17.1293V85.196H14.4389V86.5824H16.9276V87.5966H14.4389V88.9858H17.1406V90H13.2088ZM23.2408 86.2188H21.9964C21.9737 86.0578 21.9273 85.9148 21.8572 85.7898C21.7872 85.6629 21.6972 85.5549 21.5874 85.4659C21.4775 85.3769 21.3506 85.3087 21.2067 85.2614C21.0646 85.214 20.9103 85.1903 20.7436 85.1903C20.4425 85.1903 20.1802 85.2652 19.9567 85.4148C19.7332 85.5625 19.5599 85.7784 19.4368 86.0625C19.3137 86.3447 19.2521 86.6875 19.2521 87.0909C19.2521 87.5057 19.3137 87.8542 19.4368 88.1364C19.5618 88.4186 19.736 88.6316 19.9595 88.7756C20.183 88.9195 20.4415 88.9915 20.7351 88.9915C20.8999 88.9915 21.0523 88.9697 21.1925 88.9261C21.3345 88.8826 21.4605 88.8191 21.5703 88.7358C21.6802 88.6506 21.7711 88.5473 21.843 88.4261C21.9169 88.3049 21.968 88.1667 21.9964 88.0114L23.2408 88.017C23.2086 88.2841 23.1281 88.5417 22.9993 88.7898C22.8724 89.036 22.701 89.2566 22.4851 89.4517C22.2711 89.6449 22.0154 89.7983 21.718 89.9119C21.4226 90.0237 21.0883 90.0795 20.7152 90.0795C20.1963 90.0795 19.7322 89.9621 19.3232 89.7273C18.916 89.4924 18.594 89.1525 18.3572 88.7074C18.1224 88.2623 18.005 87.7235 18.005 87.0909C18.005 86.4564 18.1243 85.9167 18.3629 85.4716C18.6016 85.0265 18.9254 84.6875 19.3345 84.4545C19.7436 84.2197 20.2038 84.1023 20.7152 84.1023C21.0523 84.1023 21.3648 84.1496 21.6527 84.2443C21.9425 84.339 22.1991 84.4773 22.4226 84.6591C22.6461 84.839 22.8279 85.0597 22.968 85.321C23.1101 85.5824 23.201 85.8816 23.2408 86.2188Z" fill="black"/>
<path d="M5.88849 124.182H7.40554L9.00781 128.091H9.07599L10.6783 124.182H12.1953V130H11.0021V126.213H10.9538L9.44815 129.972H8.63565L7.12997 126.199H7.08168V130H5.88849V124.182ZM13.2088 130V124.182H17.1293V125.196H14.4389V126.582H16.9276V127.597H14.4389V128.986H17.1406V130H13.2088ZM23.2408 126.219H21.9964C21.9737 126.058 21.9273 125.915 21.8572 125.79C21.7872 125.663 21.6972 125.555 21.5874 125.466C21.4775 125.377 21.3506 125.309 21.2067 125.261C21.0646 125.214 20.9103 125.19 20.7436 125.19C20.4425 125.19 20.1802 125.265 19.9567 125.415C19.7332 125.562 19.5599 125.778 19.4368 126.062C19.3137 126.345 19.2521 126.687 19.2521 127.091C19.2521 127.506 19.3137 127.854 19.4368 128.136C19.5618 128.419 19.736 128.632 19.9595 128.776C20.183 128.92 20.4415 128.991 20.7351 128.991C20.8999 128.991 21.0523 128.97 21.1925 128.926C21.3345 128.883 21.4605 128.819 21.5703 128.736C21.6802 128.651 21.7711 128.547 21.843 128.426C21.9169 128.305 21.968 128.167 21.9964 128.011L23.2408 128.017C23.2086 128.284 23.1281 128.542 22.9993 128.79C22.8724 129.036 22.701 129.257 22.4851 129.452C22.2711 129.645 22.0154 129.798 21.718 129.912C21.4226 130.024 21.0883 130.08 20.7152 130.08C20.1963 130.08 19.7322 129.962 19.3232 129.727C18.916 129.492 18.594 129.152 18.3572 128.707C18.1224 128.262 18.005 127.723 18.005 127.091C18.005 126.456 18.1243 125.917 18.3629 125.472C18.6016 125.027 18.9254 124.687 19.3345 124.455C19.7436 124.22 20.2038 124.102 20.7152 124.102C21.0523 124.102 21.3648 124.15 21.6527 124.244C21.9425 124.339 22.1991 124.477 22.4226 124.659C22.6461 124.839 22.8279 125.06 22.968 125.321C23.1101 125.582 23.201 125.882 23.2408 126.219Z" fill="black"/>
<path d="M6.88849 144.182H8.40554L10.0078 148.091H10.076L11.6783 144.182H13.1953V150H12.0021V146.213H11.9538L10.4482 149.972H9.63565L8.12997 146.199H8.08168V150H6.88849V144.182ZM14.2088 150V144.182H18.1293V145.196H15.4389V146.582H17.9276V147.597H15.4389V148.986H18.1406V150H14.2088ZM24.2408 146.219H22.9964C22.9737 146.058 22.9273 145.915 22.8572 145.79C22.7872 145.663 22.6972 145.555 22.5874 145.466C22.4775 145.377 22.3506 145.309 22.2067 145.261C22.0646 145.214 21.9103 145.19 21.7436 145.19C21.4425 145.19 21.1802 145.265 20.9567 145.415C20.7332 145.562 20.5599 145.778 20.4368 146.062C20.3137 146.345 20.2521 146.687 20.2521 147.091C20.2521 147.506 20.3137 147.854 20.4368 148.136C20.5618 148.419 20.736 148.632 20.9595 148.776C21.183 148.92 21.4415 148.991 21.7351 148.991C21.8999 148.991 22.0523 148.97 22.1925 148.926C22.3345 148.883 22.4605 148.819 22.5703 148.736C22.6802 148.651 22.7711 148.547 22.843 148.426C22.9169 148.305 22.968 148.167 22.9964 148.011L24.2408 148.017C24.2086 148.284 24.1281 148.542 23.9993 148.79C23.8724 149.036 23.701 149.257 23.4851 149.452C23.2711 149.645 23.0154 149.798 22.718 149.912C22.4226 150.024 22.0883 150.08 21.7152 150.08C21.1963 150.08 20.7322 149.962 20.3232 149.727C19.916 149.492 19.594 149.152 19.3572 148.707C19.1224 148.262 19.005 147.723 19.005 147.091C19.005 146.456 19.1243 145.917 19.3629 145.472C19.6016 145.027 19.9254 144.687 20.3345 144.455C20.7436 144.22 21.2038 144.102 21.7152 144.102C22.0523 144.102 22.3648 144.15 22.6527 144.244C22.9425 144.339 23.1991 144.477 23.4226 144.659C23.6461 144.839 23.8279 145.06 23.968 145.321C24.1101 145.582 24.201 145.882 24.2408 146.219Z" fill="black"/>
<path d="M7.83771 110V104.182H11.7582V105.196H9.06783V106.582H11.5565V107.597H9.06783V108.986H11.7695V110H7.83771ZM12.7362 110V104.182H13.9663V108.986H16.4606V110H12.7362ZM17.2752 110V104.182H21.1957V105.196H18.5053V106.582H20.994V107.597H18.5053V108.986H21.207V110H17.2752Z" fill="black"/>
</svg>
