<svg width="1058" height="453" viewBox="0 0 1058 453" fill="none" xmlns="http://www.w3.org/2000/svg">
<path d="M772 258L738.335 266.164L762.238 291.237L772 258ZM624.07 403.171L754.528 278.802L750.388 274.459L619.93 398.829L624.07 403.171Z" fill="white"/>
<path d="M772 211L764.431 177.196L738.94 200.653L772 211ZM619.792 50.0315L751.509 193.164L755.924 189.101L624.208 45.9685L619.792 50.0315Z" fill="white"/>
<path d="M764 232L734 214.679L734 249.321L764 232ZM629 235L737 235L737 229L629 229L629 235Z" fill="white"/>
<rect x="316" y="2" width="109" height="109" fill="#00BF9C" stroke="white" stroke-width="4"/>
<rect x="316" y="176" width="109" height="109" fill="#00BF9C" stroke="white" stroke-width="4"/>
<rect x="2" y="176" width="109" height="109" fill="#00BF9C" stroke="white" stroke-width="4"/>
<rect x="890" y="178" width="109" height="109" fill="#FFBA00" stroke="white" stroke-width="4"/>
<rect x="312" y="342" width="109" height="109" fill="#FF0000" stroke="white" stroke-width="4"/>
<rect x="517" y="2" width="110" height="109" fill="#FCC045" stroke="white" stroke-width="4"/>
<rect x="517" y="176" width="110" height="109" fill="#00BF9C" stroke="white" stroke-width="4"/>
<rect x="513" y="342" width="110" height="109" fill="#00BF9C" stroke="white" stroke-width="4"/>
<path d="M313.654 51.6392L283.364 68.447L313.065 86.2752L313.654 51.6392ZM226.572 202.544L302.33 76.3329L297.186 73.245L221.428 199.456L226.572 202.544Z" fill="white"/>
<path d="M170 232L140 214.679L140 249.321L170 232ZM113 235L143 235L143 229L113 229L113 235Z" fill="white"/>
<path d="M893 234L863 216.679L863 251.321L893 234ZM836 237L866 237L866 231L836 231L836 237Z" fill="white"/>
<path d="M1058 234L1028 216.679L1028 251.321L1058 234ZM1001 237L1031 237L1031 231L1001 231L1001 237Z" fill="white"/>
<path d="M309 404L307.788 369.38L278.412 387.74L309 404ZM221.456 269.59L292.146 382.694L297.234 379.514L226.544 266.41L221.456 269.59Z" fill="white"/>
<path d="M515 57L485 39.6795V74.3205L515 57ZM427 60H488V54H427V60Z" fill="white"/>
<path d="M515 232L485 214.679V249.321L515 232ZM427 235H488V229H427V235Z" fill="white"/>
<path d="M310 232L280 214.679V249.321L310 232ZM237 235H283V229H237V235Z" fill="white"/>
<path d="M511 401L481 383.679V418.321L511 401ZM423 404H484V398H423V404Z" fill="white"/>
<circle cx="203.5" cy="234.5" r="31.5" fill="#00BF9C" stroke="white" stroke-width="4"/>
<circle cx="797.5" cy="234.5" r="31.5" fill="#00BF9C" stroke="white" stroke-width="4"/>
</svg>
