<svg width="627" height="327" viewBox="0 0 627 327" fill="none" xmlns="http://www.w3.org/2000/svg">
<path d="M98.4157 176H82.9469V132.364H98.5435C102.933 132.364 106.711 133.237 109.879 134.984C113.046 136.717 115.482 139.21 117.187 142.463C118.906 145.716 119.765 149.608 119.765 154.139C119.765 158.685 118.906 162.591 117.187 165.858C115.482 169.125 113.032 171.632 109.836 173.379C106.654 175.126 102.847 176 98.4157 176ZM92.1728 168.095H98.0321C100.759 168.095 103.053 167.612 104.914 166.646C106.789 165.666 108.195 164.153 109.133 162.108C110.085 160.048 110.561 157.392 110.561 154.139C110.561 150.915 110.085 148.28 109.133 146.234C108.195 144.189 106.796 142.683 104.936 141.717C103.075 140.751 100.781 140.268 98.0534 140.268H92.1728V168.095ZM141.344 176.639C137.977 176.639 135.079 175.957 132.65 174.594C130.236 173.216 128.375 171.27 127.068 168.756C125.761 166.227 125.108 163.237 125.108 159.786C125.108 156.419 125.761 153.464 127.068 150.922C128.375 148.379 130.214 146.398 132.586 144.977C134.973 143.557 137.771 142.847 140.981 142.847C143.14 142.847 145.15 143.195 147.011 143.891C148.886 144.572 150.52 145.602 151.912 146.98C153.318 148.358 154.412 150.091 155.193 152.179C155.974 154.253 156.365 156.682 156.365 159.466V161.959H128.73V156.334H147.821C147.821 155.027 147.537 153.869 146.969 152.861C146.4 151.852 145.612 151.064 144.604 150.496C143.609 149.913 142.452 149.622 141.131 149.622C139.753 149.622 138.531 149.942 137.466 150.581C136.415 151.206 135.591 152.051 134.994 153.116C134.398 154.168 134.092 155.339 134.078 156.632V161.98C134.078 163.599 134.376 164.999 134.973 166.178C135.584 167.357 136.443 168.266 137.551 168.905C138.659 169.544 139.973 169.864 141.493 169.864C142.501 169.864 143.425 169.722 144.263 169.438C145.101 169.153 145.818 168.727 146.415 168.159C147.011 167.591 147.466 166.895 147.778 166.071L156.173 166.625C155.747 168.642 154.873 170.403 153.552 171.909C152.246 173.401 150.555 174.565 148.481 175.403C146.422 176.227 144.042 176.639 141.344 176.639ZM189.518 152.605L181.209 153.116C181.067 152.406 180.761 151.767 180.292 151.199C179.824 150.616 179.206 150.155 178.439 149.814C177.686 149.459 176.784 149.281 175.733 149.281C174.327 149.281 173.14 149.58 172.175 150.176C171.209 150.759 170.726 151.54 170.726 152.52C170.726 153.301 171.038 153.962 171.663 154.501C172.288 155.041 173.361 155.474 174.881 155.801L180.804 156.994C183.986 157.648 186.358 158.699 187.92 160.148C189.483 161.597 190.264 163.5 190.264 165.858C190.264 168.003 189.632 169.885 188.368 171.504C187.118 173.124 185.399 174.388 183.211 175.297C181.038 176.192 178.531 176.639 175.69 176.639C171.358 176.639 167.906 175.737 165.335 173.933C162.778 172.115 161.28 169.643 160.839 166.518L169.767 166.05C170.037 167.371 170.69 168.379 171.727 169.075C172.764 169.757 174.092 170.098 175.711 170.098C177.302 170.098 178.581 169.793 179.547 169.182C180.527 168.557 181.024 167.754 181.038 166.774C181.024 165.95 180.676 165.276 179.994 164.75C179.312 164.21 178.261 163.798 176.841 163.514L171.173 162.385C167.977 161.746 165.598 160.638 164.035 159.061C162.487 157.484 161.713 155.474 161.713 153.031C161.713 150.929 162.281 149.118 163.417 147.598C164.568 146.078 166.18 144.906 168.254 144.082C170.342 143.259 172.785 142.847 175.584 142.847C179.717 142.847 182.97 143.72 185.342 145.467C187.729 147.214 189.121 149.594 189.518 152.605ZM205.312 176.618C203.224 176.618 201.363 176.256 199.73 175.531C198.096 174.793 196.803 173.706 195.852 172.271C194.914 170.822 194.445 169.018 194.445 166.859C194.445 165.041 194.779 163.514 195.447 162.278C196.115 161.043 197.024 160.048 198.174 159.295C199.325 158.543 200.632 157.974 202.095 157.591C203.572 157.207 205.12 156.938 206.74 156.781C208.643 156.582 210.177 156.398 211.342 156.227C212.507 156.043 213.352 155.773 213.877 155.418C214.403 155.062 214.666 154.537 214.666 153.841V153.713C214.666 152.364 214.24 151.32 213.387 150.581C212.549 149.842 211.356 149.473 209.808 149.473C208.174 149.473 206.874 149.835 205.909 150.56C204.943 151.27 204.303 152.165 203.991 153.244L195.596 152.562C196.022 150.574 196.86 148.855 198.11 147.406C199.36 145.943 200.972 144.821 202.947 144.04C204.936 143.244 207.237 142.847 209.85 142.847C211.669 142.847 213.409 143.06 215.07 143.486C216.747 143.912 218.231 144.572 219.524 145.467C220.83 146.362 221.86 147.513 222.613 148.919C223.366 150.311 223.742 151.98 223.742 153.926V176H215.134V171.462H214.879C214.353 172.484 213.65 173.386 212.769 174.168C211.889 174.935 210.83 175.538 209.595 175.979C208.359 176.405 206.931 176.618 205.312 176.618ZM207.911 170.354C209.247 170.354 210.426 170.091 211.448 169.565C212.471 169.026 213.274 168.301 213.856 167.392C214.438 166.483 214.73 165.453 214.73 164.303V160.83C214.445 161.014 214.055 161.185 213.558 161.341C213.075 161.483 212.528 161.618 211.917 161.746C211.306 161.859 210.695 161.966 210.085 162.065C209.474 162.151 208.92 162.229 208.423 162.3C207.357 162.456 206.427 162.705 205.632 163.045C204.836 163.386 204.218 163.848 203.778 164.43C203.338 164.999 203.117 165.709 203.117 166.561C203.117 167.797 203.565 168.741 204.46 169.395C205.369 170.034 206.519 170.354 207.911 170.354ZM230.784 176V143.273H239.584V148.983H239.925C240.521 146.952 241.523 145.418 242.929 144.381C244.335 143.33 245.955 142.804 247.787 142.804C248.242 142.804 248.732 142.832 249.257 142.889C249.783 142.946 250.244 143.024 250.642 143.124V151.178C250.216 151.05 249.627 150.936 248.874 150.837C248.121 150.737 247.432 150.688 246.807 150.688C245.472 150.688 244.279 150.979 243.227 151.561C242.191 152.129 241.367 152.925 240.756 153.947C240.159 154.97 239.861 156.149 239.861 157.484V176H230.784ZM255.335 176V143.273H264.135V148.983H264.476C265.072 146.952 266.074 145.418 267.48 144.381C268.886 143.33 270.506 142.804 272.338 142.804C272.792 142.804 273.282 142.832 273.808 142.889C274.334 142.946 274.795 143.024 275.193 143.124V151.178C274.767 151.05 274.177 150.936 273.425 150.837C272.672 150.737 271.983 150.688 271.358 150.688C270.023 150.688 268.829 150.979 267.778 151.561C266.741 152.129 265.917 152.925 265.307 153.947C264.71 154.97 264.412 156.149 264.412 157.484V176H255.335ZM293.149 176.639C289.84 176.639 286.977 175.936 284.563 174.53C282.162 173.109 280.308 171.135 279.002 168.607C277.695 166.064 277.041 163.116 277.041 159.764C277.041 156.384 277.695 153.429 279.002 150.901C280.308 148.358 282.162 146.384 284.563 144.977C286.977 143.557 289.84 142.847 293.149 142.847C296.459 142.847 299.314 143.557 301.715 144.977C304.129 146.384 305.99 148.358 307.297 150.901C308.604 153.429 309.257 156.384 309.257 159.764C309.257 163.116 308.604 166.064 307.297 168.607C305.99 171.135 304.129 173.109 301.715 174.53C299.314 175.936 296.459 176.639 293.149 176.639ZM293.192 169.608C294.698 169.608 295.955 169.182 296.963 168.33C297.972 167.463 298.732 166.284 299.243 164.793C299.769 163.301 300.031 161.604 300.031 159.7C300.031 157.797 299.769 156.099 299.243 154.608C298.732 153.116 297.972 151.937 296.963 151.071C295.955 150.205 294.698 149.771 293.192 149.771C291.672 149.771 290.394 150.205 289.357 151.071C288.334 151.937 287.56 153.116 287.034 154.608C286.523 156.099 286.267 157.797 286.267 159.7C286.267 161.604 286.523 163.301 287.034 164.793C287.56 166.284 288.334 167.463 289.357 168.33C290.394 169.182 291.672 169.608 293.192 169.608ZM324.236 132.364V176H315.159V132.364H324.236ZM340.584 132.364V176H331.507V132.364H340.584ZM362.642 176.639C359.332 176.639 356.47 175.936 354.055 174.53C351.654 173.109 349.801 171.135 348.494 168.607C347.187 166.064 346.534 163.116 346.534 159.764C346.534 156.384 347.187 153.429 348.494 150.901C349.801 148.358 351.654 146.384 354.055 144.977C356.47 143.557 359.332 142.847 362.642 142.847C365.951 142.847 368.806 143.557 371.207 144.977C373.622 146.384 375.482 148.358 376.789 150.901C378.096 153.429 378.749 156.384 378.749 159.764C378.749 163.116 378.096 166.064 376.789 168.607C375.482 171.135 373.622 173.109 371.207 174.53C368.806 175.936 365.951 176.639 362.642 176.639ZM362.684 169.608C364.19 169.608 365.447 169.182 366.455 168.33C367.464 167.463 368.224 166.284 368.735 164.793C369.261 163.301 369.524 161.604 369.524 159.7C369.524 157.797 369.261 156.099 368.735 154.608C368.224 153.116 367.464 151.937 366.455 151.071C365.447 150.205 364.19 149.771 362.684 149.771C361.164 149.771 359.886 150.205 358.849 151.071C357.826 151.937 357.052 153.116 356.526 154.608C356.015 156.099 355.759 157.797 355.759 159.7C355.759 161.604 356.015 163.301 356.526 164.793C357.052 166.284 357.826 167.463 358.849 168.33C359.886 169.182 361.164 169.608 362.684 169.608ZM410.598 176.533C408.112 176.533 405.861 175.893 403.844 174.615C401.841 173.322 400.25 171.426 399.071 168.926C397.906 166.412 397.324 163.33 397.324 159.679C397.324 155.929 397.927 152.811 399.135 150.325C400.342 147.825 401.947 145.957 403.95 144.722C405.967 143.472 408.176 142.847 410.577 142.847C412.409 142.847 413.936 143.159 415.157 143.784C416.393 144.395 417.388 145.162 418.14 146.085C418.907 146.994 419.49 147.889 419.888 148.77H420.165V132.364H429.22V176H420.271V170.759H419.888C419.461 171.668 418.858 172.57 418.077 173.464C417.309 174.345 416.308 175.077 415.072 175.659C413.851 176.241 412.359 176.533 410.598 176.533ZM413.474 169.31C414.937 169.31 416.173 168.912 417.182 168.116C418.204 167.307 418.986 166.178 419.525 164.729C420.079 163.28 420.356 161.582 420.356 159.636C420.356 157.69 420.086 156 419.547 154.565C419.007 153.131 418.226 152.023 417.203 151.241C416.18 150.46 414.937 150.07 413.474 150.07C411.983 150.07 410.726 150.474 409.703 151.284C408.68 152.094 407.906 153.216 407.381 154.651C406.855 156.085 406.592 157.747 406.592 159.636C406.592 161.54 406.855 163.223 407.381 164.686C407.92 166.135 408.694 167.271 409.703 168.095C410.726 168.905 411.983 169.31 413.474 169.31ZM451.597 176.639C448.231 176.639 445.333 175.957 442.904 174.594C440.49 173.216 438.629 171.27 437.322 168.756C436.015 166.227 435.362 163.237 435.362 159.786C435.362 156.419 436.015 153.464 437.322 150.922C438.629 148.379 440.468 146.398 442.84 144.977C445.227 143.557 448.025 142.847 451.235 142.847C453.394 142.847 455.404 143.195 457.265 143.891C459.14 144.572 460.774 145.602 462.166 146.98C463.572 148.358 464.666 150.091 465.447 152.179C466.228 154.253 466.619 156.682 466.619 159.466V161.959H438.984V156.334H458.075C458.075 155.027 457.791 153.869 457.222 152.861C456.654 151.852 455.866 151.064 454.857 150.496C453.863 149.913 452.705 149.622 451.384 149.622C450.007 149.622 448.785 149.942 447.72 150.581C446.669 151.206 445.845 152.051 445.248 153.116C444.651 154.168 444.346 155.339 444.332 156.632V161.98C444.332 163.599 444.63 164.999 445.227 166.178C445.838 167.357 446.697 168.266 447.805 168.905C448.913 169.544 450.227 169.864 451.747 169.864C452.755 169.864 453.678 169.722 454.517 169.438C455.355 169.153 456.072 168.727 456.669 168.159C457.265 167.591 457.72 166.895 458.032 166.071L466.427 166.625C466.001 168.642 465.127 170.403 463.806 171.909C462.499 173.401 460.809 174.565 458.735 175.403C456.676 176.227 454.296 176.639 451.597 176.639ZM495.506 132.364V176H486.429V132.364H495.506ZM512.109 176.618C510.021 176.618 508.16 176.256 506.526 175.531C504.893 174.793 503.6 173.706 502.649 172.271C501.711 170.822 501.242 169.018 501.242 166.859C501.242 165.041 501.576 163.514 502.244 162.278C502.911 161.043 503.82 160.048 504.971 159.295C506.122 158.543 507.428 157.974 508.892 157.591C510.369 157.207 511.917 156.938 513.536 156.781C515.44 156.582 516.974 156.398 518.139 156.227C519.303 156.043 520.149 155.773 520.674 155.418C521.2 155.062 521.463 154.537 521.463 153.841V153.713C521.463 152.364 521.036 151.32 520.184 150.581C519.346 149.842 518.153 149.473 516.605 149.473C514.971 149.473 513.671 149.835 512.705 150.56C511.74 151.27 511.1 152.165 510.788 153.244L502.393 152.562C502.819 150.574 503.657 148.855 504.907 147.406C506.157 145.943 507.769 144.821 509.744 144.04C511.732 143.244 514.034 142.847 516.647 142.847C518.465 142.847 520.205 143.06 521.867 143.486C523.544 143.912 525.028 144.572 526.32 145.467C527.627 146.362 528.657 147.513 529.41 148.919C530.163 150.311 530.539 151.98 530.539 153.926V176H521.931V171.462H521.676C521.15 172.484 520.447 173.386 519.566 174.168C518.686 174.935 517.627 175.538 516.392 175.979C515.156 176.405 513.728 176.618 512.109 176.618ZM514.708 170.354C516.044 170.354 517.222 170.091 518.245 169.565C519.268 169.026 520.07 168.301 520.653 167.392C521.235 166.483 521.526 165.453 521.526 164.303V160.83C521.242 161.014 520.852 161.185 520.355 161.341C519.872 161.483 519.325 161.618 518.714 161.746C518.103 161.859 517.492 161.966 516.882 162.065C516.271 162.151 515.717 162.229 515.22 162.3C514.154 162.456 513.224 162.705 512.428 163.045C511.633 163.386 511.015 163.848 510.575 164.43C510.134 164.999 509.914 165.709 509.914 166.561C509.914 167.797 510.362 168.741 511.257 169.395C512.166 170.034 513.316 170.354 514.708 170.354ZM37.7525 205.364H46.8718V235.79C46.8718 238.602 46.2397 241.045 44.9755 243.119C43.7255 245.193 41.9854 246.791 39.7553 247.913C37.5252 249.036 34.9329 249.597 31.9783 249.597C29.3505 249.597 26.9641 249.135 24.8192 248.212C22.6886 247.274 20.9982 245.854 19.7482 243.95C18.4982 242.033 17.8803 239.625 17.8945 236.727H27.0778C27.1062 237.878 27.3406 238.865 27.7809 239.689C28.2354 240.499 28.8533 241.124 29.6346 241.564C30.43 241.99 31.3675 242.203 32.4471 242.203C33.5835 242.203 34.5423 241.962 35.3235 241.479C36.119 240.982 36.7227 240.257 37.1346 239.305C37.5465 238.354 37.7525 237.182 37.7525 235.79V205.364ZM69.244 249.639C65.8775 249.639 62.9798 248.957 60.5508 247.594C58.136 246.216 56.2752 244.27 54.9684 241.756C53.6616 239.227 53.0082 236.237 53.0082 232.786C53.0082 229.419 53.6616 226.464 54.9684 223.922C56.2752 221.379 58.1147 219.398 60.4869 217.977C62.8732 216.557 65.6715 215.847 68.8817 215.847C71.0408 215.847 73.0508 216.195 74.9116 216.891C76.7866 217.572 78.4201 218.602 79.8121 219.98C81.2184 221.358 82.3121 223.091 83.0934 225.179C83.8746 227.253 84.2653 229.682 84.2653 232.466V234.959H56.6303V229.334H75.7212C75.7212 228.027 75.4371 226.869 74.869 225.861C74.3008 224.852 73.5124 224.064 72.5039 223.496C71.5096 222.913 70.3519 222.622 69.0309 222.622C67.6531 222.622 66.4315 222.942 65.3661 223.581C64.315 224.206 63.4911 225.051 62.8945 226.116C62.2979 227.168 61.9925 228.339 61.9783 229.632V234.98C61.9783 236.599 62.2766 237.999 62.8732 239.178C63.484 240.357 64.3434 241.266 65.4513 241.905C66.5593 242.544 67.8732 242.864 69.3931 242.864C70.4016 242.864 71.3249 242.722 72.163 242.438C73.0011 242.153 73.7184 241.727 74.315 241.159C74.9116 240.591 75.3661 239.895 75.6786 239.071L84.0735 239.625C83.6474 241.642 82.7738 243.403 81.4528 244.909C80.146 246.401 78.4556 247.565 76.3817 248.403C74.3221 249.227 71.9428 249.639 69.244 249.639ZM90.1886 249V216.273H98.9883V221.983H99.3292C99.9258 219.952 100.927 218.418 102.333 217.381C103.74 216.33 105.359 215.804 107.191 215.804C107.646 215.804 108.136 215.832 108.662 215.889C109.187 215.946 109.649 216.024 110.047 216.124V224.178C109.62 224.05 109.031 223.936 108.278 223.837C107.525 223.737 106.836 223.688 106.211 223.688C104.876 223.688 103.683 223.979 102.632 224.561C101.595 225.129 100.771 225.925 100.16 226.947C99.5636 227.97 99.2653 229.149 99.2653 230.484V249H90.1886ZM123.134 249.618C121.046 249.618 119.185 249.256 117.552 248.531C115.918 247.793 114.626 246.706 113.674 245.271C112.737 243.822 112.268 242.018 112.268 239.859C112.268 238.041 112.602 236.514 113.269 235.278C113.937 234.043 114.846 233.048 115.996 232.295C117.147 231.543 118.454 230.974 119.917 230.591C121.394 230.207 122.942 229.938 124.562 229.781C126.465 229.582 127.999 229.398 129.164 229.227C130.329 229.043 131.174 228.773 131.7 228.418C132.225 228.062 132.488 227.537 132.488 226.841V226.713C132.488 225.364 132.062 224.32 131.21 223.581C130.371 222.842 129.178 222.473 127.63 222.473C125.996 222.473 124.697 222.835 123.731 223.56C122.765 224.27 122.126 225.165 121.813 226.244L113.418 225.562C113.844 223.574 114.683 221.855 115.933 220.406C117.183 218.943 118.795 217.821 120.769 217.04C122.758 216.244 125.059 215.847 127.673 215.847C129.491 215.847 131.231 216.06 132.893 216.486C134.569 216.912 136.053 217.572 137.346 218.467C138.653 219.362 139.683 220.513 140.435 221.919C141.188 223.311 141.565 224.98 141.565 226.926V249H132.957V244.462H132.701C132.175 245.484 131.472 246.386 130.592 247.168C129.711 247.935 128.653 248.538 127.417 248.979C126.181 249.405 124.754 249.618 123.134 249.618ZM125.734 243.354C127.069 243.354 128.248 243.091 129.271 242.565C130.293 242.026 131.096 241.301 131.678 240.392C132.261 239.483 132.552 238.453 132.552 237.303V233.83C132.268 234.014 131.877 234.185 131.38 234.341C130.897 234.483 130.35 234.618 129.739 234.746C129.129 234.859 128.518 234.966 127.907 235.065C127.296 235.151 126.742 235.229 126.245 235.3C125.18 235.456 124.249 235.705 123.454 236.045C122.658 236.386 122.04 236.848 121.6 237.43C121.16 237.999 120.94 238.709 120.94 239.561C120.94 240.797 121.387 241.741 122.282 242.395C123.191 243.034 124.342 243.354 125.734 243.354ZM148.607 249V216.273H157.406V221.983H157.747C158.344 219.952 159.345 218.418 160.751 217.381C162.158 216.33 163.777 215.804 165.609 215.804C166.064 215.804 166.554 215.832 167.08 215.889C167.605 215.946 168.067 216.024 168.464 216.124V224.178C168.038 224.05 167.449 223.936 166.696 223.837C165.943 223.737 165.254 223.688 164.629 223.688C163.294 223.688 162.101 223.979 161.05 224.561C160.013 225.129 159.189 225.925 158.578 226.947C157.982 227.97 157.683 229.149 157.683 230.484V249H148.607ZM193.26 261.273V243.759H192.983C192.557 244.668 191.953 245.57 191.172 246.464C190.405 247.345 189.404 248.077 188.168 248.659C186.946 249.241 185.455 249.533 183.694 249.533C181.208 249.533 178.956 248.893 176.939 247.615C174.936 246.322 173.346 244.426 172.167 241.926C171.002 239.412 170.419 236.33 170.419 232.679C170.419 228.929 171.023 225.811 172.23 223.325C173.438 220.825 175.043 218.957 177.046 217.722C179.063 216.472 181.272 215.847 183.672 215.847C185.505 215.847 187.032 216.159 188.253 216.784C189.489 217.395 190.483 218.162 191.236 219.085C192.003 219.994 192.586 220.889 192.983 221.77H193.367V216.273H202.316V261.273H193.26ZM186.57 242.31C188.033 242.31 189.269 241.912 190.277 241.116C191.3 240.307 192.081 239.178 192.621 237.729C193.175 236.28 193.452 234.582 193.452 232.636C193.452 230.69 193.182 229 192.642 227.565C192.103 226.131 191.321 225.023 190.299 224.241C189.276 223.46 188.033 223.07 186.57 223.07C185.078 223.07 183.821 223.474 182.799 224.284C181.776 225.094 181.002 226.216 180.476 227.651C179.951 229.085 179.688 230.747 179.688 232.636C179.688 234.54 179.951 236.223 180.476 237.686C181.016 239.135 181.79 240.271 182.799 241.095C183.821 241.905 185.078 242.31 186.57 242.31ZM230.59 235.065V216.273H239.667V249H230.952V243.055H230.611C229.873 244.973 228.644 246.514 226.925 247.679C225.221 248.844 223.14 249.426 220.682 249.426C218.495 249.426 216.57 248.929 214.908 247.935C213.246 246.94 211.946 245.527 211.009 243.695C210.086 241.862 209.617 239.668 209.603 237.111V216.273H218.679V235.491C218.694 237.423 219.212 238.95 220.235 240.072C221.257 241.195 222.628 241.756 224.347 241.756C225.441 241.756 226.463 241.507 227.415 241.01C228.367 240.499 229.134 239.746 229.716 238.751C230.313 237.757 230.604 236.528 230.59 235.065ZM246.927 249V216.273H256.004V249H246.927ZM248.227 212.054L252.744 202.359H261.138L254.64 212.054H248.227ZM272.607 249.618C270.519 249.618 268.658 249.256 267.025 248.531C265.391 247.793 264.098 246.706 263.147 245.271C262.209 243.822 261.74 242.018 261.74 239.859C261.74 238.041 262.074 236.514 262.742 235.278C263.409 234.043 264.319 233.048 265.469 232.295C266.62 231.543 267.926 230.974 269.39 230.591C270.867 230.207 272.415 229.938 274.034 229.781C275.938 229.582 277.472 229.398 278.637 229.227C279.801 229.043 280.647 228.773 281.172 228.418C281.698 228.062 281.961 227.537 281.961 226.841V226.713C281.961 225.364 281.534 224.32 280.682 223.581C279.844 222.842 278.651 222.473 277.103 222.473C275.469 222.473 274.169 222.835 273.203 223.56C272.238 224.27 271.598 225.165 271.286 226.244L262.891 225.562C263.317 223.574 264.155 221.855 265.405 220.406C266.655 218.943 268.267 217.821 270.242 217.04C272.23 216.244 274.532 215.847 277.145 215.847C278.963 215.847 280.703 216.06 282.365 216.486C284.042 216.912 285.526 217.572 286.819 218.467C288.125 219.362 289.155 220.513 289.908 221.919C290.661 223.311 291.037 224.98 291.037 226.926V249H282.429V244.462H282.174C281.648 245.484 280.945 246.386 280.064 247.168C279.184 247.935 278.125 248.538 276.89 248.979C275.654 249.405 274.226 249.618 272.607 249.618ZM275.206 243.354C276.542 243.354 277.721 243.091 278.743 242.565C279.766 242.026 280.569 241.301 281.151 240.392C281.733 239.483 282.025 238.453 282.025 237.303V233.83C281.74 234.014 281.35 234.185 280.853 234.341C280.37 234.483 279.823 234.618 279.212 234.746C278.601 234.859 277.99 234.966 277.38 235.065C276.769 235.151 276.215 235.229 275.718 235.3C274.652 235.456 273.722 235.705 272.926 236.045C272.131 236.386 271.513 236.848 271.073 237.43C270.632 237.999 270.412 238.709 270.412 239.561C270.412 240.797 270.86 241.741 271.755 242.395C272.664 243.034 273.814 243.354 275.206 243.354ZM324.026 249.533C321.54 249.533 319.288 248.893 317.271 247.615C315.268 246.322 313.678 244.426 312.499 241.926C311.334 239.412 310.751 236.33 310.751 232.679C310.751 228.929 311.355 225.811 312.562 223.325C313.77 220.825 315.375 218.957 317.378 217.722C319.395 216.472 321.604 215.847 324.004 215.847C325.837 215.847 327.364 216.159 328.585 216.784C329.821 217.395 330.815 218.162 331.568 219.085C332.335 219.994 332.918 220.889 333.315 221.77H333.592V205.364H342.648V249H333.699V243.759H333.315C332.889 244.668 332.286 245.57 331.504 246.464C330.737 247.345 329.736 248.077 328.5 248.659C327.278 249.241 325.787 249.533 324.026 249.533ZM326.902 242.31C328.365 242.31 329.601 241.912 330.609 241.116C331.632 240.307 332.413 239.178 332.953 237.729C333.507 236.28 333.784 234.582 333.784 232.636C333.784 230.69 333.514 229 332.974 227.565C332.435 226.131 331.653 225.023 330.631 224.241C329.608 223.46 328.365 223.07 326.902 223.07C325.411 223.07 324.153 223.474 323.131 224.284C322.108 225.094 321.334 226.216 320.808 227.651C320.283 229.085 320.02 230.747 320.02 232.636C320.02 234.54 320.283 236.223 320.808 237.686C321.348 239.135 322.122 240.271 323.131 241.095C324.153 241.905 325.411 242.31 326.902 242.31ZM365.025 249.639C361.659 249.639 358.761 248.957 356.332 247.594C353.917 246.216 352.056 244.27 350.75 241.756C349.443 239.227 348.789 236.237 348.789 232.786C348.789 229.419 349.443 226.464 350.75 223.922C352.056 221.379 353.896 219.398 356.268 217.977C358.654 216.557 361.453 215.847 364.663 215.847C366.822 215.847 368.832 216.195 370.693 216.891C372.568 217.572 374.201 218.602 375.593 219.98C377 221.358 378.093 223.091 378.875 225.179C379.656 227.253 380.047 229.682 380.047 232.466V234.959H352.412V229.334H371.502C371.502 228.027 371.218 226.869 370.65 225.861C370.082 224.852 369.294 224.064 368.285 223.496C367.291 222.913 366.133 222.622 364.812 222.622C363.434 222.622 362.213 222.942 361.147 223.581C360.096 224.206 359.272 225.051 358.676 226.116C358.079 227.168 357.774 228.339 357.76 229.632V234.98C357.76 236.599 358.058 237.999 358.654 239.178C359.265 240.357 360.125 241.266 361.233 241.905C362.341 242.544 363.654 242.864 365.174 242.864C366.183 242.864 367.106 242.722 367.944 242.438C368.782 242.153 369.5 241.727 370.096 241.159C370.693 240.591 371.147 239.895 371.46 239.071L379.855 239.625C379.429 241.642 378.555 243.403 377.234 244.909C375.927 246.401 374.237 247.565 372.163 248.403C370.103 249.227 367.724 249.639 365.025 249.639ZM409.189 249.618C407.101 249.618 405.24 249.256 403.607 248.531C401.973 247.793 400.68 246.706 399.729 245.271C398.791 243.822 398.322 242.018 398.322 239.859C398.322 238.041 398.656 236.514 399.324 235.278C399.991 234.043 400.901 233.048 402.051 232.295C403.202 231.543 404.509 230.974 405.972 230.591C407.449 230.207 408.997 229.938 410.616 229.781C412.52 229.582 414.054 229.398 415.219 229.227C416.384 229.043 417.229 228.773 417.754 228.418C418.28 228.062 418.543 227.537 418.543 226.841V226.713C418.543 225.364 418.116 224.32 417.264 223.581C416.426 222.842 415.233 222.473 413.685 222.473C412.051 222.473 410.751 222.835 409.786 223.56C408.82 224.27 408.18 225.165 407.868 226.244L399.473 225.562C399.899 223.574 400.737 221.855 401.987 220.406C403.237 218.943 404.849 217.821 406.824 217.04C408.813 216.244 411.114 215.847 413.727 215.847C415.545 215.847 417.286 216.06 418.947 216.486C420.624 216.912 422.108 217.572 423.401 218.467C424.707 219.362 425.737 220.513 426.49 221.919C427.243 223.311 427.619 224.98 427.619 226.926V249H419.011V244.462H418.756C418.23 245.484 417.527 246.386 416.646 247.168C415.766 247.935 414.707 248.538 413.472 248.979C412.236 249.405 410.808 249.618 409.189 249.618ZM411.788 243.354C413.124 243.354 414.303 243.091 415.325 242.565C416.348 242.026 417.151 241.301 417.733 240.392C418.315 239.483 418.607 238.453 418.607 237.303V233.83C418.322 234.014 417.932 234.185 417.435 234.341C416.952 234.483 416.405 234.618 415.794 234.746C415.183 234.859 414.572 234.966 413.962 235.065C413.351 235.151 412.797 235.229 412.3 235.3C411.234 235.456 410.304 235.705 409.509 236.045C408.713 236.386 408.095 236.848 407.655 237.43C407.214 237.999 406.994 238.709 406.994 239.561C406.994 240.797 407.442 241.741 408.337 242.395C409.246 243.034 410.396 243.354 411.788 243.354ZM449.448 249.639C446.096 249.639 443.212 248.929 440.798 247.509C438.397 246.074 436.55 244.085 435.258 241.543C433.979 239 433.34 236.074 433.34 232.764C433.34 229.412 433.987 226.472 435.279 223.943C436.586 221.401 438.44 219.419 440.84 217.999C443.241 216.564 446.096 215.847 449.406 215.847C452.261 215.847 454.761 216.365 456.906 217.402C459.05 218.439 460.748 219.895 461.998 221.77C463.248 223.645 463.937 225.847 464.065 228.375H455.499C455.258 226.741 454.619 225.428 453.582 224.433C452.559 223.425 451.217 222.92 449.555 222.92C448.148 222.92 446.92 223.304 445.869 224.071C444.832 224.824 444.022 225.925 443.44 227.374C442.857 228.822 442.566 230.577 442.566 232.636C442.566 234.724 442.85 236.5 443.418 237.963C444.001 239.426 444.817 240.541 445.869 241.308C446.92 242.075 448.148 242.459 449.555 242.459C450.592 242.459 451.522 242.246 452.346 241.82C453.184 241.393 453.873 240.776 454.413 239.966C454.967 239.142 455.329 238.155 455.499 237.004H464.065C463.923 239.504 463.241 241.706 462.019 243.609C460.812 245.499 459.143 246.976 457.012 248.041C454.881 249.107 452.36 249.639 449.448 249.639ZM487.284 216.273V223.091H467.575V216.273H487.284ZM472.049 208.432H481.126V238.943C481.126 239.781 481.254 240.435 481.51 240.903C481.765 241.358 482.12 241.678 482.575 241.862C483.044 242.047 483.583 242.139 484.194 242.139C484.62 242.139 485.047 242.104 485.473 242.033C485.899 241.947 486.225 241.884 486.453 241.841L487.88 248.595C487.426 248.737 486.787 248.901 485.963 249.085C485.139 249.284 484.137 249.405 482.958 249.447C480.771 249.533 478.853 249.241 477.206 248.574C475.572 247.906 474.301 246.869 473.392 245.463C472.483 244.057 472.035 242.281 472.049 240.136V208.432ZM493.196 249V216.273H502.273V249H493.196ZM497.756 212.054C496.407 212.054 495.249 211.607 494.283 210.712C493.331 209.803 492.855 208.716 492.855 207.452C492.855 206.202 493.331 205.129 494.283 204.234C495.249 203.325 496.407 202.871 497.756 202.871C499.105 202.871 500.256 203.325 501.208 204.234C502.174 205.129 502.657 206.202 502.657 207.452C502.657 208.716 502.174 209.803 501.208 210.712C500.256 211.607 499.105 212.054 497.756 212.054ZM540.055 216.273L528.614 249H518.386L506.945 216.273H516.533L523.33 239.689H523.67L530.446 216.273H540.055ZM558.433 249.639C555.123 249.639 552.261 248.936 549.846 247.53C547.445 246.109 545.592 244.135 544.285 241.607C542.978 239.064 542.325 236.116 542.325 232.764C542.325 229.384 542.978 226.429 544.285 223.901C545.592 221.358 547.445 219.384 549.846 217.977C552.261 216.557 555.123 215.847 558.433 215.847C561.742 215.847 564.597 216.557 566.998 217.977C569.413 219.384 571.273 221.358 572.58 223.901C573.887 226.429 574.54 229.384 574.54 232.764C574.54 236.116 573.887 239.064 572.58 241.607C571.273 244.135 569.413 246.109 566.998 247.53C564.597 248.936 561.742 249.639 558.433 249.639ZM558.475 242.608C559.981 242.608 561.238 242.182 562.246 241.33C563.255 240.463 564.015 239.284 564.526 237.793C565.052 236.301 565.315 234.604 565.315 232.7C565.315 230.797 565.052 229.099 564.526 227.608C564.015 226.116 563.255 224.937 562.246 224.071C561.238 223.205 559.981 222.771 558.475 222.771C556.955 222.771 555.677 223.205 554.64 224.071C553.617 224.937 552.843 226.116 552.317 227.608C551.806 229.099 551.55 230.797 551.55 232.7C551.55 234.604 551.806 236.301 552.317 237.793C552.843 239.284 553.617 240.463 554.64 241.33C555.677 242.182 556.955 242.608 558.475 242.608ZM607.673 225.605L599.363 226.116C599.221 225.406 598.915 224.767 598.447 224.199C597.978 223.616 597.36 223.155 596.593 222.814C595.84 222.459 594.938 222.281 593.887 222.281C592.481 222.281 591.295 222.58 590.329 223.176C589.363 223.759 588.88 224.54 588.88 225.52C588.88 226.301 589.192 226.962 589.817 227.501C590.442 228.041 591.515 228.474 593.035 228.801L598.958 229.994C602.14 230.648 604.512 231.699 606.075 233.148C607.637 234.597 608.418 236.5 608.418 238.858C608.418 241.003 607.786 242.885 606.522 244.504C605.272 246.124 603.553 247.388 601.366 248.297C599.192 249.192 596.685 249.639 593.844 249.639C589.512 249.639 586.06 248.737 583.489 246.933C580.933 245.115 579.434 242.643 578.994 239.518L587.921 239.05C588.191 240.371 588.844 241.379 589.881 242.075C590.918 242.757 592.246 243.098 593.866 243.098C595.457 243.098 596.735 242.793 597.701 242.182C598.681 241.557 599.178 240.754 599.192 239.774C599.178 238.95 598.83 238.276 598.148 237.75C597.467 237.21 596.415 236.798 594.995 236.514L589.327 235.385C586.131 234.746 583.752 233.638 582.19 232.061C580.641 230.484 579.867 228.474 579.867 226.031C579.867 223.929 580.435 222.118 581.572 220.598C582.722 219.078 584.335 217.906 586.408 217.082C588.496 216.259 590.94 215.847 593.738 215.847C597.871 215.847 601.124 216.72 603.496 218.467C605.883 220.214 607.275 222.594 607.673 225.605Z" fill="white"/>
<path d="M114.883 262V65.6364H192.355C207.184 65.6364 219.841 68.2891 230.324 73.5945C240.87 78.8359 248.892 86.2827 254.39 95.9347C259.951 105.523 262.731 116.805 262.731 129.781C262.731 142.82 259.919 154.038 254.294 163.435C248.669 172.767 240.519 179.926 229.844 184.912C219.233 189.898 206.385 192.391 191.3 192.391H139.429V159.024H184.588C192.515 159.024 199.098 157.937 204.34 155.764C209.581 153.591 213.48 150.331 216.037 145.984C218.658 141.638 219.968 136.237 219.968 129.781C219.968 123.261 218.658 117.763 216.037 113.289C213.48 108.815 209.549 105.427 204.244 103.126C199.002 100.761 192.387 99.5781 184.397 99.5781H156.4V262H114.883ZM220.927 172.639L269.73 262H223.9L176.151 172.639H220.927Z" fill="#F2A001"/>
<path d="M292.071 262V65.6364H370.693C385.139 65.6364 397.188 67.7777 406.84 72.0604C416.492 76.343 423.747 82.2876 428.605 89.8942C433.463 97.4368 435.892 106.13 435.892 115.974C435.892 123.644 434.358 130.388 431.289 136.205C428.221 141.957 424.002 146.687 418.633 150.395C413.328 154.038 407.255 156.627 400.416 158.161V160.079C407.895 160.398 414.894 162.508 421.414 166.407C427.998 170.306 433.335 175.771 437.426 182.803C441.517 189.77 443.562 198.08 443.562 207.732C443.562 218.151 440.973 227.451 435.796 235.633C430.682 243.751 423.108 250.175 413.072 254.905C403.037 259.635 390.668 262 375.966 262H292.071ZM333.587 228.058H367.433C379.002 228.058 387.44 225.853 392.745 221.442C398.051 216.968 400.703 211.023 400.703 203.609C400.703 198.175 399.393 193.381 396.772 189.227C394.152 185.072 390.412 181.812 385.554 179.447C380.76 177.082 375.039 175.899 368.392 175.899H333.587V228.058ZM333.587 147.806H364.365C370.054 147.806 375.103 146.815 379.514 144.834C383.988 142.788 387.504 139.912 390.061 136.205C392.681 132.497 393.992 128.055 393.992 122.877C393.992 115.782 391.467 110.061 386.417 105.714C381.431 101.368 374.336 99.1946 365.132 99.1946H333.587V147.806Z" fill="#FCC045"/>
<path d="M512.093 65.6364V262H470.577V65.6364H512.093Z" fill="#DE8917"/>
</svg>
