<svg width="465" height="491" viewBox="0 0 465 491" fill="none" xmlns="http://www.w3.org/2000/svg">
<rect x="2" y="384.423" width="104.577" height="104.577" rx="28" fill="#FF0000" stroke="white" stroke-width="4"/>
<rect x="241.254" y="2" width="104.577" height="104.577" rx="28" fill="#03BF9C" stroke="white" stroke-width="4"/>
<rect x="239.333" y="384.423" width="104.577" height="104.577" rx="28" fill="#FF0000" stroke="white" stroke-width="4"/>
<rect x="120.186" y="266.237" width="105.538" height="104.577" rx="28" fill="#FCC045" stroke="white" stroke-width="4"/>
<rect x="241.254" y="142.286" width="104.577" height="104.577" rx="28" fill="#008CE3" stroke="white" stroke-width="4"/>
<rect x="357.519" y="266.237" width="104.577" height="104.577" rx="28" fill="#FCC045" stroke="white" stroke-width="4"/>
<line x1="100.346" y1="393.597" x2="127.25" y2="362.849" stroke="white" stroke-width="4"/>
<line x1="212.858" y1="268.588" x2="246.488" y2="234.958" stroke="white" stroke-width="4"/>
<line x1="295.867" y1="140.286" x2="295.867" y2="106.656" stroke="white" stroke-width="4"/>
<line x1="246.592" y1="390.66" x2="217.767" y2="365.678" stroke="white" stroke-width="4"/>
<line x1="367.516" y1="274.257" x2="335.807" y2="240.626" stroke="white" stroke-width="4"/>
<path d="M71.6217 432.241H62.2894C62.1189 431.034 61.7709 429.962 61.2453 429.024C60.7198 428.072 60.045 427.263 59.2212 426.595C58.3973 425.927 57.4456 425.416 56.3661 425.061C55.3007 424.706 54.1431 424.528 52.8931 424.528C50.6345 424.528 48.6672 425.089 46.9911 426.212C45.3149 427.32 44.0152 428.939 43.0919 431.07C42.1686 433.186 41.707 435.757 41.707 438.783C41.707 441.893 42.1686 444.507 43.0919 446.623C44.0294 448.74 45.3362 450.338 47.0124 451.418C48.6885 452.497 50.6274 453.037 52.8291 453.037C54.0649 453.037 55.2084 452.873 56.2595 452.547C57.3249 452.22 58.2695 451.744 59.0933 451.119C59.9172 450.48 60.599 449.706 61.1388 448.797C61.6928 447.888 62.0763 446.851 62.2894 445.686L71.6217 445.729C71.3803 447.731 70.7766 449.663 69.8107 451.524C68.859 453.371 67.5734 455.025 65.9541 456.489C64.349 457.937 62.4314 459.088 60.2013 459.94C57.9854 460.778 55.4783 461.197 52.68 461.197C48.7879 461.197 45.3078 460.317 42.2396 458.555C39.1857 456.794 36.7709 454.244 34.9953 450.906C33.234 447.568 32.3533 443.527 32.3533 438.783C32.3533 434.024 33.2482 429.976 35.0379 426.638C36.8277 423.3 39.2567 420.757 42.3249 419.01C45.3931 417.248 48.8448 416.368 52.68 416.368C55.2084 416.368 57.5521 416.723 59.7112 417.433C61.8845 418.143 63.8092 419.18 65.4854 420.544C67.1615 421.893 68.5252 423.548 69.5763 425.508C70.6416 427.469 71.3234 429.713 71.6217 432.241Z" fill="white"/>
<path d="M309.916 432.241H300.583C300.413 431.034 300.065 429.962 299.539 429.024C299.014 428.072 298.339 427.263 297.515 426.595C296.691 425.927 295.74 425.416 294.66 425.061C293.595 424.706 292.437 424.528 291.187 424.528C288.928 424.528 286.961 425.089 285.285 426.212C283.609 427.32 282.309 428.939 281.386 431.07C280.463 433.186 280.001 435.757 280.001 438.783C280.001 441.893 280.463 444.507 281.386 446.623C282.323 448.74 283.63 450.338 285.306 451.418C286.982 452.497 288.921 453.037 291.123 453.037C292.359 453.037 293.502 452.873 294.553 452.547C295.619 452.22 296.563 451.744 297.387 451.119C298.211 450.48 298.893 449.706 299.433 448.797C299.987 447.888 300.37 446.851 300.583 445.686L309.916 445.729C309.674 447.731 309.071 449.663 308.105 451.524C307.153 453.371 305.867 455.025 304.248 456.489C302.643 457.937 300.725 459.088 298.495 459.94C296.279 460.778 293.772 461.197 290.974 461.197C287.082 461.197 283.602 460.317 280.534 458.555C277.48 456.794 275.065 454.244 273.289 450.906C271.528 447.568 270.647 443.527 270.647 438.783C270.647 434.024 271.542 429.976 273.332 426.638C275.122 423.3 277.551 420.757 280.619 419.01C283.687 417.248 287.139 416.368 290.974 416.368C293.502 416.368 295.846 416.723 298.005 417.433C300.178 418.143 302.103 419.18 303.779 420.544C305.455 421.893 306.819 423.548 307.87 425.508C308.936 427.469 309.617 429.713 309.916 432.241Z" fill="white"/>
<path d="M157.06 341.454V297.818H174.276C177.572 297.818 180.384 298.407 182.714 299.586C185.057 300.751 186.84 302.406 188.062 304.551C189.297 306.681 189.915 309.188 189.915 312.072C189.915 314.97 189.29 317.463 188.04 319.551C186.79 321.624 184.979 323.215 182.607 324.323C180.249 325.431 177.394 325.985 174.042 325.985H162.515V318.57H172.55C174.312 318.57 175.775 318.329 176.94 317.846C178.104 317.363 178.971 316.639 179.539 315.673C180.121 314.707 180.413 313.507 180.413 312.072C180.413 310.623 180.121 309.401 179.539 308.407C178.971 307.413 178.097 306.66 176.918 306.149C175.753 305.623 174.283 305.36 172.508 305.36H166.286V341.454H157.06ZM180.626 321.596L191.471 341.454H181.286L170.675 321.596H180.626Z" fill="white"/>
<path d="M393.432 341.454V297.818H410.648C413.943 297.818 416.756 298.407 419.085 299.586C421.429 300.751 423.212 302.406 424.433 304.551C425.669 306.681 426.287 309.188 426.287 312.072C426.287 314.97 425.662 317.463 424.412 319.551C423.162 321.624 421.351 323.215 418.979 324.323C416.621 325.431 413.766 325.985 410.413 325.985H398.886V318.57H408.922C410.683 318.57 412.146 318.329 413.311 317.846C414.476 317.363 415.342 316.639 415.911 315.673C416.493 314.707 416.784 313.507 416.784 312.072C416.784 310.623 416.493 309.401 415.911 308.407C415.342 307.413 414.469 306.66 413.29 306.149C412.125 305.623 410.655 305.36 408.879 305.36H402.658V341.454H393.432ZM416.997 321.596L427.842 341.454H417.658L407.047 321.596H416.997Z" fill="white"/>
<path d="M269.404 173.867H280.782L292.799 203.185H293.31L305.327 173.867H316.705V217.503H307.756V189.101H307.394L296.101 217.29H290.008L278.715 188.994H278.353V217.503H269.404V173.867Z" fill="white"/>
<path d="M279.306 79.1389V35.5026H308.198V43.1091H288.532V53.5068H306.281V61.1133H288.532V79.1389H279.306Z" fill="white"/>
</svg>
