<svg width="2232" height="2356" xmlns="http://www.w3.org/2000/svg" xmlns:xlink="http://www.w3.org/1999/xlink" xml:space="preserve" overflow="hidden"><g transform="translate(-64 -64)"><g><rect x="316.5" y="473.5" width="1725" height="217" stroke="#BFBFBF" stroke-width="4.58333" stroke-linecap="butt" stroke-linejoin="round" stroke-miterlimit="10" stroke-opacity="1" fill="#D9D9D9" fill-opacity="1"/><path d="M888.5 895 1176.5 799.5 1464.5 895 1176.5 990.5Z" stroke="#000000" stroke-width="4.58333" stroke-linecap="butt" stroke-linejoin="miter" stroke-miterlimit="8" stroke-opacity="1" fill="#333F50" fill-rule="evenodd" fill-opacity="1"/><text fill="#FFFFFF" fill-opacity="1" font-family="Arial,Arial_MSFontService,sans-serif" font-style="normal" font-variant="normal" font-weight="700" font-stretch="normal" font-size="32" text-anchor="start" direction="ltr" writing-mode="lr-tb" unicode-bidi="normal" text-decoration="none" transform="matrix(1 0 0 1 1103.51 887)">¿EQUIPO </text><text fill="#FFFFFF" fill-opacity="1" font-family="Arial,Arial_MSFontService,sans-serif" font-style="normal" font-variant="normal" font-weight="700" font-stretch="normal" font-size="32" text-anchor="start" direction="ltr" writing-mode="lr-tb" unicode-bidi="normal" text-decoration="none" transform="matrix(1 0 0 1 1100.08 926)">CRÍTICO?</text><rect x="682.5" y="847.5" width="123" height="95.0002" stroke="#172C51" stroke-width="4.58333" stroke-linecap="butt" stroke-linejoin="miter" stroke-miterlimit="8" stroke-opacity="1" fill="#FF0000" fill-opacity="1"/><text fill="#FFFFFF" fill-opacity="1" font-family="Arial,Arial_MSFontService,sans-serif" font-style="normal" font-variant="normal" font-weight="400" font-stretch="normal" font-size="41" text-anchor="start" direction="ltr" writing-mode="lr-tb" unicode-bidi="normal" text-decoration="none" transform="matrix(1 0 0 1 723.884 910)">SI</text><rect x="1556.5" y="847.5" width="123" height="95.0002" stroke="#172C51" stroke-width="4.58333" stroke-linecap="butt" stroke-linejoin="miter" stroke-miterlimit="8" stroke-opacity="1" fill="#00B050" fill-opacity="1"/><text fill="#FFFFFF" fill-opacity="1" font-family="Arial,Arial_MSFontService,sans-serif" font-style="normal" font-variant="normal" font-weight="400" font-stretch="normal" font-size="37" text-anchor="start" direction="ltr" writing-mode="lr-tb" unicode-bidi="normal" text-decoration="none" transform="matrix(1 0 0 1 1589.91 909)">NO</text><path d="M2.25726e-05-5.15625 56.6574-5.156 56.6574 5.1565-2.25726e-05 5.15625ZM51.5012-15.4685 82.4386 0.000360892 51.5011 15.469Z" fill="#000000" fill-rule="nonzero" fill-opacity="1" transform="matrix(-1 0 0 1 887.439 895)"/><path d="M0.0698004-5.15578 35.3359-4.67834 35.1963 5.63322-0.0698004 5.15578ZM30.3197-15.0597 61.0449 0.826444 29.9009 15.875Z" fill="#000000" fill-rule="nonzero" fill-opacity="1" transform="matrix(1 0 0 -1 719 580.826)"/><rect x="560.5" y="1141.5" width="366" height="169" stroke="#BFBFBF" stroke-width="4.58333" stroke-linecap="butt" stroke-linejoin="round" stroke-miterlimit="10" stroke-opacity="1" fill="#F2F2F2" fill-opacity="1"/><text fill="#000000" fill-opacity="1" font-family="Arial,Arial_MSFontService,sans-serif" font-style="normal" font-variant="normal" font-weight="700" font-stretch="normal" font-size="32" text-anchor="start" direction="ltr" writing-mode="lr-tb" unicode-bidi="normal" text-decoration="none" transform="matrix(1 0 0 1 576.733 1199)">ANÁLISIS DE MODOS </text><text fill="#000000" fill-opacity="1" font-family="Arial,Arial_MSFontService,sans-serif" font-style="normal" font-variant="normal" font-weight="700" font-stretch="normal" font-size="32" text-anchor="start" direction="ltr" writing-mode="lr-tb" unicode-bidi="normal" text-decoration="none" transform="matrix(1 0 0 1 664.389 1238)">DE FALLA </text><text fill="#000000" fill-opacity="1" font-family="Arial,Arial_MSFontService,sans-serif" font-style="normal" font-variant="normal" font-weight="700" font-stretch="normal" font-size="32" text-anchor="start" direction="ltr" writing-mode="lr-tb" unicode-bidi="normal" text-decoration="none" transform="matrix(1 0 0 1 635.743 1276)">DOMINANTES</text><path d="M1499.5 1197.5 1619.5 1102.5 1739.5 1197.5 1619.5 1292.5Z" stroke="#000000" stroke-width="4.58333" stroke-linecap="butt" stroke-linejoin="miter" stroke-miterlimit="8" stroke-opacity="1" fill="#333F50" fill-rule="evenodd" fill-opacity="1"/><text fill="#FFFFFF" fill-opacity="1" font-family="Arial,Arial_MSFontService,sans-serif" font-style="normal" font-variant="normal" font-weight="700" font-stretch="normal" font-size="28" text-anchor="start" direction="ltr" writing-mode="lr-tb" unicode-bidi="normal" text-decoration="none" transform="matrix(1 0 0 1 1575.83 1207)">¿RTF?</text><rect x="1825.5" y="1150.5" width="124" height="94.9999" stroke="#172C51" stroke-width="4.58333" stroke-linecap="butt" stroke-linejoin="miter" stroke-miterlimit="8" stroke-opacity="1" fill="#FF0000" fill-opacity="1"/><text fill="#FFFFFF" fill-opacity="1" font-family="Arial,Arial_MSFontService,sans-serif" font-style="normal" font-variant="normal" font-weight="400" font-stretch="normal" font-size="41" text-anchor="start" direction="ltr" writing-mode="lr-tb" unicode-bidi="normal" text-decoration="none" transform="matrix(1 0 0 1 1867.55 1213)">SI</text><rect x="1287.5" y="1147.5" width="124" height="95.9999" stroke="#172C51" stroke-width="4.58333" stroke-linecap="butt" stroke-linejoin="miter" stroke-miterlimit="8" stroke-opacity="1" fill="#00B050" fill-opacity="1"/><text fill="#FFFFFF" fill-opacity="1" font-family="Arial,Arial_MSFontService,sans-serif" font-style="normal" font-variant="normal" font-weight="400" font-stretch="normal" font-size="37" text-anchor="start" direction="ltr" writing-mode="lr-tb" unicode-bidi="normal" text-decoration="none" transform="matrix(1 0 0 1 1321.58 1209)">NO</text><path d="M5.15625-0.0051587 5.32931 172.971-4.98319 172.981-5.15625 0.0051587ZM15.6366 167.804 0.198852 198.757-15.3008 167.835Z" fill="#000000" fill-rule="nonzero" fill-opacity="1" transform="matrix(-1 0 0 1 743.199 942)"/><rect x="560.5" y="1379.5" width="366" height="169" stroke="#BFBFBF" stroke-width="4.58333" stroke-linecap="butt" stroke-linejoin="round" stroke-miterlimit="10" stroke-opacity="1" fill="#F2F2F2" fill-opacity="1"/><text fill="#000000" fill-opacity="1" font-family="Arial,Arial_MSFontService,sans-serif" font-style="normal" font-variant="normal" font-weight="700" font-stretch="normal" font-size="32" text-anchor="start" direction="ltr" writing-mode="lr-tb" unicode-bidi="normal" text-decoration="none" transform="matrix(1 0 0 1 586.759 1437)">IDENTIFICACIÓN DE </text><text fill="#000000" fill-opacity="1" font-family="Arial,Arial_MSFontService,sans-serif" font-style="normal" font-variant="normal" font-weight="700" font-stretch="normal" font-size="32" text-anchor="start" direction="ltr" writing-mode="lr-tb" unicode-bidi="normal" text-decoration="none" transform="matrix(1 0 0 1 651.201 1476)">TAREAS DE </text><text fill="#000000" fill-opacity="1" font-family="Arial,Arial_MSFontService,sans-serif" font-style="normal" font-variant="normal" font-weight="700" font-stretch="normal" font-size="32" text-anchor="start" direction="ltr" writing-mode="lr-tb" unicode-bidi="normal" text-decoration="none" transform="matrix(1 0 0 1 646.617 1514)">MITIGACIÓN</text><path d="M748.156 1310 748.156 1353.74 737.844 1353.75 737.844 1310ZM758.469 1348.59 743 1379.53 727.531 1348.59Z" fill="#000000" fill-rule="nonzero" fill-opacity="1"/><path d="M748.156 1548 748.156 1635.44 737.844 1635.44 737.844 1548ZM758.469 1630.28 743 1661.22 727.531 1630.28Z" fill="#000000" fill-rule="nonzero" fill-opacity="1"/><rect x="67.4999" y="1674.5" width="366" height="106" stroke="#BFBFBF" stroke-width="4.58333" stroke-linecap="butt" stroke-linejoin="round" stroke-miterlimit="10" stroke-opacity="1" fill="#F2F2F2" fill-opacity="1"/><text fill="#000000" fill-opacity="1" font-family="Arial,Arial_MSFontService,sans-serif" font-style="normal" font-variant="normal" font-weight="700" font-stretch="normal" font-size="32" text-anchor="start" direction="ltr" writing-mode="lr-tb" unicode-bidi="normal" text-decoration="none" transform="matrix(1 0 0 1 156.078 1739)">PM ACTUAL</text><rect x="560.5" y="1661.5" width="366" height="137" stroke="#BFBFBF" stroke-width="4.58333" stroke-linecap="butt" stroke-linejoin="round" stroke-miterlimit="10" stroke-opacity="1" fill="#F2F2F2" fill-opacity="1"/><text fill="#000000" fill-opacity="1" font-family="Arial,Arial_MSFontService,sans-serif" font-style="normal" font-variant="normal" font-weight="700" font-stretch="normal" font-size="32" text-anchor="start" direction="ltr" writing-mode="lr-tb" unicode-bidi="normal" text-decoration="none" transform="matrix(1 0 0 1 630.301 1722)">CRITERIO DEL </text><text fill="#000000" fill-opacity="1" font-family="Arial,Arial_MSFontService,sans-serif" font-style="normal" font-variant="normal" font-weight="700" font-stretch="normal" font-size="32" text-anchor="start" direction="ltr" writing-mode="lr-tb" unicode-bidi="normal" text-decoration="none" transform="matrix(1 0 0 1 642.034 1761)">CONSULTOR</text><path d="M5.15625-2.25848e-06 5.1566 798.157-5.1559 798.157-5.15625 2.25848e-06ZM15.4691 793.001 0.000360892 823.939-15.4684 793.001Z" fill="#000000" fill-rule="nonzero" fill-opacity="1" transform="matrix(-1 0 0 1 1887 1245)"/><path d="M2.25726e-05-5.15625 56.6574-5.156 56.6574 5.1565-2.25726e-05 5.15625ZM51.5012-15.4685 82.4386 0.000360892 51.5011 15.469Z" fill="#000000" fill-rule="nonzero" fill-opacity="1" transform="matrix(-1 0 0 1 1496.44 1197)"/><path d="M1739.04 1191.84 1799.26 1192.28 1799.19 1202.59 1738.96 1202.16ZM1794.18 1181.93 1825.01 1197.62 1793.96 1212.87Z" fill="#000000" fill-rule="nonzero" fill-opacity="1"/><rect x="71.5" y="1800.5" width="365" height="106" stroke="#BFBFBF" stroke-width="4.58333" stroke-linecap="butt" stroke-linejoin="round" stroke-miterlimit="10" stroke-opacity="1" fill="#F2F2F2" fill-opacity="1"/><text fill="#000000" fill-opacity="1" font-family="Arial,Arial_MSFontService,sans-serif" font-style="normal" font-variant="normal" font-weight="700" font-stretch="normal" font-size="32" text-anchor="start" direction="ltr" writing-mode="lr-tb" unicode-bidi="normal" text-decoration="none" transform="matrix(1 0 0 1 139.5 1865)">PM GENÉRICO</text><path d="M1622.16 941.946 1623.56 1075.31 1613.25 1075.42 1611.84 942.054ZM1633.82 1070.04 1618.67 1101.14 1602.88 1070.37Z" fill="#000000" fill-rule="nonzero" fill-opacity="1"/><path d="M0-5.15625 70.7618-5.15625 70.7618 126.372 65.6055 121.215 105.43 121.215 105.43 131.528 60.4493 131.528 60.4493 0 65.6055 5.15625 0 5.15625ZM100.274 110.903 131.211 126.372 100.274 141.84Z" fill="#000000" fill-rule="nonzero" fill-opacity="1" transform="matrix(1 0 0 -1 429 1856.37)"/><rect x="354.5" y="497.5" width="365" height="169" stroke="#BFBFBF" stroke-width="4.58333" stroke-linecap="butt" stroke-linejoin="round" stroke-miterlimit="10" stroke-opacity="1" fill="#F2F2F2" fill-opacity="1"/><text fill="#000000" fill-opacity="1" font-family="Arial,Arial_MSFontService,sans-serif" font-style="normal" font-variant="normal" font-weight="700" font-stretch="normal" font-size="32" text-anchor="start" direction="ltr" writing-mode="lr-tb" unicode-bidi="normal" text-decoration="none" transform="matrix(1 0 0 1 463.695 574)">FUNCIÓN</text><text fill="#000000" fill-opacity="1" font-family="Arial,Arial_MSFontService,sans-serif" font-style="normal" font-variant="normal" font-weight="700" font-stretch="normal" font-size="32" text-anchor="start" direction="ltr" writing-mode="lr-tb" unicode-bidi="normal" text-decoration="none" transform="matrix(1 0 0 1 436.768 613)">DE EQUIPOS</text><rect x="780.5" y="496.5" width="366" height="169" stroke="#BFBFBF" stroke-width="4.58333" stroke-linecap="butt" stroke-linejoin="round" stroke-miterlimit="10" stroke-opacity="1" fill="#F2F2F2" fill-opacity="1"/><text fill="#000000" fill-opacity="1" font-family="Arial,Arial_MSFontService,sans-serif" font-style="normal" font-variant="normal" font-weight="700" font-stretch="normal" font-size="32" text-anchor="start" direction="ltr" writing-mode="lr-tb" unicode-bidi="normal" text-decoration="none" transform="matrix(1 0 0 1 900.147 573)">FALLAS </text><text fill="#000000" fill-opacity="1" font-family="Arial,Arial_MSFontService,sans-serif" font-style="normal" font-variant="normal" font-weight="700" font-stretch="normal" font-size="32" text-anchor="start" direction="ltr" writing-mode="lr-tb" unicode-bidi="normal" text-decoration="none" transform="matrix(1 0 0 1 847.736 612)">FUNCIONALES</text><rect x="812.5" y="248.5" width="691" height="137" stroke="#BFBFBF" stroke-width="4.58333" stroke-linecap="butt" stroke-linejoin="round" stroke-miterlimit="10" stroke-opacity="1" fill="#0000FF" fill-opacity="1"/><text fill="#FFFFFF" fill-opacity="1" font-family="Arial,Arial_MSFontService,sans-serif" font-style="normal" font-variant="normal" font-weight="700" font-stretch="normal" font-size="32" text-anchor="start" direction="ltr" writing-mode="lr-tb" unicode-bidi="normal" text-decoration="none" transform="matrix(1 0 0 1 854.343 328)">ANÁLISIS DEL CONTEXTO OPERATIVO</text><path d="M1162.12 385 1162.12 446.123 536 446.123 541.156 440.967 541.156 471.152 530.844 471.152 530.844 435.811 1156.96 435.811 1151.8 440.967 1151.8 385ZM551.469 465.995 536 496.933 520.531 465.995Z" fill="#000000" fill-rule="nonzero" fill-opacity="1"/><path d="M1146.02 582.844 1191.33 583.019 1191.29 593.332 1145.98 593.156ZM1186.21 572.687 1217.09 588.276 1186.09 603.624Z" fill="#000000" fill-rule="nonzero" fill-opacity="1"/><path d="M1830.66 665 1830.66 737.507 1176 737.507 1181.16 732.351 1181.16 773.92 1170.84 773.92 1170.84 727.195 1825.5 727.195 1820.34 732.351 1820.34 665ZM1191.47 768.764 1176 799.701 1160.53 768.764Z" fill="#000000" fill-rule="nonzero" fill-opacity="1"/><rect x="1216.5" y="493.5" width="365" height="172" stroke="#BFBFBF" stroke-width="4.58333" stroke-linecap="butt" stroke-linejoin="round" stroke-miterlimit="10" stroke-opacity="1" fill="#F2F2F2" fill-opacity="1"/><text fill="#000000" fill-opacity="1" font-family="Arial,Arial_MSFontService,sans-serif" font-style="normal" font-variant="normal" font-weight="700" font-stretch="normal" font-size="32" text-anchor="start" direction="ltr" writing-mode="lr-tb" unicode-bidi="normal" text-decoration="none" transform="matrix(1 0 0 1 1267.85 572)">FRECUENCIA DE </text><text fill="#000000" fill-opacity="1" font-family="Arial,Arial_MSFontService,sans-serif" font-style="normal" font-variant="normal" font-weight="700" font-stretch="normal" font-size="32" text-anchor="start" direction="ltr" writing-mode="lr-tb" unicode-bidi="normal" text-decoration="none" transform="matrix(1 0 0 1 1346.64 611)">FALLA</text><rect x="1643.5" y="493.5" width="365" height="172" stroke="#BFBFBF" stroke-width="4.58333" stroke-linecap="butt" stroke-linejoin="round" stroke-miterlimit="10" stroke-opacity="1" fill="#F2F2F2" fill-opacity="1"/><text fill="#000000" fill-opacity="1" font-family="Arial,Arial_MSFontService,sans-serif" font-style="normal" font-variant="normal" font-weight="700" font-stretch="normal" font-size="32" text-anchor="start" direction="ltr" writing-mode="lr-tb" unicode-bidi="normal" text-decoration="none" transform="matrix(1 0 0 1 1674.24 552)">EFECTO SOBRE EL </text><text fill="#000000" fill-opacity="1" font-family="Arial,Arial_MSFontService,sans-serif" font-style="normal" font-variant="normal" font-weight="700" font-stretch="normal" font-size="32" text-anchor="start" direction="ltr" writing-mode="lr-tb" unicode-bidi="normal" text-decoration="none" transform="matrix(1 0 0 1 1754.17 591)">SISTEMA</text><text fill="#000000" fill-opacity="1" font-family="Arial,Arial_MSFontService,sans-serif" font-style="normal" font-variant="normal" font-weight="700" font-stretch="normal" font-size="32" text-anchor="start" direction="ltr" writing-mode="lr-tb" unicode-bidi="normal" text-decoration="none" transform="matrix(1 0 0 1 1685.12 629)">(CONSECUENCIA)</text><path d="M1581 573.844 1616.26 573.844 1616.26 584.156 1581 584.156ZM1611.11 563.531 1642.05 579 1611.11 594.469Z" fill="#000000" fill-rule="nonzero" fill-opacity="1"/><path d="M2110.1 2119.31 2188.72 2119.31 2183.56 2124.46 2183.56 169.377 2188.72 174.533 1157 174.533 1162.16 169.377 1162.16 222.219 1151.84 222.219 1151.84 164.22 2193.87 164.22 2193.87 2129.62 2110.1 2129.62ZM1172.47 217.062 1157 248 1141.53 217.062Z" fill="#000000" fill-rule="nonzero" fill-opacity="1"/><rect x="386.5" y="2056.5" width="1725" height="137" stroke="#BFBFBF" stroke-width="4.58333" stroke-linecap="butt" stroke-linejoin="round" stroke-miterlimit="10" stroke-opacity="1" fill="#D9D9D9" fill-opacity="1"/><rect x="559.5" y="2072.5" width="365" height="106" stroke="#BFBFBF" stroke-width="4.58333" stroke-linecap="butt" stroke-linejoin="round" stroke-miterlimit="10" stroke-opacity="1" fill="#F2F2F2" fill-opacity="1"/><text fill="#000000" fill-opacity="1" font-family="Arial,Arial_MSFontService,sans-serif" font-style="normal" font-variant="normal" font-weight="700" font-stretch="normal" font-size="32" text-anchor="start" direction="ltr" writing-mode="lr-tb" unicode-bidi="normal" text-decoration="none" transform="matrix(1 0 0 1 656.116 2137)">PM NUEVO</text><path d="M5.15615-0.0317322 6.68178 247.867-3.63053 247.93-5.15615 0.0317322ZM16.9623 242.647 1.68428 273.679-13.9746 242.837Z" fill="#000000" fill-rule="nonzero" fill-opacity="1" transform="matrix(-1 0 0 1 742.684 1798)"/><rect x="1182.5" y="2069.5" width="335" height="106" stroke="#BFBFBF" stroke-width="4.58333" stroke-linecap="butt" stroke-linejoin="round" stroke-miterlimit="10" stroke-opacity="1" fill="#F2F2F2" fill-opacity="1"/><text fill="#000000" fill-opacity="1" font-family="Arial,Arial_MSFontService,sans-serif" font-style="normal" font-variant="normal" font-weight="700" font-stretch="normal" font-size="32" text-anchor="start" direction="ltr" writing-mode="lr-tb" unicode-bidi="normal" text-decoration="none" transform="matrix(1 0 0 1 1235.07 2134)">PM GENÉRICO</text><path d="M1354.16 1243 1354.16 2044.13 1343.84 2044.13 1343.84 1243ZM1364.47 2038.97 1349 2069.91 1333.53 2038.97Z" fill="#000000" fill-rule="nonzero" fill-opacity="1"/><rect x="1799.5" y="2069.5" width="176" height="106" stroke="#BFBFBF" stroke-width="4.58333" stroke-linecap="butt" stroke-linejoin="round" stroke-miterlimit="10" stroke-opacity="1" fill="#F2F2F2" fill-opacity="1"/><text fill="#000000" fill-opacity="1" font-family="Arial,Arial_MSFontService,sans-serif" font-style="normal" font-variant="normal" font-weight="700" font-stretch="normal" font-size="32" text-anchor="start" direction="ltr" writing-mode="lr-tb" unicode-bidi="normal" text-decoration="none" transform="matrix(1 0 0 1 1856.09 2134)">RTF</text><text fill="#000000" fill-opacity="1" font-family="Arial,Arial_MSFontService,sans-serif" font-style="normal" font-variant="normal" font-weight="400" font-stretch="normal" font-size="37" text-anchor="start" direction="ltr" writing-mode="lr-tb" unicode-bidi="normal" text-decoration="none" transform="matrix(-1.83697e-16 -1 1 -1.83697e-16 2265.06 1533)">INICIA  ANÁLISIS  DEL  SIGUIENTE  SISTEMA</text><text fill="#000000" fill-opacity="1" font-family="Arial,Arial_MSFontService,sans-serif" font-style="normal" font-variant="normal" font-weight="400" font-stretch="normal" font-size="37" text-anchor="start" direction="ltr" writing-mode="lr-tb" unicode-bidi="normal" text-decoration="none" transform="matrix(1 0 0 1 694.99 122)">ANÁLISIS PARA EL </text><text fill="#000000" fill-opacity="1" font-family="Arial,Arial_MSFontService,sans-serif" font-style="normal" font-variant="normal" font-weight="400" font-stretch="normal" font-size="37" text-anchor="start" direction="ltr" writing-mode="lr-tb" unicode-bidi="normal" text-decoration="none" transform="matrix(1 0 0 1 727.073 166)">SISTEMA NO. 1</text><path d="M1157 66 1157 214.185" stroke="#000000" stroke-width="10.3125" stroke-linecap="butt" stroke-linejoin="miter" stroke-miterlimit="8" stroke-opacity="1" fill="none" fill-rule="evenodd"/><rect x="741.5" y="2250.5" width="799" height="165" stroke="#BFBFBF" stroke-width="4.58333" stroke-linecap="butt" stroke-linejoin="round" stroke-miterlimit="10" stroke-opacity="1" fill="#000000" fill-opacity="1"/><text fill="#FFFFFF" fill-opacity="1" font-family="Arial,Arial_MSFontService,sans-serif" font-style="normal" font-variant="normal" font-weight="700" font-stretch="normal" font-size="41" text-anchor="start" direction="ltr" writing-mode="lr-tb" unicode-bidi="normal" text-decoration="none" transform="matrix(1 0 0 1 1000.96 2323)">GENERACIÓN </text><text fill="#FFFFFF" fill-opacity="1" font-family="Arial,Arial_MSFontService,sans-serif" font-style="normal" font-variant="normal" font-weight="700" font-stretch="normal" font-size="41" text-anchor="start" direction="ltr" writing-mode="lr-tb" unicode-bidi="normal" text-decoration="none" transform="matrix(1 0 0 1 947.103 2373)">TEMPLATES CMMS</text><path d="M1146.16 2197 1146.16 2224.55 1135.84 2224.55 1135.84 2197ZM1156.47 2219.4 1141 2250.34 1125.53 2219.4Z" fill="#000000" fill-rule="nonzero" fill-opacity="1"/><path d="M0.0193726-5.15621 105.45-4.7601 105.411 5.55233-0.0193726 5.15621ZM100.332-15.0919 131.211 0.492979 100.216 15.8454Z" fill="#000000" fill-rule="nonzero" fill-opacity="1" transform="matrix(1 0 0 -1 429 1730.49)"/><path d="M1464 889.844 1530.03 889.844 1530.03 900.157 1464 900.156ZM1524.87 879.532 1555.81 895 1524.87 910.469Z" fill="#000000" fill-rule="nonzero" fill-opacity="1"/></g></g></svg>